%TF.GenerationSoftware,KiCad,Pcbnew,(6.0.9)*%
%TF.CreationDate,2022-12-22T22:01:23+02:00*%
%TF.ProjectId,cross_band_handy_walkie_talkie_V1,63726f73-735f-4626-916e-645f68616e64,rev?*%
%TF.SameCoordinates,Original*%
%TF.FileFunction,Soldermask,Top*%
%TF.FilePolarity,Negative*%
%FSLAX46Y46*%
G04 Gerber Fmt 4.6, Leading zero omitted, Abs format (unit mm)*
G04 Created by KiCad (PCBNEW (6.0.9)) date 2022-12-22 22:01:23*
%MOMM*%
%LPD*%
G01*
G04 APERTURE LIST*
G04 Aperture macros list*
%AMRoundRect*
0 Rectangle with rounded corners*
0 $1 Rounding radius*
0 $2 $3 $4 $5 $6 $7 $8 $9 X,Y pos of 4 corners*
0 Add a 4 corners polygon primitive as box body*
4,1,4,$2,$3,$4,$5,$6,$7,$8,$9,$2,$3,0*
0 Add four circle primitives for the rounded corners*
1,1,$1+$1,$2,$3*
1,1,$1+$1,$4,$5*
1,1,$1+$1,$6,$7*
1,1,$1+$1,$8,$9*
0 Add four rect primitives between the rounded corners*
20,1,$1+$1,$2,$3,$4,$5,0*
20,1,$1+$1,$4,$5,$6,$7,0*
20,1,$1+$1,$6,$7,$8,$9,0*
20,1,$1+$1,$8,$9,$2,$3,0*%
G04 Aperture macros list end*
%ADD10RoundRect,0.150000X-0.512500X-0.150000X0.512500X-0.150000X0.512500X0.150000X-0.512500X0.150000X0*%
%ADD11R,1.700000X1.700000*%
%ADD12O,1.700000X1.700000*%
%ADD13C,5.600000*%
%ADD14C,3.600000*%
%ADD15RoundRect,0.237500X0.237500X-0.300000X0.237500X0.300000X-0.237500X0.300000X-0.237500X-0.300000X0*%
%ADD16RoundRect,0.250000X0.250000X0.475000X-0.250000X0.475000X-0.250000X-0.475000X0.250000X-0.475000X0*%
%ADD17R,1.500000X1.500000*%
%ADD18C,1.440000*%
%ADD19RoundRect,0.237500X-0.237500X0.250000X-0.237500X-0.250000X0.237500X-0.250000X0.237500X0.250000X0*%
%ADD20RoundRect,0.237500X-0.300000X-0.237500X0.300000X-0.237500X0.300000X0.237500X-0.300000X0.237500X0*%
%ADD21RoundRect,0.237500X0.300000X0.237500X-0.300000X0.237500X-0.300000X-0.237500X0.300000X-0.237500X0*%
%ADD22RoundRect,0.237500X0.237500X-0.250000X0.237500X0.250000X-0.237500X0.250000X-0.237500X-0.250000X0*%
%ADD23RoundRect,0.237500X-0.237500X0.300000X-0.237500X-0.300000X0.237500X-0.300000X0.237500X0.300000X0*%
%ADD24RoundRect,0.243750X0.243750X0.456250X-0.243750X0.456250X-0.243750X-0.456250X0.243750X-0.456250X0*%
%ADD25RoundRect,0.237500X-0.250000X-0.237500X0.250000X-0.237500X0.250000X0.237500X-0.250000X0.237500X0*%
%ADD26RoundRect,0.100000X0.637500X0.100000X-0.637500X0.100000X-0.637500X-0.100000X0.637500X-0.100000X0*%
%ADD27RoundRect,0.250000X0.475000X-0.250000X0.475000X0.250000X-0.475000X0.250000X-0.475000X-0.250000X0*%
%ADD28R,1.000000X0.700000*%
%ADD29RoundRect,0.150000X0.512500X0.150000X-0.512500X0.150000X-0.512500X-0.150000X0.512500X-0.150000X0*%
%ADD30RoundRect,0.243750X0.456250X-0.243750X0.456250X0.243750X-0.456250X0.243750X-0.456250X-0.243750X0*%
%ADD31RoundRect,0.150000X0.150000X-0.512500X0.150000X0.512500X-0.150000X0.512500X-0.150000X-0.512500X0*%
%ADD32RoundRect,0.225000X-0.525000X-0.225000X0.525000X-0.225000X0.525000X0.225000X-0.525000X0.225000X0*%
%ADD33RoundRect,0.150000X-0.150000X0.512500X-0.150000X-0.512500X0.150000X-0.512500X0.150000X0.512500X0*%
%ADD34R,2.000000X1.500000*%
%ADD35R,2.000000X3.800000*%
%ADD36RoundRect,0.250000X0.450000X-0.262500X0.450000X0.262500X-0.450000X0.262500X-0.450000X-0.262500X0*%
%ADD37C,1.000000*%
%ADD38C,2.050000*%
%ADD39C,2.250000*%
%ADD40RoundRect,0.250000X-0.250000X-0.475000X0.250000X-0.475000X0.250000X0.475000X-0.250000X0.475000X0*%
%ADD41RoundRect,0.150000X0.150000X-0.587500X0.150000X0.587500X-0.150000X0.587500X-0.150000X-0.587500X0*%
%ADD42RoundRect,0.150000X-0.150000X0.825000X-0.150000X-0.825000X0.150000X-0.825000X0.150000X0.825000X0*%
%ADD43R,3.300000X2.410000*%
%ADD44RoundRect,0.250000X-0.450000X0.262500X-0.450000X-0.262500X0.450000X-0.262500X0.450000X0.262500X0*%
%ADD45RoundRect,0.250000X-0.475000X0.250000X-0.475000X-0.250000X0.475000X-0.250000X0.475000X0.250000X0*%
%ADD46RoundRect,0.237500X0.250000X0.237500X-0.250000X0.237500X-0.250000X-0.237500X0.250000X-0.237500X0*%
%ADD47RoundRect,0.218750X-0.381250X0.218750X-0.381250X-0.218750X0.381250X-0.218750X0.381250X0.218750X0*%
%ADD48RoundRect,0.150000X-0.825000X-0.150000X0.825000X-0.150000X0.825000X0.150000X-0.825000X0.150000X0*%
%ADD49RoundRect,0.250000X-0.262500X-0.450000X0.262500X-0.450000X0.262500X0.450000X-0.262500X0.450000X0*%
%ADD50RoundRect,0.250000X0.450000X-0.350000X0.450000X0.350000X-0.450000X0.350000X-0.450000X-0.350000X0*%
%ADD51R,2.300000X1.000000*%
%ADD52R,1.000000X2.600000*%
%ADD53R,2.600000X1.000000*%
%ADD54R,1.000000X2.300000*%
%ADD55R,1.000000X1.000000*%
%ADD56RoundRect,0.150000X-0.150000X0.587500X-0.150000X-0.587500X0.150000X-0.587500X0.150000X0.587500X0*%
%ADD57C,0.650000*%
%ADD58R,0.600000X1.450000*%
%ADD59R,0.300000X1.450000*%
%ADD60O,1.000000X1.600000*%
%ADD61O,1.000000X2.100000*%
%ADD62R,0.700000X0.250000*%
%ADD63R,1.780000X2.350000*%
%ADD64C,0.610000*%
G04 APERTURE END LIST*
D10*
%TO.C,U5*%
X130312500Y-88750000D03*
X130312500Y-89700000D03*
X130312500Y-90650000D03*
X132587500Y-90650000D03*
X132587500Y-89700000D03*
X132587500Y-88750000D03*
%TD*%
D11*
%TO.C,J5*%
X73200000Y-95400000D03*
D12*
X70660000Y-95400000D03*
X68120000Y-95400000D03*
%TD*%
D13*
%TO.C,H2*%
X145000000Y-95000000D03*
D14*
X145000000Y-95000000D03*
%TD*%
D15*
%TO.C,C7*%
X128000000Y-62612500D03*
X128000000Y-60887500D03*
%TD*%
D11*
%TO.C,J3*%
X111600000Y-84800000D03*
D12*
X114140000Y-84800000D03*
X116680000Y-84800000D03*
%TD*%
D16*
%TO.C,C10*%
X83450000Y-59250000D03*
X81550000Y-59250000D03*
%TD*%
D17*
%TO.C,TP6*%
X86400000Y-71200000D03*
%TD*%
D18*
%TO.C,RV1*%
X113225000Y-78000000D03*
X115765000Y-75460000D03*
X118305000Y-78000000D03*
%TD*%
D19*
%TO.C,R2*%
X130250000Y-63337500D03*
X130250000Y-65162500D03*
%TD*%
D17*
%TO.C,TP1*%
X88400000Y-81000000D03*
%TD*%
D20*
%TO.C,C29*%
X118337500Y-89600000D03*
X120062500Y-89600000D03*
%TD*%
D19*
%TO.C,R4*%
X135250000Y-63337500D03*
X135250000Y-65162500D03*
%TD*%
D11*
%TO.C,J2*%
X99000000Y-94000000D03*
D12*
X101540000Y-94000000D03*
X104080000Y-94000000D03*
%TD*%
D21*
%TO.C,C28*%
X108662500Y-92600000D03*
X106937500Y-92600000D03*
%TD*%
D22*
%TO.C,R10*%
X128750000Y-75662500D03*
X128750000Y-73837500D03*
%TD*%
D13*
%TO.C,H3*%
X55000000Y-95000000D03*
D14*
X55000000Y-95000000D03*
%TD*%
D21*
%TO.C,C4*%
X138150000Y-79800000D03*
X136425000Y-79800000D03*
%TD*%
D10*
%TO.C,U11*%
X65562500Y-84400000D03*
X65562500Y-85350000D03*
X65562500Y-86300000D03*
X67837500Y-86300000D03*
X67837500Y-85350000D03*
X67837500Y-84400000D03*
%TD*%
D23*
%TO.C,C38*%
X69700000Y-85487500D03*
X69700000Y-87212500D03*
%TD*%
D21*
%TO.C,C6*%
X132362500Y-85200000D03*
X130637500Y-85200000D03*
%TD*%
%TO.C,C18*%
X76562500Y-72150000D03*
X74837500Y-72150000D03*
%TD*%
D11*
%TO.C,J7*%
X106600000Y-97600000D03*
D12*
X104060000Y-97600000D03*
X101520000Y-97600000D03*
X98980000Y-97600000D03*
%TD*%
D17*
%TO.C,TP7*%
X118400000Y-63800000D03*
%TD*%
D24*
%TO.C,D4*%
X118117500Y-60535000D03*
X116242500Y-60535000D03*
%TD*%
D25*
%TO.C,R1*%
X89827500Y-84800000D03*
X91652500Y-84800000D03*
%TD*%
D26*
%TO.C,U4*%
X124362500Y-70775000D03*
X124362500Y-70125000D03*
X124362500Y-69475000D03*
X124362500Y-68825000D03*
X124362500Y-68175000D03*
X124362500Y-67525000D03*
X124362500Y-66875000D03*
X124362500Y-66225000D03*
X118637500Y-66225000D03*
X118637500Y-66875000D03*
X118637500Y-67525000D03*
X118637500Y-68175000D03*
X118637500Y-68825000D03*
X118637500Y-69475000D03*
X118637500Y-70125000D03*
X118637500Y-70775000D03*
%TD*%
D27*
%TO.C,C3*%
X85500000Y-59950000D03*
X85500000Y-58050000D03*
%TD*%
D16*
%TO.C,C5*%
X138300000Y-77950000D03*
X136400000Y-77950000D03*
%TD*%
D15*
%TO.C,C20*%
X96400000Y-98125000D03*
X96400000Y-96400000D03*
%TD*%
%TO.C,C27*%
X114600000Y-82062500D03*
X114600000Y-80337500D03*
%TD*%
D28*
%TO.C,SW1*%
X128750000Y-58100000D03*
X134750000Y-58100000D03*
X128750000Y-54400000D03*
X134750000Y-54400000D03*
%TD*%
D19*
%TO.C,R20*%
X110400000Y-92487500D03*
X110400000Y-94312500D03*
%TD*%
D25*
%TO.C,R3*%
X93227500Y-84800000D03*
X95052500Y-84800000D03*
%TD*%
D29*
%TO.C,U8*%
X107387500Y-85700000D03*
X107387500Y-84750000D03*
X107387500Y-83800000D03*
X105112500Y-83800000D03*
X105112500Y-84750000D03*
X105112500Y-85700000D03*
%TD*%
D30*
%TO.C,D1*%
X130600000Y-72225000D03*
X130600000Y-70350000D03*
%TD*%
D23*
%TO.C,C19*%
X116400000Y-80337500D03*
X116400000Y-82062500D03*
%TD*%
D21*
%TO.C,C11*%
X130225000Y-67000000D03*
X128500000Y-67000000D03*
%TD*%
D20*
%TO.C,C12*%
X118637500Y-72150000D03*
X120362500Y-72150000D03*
%TD*%
D31*
%TO.C,U9*%
X106550000Y-90637500D03*
X107500000Y-90637500D03*
X108450000Y-90637500D03*
X108450000Y-88362500D03*
X107500000Y-88362500D03*
X106550000Y-88362500D03*
%TD*%
D32*
%TO.C,U2*%
X90950000Y-58100000D03*
X90950000Y-59370000D03*
X90950000Y-60640000D03*
X90950000Y-61910000D03*
X90950000Y-63180000D03*
X90950000Y-64450000D03*
X90950000Y-65720000D03*
X90950000Y-66990000D03*
X90950000Y-68260000D03*
X90950000Y-69530000D03*
X90950000Y-70800000D03*
X90950000Y-72070000D03*
X90950000Y-73340000D03*
X90950000Y-74610000D03*
X90950000Y-75880000D03*
X90950000Y-77150000D03*
X90950000Y-78420000D03*
X90950000Y-79690000D03*
X90950000Y-80960000D03*
X109950000Y-80960000D03*
X109950000Y-79690000D03*
X109950000Y-78420000D03*
X109950000Y-77150000D03*
X109950000Y-75880000D03*
X109950000Y-74610000D03*
X109950000Y-73340000D03*
X109950000Y-72070000D03*
X109950000Y-70800000D03*
X109950000Y-69530000D03*
X109950000Y-68260000D03*
X109950000Y-66990000D03*
X109950000Y-65720000D03*
X109950000Y-64450000D03*
X109950000Y-63180000D03*
X109950000Y-61910000D03*
X109950000Y-60640000D03*
X109950000Y-59370000D03*
X109950000Y-58100000D03*
%TD*%
D17*
%TO.C,TP2*%
X86400000Y-78800000D03*
%TD*%
D33*
%TO.C,U12*%
X115150000Y-65062500D03*
X114200000Y-65062500D03*
X113250000Y-65062500D03*
X113250000Y-67337500D03*
X114200000Y-67337500D03*
X115150000Y-67337500D03*
%TD*%
D34*
%TO.C,U3*%
X77250000Y-62100000D03*
D35*
X83550000Y-64400000D03*
D34*
X77250000Y-64400000D03*
X77250000Y-66700000D03*
%TD*%
D16*
%TO.C,C33*%
X126800000Y-89850000D03*
X124900000Y-89850000D03*
%TD*%
D23*
%TO.C,C17*%
X100600000Y-83937500D03*
X100600000Y-85662500D03*
%TD*%
D36*
%TO.C,R17*%
X72700000Y-74975000D03*
X72700000Y-73150000D03*
%TD*%
D15*
%TO.C,C16*%
X69700000Y-74875000D03*
X69700000Y-73150000D03*
%TD*%
D37*
%TO.C,FID1*%
X146200000Y-64800000D03*
%TD*%
D20*
%TO.C,C24*%
X116475000Y-95800000D03*
X118200000Y-95800000D03*
%TD*%
D16*
%TO.C,C32*%
X75050000Y-59350000D03*
X73150000Y-59350000D03*
%TD*%
D20*
%TO.C,C34*%
X124937500Y-88000000D03*
X126662500Y-88000000D03*
%TD*%
D38*
%TO.C,J15*%
X144950000Y-75000000D03*
D39*
X142410000Y-77540000D03*
X142410000Y-72460000D03*
X147490000Y-72460000D03*
X147490000Y-77540000D03*
%TD*%
D40*
%TO.C,C21*%
X74600000Y-77450000D03*
X76500000Y-77450000D03*
%TD*%
D11*
%TO.C,J4*%
X85350000Y-88050000D03*
D12*
X85350000Y-85510000D03*
X85350000Y-82970000D03*
%TD*%
D41*
%TO.C,Q1*%
X131800000Y-63187500D03*
X133700000Y-63187500D03*
X132750000Y-61312500D03*
%TD*%
D18*
%TO.C,RV2*%
X120775000Y-93275000D03*
X123315000Y-95815000D03*
X120775000Y-98355000D03*
%TD*%
D15*
%TO.C,C30*%
X110600000Y-90112500D03*
X110600000Y-88387500D03*
%TD*%
D27*
%TO.C,C2*%
X87500000Y-59950000D03*
X87500000Y-58050000D03*
%TD*%
D42*
%TO.C,U10*%
X116155000Y-88775000D03*
X114885000Y-88775000D03*
X113615000Y-88775000D03*
X112345000Y-88775000D03*
X112345000Y-93725000D03*
X113615000Y-93725000D03*
X114885000Y-93725000D03*
X116155000Y-93725000D03*
D43*
X114250000Y-91250000D03*
%TD*%
D44*
%TO.C,R15*%
X74690000Y-73737500D03*
X74690000Y-75562500D03*
%TD*%
D45*
%TO.C,C26*%
X114600000Y-96050000D03*
X114600000Y-97950000D03*
%TD*%
D21*
%TO.C,C31*%
X75025000Y-57550000D03*
X73300000Y-57550000D03*
%TD*%
D38*
%TO.C,J14*%
X55050000Y-75000000D03*
D39*
X57590000Y-77540000D03*
X52510000Y-77540000D03*
X57590000Y-72460000D03*
X52510000Y-72460000D03*
%TD*%
D17*
%TO.C,TP5*%
X86400000Y-73600000D03*
%TD*%
D13*
%TO.C,H4*%
X145000000Y-55000000D03*
D14*
X145000000Y-55000000D03*
%TD*%
D17*
%TO.C,TP4*%
X88800000Y-75000000D03*
%TD*%
%TO.C,TP10*%
X134800000Y-71600000D03*
%TD*%
D45*
%TO.C,C13*%
X67950000Y-77950000D03*
X67950000Y-79850000D03*
%TD*%
D20*
%TO.C,C15*%
X138387500Y-92780000D03*
X140112500Y-92780000D03*
%TD*%
D40*
%TO.C,C14*%
X66000000Y-81650000D03*
X67900000Y-81650000D03*
%TD*%
D27*
%TO.C,C9*%
X74600000Y-65050000D03*
X74600000Y-63150000D03*
%TD*%
D17*
%TO.C,TP3*%
X86400000Y-76400000D03*
%TD*%
D46*
%TO.C,R11*%
X130262500Y-68550000D03*
X128437500Y-68550000D03*
%TD*%
D16*
%TO.C,C22*%
X68050000Y-76100000D03*
X66150000Y-76100000D03*
%TD*%
D47*
%TO.C,L1*%
X66050000Y-77837500D03*
X66050000Y-79962500D03*
%TD*%
D11*
%TO.C,J1*%
X82250000Y-93400000D03*
D12*
X84790000Y-93400000D03*
X87330000Y-93400000D03*
X89870000Y-93400000D03*
X92410000Y-93400000D03*
X94950000Y-93400000D03*
%TD*%
D48*
%TO.C,U1*%
X135075000Y-81355000D03*
X135075000Y-82625000D03*
X135075000Y-83895000D03*
X135075000Y-85165000D03*
X135075000Y-86435000D03*
X135075000Y-87705000D03*
X135075000Y-88975000D03*
X135075000Y-90245000D03*
X140025000Y-90245000D03*
X140025000Y-88975000D03*
X140025000Y-87705000D03*
X140025000Y-86435000D03*
X140025000Y-85165000D03*
X140025000Y-83895000D03*
X140025000Y-82625000D03*
X140025000Y-81355000D03*
%TD*%
D11*
%TO.C,JP1*%
X94940000Y-87600000D03*
D12*
X92400000Y-87600000D03*
X89860000Y-87600000D03*
%TD*%
D22*
%TO.C,R9*%
X130350000Y-75662500D03*
X130350000Y-73837500D03*
%TD*%
D49*
%TO.C,R19*%
X74625000Y-79450000D03*
X76450000Y-79450000D03*
%TD*%
D50*
%TO.C,FB2*%
X122850000Y-91000000D03*
X122850000Y-89000000D03*
%TD*%
D25*
%TO.C,R14*%
X138337500Y-96250000D03*
X140162500Y-96250000D03*
%TD*%
%TO.C,R12*%
X138337500Y-97870000D03*
X140162500Y-97870000D03*
%TD*%
D15*
%TO.C,C1*%
X89250000Y-59862500D03*
X89250000Y-58137500D03*
%TD*%
D51*
%TO.C,J8*%
X63400000Y-69000000D03*
D52*
X82250000Y-83000000D03*
D53*
X75750000Y-89500000D03*
D52*
X61750000Y-75500000D03*
D54*
X61750000Y-70650000D03*
D55*
X61750000Y-69000000D03*
D53*
X75750000Y-69000000D03*
D52*
X82250000Y-75500000D03*
D51*
X80600000Y-69000000D03*
D55*
X61750000Y-89500000D03*
D54*
X82250000Y-70650000D03*
D55*
X82250000Y-89500000D03*
D54*
X61750000Y-87850000D03*
D53*
X68250000Y-69000000D03*
D51*
X63400000Y-89500000D03*
X80600000Y-89500000D03*
D55*
X82250000Y-69000000D03*
D53*
X68250000Y-89500000D03*
D54*
X82250000Y-87850000D03*
D52*
X61750000Y-83000000D03*
%TD*%
D11*
%TO.C,J9*%
X147400000Y-86860000D03*
D12*
X147400000Y-89400000D03*
%TD*%
D56*
%TO.C,Q2*%
X133700000Y-65312500D03*
X131800000Y-65312500D03*
X132750000Y-67187500D03*
%TD*%
D21*
%TO.C,C37*%
X114962500Y-69200000D03*
X113237500Y-69200000D03*
%TD*%
D14*
%TO.C,H1*%
X55000000Y-55000000D03*
D13*
X55000000Y-55000000D03*
%TD*%
D46*
%TO.C,R16*%
X140162500Y-94500000D03*
X138337500Y-94500000D03*
%TD*%
D23*
%TO.C,C35*%
X103200000Y-84737500D03*
X103200000Y-86462500D03*
%TD*%
D30*
%TO.C,D2*%
X128550000Y-72187500D03*
X128550000Y-70312500D03*
%TD*%
D15*
%TO.C,C8*%
X126250000Y-62612500D03*
X126250000Y-60887500D03*
%TD*%
D36*
%TO.C,R13*%
X76700000Y-75612500D03*
X76700000Y-73787500D03*
%TD*%
D19*
%TO.C,R7*%
X124600000Y-62287500D03*
X124600000Y-64112500D03*
%TD*%
D57*
%TO.C,J6*%
X128610000Y-94210000D03*
X134390000Y-94210000D03*
D58*
X128250000Y-92765000D03*
X129050000Y-92765000D03*
D59*
X130250000Y-92765000D03*
X131250000Y-92765000D03*
X131750000Y-92765000D03*
X132750000Y-92765000D03*
D58*
X133950000Y-92765000D03*
X134750000Y-92765000D03*
X134750000Y-92765000D03*
X133950000Y-92765000D03*
D59*
X133250000Y-92765000D03*
X132250000Y-92765000D03*
X130750000Y-92765000D03*
X129750000Y-92765000D03*
D58*
X129050000Y-92765000D03*
X128250000Y-92765000D03*
D60*
X127180000Y-97860000D03*
X135820000Y-97860000D03*
D61*
X127180000Y-93680000D03*
X135820000Y-93680000D03*
%TD*%
D46*
%TO.C,R5*%
X121712500Y-60600000D03*
X119887500Y-60600000D03*
%TD*%
D45*
%TO.C,C25*%
X112600000Y-96050000D03*
X112600000Y-97950000D03*
%TD*%
D23*
%TO.C,C36*%
X104750000Y-89137500D03*
X104750000Y-90862500D03*
%TD*%
D62*
%TO.C,U7*%
X69725000Y-76450000D03*
X69725000Y-76850000D03*
X69725000Y-77250000D03*
X69725000Y-77650000D03*
X69725000Y-78050000D03*
X69725000Y-78450000D03*
X69725000Y-78850000D03*
X72675000Y-78850000D03*
X72675000Y-78450000D03*
X72675000Y-78050000D03*
X72675000Y-77650000D03*
X72675000Y-77250000D03*
X72675000Y-76850000D03*
X72675000Y-76450000D03*
D63*
X71200000Y-77650000D03*
%TD*%
D64*
%TO.C,FL2*%
X143018647Y-81818647D03*
X144581353Y-83381353D03*
%TD*%
%TO.C,FL1*%
X56981353Y-66581353D03*
X55418647Y-65018647D03*
%TD*%
M02*
