M48
; DRILL file {KiCad (6.0.9)} date Thu Dec 22 22:01:23 2022
; FORMAT={-:-/ absolute / inch / decimal}
; #@! TF.CreationDate,2022-12-22T22:01:23+02:00
; #@! TF.GenerationSoftware,Kicad,Pcbnew,(6.0.9)
; #@! TF.FileFunction,Plated,1,4,PTH
FMAT,2
INCH
; #@! TA.AperFunction,Plated,PTH,ComponentDrill
T1C0.0079
; #@! TA.AperFunction,Plated,PTH,ViaDrill
T2C0.0098
; #@! TA.AperFunction,Plated,PTH,ComponentDrill
T3C0.0118
; #@! TA.AperFunction,Plated,PTH,ComponentDrill
T4C0.0236
; #@! TA.AperFunction,Plated,PTH,ComponentDrill
T5C0.0315
; #@! TA.AperFunction,Plated,PTH,ComponentDrill
T6C0.0394
; #@! TA.AperFunction,Plated,PTH,ComponentDrill
T7C0.0591
; #@! TA.AperFunction,Plated,PTH,ComponentDrill
T8C0.0669
; #@! TA.AperFunction,Plated,PTH,ComponentDrill
T9C0.1260
%
G90
G05
T1
X4.4508Y-3.565
X4.4508Y-3.6201
X4.498Y-3.565
X4.498Y-3.6201
X4.5453Y-3.565
X4.5453Y-3.6201
T2
X2.0354Y-2.2433
X2.0354Y-2.3433
X2.0354Y-2.4433
X2.0354Y-2.5433
X2.0354Y-2.6433
X2.0354Y-2.7433
X2.0354Y-2.9433
X2.0354Y-3.1433
X2.0354Y-3.2433
X2.0354Y-3.3433
X2.0354Y-3.4433
X2.0354Y-3.5433
X2.0354Y-3.6433
X2.1181Y-2.7008
X2.1181Y-2.7638
X2.1354Y-2.3433
X2.1354Y-2.4433
X2.1354Y-2.5433
X2.1354Y-2.8433
X2.1354Y-3.0433
X2.1354Y-3.1433
X2.1354Y-3.2433
X2.1354Y-3.3433
X2.1354Y-3.4433
X2.1354Y-3.5433
X2.2126Y-2.7008
X2.2126Y-2.7638
X2.2354Y-2.3433
X2.2354Y-2.9433
X2.2354Y-3.1433
X2.2354Y-3.2433
X2.2354Y-3.3433
X2.2354Y-3.4433
X2.2354Y-3.5433
X2.2677Y-2.4724
X2.3354Y-2.0433
X2.3354Y-2.1433
X2.3354Y-2.2433
X2.3354Y-2.3433
X2.3354Y-2.6433
X2.3354Y-2.7433
X2.3354Y-2.8433
X2.3354Y-2.9433
X2.3354Y-3.0433
X2.3354Y-3.1433
X2.3354Y-3.2433
X2.3354Y-3.3433
X2.3354Y-3.4433
X2.3354Y-3.5433
X2.3354Y-3.6433
X2.3354Y-3.7433
X2.3354Y-3.8433
X2.3386Y-2.4331
X2.3465Y-2.5276
X2.4354Y-2.0433
X2.4354Y-2.1433
X2.4354Y-2.2433
X2.4354Y-2.5433
X2.4354Y-3.7433
X2.4354Y-3.8433
X2.4646Y-2.7795
X2.4724Y-3.2677
X2.5354Y-2.0433
X2.5354Y-2.1433
X2.5354Y-2.2433
X2.5354Y-2.4433
X2.5354Y-2.5433
X2.5354Y-2.6433
X2.5354Y-2.8433
X2.5354Y-3.3622
X2.5354Y-3.4016
X2.5354Y-3.7433
X2.5354Y-3.8433
X2.5748Y-3.0
X2.5748Y-3.2913
X2.6354Y-2.0433
X2.6354Y-2.1433
X2.6354Y-2.2433
X2.6354Y-2.9433
X2.6354Y-3.8433
X2.6693Y-3.2913
X2.685Y-2.7638
X2.7087Y-3.1024
X2.7087Y-3.2126
X2.7156Y-3.0158
X2.7165Y-3.1417
X2.7354Y-2.0433
X2.7354Y-2.1433
X2.7354Y-2.2433
X2.7354Y-2.3433
X2.7354Y-3.6433
X2.7354Y-3.8433
X2.7402Y-3.1181
X2.7402Y-3.4724
X2.748Y-2.8346
X2.7874Y-3.3701
X2.8354Y-2.1433
X2.8354Y-3.8433
X2.8425Y-2.2598
X2.8425Y-3.4016
X2.8504Y-2.3465
X2.8661Y-2.8504
X2.8898Y-2.4803
X2.9134Y-2.8425
X2.9354Y-3.3433
X2.9354Y-3.4433
X2.9354Y-3.8433
X2.937Y-2.4488
X2.9724Y-2.626
X2.9764Y-3.0157
X2.9843Y-3.4803
X2.9921Y-2.2677
X2.9921Y-2.3465
X3.0236Y-2.3937
X3.0354Y-3.7433
X3.0354Y-3.8433
X3.063Y-2.3937
X3.069Y-2.7175
X3.1354Y-3.8433
X3.1496Y-2.8031
X3.1575Y-3.1496
X3.1654Y-3.0315
X3.1732Y-2.3307
X3.189Y-2.7638
X3.2047Y-3.3465
X3.2047Y-3.5748
X3.2126Y-2.2913
X3.2126Y-2.378
X3.2354Y-3.7433
X3.3354Y-3.7433
X3.3701Y-2.2441
X3.4354Y-3.3433
X3.4354Y-3.4433
X3.4488Y-2.2441
X3.4803Y-2.7874
X3.4961Y-2.8346
X3.5118Y-2.252
X3.5197Y-2.4882
X3.5197Y-2.7402
X3.5354Y-3.189
X3.5433Y-3.2441
X3.5827Y-2.252
X3.5827Y-3.2205
X3.6063Y-3.2913
X3.6236Y-3.1874
X3.6299Y-2.2835
X3.6354Y-3.0433
X3.6535Y-2.6378
X3.6693Y-2.4803
X3.6693Y-3.2441
X3.6693Y-3.2913
X3.6772Y-2.3071
X3.7354Y-2.8433
X3.7362Y-3.0039
X3.8071Y-2.4764
X3.8346Y-2.3622
X3.8354Y-2.8433
X3.8354Y-2.9433
X3.8354Y-3.1433
X3.8354Y-3.6433
X3.8465Y-3.3898
X3.9354Y-2.3433
X3.9354Y-3.0433
X3.9921Y-2.9213
X4.0354Y-2.3433
X4.0354Y-2.8433
X4.0354Y-3.1433
X4.0354Y-3.2433
X4.063Y-3.2992
X4.063Y-3.6063
X4.0866Y-3.5748
X4.0945Y-3.4094
X4.0945Y-3.4567
X4.126Y-2.5512
X4.1354Y-2.4433
X4.1354Y-2.8433
X4.1354Y-3.0433
X4.1354Y-3.1433
X4.1417Y-3.2677
X4.1417Y-3.4094
X4.1654Y-3.7717
X4.2126Y-3.6063
X4.2283Y-3.2677
X4.2283Y-3.4094
X4.2354Y-3.0433
X4.2441Y-2.7323
X4.252Y-2.3228
X4.2677Y-3.3386
X4.2835Y-3.189
X4.2992Y-3.5197
X4.3071Y-3.5669
X4.3307Y-3.2205
X4.3354Y-3.3433
X4.3354Y-3.8433
X4.3543Y-3.4409
X4.378Y-3.189
X4.378Y-3.7874
X4.3858Y-2.4961
X4.3898Y-2.7362
X4.3937Y-3.8346
X4.4016Y-2.7795
X4.4154Y-2.3406
X4.4252Y-2.6063
X4.4252Y-2.6693
X4.4252Y-3.4409
X4.4331Y-2.3937
X4.4567Y-2.7559
X4.4646Y-2.9213
X4.4724Y-3.8268
X4.4961Y-2.4882
X4.4961Y-2.5197
X4.5276Y-3.4409
X4.5591Y-2.6063
X4.5591Y-3.8346
X4.5669Y-2.7599
X4.5748Y-2.3228
X4.5906Y-2.7323
X4.6063Y-2.626
X4.6063Y-2.7008
X4.6063Y-3.5039
X4.622Y-2.8268
X4.6354Y-3.2433
X4.6354Y-3.8433
X4.6535Y-2.9449
X4.6535Y-3.7323
X4.7205Y-2.874
X4.7244Y-2.748
X4.7354Y-3.4433
X4.7354Y-3.7433
X4.7717Y-2.9449
X4.8189Y-2.4173
X4.8189Y-2.5512
X4.8354Y-2.0433
X4.8354Y-3.2433
X4.8354Y-3.8433
X4.8425Y-2.8583
X4.8504Y-2.4882
X4.8504Y-2.6063
X4.874Y-3.5354
X4.875Y-3.4656
X4.9291Y-2.3937
X4.9354Y-2.0433
X4.9354Y-2.2433
X4.9354Y-2.3433
X4.9354Y-3.0433
X4.9354Y-3.1433
X4.9354Y-3.2433
X4.9354Y-3.3433
X4.9354Y-3.6433
X4.9354Y-3.7433
X4.9354Y-3.8433
X4.9449Y-2.7402
X4.9449Y-2.7874
X4.9606Y-2.6929
X4.9646Y-2.6181
X4.9685Y-2.5197
X5.0157Y-2.9764
X5.0236Y-3.4646
X5.0315Y-3.6299
X5.0354Y-2.0433
X5.0354Y-2.2433
X5.0354Y-2.3433
X5.0354Y-3.0433
X5.0394Y-3.5433
X5.0472Y-2.1102
X5.0498Y-3.7517
X5.063Y-2.6063
X5.0787Y-2.3937
X5.0787Y-3.5984
X5.1024Y-2.9449
X5.1024Y-3.3543
X5.1354Y-2.0433
X5.1354Y-2.2433
X5.1354Y-2.3433
X5.1354Y-3.5433
X5.1654Y-3.7008
X5.1816Y-2.6437
X5.2047Y-3.7008
X5.2301Y-3.203
X5.2354Y-2.0433
X5.2354Y-2.2433
X5.2354Y-2.7433
X5.2354Y-2.8433
X5.2354Y-2.9433
X5.2354Y-3.0433
X5.2638Y-3.5315
X5.2717Y-3.6024
X5.2992Y-3.748
X5.3307Y-3.0709
X5.3307Y-3.1417
X5.3307Y-3.624
X5.3354Y-2.0433
X5.3354Y-2.2433
X5.3354Y-2.3433
X5.3354Y-2.7433
X5.3354Y-2.9433
X5.3602Y-3.2047
X5.378Y-2.4646
X5.378Y-2.5197
X5.4173Y-3.2441
X5.4354Y-2.0433
X5.4354Y-2.2433
X5.4354Y-2.7433
X5.4354Y-2.9433
X5.5182Y-3.7544
X5.5197Y-3.622
X5.5197Y-3.8898
X5.5354Y-2.0433
X5.5354Y-2.1433
X5.5354Y-2.2433
X5.5354Y-2.3433
X5.5354Y-2.4433
X5.5354Y-2.5433
X5.5354Y-2.6433
X5.5354Y-2.7433
X5.5354Y-2.8433
X5.5354Y-2.9433
X5.5354Y-3.0433
X5.5354Y-3.1433
X5.6063Y-3.3622
X5.6354Y-2.0433
X5.6354Y-2.3433
X5.6354Y-2.4433
X5.6354Y-2.5433
X5.6354Y-2.6433
X5.6354Y-2.7433
X5.6354Y-2.9433
X5.6693Y-3.0866
X5.6693Y-3.1417
X5.7354Y-2.3433
X5.7354Y-2.4433
X5.7354Y-2.6433
X5.7354Y-2.7433
X5.7354Y-2.8433
X5.7354Y-3.3433
X5.7354Y-3.4433
X5.748Y-3.0866
X5.748Y-3.1417
X5.8354Y-2.2433
X5.8354Y-2.3433
X5.8354Y-2.4433
X5.8354Y-2.5433
X5.8354Y-2.6433
X5.8354Y-2.7433
X5.8354Y-2.9433
X5.8354Y-3.1433
X5.8354Y-3.2433
X5.8354Y-3.3433
X5.8354Y-3.6433
T3
X2.1818Y-2.5598
X2.2434Y-2.6213
X5.6307Y-3.2212
X5.6922Y-3.2827
T5
X4.4577Y-3.0709
X4.5577Y-2.9709
X4.6577Y-3.0709
X4.7549Y-3.6722
X4.7549Y-3.8722
X4.8549Y-3.7722
T6
X2.6819Y-3.7559
X2.7819Y-3.7559
X2.8819Y-3.7559
X3.2382Y-3.6772
X3.3382Y-3.6772
X3.3602Y-3.2665
X3.3602Y-3.3665
X3.3602Y-3.4665
X3.4382Y-3.6772
X3.5378Y-3.4488
X3.5382Y-3.6772
X3.6378Y-3.4488
X3.6382Y-3.6772
X3.7378Y-3.4488
X3.7382Y-3.6772
X3.8969Y-3.8425
X3.8976Y-3.7008
X3.9969Y-3.8425
X3.9976Y-3.7008
X4.0969Y-3.8425
X4.0976Y-3.7008
X4.1969Y-3.8425
X4.3937Y-3.3386
X4.4937Y-3.3386
X4.5937Y-3.3386
X5.8031Y-3.4197
X5.8031Y-3.5197
T7
X2.1673Y-2.9528
X5.7067Y-2.9528
T8
X2.0673Y-2.8528
X2.0673Y-3.0528
X2.2673Y-2.8528
X2.2673Y-3.0528
X5.6067Y-2.8528
X5.6067Y-3.0528
X5.8067Y-2.8528
X5.8067Y-3.0528
T9
X2.1654Y-2.1654
X2.1654Y-3.7402
X5.7087Y-2.1654
X5.7087Y-3.7402
T4
G00X5.0071Y-3.6665
M15
G01X5.0071Y-3.7098
M16
G05
G00X5.0071Y-3.8409
M15
G01X5.0071Y-3.8646
M16
G05
G00X5.3472Y-3.6665
M15
G01X5.3472Y-3.7098
M16
G05
G00X5.3472Y-3.8409
M15
G01X5.3472Y-3.8646
M16
G05
T0
M30
