%TF.GenerationSoftware,KiCad,Pcbnew,(6.0.9)*%
%TF.CreationDate,2023-04-05T21:44:48+03:00*%
%TF.ProjectId,cross_band_handy_walkie_talkie_ES8388,63726f73-735f-4626-916e-645f68616e64,rev?*%
%TF.SameCoordinates,Original*%
%TF.FileFunction,Paste,Bot*%
%TF.FilePolarity,Positive*%
%FSLAX46Y46*%
G04 Gerber Fmt 4.6, Leading zero omitted, Abs format (unit mm)*
G04 Created by KiCad (PCBNEW (6.0.9)) date 2023-04-05 21:44:48*
%MOMM*%
%LPD*%
G01*
G04 APERTURE LIST*
G04 Aperture macros list*
%AMRoundRect*
0 Rectangle with rounded corners*
0 $1 Rounding radius*
0 $2 $3 $4 $5 $6 $7 $8 $9 X,Y pos of 4 corners*
0 Add a 4 corners polygon primitive as box body*
4,1,4,$2,$3,$4,$5,$6,$7,$8,$9,$2,$3,0*
0 Add four circle primitives for the rounded corners*
1,1,$1+$1,$2,$3*
1,1,$1+$1,$4,$5*
1,1,$1+$1,$6,$7*
1,1,$1+$1,$8,$9*
0 Add four rect primitives between the rounded corners*
20,1,$1+$1,$2,$3,$4,$5,0*
20,1,$1+$1,$4,$5,$6,$7,0*
20,1,$1+$1,$6,$7,$8,$9,0*
20,1,$1+$1,$8,$9,$2,$3,0*%
G04 Aperture macros list end*
%ADD10R,1.800000X1.800000*%
%ADD11R,8.500000X2.200000*%
%ADD12R,7.000000X9.000000*%
%ADD13RoundRect,0.225000X-0.225000X-0.250000X0.225000X-0.250000X0.225000X0.250000X-0.225000X0.250000X0*%
%ADD14RoundRect,0.249600X-0.268701X0.651104X-0.651104X0.268701X0.268701X-0.651104X0.651104X-0.268701X0*%
%ADD15RoundRect,0.152500X-0.224506X0.440174X-0.440174X0.224506X0.224506X-0.440174X0.440174X-0.224506X0*%
%ADD16RoundRect,0.237500X0.300000X0.237500X-0.300000X0.237500X-0.300000X-0.237500X0.300000X-0.237500X0*%
%ADD17RoundRect,0.249600X0.268701X-0.651104X0.651104X-0.268701X-0.268701X0.651104X-0.651104X0.268701X0*%
%ADD18RoundRect,0.152500X0.224506X-0.440174X0.440174X-0.224506X-0.224506X0.440174X-0.440174X0.224506X0*%
G04 APERTURE END LIST*
D10*
%TO.C,U7*%
X99480000Y-72890000D03*
X99480000Y-77340000D03*
X99480000Y-81790000D03*
X99480000Y-86240000D03*
X99480000Y-90690000D03*
X99480000Y-95140000D03*
X99480000Y-99590000D03*
X101570000Y-103140000D03*
X106020000Y-103140000D03*
D11*
X113480000Y-69190000D03*
D12*
X108080000Y-96590000D03*
D10*
X110470000Y-103140000D03*
D11*
X102680000Y-69190000D03*
D10*
X114920000Y-103140000D03*
X116680000Y-99590000D03*
X116680000Y-95140000D03*
X116680000Y-90690000D03*
X116680000Y-86240000D03*
X116680000Y-81790000D03*
X116680000Y-77340000D03*
X116680000Y-72890000D03*
%TD*%
D13*
%TO.C,C14*%
X110820000Y-51535000D03*
X112370000Y-51535000D03*
%TD*%
D14*
%TO.C,FL2*%
X59453207Y-79825109D03*
D15*
X58960000Y-81630000D03*
D14*
X57155109Y-82123207D03*
D15*
X57648316Y-80318316D03*
%TD*%
D16*
%TO.C,C8*%
X112457500Y-53135000D03*
X110732500Y-53135000D03*
%TD*%
D10*
%TO.C,U8*%
X80600000Y-105300000D03*
X80600000Y-100850000D03*
X80600000Y-96400000D03*
X80600000Y-91950000D03*
X80600000Y-87500000D03*
X80600000Y-83050000D03*
X80600000Y-78600000D03*
X78510000Y-75050000D03*
X74060000Y-75050000D03*
D11*
X77400000Y-109000000D03*
D12*
X72000000Y-81600000D03*
D10*
X69610000Y-75050000D03*
D11*
X66600000Y-109000000D03*
D10*
X65160000Y-75050000D03*
X63400000Y-78600000D03*
X63400000Y-83050000D03*
X63400000Y-87500000D03*
X63400000Y-91950000D03*
X63400000Y-96400000D03*
X63400000Y-100850000D03*
X63400000Y-105300000D03*
%TD*%
D17*
%TO.C,FL1*%
X120300951Y-97799049D03*
D18*
X120794158Y-95994158D03*
D17*
X122599049Y-95500951D03*
D18*
X122105842Y-97305842D03*
%TD*%
M02*
