%TF.GenerationSoftware,KiCad,Pcbnew,7.0.1*%
%TF.CreationDate,2023-04-14T11:06:50+03:00*%
%TF.ProjectId,cross_band_handy_walkie_talkie_ES8388,63726f73-735f-4626-916e-645f68616e64,rev?*%
%TF.SameCoordinates,Original*%
%TF.FileFunction,Soldermask,Top*%
%TF.FilePolarity,Negative*%
%FSLAX46Y46*%
G04 Gerber Fmt 4.6, Leading zero omitted, Abs format (unit mm)*
G04 Created by KiCad (PCBNEW 7.0.1) date 2023-04-14 11:06:50*
%MOMM*%
%LPD*%
G01*
G04 APERTURE LIST*
G04 Aperture macros list*
%AMRoundRect*
0 Rectangle with rounded corners*
0 $1 Rounding radius*
0 $2 $3 $4 $5 $6 $7 $8 $9 X,Y pos of 4 corners*
0 Add a 4 corners polygon primitive as box body*
4,1,4,$2,$3,$4,$5,$6,$7,$8,$9,$2,$3,0*
0 Add four circle primitives for the rounded corners*
1,1,$1+$1,$2,$3*
1,1,$1+$1,$4,$5*
1,1,$1+$1,$6,$7*
1,1,$1+$1,$8,$9*
0 Add four rect primitives between the rounded corners*
20,1,$1+$1,$2,$3,$4,$5,0*
20,1,$1+$1,$4,$5,$6,$7,0*
20,1,$1+$1,$6,$7,$8,$9,0*
20,1,$1+$1,$8,$9,$2,$3,0*%
%AMFreePoly0*
4,1,14,0.306978,0.089737,0.364737,0.031978,0.380000,-0.004868,0.380000,-0.058520,0.366386,-0.091386,0.333520,-0.105000,-0.333520,-0.105000,-0.366386,-0.091386,-0.380000,-0.058520,-0.380000,0.058520,-0.366386,0.091386,-0.333520,0.105000,0.270132,0.105000,0.306978,0.089737,0.306978,0.089737,$1*%
%AMFreePoly1*
4,1,14,0.366386,0.091386,0.380000,0.058520,0.380000,0.004868,0.364737,-0.031978,0.306978,-0.089737,0.270132,-0.105000,-0.333520,-0.105000,-0.366386,-0.091386,-0.380000,-0.058520,-0.380000,0.058520,-0.366386,0.091386,-0.333520,0.105000,0.333520,0.105000,0.366386,0.091386,0.366386,0.091386,$1*%
%AMFreePoly2*
4,1,14,0.091386,0.366386,0.105000,0.333520,0.105000,-0.333520,0.091386,-0.366386,0.058520,-0.380000,-0.058520,-0.380000,-0.091386,-0.366386,-0.105000,-0.333520,-0.105000,0.270132,-0.089737,0.306978,-0.031978,0.364737,0.004868,0.380000,0.058520,0.380000,0.091386,0.366386,0.091386,0.366386,$1*%
%AMFreePoly3*
4,1,14,0.031978,0.364737,0.089737,0.306978,0.105000,0.270132,0.105000,-0.333520,0.091386,-0.366386,0.058520,-0.380000,-0.058520,-0.380000,-0.091386,-0.366386,-0.105000,-0.333520,-0.105000,0.333520,-0.091386,0.366386,-0.058520,0.380000,-0.004868,0.380000,0.031978,0.364737,0.031978,0.364737,$1*%
%AMFreePoly4*
4,1,14,0.366386,0.091386,0.380000,0.058520,0.380000,-0.058520,0.366386,-0.091386,0.333520,-0.105000,-0.270135,-0.105000,-0.306976,-0.089738,-0.364737,-0.031978,-0.380000,0.004868,-0.380000,0.058520,-0.366386,0.091386,-0.333520,0.105000,0.333520,0.105000,0.366386,0.091386,0.366386,0.091386,$1*%
%AMFreePoly5*
4,1,14,0.366386,0.091386,0.380000,0.058520,0.380000,-0.058520,0.366386,-0.091386,0.333520,-0.105000,-0.333520,-0.105000,-0.366386,-0.091386,-0.380000,-0.058520,-0.380000,-0.004868,-0.364737,0.031978,-0.306978,0.089737,-0.270132,0.105000,0.333520,0.105000,0.366386,0.091386,0.366386,0.091386,$1*%
%AMFreePoly6*
4,1,14,0.091386,0.366386,0.105000,0.333520,0.105000,-0.270132,0.089737,-0.306978,0.031978,-0.364737,-0.004868,-0.380000,-0.058520,-0.380000,-0.091386,-0.366386,-0.105000,-0.333520,-0.105000,0.333520,-0.091386,0.366386,-0.058520,0.380000,0.058520,0.380000,0.091386,0.366386,0.091386,0.366386,$1*%
%AMFreePoly7*
4,1,14,0.091386,0.366386,0.105000,0.333520,0.105000,-0.333520,0.091386,-0.366386,0.058520,-0.380000,0.004865,-0.380000,-0.031976,-0.364738,-0.089737,-0.306978,-0.105000,-0.270132,-0.105000,0.333520,-0.091386,0.366386,-0.058520,0.380000,0.058520,0.380000,0.091386,0.366386,0.091386,0.366386,$1*%
G04 Aperture macros list end*
%ADD10RoundRect,0.135000X0.135000X0.185000X-0.135000X0.185000X-0.135000X-0.185000X0.135000X-0.185000X0*%
%ADD11R,1.300000X2.000000*%
%ADD12R,2.000000X2.000000*%
%ADD13RoundRect,0.225000X-0.250000X0.225000X-0.250000X-0.225000X0.250000X-0.225000X0.250000X0.225000X0*%
%ADD14RoundRect,0.135000X-0.135000X-0.185000X0.135000X-0.185000X0.135000X0.185000X-0.135000X0.185000X0*%
%ADD15RoundRect,0.150000X-0.587500X-0.150000X0.587500X-0.150000X0.587500X0.150000X-0.587500X0.150000X0*%
%ADD16RoundRect,0.250000X0.262500X0.450000X-0.262500X0.450000X-0.262500X-0.450000X0.262500X-0.450000X0*%
%ADD17RoundRect,0.237500X-0.250000X-0.237500X0.250000X-0.237500X0.250000X0.237500X-0.250000X0.237500X0*%
%ADD18RoundRect,0.140000X-0.170000X0.140000X-0.170000X-0.140000X0.170000X-0.140000X0.170000X0.140000X0*%
%ADD19RoundRect,0.250000X-0.262500X-0.450000X0.262500X-0.450000X0.262500X0.450000X-0.262500X0.450000X0*%
%ADD20R,1.500000X1.000000*%
%ADD21RoundRect,0.140000X-0.140000X-0.170000X0.140000X-0.170000X0.140000X0.170000X-0.140000X0.170000X0*%
%ADD22C,1.600000*%
%ADD23RoundRect,0.107480X-0.642520X-1.217520X0.642520X-1.217520X0.642520X1.217520X-0.642520X1.217520X0*%
%ADD24RoundRect,0.218750X-0.218750X-0.256250X0.218750X-0.256250X0.218750X0.256250X-0.218750X0.256250X0*%
%ADD25RoundRect,0.225000X-0.225000X-0.250000X0.225000X-0.250000X0.225000X0.250000X-0.225000X0.250000X0*%
%ADD26RoundRect,0.140000X0.140000X0.170000X-0.140000X0.170000X-0.140000X-0.170000X0.140000X-0.170000X0*%
%ADD27R,1.000000X1.000000*%
%ADD28RoundRect,0.135000X-0.185000X0.135000X-0.185000X-0.135000X0.185000X-0.135000X0.185000X0.135000X0*%
%ADD29RoundRect,0.225000X0.250000X-0.225000X0.250000X0.225000X-0.250000X0.225000X-0.250000X-0.225000X0*%
%ADD30RoundRect,0.237500X-0.300000X-0.237500X0.300000X-0.237500X0.300000X0.237500X-0.300000X0.237500X0*%
%ADD31RoundRect,0.237500X0.300000X0.237500X-0.300000X0.237500X-0.300000X-0.237500X0.300000X-0.237500X0*%
%ADD32C,0.610000*%
%ADD33R,1.410000X0.560000*%
%ADD34R,1.410000X0.260000*%
%ADD35O,2.060000X0.960000*%
%ADD36O,1.560000X0.960000*%
%ADD37RoundRect,0.225000X0.225000X0.250000X-0.225000X0.250000X-0.225000X-0.250000X0.225000X-0.250000X0*%
%ADD38RoundRect,0.250000X-0.475000X0.250000X-0.475000X-0.250000X0.475000X-0.250000X0.475000X0.250000X0*%
%ADD39RoundRect,0.218750X0.256250X-0.218750X0.256250X0.218750X-0.256250X0.218750X-0.256250X-0.218750X0*%
%ADD40RoundRect,0.250000X0.250000X0.475000X-0.250000X0.475000X-0.250000X-0.475000X0.250000X-0.475000X0*%
%ADD41R,1.000000X1.500000*%
%ADD42RoundRect,0.250000X-0.250000X-0.475000X0.250000X-0.475000X0.250000X0.475000X-0.250000X0.475000X0*%
%ADD43RoundRect,0.237500X0.250000X0.237500X-0.250000X0.237500X-0.250000X-0.237500X0.250000X-0.237500X0*%
%ADD44RoundRect,0.200000X0.275000X-0.200000X0.275000X0.200000X-0.275000X0.200000X-0.275000X-0.200000X0*%
%ADD45RoundRect,0.243750X-0.243750X-0.456250X0.243750X-0.456250X0.243750X0.456250X-0.243750X0.456250X0*%
%ADD46C,2.000000*%
%ADD47R,2.000000X1.700000*%
%ADD48O,1.700000X1.700000*%
%ADD49C,3.000000*%
%ADD50RoundRect,0.300000X0.800000X-0.300000X0.800000X0.300000X-0.800000X0.300000X-0.800000X-0.300000X0*%
%ADD51R,0.700000X1.000000*%
%ADD52RoundRect,0.218750X0.218750X0.256250X-0.218750X0.256250X-0.218750X-0.256250X0.218750X-0.256250X0*%
%ADD53R,3.500000X1.800000*%
%ADD54RoundRect,0.135000X0.185000X-0.135000X0.185000X0.135000X-0.185000X0.135000X-0.185000X-0.135000X0*%
%ADD55C,1.000000*%
%ADD56RoundRect,0.237500X-0.237500X0.250000X-0.237500X-0.250000X0.237500X-0.250000X0.237500X0.250000X0*%
%ADD57FreePoly0,270.000000*%
%ADD58RoundRect,0.042500X-0.062500X0.337500X-0.062500X-0.337500X0.062500X-0.337500X0.062500X0.337500X0*%
%ADD59FreePoly1,270.000000*%
%ADD60FreePoly2,270.000000*%
%ADD61RoundRect,0.042500X-0.337500X0.062500X-0.337500X-0.062500X0.337500X-0.062500X0.337500X0.062500X0*%
%ADD62FreePoly3,270.000000*%
%ADD63FreePoly4,270.000000*%
%ADD64FreePoly5,270.000000*%
%ADD65FreePoly6,270.000000*%
%ADD66FreePoly7,270.000000*%
%ADD67R,2.360000X2.360000*%
%ADD68C,3.600000*%
%ADD69C,5.600000*%
%ADD70R,1.700000X1.700000*%
%ADD71RoundRect,0.150000X-0.150000X0.587500X-0.150000X-0.587500X0.150000X-0.587500X0.150000X0.587500X0*%
%ADD72C,1.500000*%
%ADD73RoundRect,0.055000X-0.075000X0.337500X-0.075000X-0.337500X0.075000X-0.337500X0.075000X0.337500X0*%
%ADD74RoundRect,0.055000X-0.337500X0.075000X-0.337500X-0.075000X0.337500X-0.075000X0.337500X0.075000X0*%
%ADD75R,2.460000X2.460000*%
%ADD76RoundRect,0.300000X-0.300000X-0.800000X0.300000X-0.800000X0.300000X0.800000X-0.300000X0.800000X0*%
%ADD77RoundRect,0.150000X0.150000X-0.587500X0.150000X0.587500X-0.150000X0.587500X-0.150000X-0.587500X0*%
%ADD78RoundRect,0.300000X-0.800000X0.300000X-0.800000X-0.300000X0.800000X-0.300000X0.800000X0.300000X0*%
%ADD79C,1.200000*%
%ADD80RoundRect,0.140000X0.170000X-0.140000X0.170000X0.140000X-0.170000X0.140000X-0.170000X-0.140000X0*%
%ADD81R,0.850000X1.100000*%
%ADD82R,0.750000X1.100000*%
%ADD83R,1.200000X1.000000*%
%ADD84R,1.550000X1.350000*%
%ADD85R,1.900000X1.350000*%
%ADD86R,1.170000X1.800000*%
%ADD87RoundRect,0.250000X0.625000X-0.312500X0.625000X0.312500X-0.625000X0.312500X-0.625000X-0.312500X0*%
%ADD88RoundRect,0.250000X0.312500X0.625000X-0.312500X0.625000X-0.312500X-0.625000X0.312500X-0.625000X0*%
%ADD89C,2.050000*%
%ADD90C,2.250000*%
%ADD91RoundRect,0.200000X0.200000X0.275000X-0.200000X0.275000X-0.200000X-0.275000X0.200000X-0.275000X0*%
%ADD92R,1.420000X0.820000*%
%ADD93R,0.820000X1.420000*%
%ADD94R,0.820000X0.820000*%
%ADD95RoundRect,0.150000X0.587500X0.150000X-0.587500X0.150000X-0.587500X-0.150000X0.587500X-0.150000X0*%
%ADD96R,1.500000X2.000000*%
%ADD97R,3.800000X2.000000*%
%ADD98R,1.700000X2.000000*%
%ADD99RoundRect,0.150000X0.150000X-0.512500X0.150000X0.512500X-0.150000X0.512500X-0.150000X-0.512500X0*%
%ADD100RoundRect,0.042500X-0.362500X-0.062500X0.362500X-0.062500X0.362500X0.062500X-0.362500X0.062500X0*%
%ADD101RoundRect,0.042500X-0.062500X-0.362500X0.062500X-0.362500X0.062500X0.362500X-0.062500X0.362500X0*%
%ADD102R,2.560000X2.560000*%
G04 APERTURE END LIST*
D10*
%TO.C,R10*%
X100045000Y-53135000D03*
X99025000Y-53135000D03*
%TD*%
D11*
%TO.C,RV4*%
X107460000Y-93530000D03*
D12*
X108610000Y-89530000D03*
D11*
X109760000Y-93530000D03*
%TD*%
D13*
%TO.C,C19*%
X92900000Y-98975000D03*
X92900000Y-100525000D03*
%TD*%
D14*
%TO.C,R3*%
X60150000Y-69710000D03*
X61170000Y-69710000D03*
%TD*%
D15*
%TO.C,Q6*%
X73462500Y-63550000D03*
X73462500Y-65450000D03*
X75337500Y-64500000D03*
%TD*%
D14*
%TO.C,R41*%
X96840000Y-93300000D03*
X97860000Y-93300000D03*
%TD*%
D16*
%TO.C,FB1*%
X62882500Y-71410000D03*
X61057500Y-71410000D03*
%TD*%
D17*
%TO.C,R7*%
X55847500Y-60660000D03*
X57672500Y-60660000D03*
%TD*%
D18*
%TO.C,C40*%
X97800000Y-95320000D03*
X97800000Y-96280000D03*
%TD*%
D19*
%TO.C,R5*%
X52520000Y-81300000D03*
X54345000Y-81300000D03*
%TD*%
D20*
%TO.C,JP1*%
X87270000Y-94480000D03*
X87270000Y-95780000D03*
X87270000Y-97080000D03*
%TD*%
D18*
%TO.C,C13*%
X65955000Y-102450000D03*
X65955000Y-103410000D03*
%TD*%
D13*
%TO.C,C9*%
X75455000Y-101055000D03*
X75455000Y-102605000D03*
%TD*%
D21*
%TO.C,C17*%
X69925000Y-106530000D03*
X70885000Y-106530000D03*
%TD*%
D22*
%TO.C,J6*%
X119110000Y-68970000D03*
D23*
X124210000Y-64970000D03*
X119210000Y-64970000D03*
X126810000Y-72970000D03*
X126810000Y-64970000D03*
X120210000Y-72970000D03*
X118210000Y-72970000D03*
%TD*%
D24*
%TO.C,D4*%
X77147500Y-105210000D03*
X78722500Y-105210000D03*
%TD*%
D25*
%TO.C,C57*%
X72305000Y-75770000D03*
X73855000Y-75770000D03*
%TD*%
D26*
%TO.C,C51*%
X94185000Y-83520000D03*
X93225000Y-83520000D03*
%TD*%
D27*
%TO.C,TP2*%
X72405000Y-108215000D03*
%TD*%
D14*
%TO.C,R32*%
X94890000Y-93300000D03*
X95910000Y-93300000D03*
%TD*%
%TO.C,R19*%
X101175000Y-54335000D03*
X102195000Y-54335000D03*
%TD*%
D10*
%TO.C,R52*%
X75660000Y-66750000D03*
X74640000Y-66750000D03*
%TD*%
D25*
%TO.C,C11*%
X61590000Y-108590000D03*
X63140000Y-108590000D03*
%TD*%
D28*
%TO.C,R29*%
X90395000Y-71425000D03*
X90395000Y-72445000D03*
%TD*%
D26*
%TO.C,C27*%
X95930000Y-94350000D03*
X94970000Y-94350000D03*
%TD*%
D29*
%TO.C,C25*%
X85310000Y-86720000D03*
X85310000Y-85170000D03*
%TD*%
D30*
%TO.C,C6*%
X52530000Y-60660000D03*
X54255000Y-60660000D03*
%TD*%
D31*
%TO.C,C56*%
X77152500Y-75770000D03*
X75427500Y-75770000D03*
%TD*%
%TO.C,C55*%
X104602500Y-102510000D03*
X102877500Y-102510000D03*
%TD*%
D32*
%TO.C,J1*%
X56960000Y-65040000D03*
X56960000Y-70820000D03*
D33*
X58405000Y-64680000D03*
X58405000Y-65480000D03*
D34*
X58405000Y-66680000D03*
X58405000Y-67680000D03*
X58405000Y-68180000D03*
X58405000Y-69180000D03*
D33*
X58405000Y-70380000D03*
X58405000Y-71180000D03*
X58405000Y-71180000D03*
X58405000Y-70380000D03*
D34*
X58405000Y-69680000D03*
X58405000Y-68680000D03*
X58405000Y-67180000D03*
X58405000Y-66180000D03*
D33*
X58405000Y-65480000D03*
X58405000Y-64680000D03*
D35*
X57490000Y-63610000D03*
D36*
X53310000Y-63610000D03*
D35*
X57490000Y-72250000D03*
D36*
X53310000Y-72250000D03*
%TD*%
D37*
%TO.C,C16*%
X70630000Y-107780000D03*
X69080000Y-107780000D03*
%TD*%
D14*
%TO.C,R17*%
X101195000Y-59535000D03*
X102215000Y-59535000D03*
%TD*%
D38*
%TO.C,C30*%
X98800000Y-83300000D03*
X98800000Y-85200000D03*
%TD*%
D13*
%TO.C,C61*%
X75570000Y-70325000D03*
X75570000Y-71875000D03*
%TD*%
D26*
%TO.C,C53*%
X72785000Y-106530000D03*
X71825000Y-106530000D03*
%TD*%
D21*
%TO.C,C20*%
X91575000Y-76170000D03*
X92535000Y-76170000D03*
%TD*%
D39*
%TO.C,D6*%
X83610000Y-90680000D03*
X83610000Y-89105000D03*
%TD*%
D40*
%TO.C,C33*%
X93600000Y-91720000D03*
X91700000Y-91720000D03*
%TD*%
D11*
%TO.C,RV3*%
X107120000Y-78970000D03*
D12*
X108270000Y-74970000D03*
D11*
X109420000Y-78970000D03*
%TD*%
D41*
%TO.C,JP4*%
X79950000Y-78075000D03*
X78650000Y-78075000D03*
X77350000Y-78075000D03*
%TD*%
D42*
%TO.C,C28*%
X99250000Y-81200000D03*
X101150000Y-81200000D03*
%TD*%
D43*
%TO.C,R1*%
X76027500Y-56740000D03*
X74202500Y-56740000D03*
%TD*%
D18*
%TO.C,C5*%
X78095000Y-52080000D03*
X78095000Y-53040000D03*
%TD*%
D29*
%TO.C,C41*%
X87990000Y-79695000D03*
X87990000Y-78145000D03*
%TD*%
D14*
%TO.C,R18*%
X101185000Y-53135000D03*
X102205000Y-53135000D03*
%TD*%
D44*
%TO.C,R38*%
X85150000Y-90725000D03*
X85150000Y-89075000D03*
%TD*%
D18*
%TO.C,C37*%
X94950000Y-95320000D03*
X94950000Y-96280000D03*
%TD*%
D21*
%TO.C,C34*%
X91590000Y-77170000D03*
X92550000Y-77170000D03*
%TD*%
D45*
%TO.C,D5*%
X77197500Y-103290000D03*
X79072500Y-103290000D03*
%TD*%
D11*
%TO.C,RV2*%
X109410000Y-82150000D03*
D12*
X108260000Y-86150000D03*
D11*
X107110000Y-82150000D03*
%TD*%
D46*
%TO.C,J4*%
X84250000Y-103000000D03*
D47*
X84250000Y-105540000D03*
D48*
X84250000Y-108080000D03*
X84250000Y-110620000D03*
D47*
X84250000Y-113160000D03*
D48*
X84250000Y-115700000D03*
%TD*%
D49*
%TO.C,J5*%
X110000000Y-111000000D03*
X115000000Y-111000000D03*
%TD*%
D28*
%TO.C,R34*%
X113700000Y-71390000D03*
X113700000Y-72410000D03*
%TD*%
D14*
%TO.C,R14*%
X101185000Y-58235000D03*
X102205000Y-58235000D03*
%TD*%
D50*
%TO.C,L1*%
X60615000Y-107040000D03*
X60615000Y-105040000D03*
%TD*%
D51*
%TO.C,SW1*%
X64325000Y-54625000D03*
X64325000Y-60625000D03*
X60625000Y-54625000D03*
X60625000Y-60625000D03*
%TD*%
D52*
%TO.C,D8*%
X69537500Y-114650000D03*
X67962500Y-114650000D03*
%TD*%
D14*
%TO.C,R33*%
X94870000Y-92250000D03*
X95890000Y-92250000D03*
%TD*%
D25*
%TO.C,C39*%
X90480000Y-85720000D03*
X92030000Y-85720000D03*
%TD*%
D53*
%TO.C,D3*%
X68755000Y-98480000D03*
X73755000Y-98480000D03*
%TD*%
D42*
%TO.C,C24*%
X99250000Y-77100000D03*
X101150000Y-77100000D03*
%TD*%
D14*
%TO.C,R36*%
X101185000Y-56935000D03*
X102205000Y-56935000D03*
%TD*%
D13*
%TO.C,C22*%
X99750000Y-99425000D03*
X99750000Y-100975000D03*
%TD*%
D54*
%TO.C,R46*%
X68430000Y-74470000D03*
X68430000Y-73450000D03*
%TD*%
D19*
%TO.C,R4*%
X52520000Y-77110000D03*
X54345000Y-77110000D03*
%TD*%
D25*
%TO.C,C44*%
X90480000Y-87220000D03*
X92030000Y-87220000D03*
%TD*%
D55*
%TO.C,FID1*%
X105525000Y-116100000D03*
%TD*%
D56*
%TO.C,R30*%
X78130000Y-106967500D03*
X78130000Y-108792500D03*
%TD*%
D31*
%TO.C,C48*%
X114932500Y-69550000D03*
X113207500Y-69550000D03*
%TD*%
D57*
%TO.C,U5*%
X92800000Y-78400000D03*
D58*
X92350000Y-78400000D03*
X91900000Y-78400000D03*
X91450000Y-78400000D03*
X91000000Y-78400000D03*
X90550000Y-78400000D03*
D59*
X90100000Y-78400000D03*
D60*
X89500000Y-79000000D03*
D61*
X89500000Y-79450000D03*
X89500000Y-79900000D03*
X89500000Y-80350000D03*
X89500000Y-80800000D03*
X89500000Y-81250000D03*
D62*
X89500000Y-81700000D03*
D63*
X90100000Y-82300000D03*
D58*
X90550000Y-82300000D03*
X91000000Y-82300000D03*
X91450000Y-82300000D03*
X91900000Y-82300000D03*
X92350000Y-82300000D03*
D64*
X92800000Y-82300000D03*
D65*
X93400000Y-81700000D03*
D61*
X93400000Y-81250000D03*
X93400000Y-80800000D03*
X93400000Y-80350000D03*
X93400000Y-79900000D03*
X93400000Y-79450000D03*
D66*
X93400000Y-79000000D03*
D67*
X91450000Y-80350000D03*
%TD*%
D27*
%TO.C,TP7*%
X66450000Y-69250000D03*
%TD*%
%TO.C,TP8*%
X108975000Y-72600000D03*
%TD*%
D10*
%TO.C,R13*%
X100045000Y-56935000D03*
X99025000Y-56935000D03*
%TD*%
D17*
%TO.C,R37*%
X101087500Y-96400000D03*
X102912500Y-96400000D03*
%TD*%
D68*
%TO.C,H3*%
X125000000Y-115000000D03*
D69*
X125000000Y-115000000D03*
%TD*%
D68*
%TO.C,H4*%
X55000000Y-115000000D03*
D69*
X55000000Y-115000000D03*
%TD*%
D10*
%TO.C,R22*%
X100190000Y-65860000D03*
X99170000Y-65860000D03*
%TD*%
D27*
%TO.C,TP3*%
X115800000Y-71950000D03*
%TD*%
D37*
%TO.C,C7*%
X70185000Y-75730000D03*
X68635000Y-75730000D03*
%TD*%
D70*
%TO.C,J9*%
X114420000Y-65910000D03*
D48*
X111880000Y-65910000D03*
X109340000Y-65910000D03*
X106800000Y-65910000D03*
%TD*%
D71*
%TO.C,Q5*%
X109825000Y-96112500D03*
X107925000Y-96112500D03*
X108875000Y-97987500D03*
%TD*%
D31*
%TO.C,C2*%
X71487500Y-63475000D03*
X69762500Y-63475000D03*
%TD*%
D14*
%TO.C,R48*%
X76980000Y-60750000D03*
X78000000Y-60750000D03*
%TD*%
D21*
%TO.C,C32*%
X96850000Y-94350000D03*
X97810000Y-94350000D03*
%TD*%
D10*
%TO.C,R12*%
X100045000Y-55635000D03*
X99025000Y-55635000D03*
%TD*%
D13*
%TO.C,C12*%
X68555000Y-104705000D03*
X68555000Y-106255000D03*
%TD*%
D72*
%TO.C,SW3*%
X52600000Y-99550000D03*
X52600000Y-102050000D03*
X52600000Y-104550000D03*
%TD*%
D28*
%TO.C,R25*%
X92945000Y-71425000D03*
X92945000Y-72445000D03*
%TD*%
D10*
%TO.C,R8*%
X100045000Y-58235000D03*
X99025000Y-58235000D03*
%TD*%
D37*
%TO.C,C59*%
X60140000Y-103490000D03*
X58590000Y-103490000D03*
%TD*%
%TO.C,C10*%
X60090000Y-108590000D03*
X58540000Y-108590000D03*
%TD*%
%TO.C,C15*%
X102070000Y-51835000D03*
X100520000Y-51835000D03*
%TD*%
D28*
%TO.C,R28*%
X86595000Y-71460000D03*
X86595000Y-72480000D03*
%TD*%
D73*
%TO.C,U4*%
X72980000Y-101442500D03*
X72330000Y-101442500D03*
X71680000Y-101442500D03*
X71030000Y-101442500D03*
D74*
X70067500Y-102405000D03*
X70067500Y-103055000D03*
X70067500Y-103705000D03*
X70067500Y-104355000D03*
D73*
X71030000Y-105317500D03*
X71680000Y-105317500D03*
X72330000Y-105317500D03*
X72980000Y-105317500D03*
D74*
X73942500Y-104355000D03*
X73942500Y-103705000D03*
X73942500Y-103055000D03*
X73942500Y-102405000D03*
D75*
X72005000Y-103380000D03*
%TD*%
D25*
%TO.C,C58*%
X61590000Y-103490000D03*
X63140000Y-103490000D03*
%TD*%
D76*
%TO.C,L3*%
X86910000Y-86860000D03*
X88910000Y-86860000D03*
%TD*%
D77*
%TO.C,Q3*%
X68620000Y-71897500D03*
X70520000Y-71897500D03*
X69570000Y-70022500D03*
%TD*%
D10*
%TO.C,R9*%
X100045000Y-59535000D03*
X99025000Y-59535000D03*
%TD*%
D78*
%TO.C,L4*%
X67955000Y-101080000D03*
X67955000Y-103080000D03*
%TD*%
D79*
%TO.C,BT2*%
X72400000Y-117000000D03*
D46*
X74000000Y-115000000D03*
D12*
X76500000Y-115000000D03*
%TD*%
D25*
%TO.C,C52*%
X102940000Y-104060000D03*
X104490000Y-104060000D03*
%TD*%
D80*
%TO.C,C42*%
X98840000Y-93330000D03*
X98840000Y-92370000D03*
%TD*%
D29*
%TO.C,C3*%
X75295000Y-53335000D03*
X75295000Y-51785000D03*
%TD*%
D25*
%TO.C,C21*%
X96775000Y-102900000D03*
X98325000Y-102900000D03*
%TD*%
D37*
%TO.C,C60*%
X91172500Y-99050000D03*
X89622500Y-99050000D03*
%TD*%
D51*
%TO.C,SW2*%
X71600000Y-54625000D03*
X71600000Y-60625000D03*
X67900000Y-54625000D03*
X67900000Y-60625000D03*
%TD*%
D13*
%TO.C,C47*%
X93505000Y-84845000D03*
X93505000Y-86395000D03*
%TD*%
D54*
%TO.C,R24*%
X81300000Y-115760000D03*
X81300000Y-114740000D03*
%TD*%
D81*
%TO.C,J2*%
X107090000Y-51772500D03*
X108190000Y-51772500D03*
X109290000Y-51772500D03*
X110390000Y-51772500D03*
X111490000Y-51772500D03*
X112590000Y-51772500D03*
X113690000Y-51772500D03*
D82*
X114740000Y-51772500D03*
D83*
X104455000Y-57922500D03*
X104455000Y-61622500D03*
D84*
X104630000Y-51897500D03*
D85*
X107955000Y-62597500D03*
X113925000Y-62597500D03*
D86*
X115950000Y-52122500D03*
%TD*%
D18*
%TO.C,C46*%
X92255000Y-83540000D03*
X92255000Y-84500000D03*
%TD*%
D42*
%TO.C,C63*%
X87050000Y-110650000D03*
X88950000Y-110650000D03*
%TD*%
D56*
%TO.C,R51*%
X96800000Y-86512500D03*
X96800000Y-88337500D03*
%TD*%
D13*
%TO.C,C50*%
X95055000Y-84845000D03*
X95055000Y-86395000D03*
%TD*%
D17*
%TO.C,R6*%
X74215000Y-55130000D03*
X76040000Y-55130000D03*
%TD*%
D27*
%TO.C,TP6*%
X124950000Y-108800000D03*
%TD*%
D54*
%TO.C,R2*%
X60200000Y-66590000D03*
X60200000Y-65570000D03*
%TD*%
D68*
%TO.C,H2*%
X125000000Y-55000000D03*
D69*
X125000000Y-55000000D03*
%TD*%
D87*
%TO.C,R16*%
X66605000Y-107692500D03*
X66605000Y-104767500D03*
%TD*%
D10*
%TO.C,R11*%
X100045000Y-54335000D03*
X99025000Y-54335000D03*
%TD*%
D78*
%TO.C,L2*%
X91980000Y-95360000D03*
X91980000Y-97360000D03*
%TD*%
D70*
%TO.C,J10*%
X125375000Y-61350000D03*
D48*
X122835000Y-61350000D03*
X120295000Y-61350000D03*
%TD*%
D88*
%TO.C,R43*%
X70517500Y-109730000D03*
X67592500Y-109730000D03*
%TD*%
D29*
%TO.C,C4*%
X76820000Y-53335000D03*
X76820000Y-51785000D03*
%TD*%
D44*
%TO.C,R44*%
X105875000Y-98950000D03*
X105875000Y-97300000D03*
%TD*%
D21*
%TO.C,C23*%
X92970000Y-93270000D03*
X93930000Y-93270000D03*
%TD*%
D10*
%TO.C,R23*%
X100190000Y-66860000D03*
X99170000Y-66860000D03*
%TD*%
D89*
%TO.C,J7*%
X124000000Y-89000000D03*
D90*
X121460000Y-86460000D03*
X121460000Y-91540000D03*
X126540000Y-86460000D03*
X126540000Y-91540000D03*
%TD*%
D91*
%TO.C,R45*%
X69575000Y-116200000D03*
X67925000Y-116200000D03*
%TD*%
D39*
%TO.C,D7*%
X89300000Y-90687500D03*
X89300000Y-89112500D03*
%TD*%
D14*
%TO.C,R40*%
X101185000Y-60735000D03*
X102205000Y-60735000D03*
%TD*%
D37*
%TO.C,C54*%
X77115000Y-74220000D03*
X75565000Y-74220000D03*
%TD*%
D89*
%TO.C,J8*%
X56000000Y-89000000D03*
D90*
X53460000Y-86460000D03*
X53460000Y-91540000D03*
X58540000Y-86460000D03*
X58540000Y-91540000D03*
%TD*%
D28*
%TO.C,R35*%
X96900000Y-91300000D03*
X96900000Y-92320000D03*
%TD*%
D21*
%TO.C,C43*%
X90325000Y-83520000D03*
X91285000Y-83520000D03*
%TD*%
D11*
%TO.C,RV1*%
X102260000Y-93530000D03*
D12*
X103410000Y-89530000D03*
D11*
X104560000Y-93530000D03*
%TD*%
D71*
%TO.C,Q2*%
X66980000Y-73302500D03*
X65080000Y-73302500D03*
X66030000Y-75177500D03*
%TD*%
D26*
%TO.C,C45*%
X91285000Y-84470000D03*
X90325000Y-84470000D03*
%TD*%
D18*
%TO.C,C38*%
X96850000Y-95320000D03*
X96850000Y-96280000D03*
%TD*%
D92*
%TO.C,U2*%
X79745000Y-51875000D03*
X79745000Y-53145000D03*
X79745000Y-54415000D03*
X79745000Y-55685000D03*
X79745000Y-56955000D03*
X79745000Y-58225000D03*
X79745000Y-59495000D03*
X79745000Y-60765000D03*
X79745000Y-62035000D03*
X79745000Y-63305000D03*
X79745000Y-64575000D03*
X79745000Y-65845000D03*
X79745000Y-67115000D03*
X79745000Y-68385000D03*
D93*
X81510000Y-69635000D03*
X82780000Y-69635000D03*
X84050000Y-69635000D03*
X85320000Y-69635000D03*
X86590000Y-69635000D03*
X87860000Y-69635000D03*
X89130000Y-69635000D03*
X90400000Y-69635000D03*
X91670000Y-69635000D03*
X92940000Y-69635000D03*
X94210000Y-69635000D03*
X95480000Y-69635000D03*
D92*
X97245000Y-68385000D03*
X97245000Y-67115000D03*
X97245000Y-65845000D03*
X97245000Y-64575000D03*
X97245000Y-63305000D03*
X97245000Y-62035000D03*
X97245000Y-60765000D03*
X97245000Y-59495000D03*
X97245000Y-58225000D03*
X97245000Y-56955000D03*
X97245000Y-55685000D03*
X97245000Y-54415000D03*
X97245000Y-53145000D03*
X97245000Y-51875000D03*
D94*
X85595000Y-58195000D03*
X85595000Y-59595000D03*
X85595000Y-60995000D03*
X86995000Y-58195000D03*
X86995000Y-59595000D03*
X86995000Y-60995000D03*
X88395000Y-58195000D03*
X88395000Y-59595000D03*
X88395000Y-60995000D03*
%TD*%
D30*
%TO.C,C1*%
X62587500Y-63450000D03*
X64312500Y-63450000D03*
%TD*%
D18*
%TO.C,C35*%
X95900000Y-95320000D03*
X95900000Y-96280000D03*
%TD*%
D27*
%TO.C,TP4*%
X66650000Y-66100000D03*
%TD*%
D56*
%TO.C,R42*%
X120300000Y-55937500D03*
X120300000Y-57762500D03*
%TD*%
D95*
%TO.C,Q1*%
X76317500Y-108780000D03*
X76317500Y-106880000D03*
X74442500Y-107830000D03*
%TD*%
D71*
%TO.C,Q4*%
X74020000Y-72002500D03*
X72120000Y-72002500D03*
X73070000Y-73877500D03*
%TD*%
D96*
%TO.C,U3*%
X74170000Y-77870000D03*
X71870000Y-77870000D03*
D97*
X71870000Y-84170000D03*
D96*
X69570000Y-77870000D03*
%TD*%
D44*
%TO.C,R39*%
X87750000Y-90725000D03*
X87750000Y-89075000D03*
%TD*%
D45*
%TO.C,D1*%
X52495000Y-75010000D03*
X54370000Y-75010000D03*
%TD*%
D13*
%TO.C,C18*%
X89627500Y-95570000D03*
X89627500Y-97120000D03*
%TD*%
D28*
%TO.C,R47*%
X95550000Y-102740000D03*
X95550000Y-103760000D03*
%TD*%
%TO.C,R27*%
X91670000Y-71425000D03*
X91670000Y-72445000D03*
%TD*%
D42*
%TO.C,C26*%
X99250000Y-79150000D03*
X101150000Y-79150000D03*
%TD*%
D37*
%TO.C,C29*%
X88685000Y-84730000D03*
X87135000Y-84730000D03*
%TD*%
D19*
%TO.C,R15*%
X77202500Y-101100000D03*
X79027500Y-101100000D03*
%TD*%
D43*
%TO.C,R31*%
X85472500Y-83340000D03*
X83647500Y-83340000D03*
%TD*%
D28*
%TO.C,R53*%
X71050000Y-64740000D03*
X71050000Y-65760000D03*
%TD*%
D49*
%TO.C,J3*%
X93000000Y-111000000D03*
X98000000Y-111000000D03*
%TD*%
D10*
%TO.C,R21*%
X100045000Y-60735000D03*
X99025000Y-60735000D03*
%TD*%
D28*
%TO.C,R26*%
X87870000Y-71475000D03*
X87870000Y-72495000D03*
%TD*%
D46*
%TO.C,BT1*%
X65000000Y-114000000D03*
D98*
X62460000Y-114000000D03*
%TD*%
D37*
%TO.C,C31*%
X93230000Y-74870000D03*
X91680000Y-74870000D03*
%TD*%
D68*
%TO.C,H1*%
X55000000Y-55000000D03*
D69*
X55000000Y-55000000D03*
%TD*%
D45*
%TO.C,D2*%
X52495000Y-79180000D03*
X54370000Y-79180000D03*
%TD*%
D14*
%TO.C,R50*%
X76980000Y-58250000D03*
X78000000Y-58250000D03*
%TD*%
D40*
%TO.C,C36*%
X93820000Y-89010000D03*
X91920000Y-89010000D03*
%TD*%
D14*
%TO.C,R20*%
X101195000Y-55635000D03*
X102215000Y-55635000D03*
%TD*%
D99*
%TO.C,U1*%
X62600000Y-68887500D03*
X63550000Y-68887500D03*
X64500000Y-68887500D03*
X64500000Y-66612500D03*
X63550000Y-66612500D03*
X62600000Y-66612500D03*
%TD*%
D27*
%TO.C,TP5*%
X119550000Y-52150000D03*
%TD*%
D14*
%TO.C,R49*%
X76980000Y-59450000D03*
X78000000Y-59450000D03*
%TD*%
D100*
%TO.C,U6*%
X94425000Y-98500000D03*
X94425000Y-99000000D03*
X94425000Y-99500000D03*
X94425000Y-100000000D03*
X94425000Y-100500000D03*
D101*
X95350000Y-101425000D03*
X95850000Y-101425000D03*
X96350000Y-101425000D03*
X96850000Y-101425000D03*
X97350000Y-101425000D03*
D100*
X98275000Y-100500000D03*
X98275000Y-100000000D03*
X98275000Y-99500000D03*
X98275000Y-99000000D03*
X98275000Y-98500000D03*
D101*
X97350000Y-97575000D03*
X96850000Y-97575000D03*
X96350000Y-97575000D03*
X95850000Y-97575000D03*
X95350000Y-97575000D03*
D102*
X96350000Y-99500000D03*
%TD*%
D37*
%TO.C,C62*%
X73840000Y-70180000D03*
X72290000Y-70180000D03*
%TD*%
D32*
%TO.C,FL2*%
X59085511Y-81755511D03*
X57522805Y-80192805D03*
%TD*%
%TO.C,FL1*%
X120668647Y-95868647D03*
X122231353Y-97431353D03*
%TD*%
G36*
X92708689Y-81936148D02*
G01*
X92708922Y-81938093D01*
X92701829Y-81955218D01*
X92697673Y-81965251D01*
X92697663Y-81965274D01*
X92697660Y-81965281D01*
X92696470Y-81966174D01*
X92697000Y-81967205D01*
X92697000Y-82632794D01*
X92696473Y-82633819D01*
X92697671Y-82634743D01*
X92708921Y-82661904D01*
X92708660Y-82663887D01*
X92706812Y-82664652D01*
X92705225Y-82663434D01*
X92693977Y-82636278D01*
X92693968Y-82636256D01*
X92693966Y-82636251D01*
X92694209Y-82634535D01*
X92693086Y-82633375D01*
X92664211Y-82538196D01*
X92472465Y-82547622D01*
X92456962Y-82625571D01*
X92455765Y-82627029D01*
X92453889Y-82626844D01*
X92453000Y-82625181D01*
X92453000Y-81974818D01*
X92453889Y-81973155D01*
X92455765Y-81972970D01*
X92456962Y-81974428D01*
X92472465Y-82052377D01*
X92664211Y-82061803D01*
X92693086Y-81966624D01*
X92694200Y-81965473D01*
X92693974Y-81963728D01*
X92698133Y-81953688D01*
X92698132Y-81953688D01*
X92705225Y-81936565D01*
X92705284Y-81936436D01*
X92705285Y-81936434D01*
X92706907Y-81935335D01*
X92708689Y-81936148D01*
G37*
G36*
X90206914Y-81966629D02*
G01*
X90235781Y-82061798D01*
X90427529Y-82052380D01*
X90443038Y-81974417D01*
X90444235Y-81972959D01*
X90446111Y-81973144D01*
X90447000Y-81974807D01*
X90447000Y-82625190D01*
X90446111Y-82626853D01*
X90444235Y-82627038D01*
X90443038Y-82625580D01*
X90427530Y-82547615D01*
X90235776Y-82538201D01*
X90206914Y-82633368D01*
X90205643Y-82634682D01*
X90203835Y-82634414D01*
X90203000Y-82632788D01*
X90203000Y-81967210D01*
X90203835Y-81965584D01*
X90205643Y-81965316D01*
X90206914Y-81966629D01*
G37*
G36*
X92246111Y-81973142D02*
G01*
X92247000Y-81974805D01*
X92247000Y-82625189D01*
X92246111Y-82626852D01*
X92244235Y-82627037D01*
X92243038Y-82625579D01*
X92225943Y-82539631D01*
X92024057Y-82539631D01*
X92006962Y-82625576D01*
X92005765Y-82627034D01*
X92003889Y-82626849D01*
X92003000Y-82625186D01*
X92003000Y-81974820D01*
X92003889Y-81973157D01*
X92005765Y-81972972D01*
X92006962Y-81974430D01*
X92024052Y-82060365D01*
X92225939Y-82060370D01*
X92243038Y-81974415D01*
X92244235Y-81972957D01*
X92246111Y-81973142D01*
G37*
G36*
X91796111Y-81973142D02*
G01*
X91797000Y-81974805D01*
X91797000Y-82625189D01*
X91796111Y-82626852D01*
X91794235Y-82627037D01*
X91793038Y-82625579D01*
X91775943Y-82539631D01*
X91574057Y-82539631D01*
X91556962Y-82625576D01*
X91555765Y-82627034D01*
X91553889Y-82626849D01*
X91553000Y-82625186D01*
X91553000Y-81974820D01*
X91553889Y-81973157D01*
X91555765Y-81972972D01*
X91556962Y-81974430D01*
X91574052Y-82060365D01*
X91775939Y-82060370D01*
X91793038Y-81974415D01*
X91794235Y-81972957D01*
X91796111Y-81973142D01*
G37*
G36*
X91346111Y-81973142D02*
G01*
X91347000Y-81974805D01*
X91347000Y-82625189D01*
X91346111Y-82626852D01*
X91344235Y-82627037D01*
X91343038Y-82625579D01*
X91325943Y-82539631D01*
X91124057Y-82539631D01*
X91106962Y-82625576D01*
X91105765Y-82627034D01*
X91103889Y-82626849D01*
X91103000Y-82625186D01*
X91103000Y-81974820D01*
X91103889Y-81973157D01*
X91105765Y-81972972D01*
X91106962Y-81974430D01*
X91124052Y-82060365D01*
X91325939Y-82060370D01*
X91343038Y-81974415D01*
X91344235Y-81972957D01*
X91346111Y-81973142D01*
G37*
G36*
X90896111Y-81973142D02*
G01*
X90897000Y-81974805D01*
X90897000Y-82625189D01*
X90896111Y-82626852D01*
X90894235Y-82627037D01*
X90893038Y-82625579D01*
X90875943Y-82539631D01*
X90674057Y-82539631D01*
X90656962Y-82625576D01*
X90655765Y-82627034D01*
X90653889Y-82626849D01*
X90653000Y-82625186D01*
X90653000Y-81974820D01*
X90653889Y-81973157D01*
X90655765Y-81972972D01*
X90656962Y-81974430D01*
X90674052Y-82060365D01*
X90875939Y-82060370D01*
X90893038Y-81974415D01*
X90894235Y-81972957D01*
X90896111Y-81973142D01*
G37*
G36*
X93726843Y-81353889D02*
G01*
X93727028Y-81355765D01*
X93725570Y-81356962D01*
X93647620Y-81372465D01*
X93638196Y-81564213D01*
X93733373Y-81593086D01*
X93734558Y-81594233D01*
X93736144Y-81593928D01*
X93736147Y-81593929D01*
X93736280Y-81593978D01*
X93763434Y-81605225D01*
X93764083Y-81605659D01*
X93764084Y-81605660D01*
X93764653Y-81607335D01*
X93763670Y-81608806D01*
X93761905Y-81608922D01*
X93734747Y-81597673D01*
X93733807Y-81596478D01*
X93732792Y-81597000D01*
X93067205Y-81597000D01*
X93066180Y-81596474D01*
X93065259Y-81597670D01*
X93038093Y-81608922D01*
X93036148Y-81608689D01*
X93035335Y-81606907D01*
X93036434Y-81605285D01*
X93036436Y-81605284D01*
X93036565Y-81605225D01*
X93063724Y-81593976D01*
X93063746Y-81593967D01*
X93063751Y-81593965D01*
X93065464Y-81594208D01*
X93066624Y-81593086D01*
X93161802Y-81564208D01*
X93152375Y-81372465D01*
X93074428Y-81356962D01*
X93072970Y-81355765D01*
X93073155Y-81353889D01*
X93074818Y-81353000D01*
X93725180Y-81353000D01*
X93726843Y-81353889D01*
G37*
G36*
X89826843Y-81353889D02*
G01*
X89827028Y-81355765D01*
X89825570Y-81356962D01*
X89747620Y-81372465D01*
X89738196Y-81564213D01*
X89833373Y-81593086D01*
X89834558Y-81594233D01*
X89836144Y-81593928D01*
X89836147Y-81593929D01*
X89836280Y-81593978D01*
X89863434Y-81605225D01*
X89864083Y-81605659D01*
X89864084Y-81605660D01*
X89864653Y-81607335D01*
X89863670Y-81608806D01*
X89861905Y-81608922D01*
X89834747Y-81597673D01*
X89833807Y-81596478D01*
X89832792Y-81597000D01*
X89167205Y-81597000D01*
X89166180Y-81596474D01*
X89165259Y-81597670D01*
X89138093Y-81608922D01*
X89136148Y-81608689D01*
X89135335Y-81606907D01*
X89136434Y-81605285D01*
X89136436Y-81605284D01*
X89136565Y-81605225D01*
X89163724Y-81593976D01*
X89163746Y-81593967D01*
X89163751Y-81593965D01*
X89165464Y-81594208D01*
X89166624Y-81593086D01*
X89261802Y-81564208D01*
X89252375Y-81372465D01*
X89174428Y-81356962D01*
X89172970Y-81355765D01*
X89173155Y-81353889D01*
X89174818Y-81353000D01*
X89825180Y-81353000D01*
X89826843Y-81353889D01*
G37*
G36*
X93726842Y-80903889D02*
G01*
X93727027Y-80905765D01*
X93725569Y-80906962D01*
X93639633Y-80924052D01*
X93639628Y-81125939D01*
X93725584Y-81143038D01*
X93727042Y-81144235D01*
X93726857Y-81146111D01*
X93725194Y-81147000D01*
X93074810Y-81147000D01*
X93073147Y-81146111D01*
X93072962Y-81144235D01*
X93074420Y-81143038D01*
X93160368Y-81125943D01*
X93160368Y-80924057D01*
X93074423Y-80906962D01*
X93072965Y-80905765D01*
X93073150Y-80903889D01*
X93074813Y-80903000D01*
X93725179Y-80903000D01*
X93726842Y-80903889D01*
G37*
G36*
X89826842Y-80903889D02*
G01*
X89827027Y-80905765D01*
X89825569Y-80906962D01*
X89739633Y-80924052D01*
X89739628Y-81125939D01*
X89825584Y-81143038D01*
X89827042Y-81144235D01*
X89826857Y-81146111D01*
X89825194Y-81147000D01*
X89174810Y-81147000D01*
X89173147Y-81146111D01*
X89172962Y-81144235D01*
X89174420Y-81143038D01*
X89260368Y-81125943D01*
X89260368Y-80924057D01*
X89174423Y-80906962D01*
X89172965Y-80905765D01*
X89173150Y-80903889D01*
X89174813Y-80903000D01*
X89825179Y-80903000D01*
X89826842Y-80903889D01*
G37*
G36*
X93726842Y-80453889D02*
G01*
X93727027Y-80455765D01*
X93725569Y-80456962D01*
X93639633Y-80474052D01*
X93639628Y-80675939D01*
X93725584Y-80693038D01*
X93727042Y-80694235D01*
X93726857Y-80696111D01*
X93725194Y-80697000D01*
X93074810Y-80697000D01*
X93073147Y-80696111D01*
X93072962Y-80694235D01*
X93074420Y-80693038D01*
X93160368Y-80675943D01*
X93160368Y-80474057D01*
X93074423Y-80456962D01*
X93072965Y-80455765D01*
X93073150Y-80453889D01*
X93074813Y-80453000D01*
X93725179Y-80453000D01*
X93726842Y-80453889D01*
G37*
G36*
X89826842Y-80453889D02*
G01*
X89827027Y-80455765D01*
X89825569Y-80456962D01*
X89739633Y-80474052D01*
X89739628Y-80675939D01*
X89825584Y-80693038D01*
X89827042Y-80694235D01*
X89826857Y-80696111D01*
X89825194Y-80697000D01*
X89174810Y-80697000D01*
X89173147Y-80696111D01*
X89172962Y-80694235D01*
X89174420Y-80693038D01*
X89260368Y-80675943D01*
X89260368Y-80474057D01*
X89174423Y-80456962D01*
X89172965Y-80455765D01*
X89173150Y-80453889D01*
X89174813Y-80453000D01*
X89825179Y-80453000D01*
X89826842Y-80453889D01*
G37*
G36*
X93726842Y-80003889D02*
G01*
X93727027Y-80005765D01*
X93725569Y-80006962D01*
X93639633Y-80024052D01*
X93639628Y-80225939D01*
X93725584Y-80243038D01*
X93727042Y-80244235D01*
X93726857Y-80246111D01*
X93725194Y-80247000D01*
X93074810Y-80247000D01*
X93073147Y-80246111D01*
X93072962Y-80244235D01*
X93074420Y-80243038D01*
X93160368Y-80225943D01*
X93160368Y-80024057D01*
X93074423Y-80006962D01*
X93072965Y-80005765D01*
X93073150Y-80003889D01*
X93074813Y-80003000D01*
X93725179Y-80003000D01*
X93726842Y-80003889D01*
G37*
G36*
X89826842Y-80003889D02*
G01*
X89827027Y-80005765D01*
X89825569Y-80006962D01*
X89739633Y-80024052D01*
X89739628Y-80225939D01*
X89825584Y-80243038D01*
X89827042Y-80244235D01*
X89826857Y-80246111D01*
X89825194Y-80247000D01*
X89174810Y-80247000D01*
X89173147Y-80246111D01*
X89172962Y-80244235D01*
X89174420Y-80243038D01*
X89260368Y-80225943D01*
X89260368Y-80024057D01*
X89174423Y-80006962D01*
X89172965Y-80005765D01*
X89173150Y-80003889D01*
X89174813Y-80003000D01*
X89825179Y-80003000D01*
X89826842Y-80003889D01*
G37*
G36*
X93726842Y-79553889D02*
G01*
X93727027Y-79555765D01*
X93725569Y-79556962D01*
X93639633Y-79574052D01*
X93639628Y-79775939D01*
X93725584Y-79793038D01*
X93727042Y-79794235D01*
X93726857Y-79796111D01*
X93725194Y-79797000D01*
X93074810Y-79797000D01*
X93073147Y-79796111D01*
X93072962Y-79794235D01*
X93074420Y-79793038D01*
X93160368Y-79775943D01*
X93160368Y-79574057D01*
X93074423Y-79556962D01*
X93072965Y-79555765D01*
X93073150Y-79553889D01*
X93074813Y-79553000D01*
X93725179Y-79553000D01*
X93726842Y-79553889D01*
G37*
G36*
X89826842Y-79553889D02*
G01*
X89827027Y-79555765D01*
X89825569Y-79556962D01*
X89739633Y-79574052D01*
X89739628Y-79775939D01*
X89825584Y-79793038D01*
X89827042Y-79794235D01*
X89826857Y-79796111D01*
X89825194Y-79797000D01*
X89174810Y-79797000D01*
X89173147Y-79796111D01*
X89172962Y-79794235D01*
X89174420Y-79793038D01*
X89260368Y-79775943D01*
X89260368Y-79574057D01*
X89174423Y-79556962D01*
X89172965Y-79555765D01*
X89173150Y-79553889D01*
X89174813Y-79553000D01*
X89825179Y-79553000D01*
X89826842Y-79553889D01*
G37*
G36*
X93734412Y-79103835D02*
G01*
X93734680Y-79105643D01*
X93733367Y-79106914D01*
X93638201Y-79135778D01*
X93647617Y-79327529D01*
X93725582Y-79343038D01*
X93727040Y-79344235D01*
X93726855Y-79346111D01*
X93725192Y-79347000D01*
X93074807Y-79347000D01*
X93073144Y-79346111D01*
X93072959Y-79344235D01*
X93074417Y-79343038D01*
X93152382Y-79327529D01*
X93161798Y-79135778D01*
X93066632Y-79106914D01*
X93065319Y-79105643D01*
X93065587Y-79103835D01*
X93067213Y-79103000D01*
X93732786Y-79103000D01*
X93734412Y-79103835D01*
G37*
G36*
X89834412Y-79103835D02*
G01*
X89834680Y-79105643D01*
X89833367Y-79106914D01*
X89738201Y-79135778D01*
X89747617Y-79327529D01*
X89825582Y-79343038D01*
X89827040Y-79344235D01*
X89826855Y-79346111D01*
X89825192Y-79347000D01*
X89174807Y-79347000D01*
X89173144Y-79346111D01*
X89172959Y-79344235D01*
X89174417Y-79343038D01*
X89252382Y-79327529D01*
X89261798Y-79135778D01*
X89166632Y-79106914D01*
X89165319Y-79105643D01*
X89165587Y-79103835D01*
X89167213Y-79103000D01*
X89832786Y-79103000D01*
X89834412Y-79103835D01*
G37*
G36*
X92708689Y-78036148D02*
G01*
X92708922Y-78038093D01*
X92701829Y-78055218D01*
X92697673Y-78065251D01*
X92697663Y-78065274D01*
X92697660Y-78065281D01*
X92696470Y-78066174D01*
X92697000Y-78067205D01*
X92697000Y-78732794D01*
X92696473Y-78733819D01*
X92697671Y-78734743D01*
X92707338Y-78758082D01*
X92707077Y-78760065D01*
X92705229Y-78760830D01*
X92703642Y-78759612D01*
X92693977Y-78736278D01*
X92693968Y-78736256D01*
X92693966Y-78736251D01*
X92694209Y-78734535D01*
X92693086Y-78733375D01*
X92664211Y-78638196D01*
X92472465Y-78647622D01*
X92456962Y-78725571D01*
X92455765Y-78727029D01*
X92453889Y-78726844D01*
X92453000Y-78725181D01*
X92453000Y-78074818D01*
X92453889Y-78073155D01*
X92455765Y-78072970D01*
X92456962Y-78074428D01*
X92472465Y-78152377D01*
X92664211Y-78161803D01*
X92693086Y-78066624D01*
X92694200Y-78065473D01*
X92693974Y-78063728D01*
X92698133Y-78053688D01*
X92698133Y-78053687D01*
X92705225Y-78036565D01*
X92705284Y-78036436D01*
X92705285Y-78036434D01*
X92706907Y-78035335D01*
X92708689Y-78036148D01*
G37*
G36*
X90206914Y-78066629D02*
G01*
X90235781Y-78161798D01*
X90427529Y-78152380D01*
X90443038Y-78074417D01*
X90444235Y-78072959D01*
X90446111Y-78073144D01*
X90447000Y-78074807D01*
X90447000Y-78725190D01*
X90446111Y-78726853D01*
X90444235Y-78727038D01*
X90443038Y-78725580D01*
X90427530Y-78647615D01*
X90235776Y-78638201D01*
X90206914Y-78733368D01*
X90205643Y-78734682D01*
X90203835Y-78734414D01*
X90203000Y-78732788D01*
X90203000Y-78067210D01*
X90203835Y-78065584D01*
X90205643Y-78065316D01*
X90206914Y-78066629D01*
G37*
G36*
X92246111Y-78073142D02*
G01*
X92247000Y-78074805D01*
X92247000Y-78725189D01*
X92246111Y-78726852D01*
X92244235Y-78727037D01*
X92243038Y-78725579D01*
X92225943Y-78639631D01*
X92024057Y-78639631D01*
X92006962Y-78725576D01*
X92005765Y-78727034D01*
X92003889Y-78726849D01*
X92003000Y-78725186D01*
X92003000Y-78074820D01*
X92003889Y-78073157D01*
X92005765Y-78072972D01*
X92006962Y-78074430D01*
X92024052Y-78160365D01*
X92225939Y-78160370D01*
X92243038Y-78074415D01*
X92244235Y-78072957D01*
X92246111Y-78073142D01*
G37*
G36*
X91796111Y-78073142D02*
G01*
X91797000Y-78074805D01*
X91797000Y-78725189D01*
X91796111Y-78726852D01*
X91794235Y-78727037D01*
X91793038Y-78725579D01*
X91775943Y-78639631D01*
X91574057Y-78639631D01*
X91556962Y-78725576D01*
X91555765Y-78727034D01*
X91553889Y-78726849D01*
X91553000Y-78725186D01*
X91553000Y-78074820D01*
X91553889Y-78073157D01*
X91555765Y-78072972D01*
X91556962Y-78074430D01*
X91574052Y-78160365D01*
X91775939Y-78160370D01*
X91793038Y-78074415D01*
X91794235Y-78072957D01*
X91796111Y-78073142D01*
G37*
G36*
X91346111Y-78073142D02*
G01*
X91347000Y-78074805D01*
X91347000Y-78725189D01*
X91346111Y-78726852D01*
X91344235Y-78727037D01*
X91343038Y-78725579D01*
X91325943Y-78639631D01*
X91124057Y-78639631D01*
X91106962Y-78725576D01*
X91105765Y-78727034D01*
X91103889Y-78726849D01*
X91103000Y-78725186D01*
X91103000Y-78074820D01*
X91103889Y-78073157D01*
X91105765Y-78072972D01*
X91106962Y-78074430D01*
X91124052Y-78160365D01*
X91325939Y-78160370D01*
X91343038Y-78074415D01*
X91344235Y-78072957D01*
X91346111Y-78073142D01*
G37*
G36*
X90896111Y-78073142D02*
G01*
X90897000Y-78074805D01*
X90897000Y-78725189D01*
X90896111Y-78726852D01*
X90894235Y-78727037D01*
X90893038Y-78725579D01*
X90875943Y-78639631D01*
X90674057Y-78639631D01*
X90656962Y-78725576D01*
X90655765Y-78727034D01*
X90653889Y-78726849D01*
X90653000Y-78725186D01*
X90653000Y-78074820D01*
X90653889Y-78073157D01*
X90655765Y-78072972D01*
X90656962Y-78074430D01*
X90674052Y-78160365D01*
X90875939Y-78160370D01*
X90893038Y-78074415D01*
X90894235Y-78072957D01*
X90896111Y-78073142D01*
G37*
G36*
X59111413Y-70658586D02*
G01*
X59111999Y-70660000D01*
X59111999Y-70661525D01*
X59111545Y-70662794D01*
X59110389Y-70663487D01*
X59032135Y-70679046D01*
X59032122Y-70880935D01*
X59110389Y-70896507D01*
X59111545Y-70897200D01*
X59111999Y-70898469D01*
X59111999Y-70900000D01*
X59111413Y-70901414D01*
X59109999Y-70902000D01*
X57700000Y-70902000D01*
X57698586Y-70901414D01*
X57698000Y-70900000D01*
X57698000Y-70898470D01*
X57698454Y-70897201D01*
X57699610Y-70896508D01*
X57777870Y-70880942D01*
X57777870Y-70679058D01*
X57699610Y-70663491D01*
X57698454Y-70662798D01*
X57698000Y-70661529D01*
X57698000Y-70660000D01*
X57698586Y-70658586D01*
X57700000Y-70658000D01*
X59109999Y-70658000D01*
X59111413Y-70658586D01*
G37*
G36*
X59111413Y-69308586D02*
G01*
X59111999Y-69310000D01*
X59111999Y-69311525D01*
X59111545Y-69312794D01*
X59110389Y-69313487D01*
X59032135Y-69329046D01*
X59032122Y-69530935D01*
X59110389Y-69546507D01*
X59111545Y-69547200D01*
X59111999Y-69548469D01*
X59111999Y-69550000D01*
X59111413Y-69551414D01*
X59109999Y-69552000D01*
X57700000Y-69552000D01*
X57698586Y-69551414D01*
X57698000Y-69550000D01*
X57698000Y-69548470D01*
X57698454Y-69547201D01*
X57699610Y-69546508D01*
X57777870Y-69530942D01*
X57777870Y-69329058D01*
X57699610Y-69313491D01*
X57698454Y-69312798D01*
X57698000Y-69311529D01*
X57698000Y-69310000D01*
X57698586Y-69308586D01*
X57700000Y-69308000D01*
X59109999Y-69308000D01*
X59111413Y-69308586D01*
G37*
G36*
X59111413Y-68808586D02*
G01*
X59111999Y-68810000D01*
X59111999Y-68811525D01*
X59111545Y-68812794D01*
X59110389Y-68813487D01*
X59032135Y-68829046D01*
X59032122Y-69030935D01*
X59110389Y-69046507D01*
X59111545Y-69047200D01*
X59111999Y-69048469D01*
X59111999Y-69050000D01*
X59111413Y-69051414D01*
X59109999Y-69052000D01*
X57700000Y-69052000D01*
X57698586Y-69051414D01*
X57698000Y-69050000D01*
X57698000Y-69048470D01*
X57698454Y-69047201D01*
X57699610Y-69046508D01*
X57777870Y-69030942D01*
X57777870Y-68829058D01*
X57699610Y-68813491D01*
X57698454Y-68812798D01*
X57698000Y-68811529D01*
X57698000Y-68810000D01*
X57698586Y-68808586D01*
X57700000Y-68808000D01*
X59109999Y-68808000D01*
X59111413Y-68808586D01*
G37*
G36*
X59111413Y-68308586D02*
G01*
X59111999Y-68310000D01*
X59111999Y-68311525D01*
X59111545Y-68312794D01*
X59110389Y-68313487D01*
X59032135Y-68329046D01*
X59032122Y-68530935D01*
X59110389Y-68546507D01*
X59111545Y-68547200D01*
X59111999Y-68548469D01*
X59111999Y-68550000D01*
X59111413Y-68551414D01*
X59109999Y-68552000D01*
X57700000Y-68552000D01*
X57698586Y-68551414D01*
X57698000Y-68550000D01*
X57698000Y-68548470D01*
X57698454Y-68547201D01*
X57699610Y-68546508D01*
X57777870Y-68530942D01*
X57777870Y-68329058D01*
X57699610Y-68313491D01*
X57698454Y-68312798D01*
X57698000Y-68311529D01*
X57698000Y-68310000D01*
X57698586Y-68308586D01*
X57700000Y-68308000D01*
X59109999Y-68308000D01*
X59111413Y-68308586D01*
G37*
G36*
X59111413Y-67808586D02*
G01*
X59111999Y-67810000D01*
X59111999Y-67811525D01*
X59111545Y-67812794D01*
X59110389Y-67813487D01*
X59032135Y-67829046D01*
X59032122Y-68030935D01*
X59110389Y-68046507D01*
X59111545Y-68047200D01*
X59111999Y-68048469D01*
X59111999Y-68050000D01*
X59111413Y-68051414D01*
X59109999Y-68052000D01*
X57700000Y-68052000D01*
X57698586Y-68051414D01*
X57698000Y-68050000D01*
X57698000Y-68048470D01*
X57698454Y-68047201D01*
X57699610Y-68046508D01*
X57777870Y-68030942D01*
X57777870Y-67829058D01*
X57699610Y-67813491D01*
X57698454Y-67812798D01*
X57698000Y-67811529D01*
X57698000Y-67810000D01*
X57698586Y-67808586D01*
X57700000Y-67808000D01*
X59109999Y-67808000D01*
X59111413Y-67808586D01*
G37*
G36*
X59111413Y-67308586D02*
G01*
X59111999Y-67310000D01*
X59111999Y-67311525D01*
X59111545Y-67312794D01*
X59110389Y-67313487D01*
X59032135Y-67329046D01*
X59032122Y-67530935D01*
X59110389Y-67546507D01*
X59111545Y-67547200D01*
X59111999Y-67548469D01*
X59111999Y-67550000D01*
X59111413Y-67551414D01*
X59109999Y-67552000D01*
X57700000Y-67552000D01*
X57698586Y-67551414D01*
X57698000Y-67550000D01*
X57698000Y-67548470D01*
X57698454Y-67547201D01*
X57699610Y-67546508D01*
X57777870Y-67530942D01*
X57777870Y-67329058D01*
X57699610Y-67313491D01*
X57698454Y-67312798D01*
X57698000Y-67311529D01*
X57698000Y-67310000D01*
X57698586Y-67308586D01*
X57700000Y-67308000D01*
X59109999Y-67308000D01*
X59111413Y-67308586D01*
G37*
G36*
X59111413Y-66808586D02*
G01*
X59111999Y-66810000D01*
X59111999Y-66811525D01*
X59111545Y-66812794D01*
X59110389Y-66813487D01*
X59032135Y-66829046D01*
X59032122Y-67030935D01*
X59110389Y-67046507D01*
X59111545Y-67047200D01*
X59111999Y-67048469D01*
X59111999Y-67050000D01*
X59111413Y-67051414D01*
X59109999Y-67052000D01*
X57700000Y-67052000D01*
X57698586Y-67051414D01*
X57698000Y-67050000D01*
X57698000Y-67048470D01*
X57698454Y-67047201D01*
X57699610Y-67046508D01*
X57777870Y-67030942D01*
X57777870Y-66829058D01*
X57699610Y-66813491D01*
X57698454Y-66812798D01*
X57698000Y-66811529D01*
X57698000Y-66810000D01*
X57698586Y-66808586D01*
X57700000Y-66808000D01*
X59109999Y-66808000D01*
X59111413Y-66808586D01*
G37*
G36*
X59111413Y-66308586D02*
G01*
X59111999Y-66310000D01*
X59111999Y-66311525D01*
X59111545Y-66312794D01*
X59110389Y-66313487D01*
X59032135Y-66329046D01*
X59032122Y-66530935D01*
X59110389Y-66546507D01*
X59111545Y-66547200D01*
X59111999Y-66548469D01*
X59111999Y-66550000D01*
X59111413Y-66551414D01*
X59109999Y-66552000D01*
X57700000Y-66552000D01*
X57698586Y-66551414D01*
X57698000Y-66550000D01*
X57698000Y-66548470D01*
X57698454Y-66547201D01*
X57699610Y-66546508D01*
X57777870Y-66530942D01*
X57777870Y-66329058D01*
X57699610Y-66313491D01*
X57698454Y-66312798D01*
X57698000Y-66311529D01*
X57698000Y-66310000D01*
X57698586Y-66308586D01*
X57700000Y-66308000D01*
X59109999Y-66308000D01*
X59111413Y-66308586D01*
G37*
G36*
X59111413Y-64958586D02*
G01*
X59111999Y-64960000D01*
X59111999Y-64961525D01*
X59111545Y-64962794D01*
X59110389Y-64963487D01*
X59032135Y-64979046D01*
X59032122Y-65180935D01*
X59110389Y-65196507D01*
X59111545Y-65197200D01*
X59111999Y-65198469D01*
X59111999Y-65200000D01*
X59111413Y-65201414D01*
X59109999Y-65202000D01*
X57700000Y-65202000D01*
X57698586Y-65201414D01*
X57698000Y-65200000D01*
X57698000Y-65198470D01*
X57698454Y-65197201D01*
X57699610Y-65196508D01*
X57777870Y-65180942D01*
X57777870Y-64979058D01*
X57699610Y-64963491D01*
X57698454Y-64962798D01*
X57698000Y-64961529D01*
X57698000Y-64960000D01*
X57698586Y-64958586D01*
X57700000Y-64958000D01*
X59109999Y-64958000D01*
X59111413Y-64958586D01*
G37*
M02*
