%TF.GenerationSoftware,KiCad,Pcbnew,7.0.1*%
%TF.CreationDate,2023-04-13T23:04:44+03:00*%
%TF.ProjectId,cross_band_handy_walkie_talkie_ES8388,63726f73-735f-4626-916e-645f68616e64,rev?*%
%TF.SameCoordinates,Original*%
%TF.FileFunction,Paste,Top*%
%TF.FilePolarity,Positive*%
%FSLAX46Y46*%
G04 Gerber Fmt 4.6, Leading zero omitted, Abs format (unit mm)*
G04 Created by KiCad (PCBNEW 7.0.1) date 2023-04-13 23:04:44*
%MOMM*%
%LPD*%
G01*
G04 APERTURE LIST*
G04 Aperture macros list*
%AMRoundRect*
0 Rectangle with rounded corners*
0 $1 Rounding radius*
0 $2 $3 $4 $5 $6 $7 $8 $9 X,Y pos of 4 corners*
0 Add a 4 corners polygon primitive as box body*
4,1,4,$2,$3,$4,$5,$6,$7,$8,$9,$2,$3,0*
0 Add four circle primitives for the rounded corners*
1,1,$1+$1,$2,$3*
1,1,$1+$1,$4,$5*
1,1,$1+$1,$6,$7*
1,1,$1+$1,$8,$9*
0 Add four rect primitives between the rounded corners*
20,1,$1+$1,$2,$3,$4,$5,0*
20,1,$1+$1,$4,$5,$6,$7,0*
20,1,$1+$1,$6,$7,$8,$9,0*
20,1,$1+$1,$8,$9,$2,$3,0*%
%AMFreePoly0*
4,1,14,0.318306,0.106694,0.381694,0.043306,0.400000,-0.000888,0.400000,-0.062500,0.381694,-0.106694,0.337500,-0.125000,-0.337500,-0.125000,-0.381694,-0.106694,-0.400000,-0.062500,-0.400000,0.062500,-0.381694,0.106694,-0.337500,0.125000,0.274112,0.125000,0.318306,0.106694,0.318306,0.106694,$1*%
%AMFreePoly1*
4,1,14,0.381694,0.106694,0.400000,0.062500,0.400000,0.000888,0.381694,-0.043306,0.318306,-0.106694,0.274112,-0.125000,-0.337500,-0.125000,-0.381694,-0.106694,-0.400000,-0.062500,-0.400000,0.062500,-0.381694,0.106694,-0.337500,0.125000,0.337500,0.125000,0.381694,0.106694,0.381694,0.106694,$1*%
%AMFreePoly2*
4,1,14,0.106694,0.381694,0.125000,0.337500,0.125000,-0.337500,0.106694,-0.381694,0.062500,-0.400000,-0.062500,-0.400000,-0.106694,-0.381694,-0.125000,-0.337500,-0.125000,0.274112,-0.106694,0.318306,-0.043306,0.381694,0.000888,0.400000,0.062500,0.400000,0.106694,0.381694,0.106694,0.381694,$1*%
%AMFreePoly3*
4,1,14,0.043306,0.381694,0.106694,0.318306,0.125000,0.274112,0.125000,-0.337500,0.106694,-0.381694,0.062500,-0.400000,-0.062500,-0.400000,-0.106694,-0.381694,-0.125000,-0.337500,-0.125000,0.337500,-0.106694,0.381694,-0.062500,0.400000,-0.000888,0.400000,0.043306,0.381694,0.043306,0.381694,$1*%
%AMFreePoly4*
4,1,14,0.381694,0.106694,0.400000,0.062500,0.400000,-0.062500,0.381694,-0.106694,0.337500,-0.125000,-0.274112,-0.125000,-0.318306,-0.106693,-0.381694,-0.043306,-0.400000,0.000888,-0.400000,0.062500,-0.381694,0.106694,-0.337500,0.125000,0.337500,0.125000,0.381694,0.106694,0.381694,0.106694,$1*%
%AMFreePoly5*
4,1,14,0.381694,0.106694,0.400000,0.062500,0.400000,-0.062500,0.381694,-0.106694,0.337500,-0.125000,-0.337500,-0.125000,-0.381694,-0.106694,-0.400000,-0.062500,-0.400000,-0.000888,-0.381694,0.043306,-0.318306,0.106694,-0.274112,0.125000,0.337500,0.125000,0.381694,0.106694,0.381694,0.106694,$1*%
%AMFreePoly6*
4,1,14,0.106694,0.381694,0.125000,0.337500,0.125000,-0.274112,0.106694,-0.318306,0.043306,-0.381694,-0.000888,-0.400000,-0.062500,-0.400000,-0.106694,-0.381694,-0.125000,-0.337500,-0.125000,0.337500,-0.106694,0.381694,-0.062500,0.400000,0.062500,0.400000,0.106694,0.381694,0.106694,0.381694,$1*%
%AMFreePoly7*
4,1,14,0.106694,0.381694,0.125000,0.337500,0.125000,-0.337500,0.106694,-0.381694,0.062500,-0.400000,0.000888,-0.400000,-0.043306,-0.381693,-0.106694,-0.318306,-0.125000,-0.274112,-0.125000,0.337500,-0.106694,0.381694,-0.062500,0.400000,0.062500,0.400000,0.106694,0.381694,0.106694,0.381694,$1*%
G04 Aperture macros list end*
%ADD10RoundRect,0.250000X-0.270000X0.270000X-0.270000X-0.270000X0.270000X-0.270000X0.270000X0.270000X0*%
%ADD11FreePoly0,270.000000*%
%ADD12RoundRect,0.062500X-0.062500X0.337500X-0.062500X-0.337500X0.062500X-0.337500X0.062500X0.337500X0*%
%ADD13FreePoly1,270.000000*%
%ADD14FreePoly2,270.000000*%
%ADD15RoundRect,0.062500X-0.337500X0.062500X-0.337500X-0.062500X0.337500X-0.062500X0.337500X0.062500X0*%
%ADD16FreePoly3,270.000000*%
%ADD17FreePoly4,270.000000*%
%ADD18FreePoly5,270.000000*%
%ADD19FreePoly6,270.000000*%
%ADD20FreePoly7,270.000000*%
%ADD21RoundRect,0.077480X-0.642520X-1.160020X0.642520X-1.160020X0.642520X1.160020X-0.642520X1.160020X0*%
%ADD22RoundRect,0.135000X0.135000X0.185000X-0.135000X0.185000X-0.135000X-0.185000X0.135000X-0.185000X0*%
%ADD23R,1.300000X2.000000*%
%ADD24R,2.000000X2.000000*%
%ADD25RoundRect,0.225000X-0.250000X0.225000X-0.250000X-0.225000X0.250000X-0.225000X0.250000X0.225000X0*%
%ADD26RoundRect,0.135000X-0.135000X-0.185000X0.135000X-0.185000X0.135000X0.185000X-0.135000X0.185000X0*%
%ADD27RoundRect,0.150000X-0.587500X-0.150000X0.587500X-0.150000X0.587500X0.150000X-0.587500X0.150000X0*%
%ADD28RoundRect,0.250000X0.262500X0.450000X-0.262500X0.450000X-0.262500X-0.450000X0.262500X-0.450000X0*%
%ADD29RoundRect,0.237500X-0.250000X-0.237500X0.250000X-0.237500X0.250000X0.237500X-0.250000X0.237500X0*%
%ADD30RoundRect,0.140000X-0.170000X0.140000X-0.170000X-0.140000X0.170000X-0.140000X0.170000X0.140000X0*%
%ADD31RoundRect,0.250000X-0.262500X-0.450000X0.262500X-0.450000X0.262500X0.450000X-0.262500X0.450000X0*%
%ADD32RoundRect,0.140000X-0.140000X-0.170000X0.140000X-0.170000X0.140000X0.170000X-0.140000X0.170000X0*%
%ADD33RoundRect,0.218750X-0.218750X-0.256250X0.218750X-0.256250X0.218750X0.256250X-0.218750X0.256250X0*%
%ADD34RoundRect,0.225000X-0.225000X-0.250000X0.225000X-0.250000X0.225000X0.250000X-0.225000X0.250000X0*%
%ADD35RoundRect,0.140000X0.140000X0.170000X-0.140000X0.170000X-0.140000X-0.170000X0.140000X-0.170000X0*%
%ADD36RoundRect,0.135000X-0.185000X0.135000X-0.185000X-0.135000X0.185000X-0.135000X0.185000X0.135000X0*%
%ADD37RoundRect,0.225000X0.250000X-0.225000X0.250000X0.225000X-0.250000X0.225000X-0.250000X-0.225000X0*%
%ADD38RoundRect,0.237500X-0.300000X-0.237500X0.300000X-0.237500X0.300000X0.237500X-0.300000X0.237500X0*%
%ADD39RoundRect,0.237500X0.300000X0.237500X-0.300000X0.237500X-0.300000X-0.237500X0.300000X-0.237500X0*%
%ADD40R,1.305000X0.540000*%
%ADD41R,1.305000X0.270000*%
%ADD42RoundRect,0.225000X0.225000X0.250000X-0.225000X0.250000X-0.225000X-0.250000X0.225000X-0.250000X0*%
%ADD43RoundRect,0.250000X-0.475000X0.250000X-0.475000X-0.250000X0.475000X-0.250000X0.475000X0.250000X0*%
%ADD44RoundRect,0.218750X0.256250X-0.218750X0.256250X0.218750X-0.256250X0.218750X-0.256250X-0.218750X0*%
%ADD45RoundRect,0.250000X0.250000X0.475000X-0.250000X0.475000X-0.250000X-0.475000X0.250000X-0.475000X0*%
%ADD46RoundRect,0.250000X-0.250000X-0.475000X0.250000X-0.475000X0.250000X0.475000X-0.250000X0.475000X0*%
%ADD47RoundRect,0.237500X0.250000X0.237500X-0.250000X0.237500X-0.250000X-0.237500X0.250000X-0.237500X0*%
%ADD48RoundRect,0.200000X0.275000X-0.200000X0.275000X0.200000X-0.275000X0.200000X-0.275000X-0.200000X0*%
%ADD49RoundRect,0.243750X-0.243750X-0.456250X0.243750X-0.456250X0.243750X0.456250X-0.243750X0.456250X0*%
%ADD50RoundRect,0.300000X0.800000X-0.300000X0.800000X0.300000X-0.800000X0.300000X-0.800000X-0.300000X0*%
%ADD51R,0.700000X1.000000*%
%ADD52RoundRect,0.218750X0.218750X0.256250X-0.218750X0.256250X-0.218750X-0.256250X0.218750X-0.256250X0*%
%ADD53R,3.500000X1.800000*%
%ADD54RoundRect,0.135000X0.185000X-0.135000X0.185000X0.135000X-0.185000X0.135000X-0.185000X-0.135000X0*%
%ADD55RoundRect,0.237500X-0.237500X0.250000X-0.237500X-0.250000X0.237500X-0.250000X0.237500X0.250000X0*%
%ADD56RoundRect,0.150000X-0.150000X0.587500X-0.150000X-0.587500X0.150000X-0.587500X0.150000X0.587500X0*%
%ADD57RoundRect,0.249999X-0.290001X0.290001X-0.290001X-0.290001X0.290001X-0.290001X0.290001X0.290001X0*%
%ADD58RoundRect,0.033750X-0.101250X0.337500X-0.101250X-0.337500X0.101250X-0.337500X0.101250X0.337500X0*%
%ADD59RoundRect,0.060000X-0.311250X0.075000X-0.311250X-0.075000X0.311250X-0.075000X0.311250X0.075000X0*%
%ADD60RoundRect,0.300000X-0.300000X-0.800000X0.300000X-0.800000X0.300000X0.800000X-0.300000X0.800000X0*%
%ADD61RoundRect,0.150000X0.150000X-0.587500X0.150000X0.587500X-0.150000X0.587500X-0.150000X-0.587500X0*%
%ADD62RoundRect,0.300000X-0.800000X0.300000X-0.800000X-0.300000X0.800000X-0.300000X0.800000X0.300000X0*%
%ADD63RoundRect,0.140000X0.170000X-0.140000X0.170000X0.140000X-0.170000X0.140000X-0.170000X-0.140000X0*%
%ADD64R,0.765000X0.990000*%
%ADD65R,0.675000X0.990000*%
%ADD66R,1.080000X0.900000*%
%ADD67R,1.395000X1.215000*%
%ADD68R,1.710000X1.215000*%
%ADD69R,1.053000X1.620000*%
%ADD70RoundRect,0.250000X0.625000X-0.312500X0.625000X0.312500X-0.625000X0.312500X-0.625000X-0.312500X0*%
%ADD71RoundRect,0.250000X0.312500X0.625000X-0.312500X0.625000X-0.312500X-0.625000X0.312500X-0.625000X0*%
%ADD72RoundRect,0.200000X0.200000X0.275000X-0.200000X0.275000X-0.200000X-0.275000X0.200000X-0.275000X0*%
%ADD73R,1.350000X0.810000*%
%ADD74R,0.810000X1.350000*%
%ADD75R,0.810000X0.810000*%
%ADD76RoundRect,0.150000X0.587500X0.150000X-0.587500X0.150000X-0.587500X-0.150000X0.587500X-0.150000X0*%
%ADD77R,1.500000X2.000000*%
%ADD78R,3.800000X2.000000*%
%ADD79RoundRect,0.150000X0.150000X-0.512500X0.150000X0.512500X-0.150000X0.512500X-0.150000X-0.512500X0*%
%ADD80RoundRect,0.250000X-0.315000X-0.315000X0.315000X-0.315000X0.315000X0.315000X-0.315000X0.315000X0*%
%ADD81RoundRect,0.020000X-0.362500X-0.092500X0.362500X-0.092500X0.362500X0.092500X-0.362500X0.092500X0*%
%ADD82RoundRect,0.050000X-0.062500X-0.332500X0.062500X-0.332500X0.062500X0.332500X-0.062500X0.332500X0*%
G04 APERTURE END LIST*
D10*
%TO.C,U5*%
X92050000Y-80950000D03*
X90850000Y-79750000D03*
X92050000Y-79750000D03*
X90850000Y-80950000D03*
D11*
X92800000Y-78400000D03*
D12*
X92350000Y-78400000D03*
X91900000Y-78400000D03*
X91450000Y-78400000D03*
X91000000Y-78400000D03*
X90550000Y-78400000D03*
D13*
X90100000Y-78400000D03*
D14*
X89500000Y-79000000D03*
D15*
X89500000Y-79450000D03*
X89500000Y-79900000D03*
X89500000Y-80350000D03*
X89500000Y-80800000D03*
X89500000Y-81250000D03*
D16*
X89500000Y-81700000D03*
D17*
X90100000Y-82300000D03*
D12*
X90550000Y-82300000D03*
X91000000Y-82300000D03*
X91450000Y-82300000D03*
X91900000Y-82300000D03*
X92350000Y-82300000D03*
D18*
X92800000Y-82300000D03*
D19*
X93400000Y-81700000D03*
D15*
X93400000Y-81250000D03*
X93400000Y-80800000D03*
X93400000Y-80350000D03*
X93400000Y-79900000D03*
X93400000Y-79450000D03*
D20*
X93400000Y-79000000D03*
%TD*%
D21*
%TO.C,J6*%
X124210000Y-64970000D03*
X119210000Y-64970000D03*
X126810000Y-72970000D03*
X126810000Y-64970000D03*
X120210000Y-72970000D03*
X118210000Y-72970000D03*
%TD*%
D22*
%TO.C,R10*%
X100045000Y-53135000D03*
X99025000Y-53135000D03*
%TD*%
D23*
%TO.C,RV4*%
X107460000Y-93530000D03*
D24*
X108610000Y-89530000D03*
D23*
X109760000Y-93530000D03*
%TD*%
D25*
%TO.C,C19*%
X92900000Y-98975000D03*
X92900000Y-100525000D03*
%TD*%
D26*
%TO.C,R3*%
X60150000Y-69710000D03*
X61170000Y-69710000D03*
%TD*%
D27*
%TO.C,Q6*%
X73462500Y-63550000D03*
X73462500Y-65450000D03*
X75337500Y-64500000D03*
%TD*%
D26*
%TO.C,R41*%
X96840000Y-93300000D03*
X97860000Y-93300000D03*
%TD*%
D28*
%TO.C,FB1*%
X62882500Y-71410000D03*
X61057500Y-71410000D03*
%TD*%
D29*
%TO.C,R7*%
X55847500Y-60660000D03*
X57672500Y-60660000D03*
%TD*%
D30*
%TO.C,C40*%
X97800000Y-95320000D03*
X97800000Y-96280000D03*
%TD*%
D31*
%TO.C,R5*%
X52520000Y-81300000D03*
X54345000Y-81300000D03*
%TD*%
D30*
%TO.C,C13*%
X65955000Y-102450000D03*
X65955000Y-103410000D03*
%TD*%
D25*
%TO.C,C9*%
X75455000Y-101055000D03*
X75455000Y-102605000D03*
%TD*%
D32*
%TO.C,C17*%
X69925000Y-106530000D03*
X70885000Y-106530000D03*
%TD*%
D33*
%TO.C,D4*%
X77147500Y-105210000D03*
X78722500Y-105210000D03*
%TD*%
D34*
%TO.C,C57*%
X72305000Y-75770000D03*
X73855000Y-75770000D03*
%TD*%
D35*
%TO.C,C51*%
X94185000Y-83520000D03*
X93225000Y-83520000D03*
%TD*%
D26*
%TO.C,R32*%
X94890000Y-93300000D03*
X95910000Y-93300000D03*
%TD*%
%TO.C,R19*%
X101175000Y-54335000D03*
X102195000Y-54335000D03*
%TD*%
D22*
%TO.C,R52*%
X75660000Y-66750000D03*
X74640000Y-66750000D03*
%TD*%
D34*
%TO.C,C11*%
X61590000Y-108590000D03*
X63140000Y-108590000D03*
%TD*%
D36*
%TO.C,R29*%
X90395000Y-71425000D03*
X90395000Y-72445000D03*
%TD*%
D35*
%TO.C,C27*%
X95930000Y-94350000D03*
X94970000Y-94350000D03*
%TD*%
D37*
%TO.C,C25*%
X85310000Y-86720000D03*
X85310000Y-85170000D03*
%TD*%
D38*
%TO.C,C6*%
X52530000Y-60660000D03*
X54255000Y-60660000D03*
%TD*%
D39*
%TO.C,C56*%
X77152500Y-75770000D03*
X75427500Y-75770000D03*
%TD*%
%TO.C,C55*%
X104602500Y-102510000D03*
X102877500Y-102510000D03*
%TD*%
D40*
%TO.C,J1*%
X58405000Y-64680000D03*
X58405000Y-65480000D03*
D41*
X58405000Y-66680000D03*
X58405000Y-67680000D03*
X58405000Y-68180000D03*
X58405000Y-69180000D03*
D40*
X58405000Y-70380000D03*
X58405000Y-71180000D03*
X58405000Y-71180000D03*
X58405000Y-70380000D03*
D41*
X58405000Y-69680000D03*
X58405000Y-68680000D03*
X58405000Y-67180000D03*
X58405000Y-66180000D03*
D40*
X58405000Y-65480000D03*
X58405000Y-64680000D03*
%TD*%
D42*
%TO.C,C16*%
X70630000Y-107780000D03*
X69080000Y-107780000D03*
%TD*%
D26*
%TO.C,R17*%
X101195000Y-59535000D03*
X102215000Y-59535000D03*
%TD*%
D43*
%TO.C,C30*%
X98800000Y-83300000D03*
X98800000Y-85200000D03*
%TD*%
D25*
%TO.C,C61*%
X75570000Y-70325000D03*
X75570000Y-71875000D03*
%TD*%
D35*
%TO.C,C53*%
X72785000Y-106530000D03*
X71825000Y-106530000D03*
%TD*%
D32*
%TO.C,C20*%
X91575000Y-76170000D03*
X92535000Y-76170000D03*
%TD*%
D44*
%TO.C,D6*%
X83610000Y-90680000D03*
X83610000Y-89105000D03*
%TD*%
D45*
%TO.C,C33*%
X93600000Y-91720000D03*
X91700000Y-91720000D03*
%TD*%
D23*
%TO.C,RV3*%
X107120000Y-78970000D03*
D24*
X108270000Y-74970000D03*
D23*
X109420000Y-78970000D03*
%TD*%
D46*
%TO.C,C28*%
X99250000Y-81200000D03*
X101150000Y-81200000D03*
%TD*%
D47*
%TO.C,R1*%
X76027500Y-56740000D03*
X74202500Y-56740000D03*
%TD*%
D30*
%TO.C,C5*%
X78095000Y-52080000D03*
X78095000Y-53040000D03*
%TD*%
D37*
%TO.C,C41*%
X87990000Y-79695000D03*
X87990000Y-78145000D03*
%TD*%
D26*
%TO.C,R18*%
X101185000Y-53135000D03*
X102205000Y-53135000D03*
%TD*%
D48*
%TO.C,R38*%
X85150000Y-90725000D03*
X85150000Y-89075000D03*
%TD*%
D30*
%TO.C,C37*%
X94950000Y-95320000D03*
X94950000Y-96280000D03*
%TD*%
D32*
%TO.C,C34*%
X91590000Y-77170000D03*
X92550000Y-77170000D03*
%TD*%
D49*
%TO.C,D5*%
X77197500Y-103290000D03*
X79072500Y-103290000D03*
%TD*%
D23*
%TO.C,RV2*%
X109410000Y-82150000D03*
D24*
X108260000Y-86150000D03*
D23*
X107110000Y-82150000D03*
%TD*%
D36*
%TO.C,R34*%
X113700000Y-71390000D03*
X113700000Y-72410000D03*
%TD*%
D26*
%TO.C,R14*%
X101185000Y-58235000D03*
X102205000Y-58235000D03*
%TD*%
D50*
%TO.C,L1*%
X60615000Y-107040000D03*
X60615000Y-105040000D03*
%TD*%
D51*
%TO.C,SW1*%
X64325000Y-54625000D03*
X64325000Y-60625000D03*
X60625000Y-54625000D03*
X60625000Y-60625000D03*
%TD*%
D52*
%TO.C,D8*%
X69537500Y-114650000D03*
X67962500Y-114650000D03*
%TD*%
D26*
%TO.C,R33*%
X94870000Y-92250000D03*
X95890000Y-92250000D03*
%TD*%
D34*
%TO.C,C39*%
X90480000Y-85720000D03*
X92030000Y-85720000D03*
%TD*%
D53*
%TO.C,D3*%
X68755000Y-98480000D03*
X73755000Y-98480000D03*
%TD*%
D46*
%TO.C,C24*%
X99250000Y-77100000D03*
X101150000Y-77100000D03*
%TD*%
D26*
%TO.C,R36*%
X101185000Y-56935000D03*
X102205000Y-56935000D03*
%TD*%
D25*
%TO.C,C22*%
X99750000Y-99425000D03*
X99750000Y-100975000D03*
%TD*%
D54*
%TO.C,R46*%
X68430000Y-74470000D03*
X68430000Y-73450000D03*
%TD*%
D31*
%TO.C,R4*%
X52520000Y-77110000D03*
X54345000Y-77110000D03*
%TD*%
D34*
%TO.C,C44*%
X90480000Y-87220000D03*
X92030000Y-87220000D03*
%TD*%
D55*
%TO.C,R30*%
X78130000Y-106967500D03*
X78130000Y-108792500D03*
%TD*%
D39*
%TO.C,C48*%
X114932500Y-69550000D03*
X113207500Y-69550000D03*
%TD*%
D22*
%TO.C,R13*%
X100045000Y-56935000D03*
X99025000Y-56935000D03*
%TD*%
D29*
%TO.C,R37*%
X101087500Y-96400000D03*
X102912500Y-96400000D03*
%TD*%
D22*
%TO.C,R22*%
X100190000Y-65860000D03*
X99170000Y-65860000D03*
%TD*%
D42*
%TO.C,C7*%
X70185000Y-75730000D03*
X68635000Y-75730000D03*
%TD*%
D56*
%TO.C,Q5*%
X109825000Y-96112500D03*
X107925000Y-96112500D03*
X108875000Y-97987500D03*
%TD*%
D39*
%TO.C,C2*%
X71487500Y-63475000D03*
X69762500Y-63475000D03*
%TD*%
D26*
%TO.C,R48*%
X76980000Y-60750000D03*
X78000000Y-60750000D03*
%TD*%
D32*
%TO.C,C32*%
X96850000Y-94350000D03*
X97810000Y-94350000D03*
%TD*%
D22*
%TO.C,R12*%
X100045000Y-55635000D03*
X99025000Y-55635000D03*
%TD*%
D25*
%TO.C,C12*%
X68555000Y-104705000D03*
X68555000Y-106255000D03*
%TD*%
D36*
%TO.C,R25*%
X92945000Y-71425000D03*
X92945000Y-72445000D03*
%TD*%
D22*
%TO.C,R8*%
X100045000Y-58235000D03*
X99025000Y-58235000D03*
%TD*%
D42*
%TO.C,C59*%
X60140000Y-103490000D03*
X58590000Y-103490000D03*
%TD*%
%TO.C,C10*%
X60090000Y-108590000D03*
X58540000Y-108590000D03*
%TD*%
%TO.C,C15*%
X102070000Y-51835000D03*
X100520000Y-51835000D03*
%TD*%
D36*
%TO.C,R28*%
X86595000Y-71460000D03*
X86595000Y-72480000D03*
%TD*%
D57*
%TO.C,U4*%
X72630000Y-102755000D03*
X71380000Y-102755000D03*
X72630000Y-104005000D03*
X71380000Y-104005000D03*
D58*
X72980000Y-101442500D03*
X72330000Y-101442500D03*
X71680000Y-101442500D03*
X71030000Y-101442500D03*
D59*
X70067500Y-102405000D03*
X70067500Y-103055000D03*
X70067500Y-103705000D03*
X70067500Y-104355000D03*
D58*
X71030000Y-105317500D03*
X71680000Y-105317500D03*
X72330000Y-105317500D03*
X72980000Y-105317500D03*
D59*
X73942500Y-104355000D03*
X73942500Y-103705000D03*
X73942500Y-103055000D03*
X73942500Y-102405000D03*
%TD*%
D34*
%TO.C,C58*%
X61590000Y-103490000D03*
X63140000Y-103490000D03*
%TD*%
D60*
%TO.C,L3*%
X86910000Y-86860000D03*
X88910000Y-86860000D03*
%TD*%
D61*
%TO.C,Q3*%
X68620000Y-71897500D03*
X70520000Y-71897500D03*
X69570000Y-70022500D03*
%TD*%
D22*
%TO.C,R9*%
X100045000Y-59535000D03*
X99025000Y-59535000D03*
%TD*%
D62*
%TO.C,L4*%
X67955000Y-101080000D03*
X67955000Y-103080000D03*
%TD*%
D34*
%TO.C,C52*%
X102940000Y-104060000D03*
X104490000Y-104060000D03*
%TD*%
D63*
%TO.C,C42*%
X98840000Y-93330000D03*
X98840000Y-92370000D03*
%TD*%
D37*
%TO.C,C3*%
X75295000Y-53335000D03*
X75295000Y-51785000D03*
%TD*%
D34*
%TO.C,C21*%
X96775000Y-102900000D03*
X98325000Y-102900000D03*
%TD*%
D42*
%TO.C,C60*%
X91172500Y-99050000D03*
X89622500Y-99050000D03*
%TD*%
D51*
%TO.C,SW2*%
X71600000Y-54625000D03*
X71600000Y-60625000D03*
X67900000Y-54625000D03*
X67900000Y-60625000D03*
%TD*%
D25*
%TO.C,C47*%
X93505000Y-84845000D03*
X93505000Y-86395000D03*
%TD*%
D54*
%TO.C,R24*%
X81300000Y-115760000D03*
X81300000Y-114740000D03*
%TD*%
D64*
%TO.C,J2*%
X107090000Y-51772500D03*
X108190000Y-51772500D03*
X109290000Y-51772500D03*
X110390000Y-51772500D03*
X111490000Y-51772500D03*
X112590000Y-51772500D03*
X113690000Y-51772500D03*
D65*
X114740000Y-51772500D03*
D66*
X104455000Y-57922500D03*
X104455000Y-61622500D03*
D67*
X104630000Y-51897500D03*
D68*
X107955000Y-62597500D03*
X113925000Y-62597500D03*
D69*
X115950000Y-52122500D03*
%TD*%
D30*
%TO.C,C46*%
X92255000Y-83540000D03*
X92255000Y-84500000D03*
%TD*%
D46*
%TO.C,C63*%
X87050000Y-110650000D03*
X88950000Y-110650000D03*
%TD*%
D55*
%TO.C,R51*%
X96800000Y-86512500D03*
X96800000Y-88337500D03*
%TD*%
D25*
%TO.C,C50*%
X95055000Y-84845000D03*
X95055000Y-86395000D03*
%TD*%
D29*
%TO.C,R6*%
X74215000Y-55130000D03*
X76040000Y-55130000D03*
%TD*%
D54*
%TO.C,R2*%
X60200000Y-66590000D03*
X60200000Y-65570000D03*
%TD*%
D70*
%TO.C,R16*%
X66605000Y-107692500D03*
X66605000Y-104767500D03*
%TD*%
D22*
%TO.C,R11*%
X100045000Y-54335000D03*
X99025000Y-54335000D03*
%TD*%
D62*
%TO.C,L2*%
X91980000Y-95360000D03*
X91980000Y-97360000D03*
%TD*%
D71*
%TO.C,R43*%
X70517500Y-109730000D03*
X67592500Y-109730000D03*
%TD*%
D37*
%TO.C,C4*%
X76820000Y-53335000D03*
X76820000Y-51785000D03*
%TD*%
D48*
%TO.C,R44*%
X105875000Y-98950000D03*
X105875000Y-97300000D03*
%TD*%
D32*
%TO.C,C23*%
X92970000Y-93270000D03*
X93930000Y-93270000D03*
%TD*%
D22*
%TO.C,R23*%
X100190000Y-66860000D03*
X99170000Y-66860000D03*
%TD*%
D72*
%TO.C,R45*%
X69575000Y-116200000D03*
X67925000Y-116200000D03*
%TD*%
D44*
%TO.C,D7*%
X89300000Y-90687500D03*
X89300000Y-89112500D03*
%TD*%
D26*
%TO.C,R40*%
X101185000Y-60735000D03*
X102205000Y-60735000D03*
%TD*%
D42*
%TO.C,C54*%
X77115000Y-74220000D03*
X75565000Y-74220000D03*
%TD*%
D36*
%TO.C,R35*%
X96900000Y-91300000D03*
X96900000Y-92320000D03*
%TD*%
D32*
%TO.C,C43*%
X90325000Y-83520000D03*
X91285000Y-83520000D03*
%TD*%
D23*
%TO.C,RV1*%
X102260000Y-93530000D03*
D24*
X103410000Y-89530000D03*
D23*
X104560000Y-93530000D03*
%TD*%
D56*
%TO.C,Q2*%
X66980000Y-73302500D03*
X65080000Y-73302500D03*
X66030000Y-75177500D03*
%TD*%
D35*
%TO.C,C45*%
X91285000Y-84470000D03*
X90325000Y-84470000D03*
%TD*%
D30*
%TO.C,C38*%
X96850000Y-95320000D03*
X96850000Y-96280000D03*
%TD*%
D73*
%TO.C,U2*%
X79745000Y-51875000D03*
X79745000Y-53145000D03*
X79745000Y-54415000D03*
X79745000Y-55685000D03*
X79745000Y-56955000D03*
X79745000Y-58225000D03*
X79745000Y-59495000D03*
X79745000Y-60765000D03*
X79745000Y-62035000D03*
X79745000Y-63305000D03*
X79745000Y-64575000D03*
X79745000Y-65845000D03*
X79745000Y-67115000D03*
X79745000Y-68385000D03*
D74*
X81510000Y-69635000D03*
X82780000Y-69635000D03*
X84050000Y-69635000D03*
X85320000Y-69635000D03*
X86590000Y-69635000D03*
X87860000Y-69635000D03*
X89130000Y-69635000D03*
X90400000Y-69635000D03*
X91670000Y-69635000D03*
X92940000Y-69635000D03*
X94210000Y-69635000D03*
X95480000Y-69635000D03*
D73*
X97245000Y-68385000D03*
X97245000Y-67115000D03*
X97245000Y-65845000D03*
X97245000Y-64575000D03*
X97245000Y-63305000D03*
X97245000Y-62035000D03*
X97245000Y-60765000D03*
X97245000Y-59495000D03*
X97245000Y-58225000D03*
X97245000Y-56955000D03*
X97245000Y-55685000D03*
X97245000Y-54415000D03*
X97245000Y-53145000D03*
X97245000Y-51875000D03*
D75*
X85595000Y-58195000D03*
X85595000Y-59595000D03*
X85595000Y-60995000D03*
X86995000Y-58195000D03*
X86995000Y-59595000D03*
X86995000Y-60995000D03*
X88395000Y-58195000D03*
X88395000Y-59595000D03*
X88395000Y-60995000D03*
%TD*%
D38*
%TO.C,C1*%
X62587500Y-63450000D03*
X64312500Y-63450000D03*
%TD*%
D30*
%TO.C,C35*%
X95900000Y-95320000D03*
X95900000Y-96280000D03*
%TD*%
D55*
%TO.C,R42*%
X120300000Y-55937500D03*
X120300000Y-57762500D03*
%TD*%
D76*
%TO.C,Q1*%
X76317500Y-108780000D03*
X76317500Y-106880000D03*
X74442500Y-107830000D03*
%TD*%
D56*
%TO.C,Q4*%
X74020000Y-72002500D03*
X72120000Y-72002500D03*
X73070000Y-73877500D03*
%TD*%
D77*
%TO.C,U3*%
X74170000Y-77870000D03*
X71870000Y-77870000D03*
D78*
X71870000Y-84170000D03*
D77*
X69570000Y-77870000D03*
%TD*%
D48*
%TO.C,R39*%
X87750000Y-90725000D03*
X87750000Y-89075000D03*
%TD*%
D49*
%TO.C,D1*%
X52495000Y-75010000D03*
X54370000Y-75010000D03*
%TD*%
D25*
%TO.C,C18*%
X89627500Y-95570000D03*
X89627500Y-97120000D03*
%TD*%
D36*
%TO.C,R47*%
X95550000Y-102740000D03*
X95550000Y-103760000D03*
%TD*%
%TO.C,R27*%
X91670000Y-71425000D03*
X91670000Y-72445000D03*
%TD*%
D46*
%TO.C,C26*%
X99250000Y-79150000D03*
X101150000Y-79150000D03*
%TD*%
D42*
%TO.C,C29*%
X88685000Y-84730000D03*
X87135000Y-84730000D03*
%TD*%
D31*
%TO.C,R15*%
X77202500Y-101100000D03*
X79027500Y-101100000D03*
%TD*%
D47*
%TO.C,R31*%
X85472500Y-83340000D03*
X83647500Y-83340000D03*
%TD*%
D36*
%TO.C,R53*%
X71050000Y-64740000D03*
X71050000Y-65760000D03*
%TD*%
D22*
%TO.C,R21*%
X100045000Y-60735000D03*
X99025000Y-60735000D03*
%TD*%
D36*
%TO.C,R26*%
X87870000Y-71475000D03*
X87870000Y-72495000D03*
%TD*%
D42*
%TO.C,C31*%
X93230000Y-74870000D03*
X91680000Y-74870000D03*
%TD*%
D49*
%TO.C,D2*%
X52495000Y-79180000D03*
X54370000Y-79180000D03*
%TD*%
D26*
%TO.C,R50*%
X76980000Y-58250000D03*
X78000000Y-58250000D03*
%TD*%
D45*
%TO.C,C36*%
X93820000Y-89010000D03*
X91920000Y-89010000D03*
%TD*%
D26*
%TO.C,R20*%
X101195000Y-55635000D03*
X102215000Y-55635000D03*
%TD*%
D79*
%TO.C,U1*%
X62600000Y-68887500D03*
X63550000Y-68887500D03*
X64500000Y-68887500D03*
X64500000Y-66612500D03*
X63550000Y-66612500D03*
X62600000Y-66612500D03*
%TD*%
D26*
%TO.C,R49*%
X76980000Y-59450000D03*
X78000000Y-59450000D03*
%TD*%
D80*
%TO.C,U6*%
X95700000Y-98850000D03*
X95700000Y-100150000D03*
X97000000Y-98850000D03*
X97000000Y-100150000D03*
D81*
X94425000Y-98500000D03*
X94425000Y-99000000D03*
X94425000Y-99500000D03*
X94425000Y-100000000D03*
X94425000Y-100500000D03*
D82*
X95350000Y-101425000D03*
X95850000Y-101425000D03*
X96350000Y-101425000D03*
X96850000Y-101425000D03*
X97350000Y-101425000D03*
D81*
X98275000Y-100500000D03*
X98275000Y-100000000D03*
X98275000Y-99500000D03*
X98275000Y-99000000D03*
X98275000Y-98500000D03*
D82*
X97350000Y-97575000D03*
X96850000Y-97575000D03*
X96350000Y-97575000D03*
X95850000Y-97575000D03*
X95350000Y-97575000D03*
%TD*%
D42*
%TO.C,C62*%
X73840000Y-70180000D03*
X72290000Y-70180000D03*
%TD*%
M02*
