M48
; DRILL file {KiCad 7.0.1} date Fri Apr 14 11:06:51 2023
; FORMAT={-:-/ absolute / inch / decimal}
; #@! TF.CreationDate,2023-04-14T11:06:51+03:00
; #@! TF.GenerationSoftware,Kicad,Pcbnew,7.0.1
; #@! TF.FileFunction,Plated,1,4,PTH
FMAT,2
INCH
; #@! TA.AperFunction,Plated,PTH,ViaDrill
T1C0.0118
; #@! TA.AperFunction,Plated,PTH,ComponentDrill
T2C0.0118
; #@! TA.AperFunction,Plated,PTH,ComponentDrill
T3C0.0236
; #@! TA.AperFunction,Plated,PTH,ComponentDrill
T4C0.0315
; #@! TA.AperFunction,Plated,PTH,ComponentDrill
T5C0.0394
; #@! TA.AperFunction,Plated,PTH,ComponentDrill
T6C0.0591
; #@! TA.AperFunction,Plated,PTH,ComponentDrill
T7C0.0669
; #@! TA.AperFunction,Plated,PTH,ComponentDrill
T8C0.1260
%
G90
G05
T1
X1.998Y-3.8573
X2.001Y-3.9675
X2.002Y-4.064
X2.003Y-4.1654
X2.0246Y-4.2293
X2.0256Y-4.3091
X2.0272Y-2.1035
X2.0272Y-2.1823
X2.0272Y-2.261
X2.0272Y-2.3398
X2.0272Y-2.4972
X2.0272Y-2.576
X2.0272Y-2.6547
X2.0272Y-2.7335
X2.0272Y-2.8122
X2.0272Y-2.8909
X2.0272Y-3.2846
X2.0272Y-3.3634
X2.0272Y-3.4421
X2.0272Y-3.5209
X2.0272Y-3.5996
X2.0272Y-3.6783
X2.0272Y-3.7571
X2.0272Y-4.387
X2.0272Y-4.4657
X2.0272Y-4.5445
X2.0866Y-4.6634
X2.1033Y-4.2293
X2.1043Y-4.3091
X2.1053Y-3.5079
X2.1059Y-2.0248
X2.1059Y-2.3398
X2.1059Y-2.8909
X2.1059Y-3.6783
X2.1059Y-3.7571
X2.1059Y-4.387
X2.1398Y-3.2484
X2.1614Y-3.9823
X2.1681Y-2.4157
X2.1713Y-3.3346
X2.1752Y-3.2874
X2.1795Y-3.0339
X2.1801Y-4.0719
X2.1801Y-4.1506
X2.1811Y-3.8248
X2.1811Y-3.9035
X2.1825Y-4.2272
X2.1831Y-4.3091
X2.1846Y-2.0248
X2.1846Y-2.3398
X2.1846Y-2.6547
X2.1846Y-2.8909
X2.1846Y-3.6783
X2.1846Y-3.7571
X2.1846Y-4.387
X2.1929Y-3.2461
X2.1998Y-3.6014
X2.2028Y-2.811
X2.2035Y-2.9524
X2.2087Y-2.5354
X2.2106Y-2.5886
X2.2165Y-2.7559
X2.2382Y-3.3425
X2.2402Y-3.2933
X2.25Y-4.685
X2.253Y-4.3071
X2.2547Y-2.9535
X2.2598Y-4.1506
X2.2618Y-4.0669
X2.2618Y-4.2283
X2.2634Y-2.0248
X2.2634Y-2.3398
X2.2634Y-3.0484
X2.2634Y-3.6783
X2.2634Y-3.7571
X2.2634Y-3.8358
X2.2634Y-3.9933
X2.2634Y-4.387
X2.2638Y-3.8996
X2.2992Y-3.5069
X2.3043Y-4.2386
X2.3051Y-4.311
X2.3059Y-4.1126
X2.3236Y-2.5165
X2.3268Y-2.8343
X2.3406Y-2.5465
X2.3421Y-2.0248
X2.3421Y-2.1035
X2.3421Y-2.1823
X2.3421Y-2.261
X2.3421Y-2.3398
X2.3421Y-2.4185
X2.3421Y-3.2846
X2.3421Y-3.6783
X2.3421Y-3.7571
X2.3421Y-3.8358
X2.3421Y-3.9933
X2.3421Y-4.387
X2.3421Y-4.4657
X2.3421Y-4.5445
X2.3421Y-4.6232
X2.3425Y-3.8996
X2.3701Y-3.0748
X2.4087Y-2.7146
X2.4154Y-3.128
X2.4209Y-2.0248
X2.4209Y-2.1035
X2.4209Y-2.261
X2.4209Y-2.3398
X2.4209Y-3.2059
X2.4209Y-3.2846
X2.4209Y-3.3634
X2.4209Y-3.4421
X2.4209Y-3.5209
X2.4209Y-3.5996
X2.4209Y-3.6783
X2.4209Y-3.7571
X2.4209Y-3.8358
X2.4209Y-4.6232
X2.4213Y-2.4673
X2.4213Y-3.8996
X2.4232Y-4.0167
X2.4272Y-3.0591
X2.485Y-4.237
X2.485Y-4.3177
X2.4996Y-2.0248
X2.4996Y-2.1035
X2.4996Y-2.261
X2.4996Y-2.3398
X2.4996Y-4.6232
X2.5008Y-2.7535
X2.5177Y-2.9016
X2.5197Y-2.8425
X2.5224Y-4.0736
X2.5236Y-2.7815
X2.5531Y-2.5591
X2.5736Y-4.2957
X2.5783Y-2.0248
X2.5783Y-2.1035
X2.5783Y-2.1823
X2.5783Y-2.3398
X2.5783Y-2.4185
X2.5783Y-2.4972
X2.5783Y-3.8358
X2.5783Y-3.9146
X2.5783Y-4.6232
X2.5965Y-4.0051
X2.5984Y-2.8752
X2.6496Y-3.2657
X2.6571Y-2.0248
X2.6571Y-2.1035
X2.6571Y-2.3398
X2.6571Y-2.9697
X2.6571Y-4.4657
X2.6571Y-4.6232
X2.685Y-2.565
X2.689Y-2.4961
X2.7031Y-2.7693
X2.7087Y-3.3789
X2.7185Y-3.002
X2.7205Y-2.9429
X2.7213Y-4.2795
X2.728Y-4.2067
X2.7358Y-2.0248
X2.7358Y-2.1035
X2.7358Y-2.1823
X2.7358Y-2.3398
X2.7358Y-2.4185
X2.7358Y-4.6232
X2.7906Y-2.9165
X2.798Y-2.9567
X2.8146Y-2.0248
X2.8146Y-2.1035
X2.8146Y-4.387
X2.8161Y-2.7594
X2.8179Y-2.187
X2.8346Y-2.5886
X2.8465Y-2.9055
X2.848Y-3.9299
X2.8488Y-3.8264
X2.8504Y-2.1909
X2.8602Y-2.628
X2.8622Y-2.4173
X2.8724Y-2.2177
X2.8878Y-3.0157
X2.8917Y-2.5335
X2.8933Y-2.0248
X2.8933Y-2.1035
X2.8933Y-2.3398
X2.8933Y-4.387
X2.8949Y-4.326
X2.9055Y-2.4469
X2.9071Y-3.9303
X2.9079Y-3.8268
X2.9315Y-2.9165
X2.9346Y-2.952
X2.9382Y-2.4539
X2.939Y-3.5354
X2.9409Y-2.7244
X2.9488Y-2.8701
X2.9512Y-3.0197
X2.9596Y-3.3789
X2.9598Y-3.9291
X2.9606Y-3.8256
X2.9642Y-2.0059
X2.972Y-4.387
X2.972Y-4.6232
X2.9744Y-2.4872
X2.9744Y-3.5433
X2.9764Y-2.5807
X2.9941Y-2.4469
X2.9941Y-3.8531
X2.9961Y-3.8988
X2.9996Y-4.0181
X3.0075Y-4.2362
X3.0236Y-3.4862
X3.0244Y-2.0063
X3.0276Y-2.4469
X3.0276Y-3.752
X3.0295Y-2.8169
X3.0449Y-2.1583
X3.0472Y-4.326
X3.0508Y-4.387
X3.0508Y-4.6232
X3.0531Y-3.4724
X3.0551Y-3.7913
X3.0595Y-3.7062
X3.061Y-2.187
X3.063Y-2.4469
X3.0673Y-2.0181
X3.0709Y-2.4823
X3.0748Y-2.9067
X3.0783Y-3.0035
X3.0787Y-3.4469
X3.0866Y-3.752
X3.0909Y-2.9547
X3.1Y-2.0138
X3.1075Y-4.2126
X3.1102Y-3.3642
X3.1142Y-3.7835
X3.1142Y-3.874
X3.1295Y-4.387
X3.1295Y-4.4657
X3.1295Y-4.5445
X3.1295Y-4.6232
X3.1441Y-2.0083
X3.1752Y-3.3642
X3.1835Y-2.0563
X3.1839Y-2.0232
X3.1929Y-4.326
X3.1988Y-3.9075
X3.2047Y-3.3425
X3.2083Y-4.6232
X3.2106Y-2.3691
X3.2224Y-2.1929
X3.2224Y-2.2264
X3.2283Y-2.4488
X3.2343Y-3.3602
X3.2354Y-3.9499
X3.2382Y-3.9055
X3.2441Y-3.2421
X3.2441Y-3.7894
X3.2461Y-2.8406
X3.2638Y-2.4567
X3.2638Y-2.4961
X3.2697Y-3.4439
X3.287Y-2.1035
X3.287Y-2.261
X3.287Y-4.6232
X3.2894Y-3.7717
X3.2918Y-3.9493
X3.2953Y-2.5472
X3.2972Y-2.8091
X3.3051Y-2.3386
X3.3091Y-3.4429
X3.3228Y-3.5354
X3.3228Y-3.7707
X3.3287Y-2.5906
X3.3386Y-2.5492
X3.3425Y-3.9469
X3.3445Y-3.7953
X3.3579Y-2.8193
X3.3657Y-2.1035
X3.3657Y-2.6547
X3.3657Y-4.6232
X3.372Y-3.7697
X3.3858Y-3.9469
X3.3941Y-3.3413
X3.3969Y-2.3185
X3.3976Y-2.374
X3.3996Y-3.2382
X3.4094Y-2.5748
X3.4154Y-3.4803
X3.4173Y-3.2704
X3.4203Y-3.1388
X3.4242Y-2.2323
X3.4311Y-3.0472
X3.4311Y-3.2244
X3.4445Y-2.6547
X3.4445Y-4.5445
X3.4445Y-4.6232
X3.4524Y-2.374
X3.4528Y-2.3193
X3.4596Y-4.185
X3.4646Y-4.0492
X3.4732Y-3.2545
X3.4823Y-3.5394
X3.4882Y-3.2835
X3.5098Y-2.8465
X3.5114Y-2.8047
X3.5177Y-3.2677
X3.5232Y-2.1823
X3.5232Y-2.3398
X3.5232Y-2.4185
X3.5232Y-2.4972
X3.5232Y-4.1508
X3.5232Y-4.2295
X3.5232Y-4.6232
X3.5287Y-3.8622
X3.5311Y-3.3083
X3.565Y-3.4764
X3.5699Y-3.5246
X3.5778Y-4.4547
X3.5778Y-4.5335
X3.5827Y-4.0591
X3.5837Y-4.0177
X3.5886Y-3.5561
X3.5894Y-2.976
X3.5896Y-3.6811
X3.602Y-2.1035
X3.602Y-2.1823
X3.602Y-2.261
X3.602Y-2.4185
X3.602Y-2.576
X3.602Y-4.6232
X3.6055Y-3.3043
X3.6087Y-3.3441
X3.6094Y-2.9177
X3.624Y-3.7047
X3.626Y-3.6693
X3.6311Y-3.402
X3.6407Y-4.0207
X3.6437Y-4.0984
X3.6516Y-4.0591
X3.6535Y-4.1417
X3.6575Y-3.9882
X3.6598Y-3.4504
X3.6644Y-4.253
X3.6807Y-2.1035
X3.6807Y-2.3398
X3.6807Y-2.4972
X3.6807Y-4.6232
X3.685Y-2.8976
X3.687Y-2.9921
X3.6906Y-3.8491
X3.6988Y-3.0886
X3.7008Y-2.8642
X3.7075Y-3.2657
X3.7087Y-2.8248
X3.7126Y-3.3913
X3.7185Y-4.0531
X3.7205Y-4.0965
X3.7215Y-2.6506
X3.7276Y-3.7331
X3.7323Y-3.148
X3.7333Y-2.6811
X3.7579Y-4.4557
X3.7579Y-4.5344
X3.7594Y-2.1035
X3.7594Y-2.3398
X3.7594Y-2.4185
X3.7594Y-2.576
X3.7594Y-4.387
X3.7594Y-4.6232
X3.7598Y-2.8031
X3.7598Y-2.8406
X3.7638Y-2.6476
X3.7648Y-3.4478
X3.7667Y-2.2539
X3.7677Y-2.2185
X3.7726Y-2.1841
X3.7795Y-4.2116
X3.7815Y-3.5984
X3.7823Y-2.0429
X3.7854Y-2.938
X3.7941Y-3.9154
X3.7992Y-4.122
X3.8012Y-2.9705
X3.8012Y-3.0217
X3.8059Y-3.0591
X3.8071Y-4.0866
X3.811Y-3.3209
X3.8189Y-3.5197
X3.8382Y-4.6232
X3.8524Y-3.5354
X3.8602Y-4.0138
X3.8602Y-4.0886
X3.8626Y-3.7311
X3.8691Y-3.8346
X3.8717Y-2.0425
X3.9012Y-2.6587
X3.9045Y-3.8396
X3.9094Y-3.8031
X3.9169Y-4.1508
X3.9169Y-4.6232
X3.9272Y-4.0138
X3.939Y-3.6319
X3.9498Y-3.5
X3.9539Y-3.6811
X3.9606Y-2.1276
X3.9606Y-2.3602
X3.961Y-2.1815
X3.961Y-2.2331
X3.9626Y-2.0768
X3.9626Y-2.4114
X3.9634Y-2.2835
X3.9646Y-3.2795
X3.9681Y-3.7457
X3.9783Y-2.9232
X3.9783Y-3.4724
X3.9783Y-3.9213
X3.9791Y-2.5988
X3.9793Y-2.6348
X3.9823Y-2.0406
X3.9951Y-4.3514
X3.9957Y-4.2295
X3.9957Y-4.5445
X3.9957Y-4.6232
X3.998Y-2.8957
X3.9988Y-4.0606
X4.0Y-2.7972
X4.0118Y-3.439
X4.0122Y-4.0209
X4.013Y-4.1051
X4.0138Y-3.9213
X4.022Y-2.4484
X4.0256Y-3.3278
X4.0354Y-2.7874
X4.0394Y-4.437
X4.0413Y-3.248
X4.0472Y-3.1772
X4.0531Y-2.4547
X4.0531Y-3.3524
X4.0531Y-3.4035
X4.0541Y-3.8986
X4.0563Y-2.1346
X4.0571Y-3.7421
X4.0594Y-2.3437
X4.0602Y-2.1902
X4.0606Y-2.2413
X4.061Y-2.3071
X4.061Y-3.437
X4.0618Y-2.0846
X4.0622Y-3.6823
X4.063Y-4.4685
X4.0657Y-2.4248
X4.0669Y-2.3819
X4.0693Y-2.7898
X4.0744Y-3.5996
X4.0744Y-4.5445
X4.0744Y-4.6232
X4.0758Y-3.247
X4.0787Y-3.187
X4.0846Y-2.2146
X4.0866Y-2.1122
X4.1083Y-2.7874
X4.1083Y-4.4272
X4.1335Y-2.6063
X4.1339Y-3.376
X4.1339Y-3.4173
X4.1339Y-4.4469
X4.1388Y-3.3189
X4.1437Y-2.7854
X4.1531Y-2.4972
X4.1531Y-3.2846
X4.1531Y-3.5996
X4.1531Y-4.2295
X4.1531Y-4.3083
X4.1531Y-4.6232
X4.1555Y-4.0205
X4.1559Y-4.1098
X4.1654Y-2.2835
X4.1661Y-2.0453
X4.174Y-4.0606
X4.1998Y-3.7726
X4.2165Y-3.0547
X4.2165Y-3.9469
X4.2177Y-3.2866
X4.2185Y-3.1697
X4.2283Y-2.8406
X4.2319Y-3.5996
X4.2319Y-4.3083
X4.2319Y-4.387
X4.2319Y-4.4657
X4.2319Y-4.6232
X4.2516Y-2.4209
X4.2726Y-4.5581
X4.2943Y-2.7894
X4.2988Y-4.0567
X4.3079Y-3.1677
X4.3106Y-2.1823
X4.3106Y-4.2295
X4.3106Y-4.4657
X4.3106Y-4.6232
X4.3157Y-2.724
X4.3213Y-3.6335
X4.3417Y-2.0669
X4.3429Y-2.0094
X4.3504Y-4.011
X4.3514Y-4.5581
X4.3661Y-3.9596
X4.3681Y-3.8189
X4.374Y-3.6831
X4.3888Y-3.0709
X4.3894Y-2.4185
X4.3894Y-2.4972
X4.3894Y-2.8909
X4.3894Y-2.9697
X4.3894Y-3.2059
X4.3894Y-3.2846
X4.3894Y-3.3634
X4.3894Y-3.4421
X4.3894Y-3.5209
X4.3894Y-3.5996
X4.3894Y-4.1508
X4.3894Y-4.4657
X4.3894Y-4.6232
X4.4016Y-4.0598
X4.4045Y-2.8169
X4.4331Y-4.5531
X4.4366Y-2.0677
X4.439Y-2.0083
X4.4681Y-2.6547
X4.4681Y-2.8909
X4.4681Y-2.9697
X4.4681Y-3.2059
X4.4681Y-3.2846
X4.4681Y-4.2295
X4.4681Y-4.4657
X4.4681Y-4.6232
X4.4715Y-3.3593
X4.4858Y-2.4185
X4.4931Y-3.4862
X4.498Y-3.6014
X4.501Y-3.0728
X4.5089Y-2.7884
X4.5118Y-4.5531
X4.5469Y-2.261
X4.5469Y-2.9697
X4.5469Y-3.2846
X4.5469Y-3.6783
X4.5469Y-3.8358
X4.5469Y-3.9933
X4.5469Y-4.1508
X4.5469Y-4.4657
X4.5469Y-4.6232
X4.563Y-2.1043
X4.5886Y-3.4813
X4.5941Y-2.2024
X4.6138Y-2.724
X4.6152Y-2.3829
X4.6256Y-2.0248
X4.6256Y-2.1035
X4.6256Y-2.576
X4.6256Y-3.1272
X4.6256Y-3.6783
X4.6256Y-4.072
X4.6256Y-4.1508
X4.6256Y-4.2295
X4.6256Y-4.387
X4.6256Y-4.5445
X4.6256Y-4.6232
X4.6594Y-3.9508
X4.6673Y-3.872
X4.688Y-2.9557
X4.6988Y-3.9311
X4.7043Y-2.1035
X4.7043Y-3.2846
X4.7043Y-3.3634
X4.7043Y-3.4421
X4.7043Y-3.5209
X4.7043Y-3.5996
X4.7043Y-3.6783
X4.7043Y-3.7571
X4.7043Y-4.072
X4.7043Y-4.1508
X4.7043Y-4.2295
X4.7043Y-4.3083
X4.7043Y-4.387
X4.7043Y-4.4657
X4.7043Y-4.5445
X4.7043Y-4.6232
X4.7224Y-2.9665
X4.7264Y-3.9055
X4.7805Y-3.5079
X4.7831Y-2.0248
X4.7831Y-2.1035
X4.7831Y-2.1823
X4.7831Y-2.261
X4.7831Y-3.0484
X4.7831Y-3.1272
X4.7831Y-3.2059
X4.7831Y-3.2846
X4.7831Y-3.6783
X4.7831Y-3.9146
X4.7831Y-3.9933
X4.7831Y-4.072
X4.7831Y-4.1508
X4.7831Y-4.2295
X4.7831Y-4.3083
X4.7831Y-4.387
X4.7831Y-4.4657
X4.7831Y-4.5445
X4.7831Y-4.6232
X4.7858Y-2.5654
X4.8159Y-2.5502
X4.8425Y-3.685
X4.8618Y-2.0248
X4.8618Y-2.3398
X4.8618Y-2.7335
X4.8618Y-2.8122
X4.8618Y-2.9697
X4.8618Y-3.0484
X4.8618Y-3.1272
X4.8618Y-3.2059
X4.8618Y-3.2846
X4.8618Y-3.8358
X4.8618Y-3.9146
X4.8618Y-3.9933
X4.8618Y-4.072
X4.8618Y-4.1508
X4.8618Y-4.2295
X4.8618Y-4.3083
X4.8618Y-4.387
X4.8809Y-3.4075
X4.8957Y-3.7323
X4.9154Y-3.6693
X4.9406Y-2.0248
X4.9406Y-2.3398
X4.9406Y-2.6547
X4.9406Y-2.9697
X4.9406Y-3.0484
X4.9406Y-3.1272
X4.9406Y-3.2059
X4.9406Y-3.2846
X4.9406Y-3.8358
X4.9406Y-3.9146
X4.9406Y-3.9933
X4.9406Y-4.072
X4.9406Y-4.1508
X4.9406Y-4.2295
X4.9406Y-4.387
X4.9459Y-3.7618
X4.9803Y-3.5069
X4.9929Y-2.8
X4.9929Y-2.9465
X5.0193Y-2.3398
X5.0193Y-2.4185
X5.0193Y-2.7335
X5.0193Y-3.0484
X5.0193Y-3.1272
X5.0193Y-3.2059
X5.0193Y-3.2846
X5.0193Y-3.6783
X5.0193Y-3.7571
X5.0193Y-3.8358
X5.0193Y-3.9146
X5.0193Y-3.9933
X5.0193Y-4.072
X5.0193Y-4.1508
X5.0193Y-4.2295
X5.0193Y-4.3083
X5.0193Y-4.387
X5.0285Y-2.0482
X5.065Y-2.9469
X5.0699Y-2.2638
X5.0738Y-2.5335
X5.0778Y-2.1604
X5.0807Y-3.3789
X5.0817Y-3.4852
X5.0856Y-3.5866
T2
X2.2647Y-3.1572
X2.3262Y-3.2187
X2.7974Y-4.0327
X2.7974Y-4.0701
X2.7974Y-4.1075
X2.8348Y-4.0327
X2.8348Y-4.0701
X2.8348Y-4.1075
X2.8722Y-4.0327
X2.8722Y-4.0701
X2.8722Y-4.1075
X3.563Y-3.126
X3.563Y-3.1634
X3.563Y-3.2008
X3.6004Y-3.126
X3.6004Y-3.1634
X3.6004Y-3.2008
X3.6378Y-3.126
X3.6378Y-3.1634
X3.6378Y-3.2008
X3.752Y-3.876
X3.752Y-3.9587
X3.8346Y-3.876
X3.8346Y-3.9587
X4.7507Y-3.7744
X4.8123Y-3.8359
T4
X2.0709Y-3.9193
X2.0709Y-4.0177
X2.0709Y-4.1161
T5
X2.4591Y-4.4882
X2.5591Y-4.4882
X2.9134Y-4.5276
X3.0118Y-4.5276
X3.3169Y-4.0551
X3.3169Y-4.1551
X3.3169Y-4.2551
X3.3169Y-4.3551
X3.3169Y-4.4551
X3.3169Y-4.5551
X4.2047Y-2.5949
X4.3047Y-2.5949
X4.4047Y-2.5949
X4.5047Y-2.5949
X4.736Y-2.4154
X4.836Y-2.4154
X4.936Y-2.4154
T6
X2.2047Y-3.5039
X3.6614Y-4.3701
X3.8583Y-4.3701
X4.3307Y-4.3701
X4.5276Y-4.3701
X4.8819Y-3.5039
T7
X2.1047Y-3.4039
X2.1047Y-3.6039
X2.3047Y-3.4039
X2.3047Y-3.6039
X4.7819Y-3.4039
X4.7819Y-3.6039
X4.9819Y-3.4039
X4.9819Y-3.6039
T8
X2.1654Y-2.1654
X2.1654Y-4.5276
X4.9213Y-2.1654
X4.9213Y-4.5276
T3
G00X2.1106Y-2.5043
M15
G01X2.087Y-2.5043
M16
G05
G00X2.1106Y-2.8445
M15
G01X2.087Y-2.8445
M16
G05
G00X2.285Y-2.5043
M15
G01X2.2417Y-2.5043
M16
G05
G00X2.285Y-2.8445
M15
G01X2.2417Y-2.8445
M16
G05
T0
M30
