%TF.GenerationSoftware,KiCad,Pcbnew,7.0.1*%
%TF.CreationDate,2023-04-14T11:06:51+03:00*%
%TF.ProjectId,cross_band_handy_walkie_talkie_ES8388,63726f73-735f-4626-916e-645f68616e64,rev?*%
%TF.SameCoordinates,Original*%
%TF.FileFunction,Soldermask,Bot*%
%TF.FilePolarity,Negative*%
%FSLAX46Y46*%
G04 Gerber Fmt 4.6, Leading zero omitted, Abs format (unit mm)*
G04 Created by KiCad (PCBNEW 7.0.1) date 2023-04-14 11:06:51*
%MOMM*%
%LPD*%
G01*
G04 APERTURE LIST*
G04 Aperture macros list*
%AMRoundRect*
0 Rectangle with rounded corners*
0 $1 Rounding radius*
0 $2 $3 $4 $5 $6 $7 $8 $9 X,Y pos of 4 corners*
0 Add a 4 corners polygon primitive as box body*
4,1,4,$2,$3,$4,$5,$6,$7,$8,$9,$2,$3,0*
0 Add four circle primitives for the rounded corners*
1,1,$1+$1,$2,$3*
1,1,$1+$1,$4,$5*
1,1,$1+$1,$6,$7*
1,1,$1+$1,$8,$9*
0 Add four rect primitives between the rounded corners*
20,1,$1+$1,$2,$3,$4,$5,0*
20,1,$1+$1,$4,$5,$6,$7,0*
20,1,$1+$1,$6,$7,$8,$9,0*
20,1,$1+$1,$8,$9,$2,$3,0*%
G04 Aperture macros list end*
%ADD10C,1.600000*%
%ADD11C,0.610000*%
%ADD12O,2.060000X0.960000*%
%ADD13O,1.560000X0.960000*%
%ADD14C,2.000000*%
%ADD15R,2.000000X1.700000*%
%ADD16O,1.700000X1.700000*%
%ADD17C,3.000000*%
%ADD18C,3.600000*%
%ADD19C,5.600000*%
%ADD20R,1.700000X1.700000*%
%ADD21C,1.500000*%
%ADD22C,1.200000*%
%ADD23R,2.000000X2.000000*%
%ADD24C,2.050000*%
%ADD25C,2.250000*%
%ADD26R,1.700000X2.000000*%
%ADD27R,1.800000X1.800000*%
%ADD28R,7.000000X9.000000*%
%ADD29R,8.500000X2.200000*%
%ADD30RoundRect,0.225000X-0.225000X-0.250000X0.225000X-0.250000X0.225000X0.250000X-0.225000X0.250000X0*%
%ADD31RoundRect,0.249600X-0.268701X0.651104X-0.651104X0.268701X0.268701X-0.651104X0.651104X-0.268701X0*%
%ADD32RoundRect,0.152500X-0.224506X0.440174X-0.440174X0.224506X0.224506X-0.440174X0.440174X-0.224506X0*%
%ADD33R,1.000000X1.000000*%
%ADD34RoundRect,0.237500X0.300000X0.237500X-0.300000X0.237500X-0.300000X-0.237500X0.300000X-0.237500X0*%
%ADD35R,1.500000X1.000000*%
%ADD36RoundRect,0.249600X0.268701X-0.651104X0.651104X-0.268701X-0.268701X0.651104X-0.651104X0.268701X0*%
%ADD37RoundRect,0.152500X0.224506X-0.440174X0.440174X-0.224506X-0.224506X0.440174X-0.440174X0.224506X0*%
G04 APERTURE END LIST*
D10*
%TO.C,J6*%
X119110000Y-68970000D03*
%TD*%
D11*
%TO.C,J1*%
X56960000Y-65040000D03*
X56960000Y-70820000D03*
D12*
X57490000Y-63610000D03*
D13*
X53310000Y-63610000D03*
D12*
X57490000Y-72250000D03*
D13*
X53310000Y-72250000D03*
%TD*%
D14*
%TO.C,J4*%
X84250000Y-103000000D03*
D15*
X84250000Y-105540000D03*
D16*
X84250000Y-108080000D03*
X84250000Y-110620000D03*
D15*
X84250000Y-113160000D03*
D16*
X84250000Y-115700000D03*
%TD*%
D17*
%TO.C,J5*%
X110000000Y-111000000D03*
X115000000Y-111000000D03*
%TD*%
D18*
%TO.C,H3*%
X125000000Y-115000000D03*
D19*
X125000000Y-115000000D03*
%TD*%
D18*
%TO.C,H4*%
X55000000Y-115000000D03*
D19*
X55000000Y-115000000D03*
%TD*%
D20*
%TO.C,J9*%
X114420000Y-65910000D03*
D16*
X111880000Y-65910000D03*
X109340000Y-65910000D03*
X106800000Y-65910000D03*
%TD*%
D21*
%TO.C,SW3*%
X52600000Y-99550000D03*
X52600000Y-102050000D03*
X52600000Y-104550000D03*
%TD*%
D22*
%TO.C,BT2*%
X72400000Y-117000000D03*
D14*
X74000000Y-115000000D03*
D23*
X76500000Y-115000000D03*
%TD*%
D18*
%TO.C,H2*%
X125000000Y-55000000D03*
D19*
X125000000Y-55000000D03*
%TD*%
D20*
%TO.C,J10*%
X125375000Y-61350000D03*
D16*
X122835000Y-61350000D03*
X120295000Y-61350000D03*
%TD*%
D24*
%TO.C,J7*%
X124000000Y-89000000D03*
D25*
X121460000Y-86460000D03*
X121460000Y-91540000D03*
X126540000Y-86460000D03*
X126540000Y-91540000D03*
%TD*%
D24*
%TO.C,J8*%
X56000000Y-89000000D03*
D25*
X53460000Y-86460000D03*
X53460000Y-91540000D03*
X58540000Y-86460000D03*
X58540000Y-91540000D03*
%TD*%
D17*
%TO.C,J3*%
X93000000Y-111000000D03*
X98000000Y-111000000D03*
%TD*%
D14*
%TO.C,BT1*%
X65000000Y-114000000D03*
D26*
X62460000Y-114000000D03*
%TD*%
D18*
%TO.C,H1*%
X55000000Y-55000000D03*
D19*
X55000000Y-55000000D03*
%TD*%
D27*
%TO.C,U7*%
X99480000Y-72890000D03*
X99480000Y-77340000D03*
X99480000Y-81790000D03*
X99480000Y-86240000D03*
X99480000Y-90690000D03*
X99480000Y-95140000D03*
X99480000Y-99590000D03*
X101570000Y-103140000D03*
X106020000Y-103140000D03*
X110470000Y-103140000D03*
D28*
X108080000Y-96590000D03*
D29*
X102680000Y-69190000D03*
X113480000Y-69190000D03*
D27*
X114920000Y-103140000D03*
X116680000Y-99590000D03*
X116680000Y-95140000D03*
X116680000Y-90690000D03*
X116680000Y-86240000D03*
X116680000Y-81790000D03*
X116680000Y-77340000D03*
X116680000Y-72890000D03*
%TD*%
D30*
%TO.C,C14*%
X110820000Y-51535000D03*
X112370000Y-51535000D03*
%TD*%
D31*
%TO.C,FL2*%
X59453207Y-79825109D03*
D11*
X59085511Y-81755511D03*
D32*
X58960000Y-81630000D03*
D31*
X57155109Y-82123207D03*
D32*
X57648316Y-80318316D03*
D11*
X57522805Y-80192805D03*
%TD*%
D33*
%TO.C,TP9*%
X59725000Y-110050000D03*
%TD*%
D34*
%TO.C,C8*%
X112457500Y-53135000D03*
X110732500Y-53135000D03*
%TD*%
D33*
%TO.C,TP11*%
X124950000Y-108800000D03*
%TD*%
%TO.C,TP12*%
X94100000Y-55200000D03*
%TD*%
D35*
%TO.C,JP2*%
X95717500Y-78590000D03*
X95717500Y-79890000D03*
X95717500Y-81190000D03*
%TD*%
D27*
%TO.C,U8*%
X80600000Y-105300000D03*
X80600000Y-100850000D03*
X80600000Y-96400000D03*
X80600000Y-91950000D03*
X80600000Y-87500000D03*
X80600000Y-83050000D03*
X80600000Y-78600000D03*
X78510000Y-75050000D03*
X74060000Y-75050000D03*
X69610000Y-75050000D03*
D28*
X72000000Y-81600000D03*
D29*
X77400000Y-109000000D03*
X66600000Y-109000000D03*
D27*
X65160000Y-75050000D03*
X63400000Y-78600000D03*
X63400000Y-83050000D03*
X63400000Y-87500000D03*
X63400000Y-91950000D03*
X63400000Y-96400000D03*
X63400000Y-100850000D03*
X63400000Y-105300000D03*
%TD*%
D36*
%TO.C,FL1*%
X120300951Y-97799049D03*
D11*
X120668647Y-95868647D03*
D37*
X120794158Y-95994158D03*
D36*
X122599049Y-95500951D03*
D37*
X122105842Y-97305842D03*
D11*
X122231353Y-97431353D03*
%TD*%
D33*
%TO.C,TP10*%
X88450000Y-53350000D03*
%TD*%
%TO.C,TP13*%
X94100000Y-57300000D03*
%TD*%
M02*
