%TF.GenerationSoftware,KiCad,Pcbnew,7.0.1*%
%TF.CreationDate,2023-04-13T23:04:44+03:00*%
%TF.ProjectId,cross_band_handy_walkie_talkie_ES8388,63726f73-735f-4626-916e-645f68616e64,rev?*%
%TF.SameCoordinates,Original*%
%TF.FileFunction,Soldermask,Top*%
%TF.FilePolarity,Negative*%
%FSLAX46Y46*%
G04 Gerber Fmt 4.6, Leading zero omitted, Abs format (unit mm)*
G04 Created by KiCad (PCBNEW 7.0.1) date 2023-04-13 23:04:44*
%MOMM*%
%LPD*%
G01*
G04 APERTURE LIST*
G04 Aperture macros list*
%AMRoundRect*
0 Rectangle with rounded corners*
0 $1 Rounding radius*
0 $2 $3 $4 $5 $6 $7 $8 $9 X,Y pos of 4 corners*
0 Add a 4 corners polygon primitive as box body*
4,1,4,$2,$3,$4,$5,$6,$7,$8,$9,$2,$3,0*
0 Add four circle primitives for the rounded corners*
1,1,$1+$1,$2,$3*
1,1,$1+$1,$4,$5*
1,1,$1+$1,$6,$7*
1,1,$1+$1,$8,$9*
0 Add four rect primitives between the rounded corners*
20,1,$1+$1,$2,$3,$4,$5,0*
20,1,$1+$1,$4,$5,$6,$7,0*
20,1,$1+$1,$6,$7,$8,$9,0*
20,1,$1+$1,$8,$9,$2,$3,0*%
%AMFreePoly0*
4,1,14,0.318306,0.106694,0.381694,0.043306,0.400000,-0.000888,0.400000,-0.062500,0.381694,-0.106694,0.337500,-0.125000,-0.337500,-0.125000,-0.381694,-0.106694,-0.400000,-0.062500,-0.400000,0.062500,-0.381694,0.106694,-0.337500,0.125000,0.274112,0.125000,0.318306,0.106694,0.318306,0.106694,$1*%
%AMFreePoly1*
4,1,14,0.381694,0.106694,0.400000,0.062500,0.400000,0.000888,0.381694,-0.043306,0.318306,-0.106694,0.274112,-0.125000,-0.337500,-0.125000,-0.381694,-0.106694,-0.400000,-0.062500,-0.400000,0.062500,-0.381694,0.106694,-0.337500,0.125000,0.337500,0.125000,0.381694,0.106694,0.381694,0.106694,$1*%
%AMFreePoly2*
4,1,14,0.106694,0.381694,0.125000,0.337500,0.125000,-0.337500,0.106694,-0.381694,0.062500,-0.400000,-0.062500,-0.400000,-0.106694,-0.381694,-0.125000,-0.337500,-0.125000,0.274112,-0.106694,0.318306,-0.043306,0.381694,0.000888,0.400000,0.062500,0.400000,0.106694,0.381694,0.106694,0.381694,$1*%
%AMFreePoly3*
4,1,14,0.043306,0.381694,0.106694,0.318306,0.125000,0.274112,0.125000,-0.337500,0.106694,-0.381694,0.062500,-0.400000,-0.062500,-0.400000,-0.106694,-0.381694,-0.125000,-0.337500,-0.125000,0.337500,-0.106694,0.381694,-0.062500,0.400000,-0.000888,0.400000,0.043306,0.381694,0.043306,0.381694,$1*%
%AMFreePoly4*
4,1,14,0.381694,0.106694,0.400000,0.062500,0.400000,-0.062500,0.381694,-0.106694,0.337500,-0.125000,-0.274112,-0.125000,-0.318306,-0.106693,-0.381694,-0.043306,-0.400000,0.000888,-0.400000,0.062500,-0.381694,0.106694,-0.337500,0.125000,0.337500,0.125000,0.381694,0.106694,0.381694,0.106694,$1*%
%AMFreePoly5*
4,1,14,0.381694,0.106694,0.400000,0.062500,0.400000,-0.062500,0.381694,-0.106694,0.337500,-0.125000,-0.337500,-0.125000,-0.381694,-0.106694,-0.400000,-0.062500,-0.400000,-0.000888,-0.381694,0.043306,-0.318306,0.106694,-0.274112,0.125000,0.337500,0.125000,0.381694,0.106694,0.381694,0.106694,$1*%
%AMFreePoly6*
4,1,14,0.106694,0.381694,0.125000,0.337500,0.125000,-0.274112,0.106694,-0.318306,0.043306,-0.381694,-0.000888,-0.400000,-0.062500,-0.400000,-0.106694,-0.381694,-0.125000,-0.337500,-0.125000,0.337500,-0.106694,0.381694,-0.062500,0.400000,0.062500,0.400000,0.106694,0.381694,0.106694,0.381694,$1*%
%AMFreePoly7*
4,1,14,0.106694,0.381694,0.125000,0.337500,0.125000,-0.337500,0.106694,-0.381694,0.062500,-0.400000,0.000888,-0.400000,-0.043306,-0.381693,-0.106694,-0.318306,-0.125000,-0.274112,-0.125000,0.337500,-0.106694,0.381694,-0.062500,0.400000,0.062500,0.400000,0.106694,0.381694,0.106694,0.381694,$1*%
G04 Aperture macros list end*
%ADD10FreePoly0,270.000000*%
%ADD11RoundRect,0.062500X-0.062500X0.337500X-0.062500X-0.337500X0.062500X-0.337500X0.062500X0.337500X0*%
%ADD12FreePoly1,270.000000*%
%ADD13FreePoly2,270.000000*%
%ADD14RoundRect,0.062500X-0.337500X0.062500X-0.337500X-0.062500X0.337500X-0.062500X0.337500X0.062500X0*%
%ADD15FreePoly3,270.000000*%
%ADD16FreePoly4,270.000000*%
%ADD17FreePoly5,270.000000*%
%ADD18FreePoly6,270.000000*%
%ADD19FreePoly7,270.000000*%
%ADD20R,2.400000X2.400000*%
%ADD21C,1.600000*%
%ADD22RoundRect,0.107480X-0.642520X-1.217520X0.642520X-1.217520X0.642520X1.217520X-0.642520X1.217520X0*%
%ADD23RoundRect,0.135000X0.135000X0.185000X-0.135000X0.185000X-0.135000X-0.185000X0.135000X-0.185000X0*%
%ADD24R,1.300000X2.000000*%
%ADD25R,2.000000X2.000000*%
%ADD26RoundRect,0.225000X-0.250000X0.225000X-0.250000X-0.225000X0.250000X-0.225000X0.250000X0.225000X0*%
%ADD27RoundRect,0.135000X-0.135000X-0.185000X0.135000X-0.185000X0.135000X0.185000X-0.135000X0.185000X0*%
%ADD28RoundRect,0.150000X-0.587500X-0.150000X0.587500X-0.150000X0.587500X0.150000X-0.587500X0.150000X0*%
%ADD29RoundRect,0.250000X0.262500X0.450000X-0.262500X0.450000X-0.262500X-0.450000X0.262500X-0.450000X0*%
%ADD30RoundRect,0.237500X-0.250000X-0.237500X0.250000X-0.237500X0.250000X0.237500X-0.250000X0.237500X0*%
%ADD31RoundRect,0.140000X-0.170000X0.140000X-0.170000X-0.140000X0.170000X-0.140000X0.170000X0.140000X0*%
%ADD32RoundRect,0.250000X-0.262500X-0.450000X0.262500X-0.450000X0.262500X0.450000X-0.262500X0.450000X0*%
%ADD33R,1.500000X1.000000*%
%ADD34RoundRect,0.140000X-0.140000X-0.170000X0.140000X-0.170000X0.140000X0.170000X-0.140000X0.170000X0*%
%ADD35RoundRect,0.218750X-0.218750X-0.256250X0.218750X-0.256250X0.218750X0.256250X-0.218750X0.256250X0*%
%ADD36RoundRect,0.225000X-0.225000X-0.250000X0.225000X-0.250000X0.225000X0.250000X-0.225000X0.250000X0*%
%ADD37RoundRect,0.140000X0.140000X0.170000X-0.140000X0.170000X-0.140000X-0.170000X0.140000X-0.170000X0*%
%ADD38R,1.000000X1.000000*%
%ADD39RoundRect,0.135000X-0.185000X0.135000X-0.185000X-0.135000X0.185000X-0.135000X0.185000X0.135000X0*%
%ADD40RoundRect,0.225000X0.250000X-0.225000X0.250000X0.225000X-0.250000X0.225000X-0.250000X-0.225000X0*%
%ADD41RoundRect,0.237500X-0.300000X-0.237500X0.300000X-0.237500X0.300000X0.237500X-0.300000X0.237500X0*%
%ADD42RoundRect,0.237500X0.300000X0.237500X-0.300000X0.237500X-0.300000X-0.237500X0.300000X-0.237500X0*%
%ADD43C,0.650000*%
%ADD44R,1.450000X0.600000*%
%ADD45R,1.450000X0.300000*%
%ADD46O,2.100000X1.000000*%
%ADD47O,1.600000X1.000000*%
%ADD48RoundRect,0.225000X0.225000X0.250000X-0.225000X0.250000X-0.225000X-0.250000X0.225000X-0.250000X0*%
%ADD49RoundRect,0.250000X-0.475000X0.250000X-0.475000X-0.250000X0.475000X-0.250000X0.475000X0.250000X0*%
%ADD50RoundRect,0.218750X0.256250X-0.218750X0.256250X0.218750X-0.256250X0.218750X-0.256250X-0.218750X0*%
%ADD51RoundRect,0.250000X0.250000X0.475000X-0.250000X0.475000X-0.250000X-0.475000X0.250000X-0.475000X0*%
%ADD52R,1.000000X1.500000*%
%ADD53RoundRect,0.250000X-0.250000X-0.475000X0.250000X-0.475000X0.250000X0.475000X-0.250000X0.475000X0*%
%ADD54RoundRect,0.237500X0.250000X0.237500X-0.250000X0.237500X-0.250000X-0.237500X0.250000X-0.237500X0*%
%ADD55RoundRect,0.200000X0.275000X-0.200000X0.275000X0.200000X-0.275000X0.200000X-0.275000X-0.200000X0*%
%ADD56RoundRect,0.243750X-0.243750X-0.456250X0.243750X-0.456250X0.243750X0.456250X-0.243750X0.456250X0*%
%ADD57C,2.000000*%
%ADD58R,2.000000X1.700000*%
%ADD59O,1.700000X1.700000*%
%ADD60C,3.000000*%
%ADD61RoundRect,0.300000X0.800000X-0.300000X0.800000X0.300000X-0.800000X0.300000X-0.800000X-0.300000X0*%
%ADD62R,0.700000X1.000000*%
%ADD63RoundRect,0.218750X0.218750X0.256250X-0.218750X0.256250X-0.218750X-0.256250X0.218750X-0.256250X0*%
%ADD64R,3.500000X1.800000*%
%ADD65RoundRect,0.135000X0.185000X-0.135000X0.185000X0.135000X-0.185000X0.135000X-0.185000X-0.135000X0*%
%ADD66C,1.000000*%
%ADD67RoundRect,0.237500X-0.237500X0.250000X-0.237500X-0.250000X0.237500X-0.250000X0.237500X0.250000X0*%
%ADD68C,3.600000*%
%ADD69C,5.600000*%
%ADD70R,1.700000X1.700000*%
%ADD71RoundRect,0.150000X-0.150000X0.587500X-0.150000X-0.587500X0.150000X-0.587500X0.150000X0.587500X0*%
%ADD72C,1.500000*%
%ADD73RoundRect,0.075000X-0.075000X0.337500X-0.075000X-0.337500X0.075000X-0.337500X0.075000X0.337500X0*%
%ADD74RoundRect,0.075000X-0.337500X0.075000X-0.337500X-0.075000X0.337500X-0.075000X0.337500X0.075000X0*%
%ADD75R,2.500000X2.500000*%
%ADD76RoundRect,0.300000X-0.300000X-0.800000X0.300000X-0.800000X0.300000X0.800000X-0.300000X0.800000X0*%
%ADD77RoundRect,0.150000X0.150000X-0.587500X0.150000X0.587500X-0.150000X0.587500X-0.150000X-0.587500X0*%
%ADD78RoundRect,0.300000X-0.800000X0.300000X-0.800000X-0.300000X0.800000X-0.300000X0.800000X0.300000X0*%
%ADD79C,1.200000*%
%ADD80RoundRect,0.140000X0.170000X-0.140000X0.170000X0.140000X-0.170000X0.140000X-0.170000X-0.140000X0*%
%ADD81R,0.850000X1.100000*%
%ADD82R,0.750000X1.100000*%
%ADD83R,1.200000X1.000000*%
%ADD84R,1.550000X1.350000*%
%ADD85R,1.900000X1.350000*%
%ADD86R,1.170000X1.800000*%
%ADD87RoundRect,0.250000X0.625000X-0.312500X0.625000X0.312500X-0.625000X0.312500X-0.625000X-0.312500X0*%
%ADD88RoundRect,0.250000X0.312500X0.625000X-0.312500X0.625000X-0.312500X-0.625000X0.312500X-0.625000X0*%
%ADD89C,2.050000*%
%ADD90C,2.250000*%
%ADD91RoundRect,0.200000X0.200000X0.275000X-0.200000X0.275000X-0.200000X-0.275000X0.200000X-0.275000X0*%
%ADD92R,1.400000X0.800000*%
%ADD93R,0.800000X1.400000*%
%ADD94R,0.800000X0.800000*%
%ADD95RoundRect,0.150000X0.587500X0.150000X-0.587500X0.150000X-0.587500X-0.150000X0.587500X-0.150000X0*%
%ADD96R,1.500000X2.000000*%
%ADD97R,3.800000X2.000000*%
%ADD98R,1.700000X2.000000*%
%ADD99RoundRect,0.150000X0.150000X-0.512500X0.150000X0.512500X-0.150000X0.512500X-0.150000X-0.512500X0*%
%ADD100RoundRect,0.062500X-0.362500X-0.062500X0.362500X-0.062500X0.362500X0.062500X-0.362500X0.062500X0*%
%ADD101RoundRect,0.062500X-0.062500X-0.362500X0.062500X-0.362500X0.062500X0.362500X-0.062500X0.362500X0*%
%ADD102R,2.600000X2.600000*%
%ADD103C,0.610000*%
G04 APERTURE END LIST*
D10*
%TO.C,U5*%
X92800000Y-78400000D03*
D11*
X92350000Y-78400000D03*
X91900000Y-78400000D03*
X91450000Y-78400000D03*
X91000000Y-78400000D03*
X90550000Y-78400000D03*
D12*
X90100000Y-78400000D03*
D13*
X89500000Y-79000000D03*
D14*
X89500000Y-79450000D03*
X89500000Y-79900000D03*
X89500000Y-80350000D03*
X89500000Y-80800000D03*
X89500000Y-81250000D03*
D15*
X89500000Y-81700000D03*
D16*
X90100000Y-82300000D03*
D11*
X90550000Y-82300000D03*
X91000000Y-82300000D03*
X91450000Y-82300000D03*
X91900000Y-82300000D03*
X92350000Y-82300000D03*
D17*
X92800000Y-82300000D03*
D18*
X93400000Y-81700000D03*
D14*
X93400000Y-81250000D03*
X93400000Y-80800000D03*
X93400000Y-80350000D03*
X93400000Y-79900000D03*
X93400000Y-79450000D03*
D19*
X93400000Y-79000000D03*
D20*
X91450000Y-80350000D03*
%TD*%
D21*
%TO.C,J6*%
X119110000Y-68970000D03*
D22*
X124210000Y-64970000D03*
X119210000Y-64970000D03*
X126810000Y-72970000D03*
X126810000Y-64970000D03*
X120210000Y-72970000D03*
X118210000Y-72970000D03*
%TD*%
D23*
%TO.C,R10*%
X100045000Y-53135000D03*
X99025000Y-53135000D03*
%TD*%
D24*
%TO.C,RV4*%
X107460000Y-93530000D03*
D25*
X108610000Y-89530000D03*
D24*
X109760000Y-93530000D03*
%TD*%
D26*
%TO.C,C19*%
X92900000Y-98975000D03*
X92900000Y-100525000D03*
%TD*%
D27*
%TO.C,R3*%
X60150000Y-69710000D03*
X61170000Y-69710000D03*
%TD*%
D28*
%TO.C,Q6*%
X73462500Y-63550000D03*
X73462500Y-65450000D03*
X75337500Y-64500000D03*
%TD*%
D27*
%TO.C,R41*%
X96840000Y-93300000D03*
X97860000Y-93300000D03*
%TD*%
D29*
%TO.C,FB1*%
X62882500Y-71410000D03*
X61057500Y-71410000D03*
%TD*%
D30*
%TO.C,R7*%
X55847500Y-60660000D03*
X57672500Y-60660000D03*
%TD*%
D31*
%TO.C,C40*%
X97800000Y-95320000D03*
X97800000Y-96280000D03*
%TD*%
D32*
%TO.C,R5*%
X52520000Y-81300000D03*
X54345000Y-81300000D03*
%TD*%
D33*
%TO.C,JP1*%
X87270000Y-94480000D03*
X87270000Y-95780000D03*
X87270000Y-97080000D03*
%TD*%
D31*
%TO.C,C13*%
X65955000Y-102450000D03*
X65955000Y-103410000D03*
%TD*%
D26*
%TO.C,C9*%
X75455000Y-101055000D03*
X75455000Y-102605000D03*
%TD*%
D34*
%TO.C,C17*%
X69925000Y-106530000D03*
X70885000Y-106530000D03*
%TD*%
D35*
%TO.C,D4*%
X77147500Y-105210000D03*
X78722500Y-105210000D03*
%TD*%
D36*
%TO.C,C57*%
X72305000Y-75770000D03*
X73855000Y-75770000D03*
%TD*%
D37*
%TO.C,C51*%
X94185000Y-83520000D03*
X93225000Y-83520000D03*
%TD*%
D38*
%TO.C,TP2*%
X72405000Y-108215000D03*
%TD*%
D27*
%TO.C,R32*%
X94890000Y-93300000D03*
X95910000Y-93300000D03*
%TD*%
%TO.C,R19*%
X101175000Y-54335000D03*
X102195000Y-54335000D03*
%TD*%
D23*
%TO.C,R52*%
X75660000Y-66750000D03*
X74640000Y-66750000D03*
%TD*%
D36*
%TO.C,C11*%
X61590000Y-108590000D03*
X63140000Y-108590000D03*
%TD*%
D39*
%TO.C,R29*%
X90395000Y-71425000D03*
X90395000Y-72445000D03*
%TD*%
D37*
%TO.C,C27*%
X95930000Y-94350000D03*
X94970000Y-94350000D03*
%TD*%
D40*
%TO.C,C25*%
X85310000Y-86720000D03*
X85310000Y-85170000D03*
%TD*%
D41*
%TO.C,C6*%
X52530000Y-60660000D03*
X54255000Y-60660000D03*
%TD*%
D42*
%TO.C,C56*%
X77152500Y-75770000D03*
X75427500Y-75770000D03*
%TD*%
%TO.C,C55*%
X104602500Y-102510000D03*
X102877500Y-102510000D03*
%TD*%
D43*
%TO.C,J1*%
X56960000Y-65040000D03*
X56960000Y-70820000D03*
D44*
X58405000Y-64680000D03*
X58405000Y-65480000D03*
D45*
X58405000Y-66680000D03*
X58405000Y-67680000D03*
X58405000Y-68180000D03*
X58405000Y-69180000D03*
D44*
X58405000Y-70380000D03*
X58405000Y-71180000D03*
X58405000Y-71180000D03*
X58405000Y-70380000D03*
D45*
X58405000Y-69680000D03*
X58405000Y-68680000D03*
X58405000Y-67180000D03*
X58405000Y-66180000D03*
D44*
X58405000Y-65480000D03*
X58405000Y-64680000D03*
D46*
X57490000Y-63610000D03*
D47*
X53310000Y-63610000D03*
D46*
X57490000Y-72250000D03*
D47*
X53310000Y-72250000D03*
%TD*%
D48*
%TO.C,C16*%
X70630000Y-107780000D03*
X69080000Y-107780000D03*
%TD*%
D27*
%TO.C,R17*%
X101195000Y-59535000D03*
X102215000Y-59535000D03*
%TD*%
D49*
%TO.C,C30*%
X98800000Y-83300000D03*
X98800000Y-85200000D03*
%TD*%
D26*
%TO.C,C61*%
X75570000Y-70325000D03*
X75570000Y-71875000D03*
%TD*%
D37*
%TO.C,C53*%
X72785000Y-106530000D03*
X71825000Y-106530000D03*
%TD*%
D34*
%TO.C,C20*%
X91575000Y-76170000D03*
X92535000Y-76170000D03*
%TD*%
D50*
%TO.C,D6*%
X83610000Y-90680000D03*
X83610000Y-89105000D03*
%TD*%
D51*
%TO.C,C33*%
X93600000Y-91720000D03*
X91700000Y-91720000D03*
%TD*%
D24*
%TO.C,RV3*%
X107120000Y-78970000D03*
D25*
X108270000Y-74970000D03*
D24*
X109420000Y-78970000D03*
%TD*%
D52*
%TO.C,JP4*%
X79950000Y-78075000D03*
X78650000Y-78075000D03*
X77350000Y-78075000D03*
%TD*%
D53*
%TO.C,C28*%
X99250000Y-81200000D03*
X101150000Y-81200000D03*
%TD*%
D54*
%TO.C,R1*%
X76027500Y-56740000D03*
X74202500Y-56740000D03*
%TD*%
D31*
%TO.C,C5*%
X78095000Y-52080000D03*
X78095000Y-53040000D03*
%TD*%
D40*
%TO.C,C41*%
X87990000Y-79695000D03*
X87990000Y-78145000D03*
%TD*%
D27*
%TO.C,R18*%
X101185000Y-53135000D03*
X102205000Y-53135000D03*
%TD*%
D55*
%TO.C,R38*%
X85150000Y-90725000D03*
X85150000Y-89075000D03*
%TD*%
D31*
%TO.C,C37*%
X94950000Y-95320000D03*
X94950000Y-96280000D03*
%TD*%
D34*
%TO.C,C34*%
X91590000Y-77170000D03*
X92550000Y-77170000D03*
%TD*%
D56*
%TO.C,D5*%
X77197500Y-103290000D03*
X79072500Y-103290000D03*
%TD*%
D24*
%TO.C,RV2*%
X109410000Y-82150000D03*
D25*
X108260000Y-86150000D03*
D24*
X107110000Y-82150000D03*
%TD*%
D57*
%TO.C,J4*%
X84250000Y-103000000D03*
D58*
X84250000Y-105540000D03*
D59*
X84250000Y-108080000D03*
X84250000Y-110620000D03*
D58*
X84250000Y-113160000D03*
D59*
X84250000Y-115700000D03*
%TD*%
D60*
%TO.C,J5*%
X110000000Y-111000000D03*
X115000000Y-111000000D03*
%TD*%
D39*
%TO.C,R34*%
X113700000Y-71390000D03*
X113700000Y-72410000D03*
%TD*%
D27*
%TO.C,R14*%
X101185000Y-58235000D03*
X102205000Y-58235000D03*
%TD*%
D61*
%TO.C,L1*%
X60615000Y-107040000D03*
X60615000Y-105040000D03*
%TD*%
D62*
%TO.C,SW1*%
X64325000Y-54625000D03*
X64325000Y-60625000D03*
X60625000Y-54625000D03*
X60625000Y-60625000D03*
%TD*%
D63*
%TO.C,D8*%
X69537500Y-114650000D03*
X67962500Y-114650000D03*
%TD*%
D27*
%TO.C,R33*%
X94870000Y-92250000D03*
X95890000Y-92250000D03*
%TD*%
D36*
%TO.C,C39*%
X90480000Y-85720000D03*
X92030000Y-85720000D03*
%TD*%
D64*
%TO.C,D3*%
X68755000Y-98480000D03*
X73755000Y-98480000D03*
%TD*%
D53*
%TO.C,C24*%
X99250000Y-77100000D03*
X101150000Y-77100000D03*
%TD*%
D27*
%TO.C,R36*%
X101185000Y-56935000D03*
X102205000Y-56935000D03*
%TD*%
D26*
%TO.C,C22*%
X99750000Y-99425000D03*
X99750000Y-100975000D03*
%TD*%
D65*
%TO.C,R46*%
X68430000Y-74470000D03*
X68430000Y-73450000D03*
%TD*%
D32*
%TO.C,R4*%
X52520000Y-77110000D03*
X54345000Y-77110000D03*
%TD*%
D36*
%TO.C,C44*%
X90480000Y-87220000D03*
X92030000Y-87220000D03*
%TD*%
D66*
%TO.C,FID1*%
X105525000Y-116100000D03*
%TD*%
D67*
%TO.C,R30*%
X78130000Y-106967500D03*
X78130000Y-108792500D03*
%TD*%
D42*
%TO.C,C48*%
X114932500Y-69550000D03*
X113207500Y-69550000D03*
%TD*%
D38*
%TO.C,TP7*%
X66450000Y-69250000D03*
%TD*%
%TO.C,TP8*%
X108975000Y-72600000D03*
%TD*%
D23*
%TO.C,R13*%
X100045000Y-56935000D03*
X99025000Y-56935000D03*
%TD*%
D30*
%TO.C,R37*%
X101087500Y-96400000D03*
X102912500Y-96400000D03*
%TD*%
D68*
%TO.C,H3*%
X125000000Y-115000000D03*
D69*
X125000000Y-115000000D03*
%TD*%
D68*
%TO.C,H4*%
X55000000Y-115000000D03*
D69*
X55000000Y-115000000D03*
%TD*%
D23*
%TO.C,R22*%
X100190000Y-65860000D03*
X99170000Y-65860000D03*
%TD*%
D38*
%TO.C,TP3*%
X115800000Y-71950000D03*
%TD*%
D48*
%TO.C,C7*%
X70185000Y-75730000D03*
X68635000Y-75730000D03*
%TD*%
D70*
%TO.C,J9*%
X114420000Y-65910000D03*
D59*
X111880000Y-65910000D03*
X109340000Y-65910000D03*
X106800000Y-65910000D03*
%TD*%
D71*
%TO.C,Q5*%
X109825000Y-96112500D03*
X107925000Y-96112500D03*
X108875000Y-97987500D03*
%TD*%
D42*
%TO.C,C2*%
X71487500Y-63475000D03*
X69762500Y-63475000D03*
%TD*%
D27*
%TO.C,R48*%
X76980000Y-60750000D03*
X78000000Y-60750000D03*
%TD*%
D34*
%TO.C,C32*%
X96850000Y-94350000D03*
X97810000Y-94350000D03*
%TD*%
D23*
%TO.C,R12*%
X100045000Y-55635000D03*
X99025000Y-55635000D03*
%TD*%
D26*
%TO.C,C12*%
X68555000Y-104705000D03*
X68555000Y-106255000D03*
%TD*%
D72*
%TO.C,SW3*%
X52600000Y-99550000D03*
X52600000Y-102050000D03*
X52600000Y-104550000D03*
%TD*%
D39*
%TO.C,R25*%
X92945000Y-71425000D03*
X92945000Y-72445000D03*
%TD*%
D23*
%TO.C,R8*%
X100045000Y-58235000D03*
X99025000Y-58235000D03*
%TD*%
D48*
%TO.C,C59*%
X60140000Y-103490000D03*
X58590000Y-103490000D03*
%TD*%
%TO.C,C10*%
X60090000Y-108590000D03*
X58540000Y-108590000D03*
%TD*%
%TO.C,C15*%
X102070000Y-51835000D03*
X100520000Y-51835000D03*
%TD*%
D39*
%TO.C,R28*%
X86595000Y-71460000D03*
X86595000Y-72480000D03*
%TD*%
D73*
%TO.C,U4*%
X72980000Y-101442500D03*
X72330000Y-101442500D03*
X71680000Y-101442500D03*
X71030000Y-101442500D03*
D74*
X70067500Y-102405000D03*
X70067500Y-103055000D03*
X70067500Y-103705000D03*
X70067500Y-104355000D03*
D73*
X71030000Y-105317500D03*
X71680000Y-105317500D03*
X72330000Y-105317500D03*
X72980000Y-105317500D03*
D74*
X73942500Y-104355000D03*
X73942500Y-103705000D03*
X73942500Y-103055000D03*
X73942500Y-102405000D03*
D75*
X72005000Y-103380000D03*
%TD*%
D36*
%TO.C,C58*%
X61590000Y-103490000D03*
X63140000Y-103490000D03*
%TD*%
D76*
%TO.C,L3*%
X86910000Y-86860000D03*
X88910000Y-86860000D03*
%TD*%
D77*
%TO.C,Q3*%
X68620000Y-71897500D03*
X70520000Y-71897500D03*
X69570000Y-70022500D03*
%TD*%
D23*
%TO.C,R9*%
X100045000Y-59535000D03*
X99025000Y-59535000D03*
%TD*%
D78*
%TO.C,L4*%
X67955000Y-101080000D03*
X67955000Y-103080000D03*
%TD*%
D79*
%TO.C,BT2*%
X72400000Y-117000000D03*
D57*
X74000000Y-115000000D03*
D25*
X76500000Y-115000000D03*
%TD*%
D36*
%TO.C,C52*%
X102940000Y-104060000D03*
X104490000Y-104060000D03*
%TD*%
D80*
%TO.C,C42*%
X98840000Y-93330000D03*
X98840000Y-92370000D03*
%TD*%
D40*
%TO.C,C3*%
X75295000Y-53335000D03*
X75295000Y-51785000D03*
%TD*%
D36*
%TO.C,C21*%
X96775000Y-102900000D03*
X98325000Y-102900000D03*
%TD*%
D48*
%TO.C,C60*%
X91172500Y-99050000D03*
X89622500Y-99050000D03*
%TD*%
D62*
%TO.C,SW2*%
X71600000Y-54625000D03*
X71600000Y-60625000D03*
X67900000Y-54625000D03*
X67900000Y-60625000D03*
%TD*%
D26*
%TO.C,C47*%
X93505000Y-84845000D03*
X93505000Y-86395000D03*
%TD*%
D65*
%TO.C,R24*%
X81300000Y-115760000D03*
X81300000Y-114740000D03*
%TD*%
D81*
%TO.C,J2*%
X107090000Y-51772500D03*
X108190000Y-51772500D03*
X109290000Y-51772500D03*
X110390000Y-51772500D03*
X111490000Y-51772500D03*
X112590000Y-51772500D03*
X113690000Y-51772500D03*
D82*
X114740000Y-51772500D03*
D83*
X104455000Y-57922500D03*
X104455000Y-61622500D03*
D84*
X104630000Y-51897500D03*
D85*
X107955000Y-62597500D03*
X113925000Y-62597500D03*
D86*
X115950000Y-52122500D03*
%TD*%
D31*
%TO.C,C46*%
X92255000Y-83540000D03*
X92255000Y-84500000D03*
%TD*%
D53*
%TO.C,C63*%
X87050000Y-110650000D03*
X88950000Y-110650000D03*
%TD*%
D67*
%TO.C,R51*%
X96800000Y-86512500D03*
X96800000Y-88337500D03*
%TD*%
D26*
%TO.C,C50*%
X95055000Y-84845000D03*
X95055000Y-86395000D03*
%TD*%
D30*
%TO.C,R6*%
X74215000Y-55130000D03*
X76040000Y-55130000D03*
%TD*%
D38*
%TO.C,TP6*%
X124950000Y-108800000D03*
%TD*%
D65*
%TO.C,R2*%
X60200000Y-66590000D03*
X60200000Y-65570000D03*
%TD*%
D68*
%TO.C,H2*%
X125000000Y-55000000D03*
D69*
X125000000Y-55000000D03*
%TD*%
D87*
%TO.C,R16*%
X66605000Y-107692500D03*
X66605000Y-104767500D03*
%TD*%
D23*
%TO.C,R11*%
X100045000Y-54335000D03*
X99025000Y-54335000D03*
%TD*%
D78*
%TO.C,L2*%
X91980000Y-95360000D03*
X91980000Y-97360000D03*
%TD*%
D70*
%TO.C,J10*%
X125375000Y-61350000D03*
D59*
X122835000Y-61350000D03*
X120295000Y-61350000D03*
%TD*%
D88*
%TO.C,R43*%
X70517500Y-109730000D03*
X67592500Y-109730000D03*
%TD*%
D40*
%TO.C,C4*%
X76820000Y-53335000D03*
X76820000Y-51785000D03*
%TD*%
D55*
%TO.C,R44*%
X105875000Y-98950000D03*
X105875000Y-97300000D03*
%TD*%
D34*
%TO.C,C23*%
X92970000Y-93270000D03*
X93930000Y-93270000D03*
%TD*%
D23*
%TO.C,R23*%
X100190000Y-66860000D03*
X99170000Y-66860000D03*
%TD*%
D89*
%TO.C,J7*%
X124000000Y-89000000D03*
D90*
X121460000Y-86460000D03*
X121460000Y-91540000D03*
X126540000Y-86460000D03*
X126540000Y-91540000D03*
%TD*%
D91*
%TO.C,R45*%
X69575000Y-116200000D03*
X67925000Y-116200000D03*
%TD*%
D50*
%TO.C,D7*%
X89300000Y-90687500D03*
X89300000Y-89112500D03*
%TD*%
D27*
%TO.C,R40*%
X101185000Y-60735000D03*
X102205000Y-60735000D03*
%TD*%
D48*
%TO.C,C54*%
X77115000Y-74220000D03*
X75565000Y-74220000D03*
%TD*%
D89*
%TO.C,J8*%
X56000000Y-89000000D03*
D90*
X53460000Y-86460000D03*
X53460000Y-91540000D03*
X58540000Y-86460000D03*
X58540000Y-91540000D03*
%TD*%
D39*
%TO.C,R35*%
X96900000Y-91300000D03*
X96900000Y-92320000D03*
%TD*%
D34*
%TO.C,C43*%
X90325000Y-83520000D03*
X91285000Y-83520000D03*
%TD*%
D24*
%TO.C,RV1*%
X102260000Y-93530000D03*
D25*
X103410000Y-89530000D03*
D24*
X104560000Y-93530000D03*
%TD*%
D71*
%TO.C,Q2*%
X66980000Y-73302500D03*
X65080000Y-73302500D03*
X66030000Y-75177500D03*
%TD*%
D37*
%TO.C,C45*%
X91285000Y-84470000D03*
X90325000Y-84470000D03*
%TD*%
D31*
%TO.C,C38*%
X96850000Y-95320000D03*
X96850000Y-96280000D03*
%TD*%
D92*
%TO.C,U2*%
X79745000Y-51875000D03*
X79745000Y-53145000D03*
X79745000Y-54415000D03*
X79745000Y-55685000D03*
X79745000Y-56955000D03*
X79745000Y-58225000D03*
X79745000Y-59495000D03*
X79745000Y-60765000D03*
X79745000Y-62035000D03*
X79745000Y-63305000D03*
X79745000Y-64575000D03*
X79745000Y-65845000D03*
X79745000Y-67115000D03*
X79745000Y-68385000D03*
D93*
X81510000Y-69635000D03*
X82780000Y-69635000D03*
X84050000Y-69635000D03*
X85320000Y-69635000D03*
X86590000Y-69635000D03*
X87860000Y-69635000D03*
X89130000Y-69635000D03*
X90400000Y-69635000D03*
X91670000Y-69635000D03*
X92940000Y-69635000D03*
X94210000Y-69635000D03*
X95480000Y-69635000D03*
D92*
X97245000Y-68385000D03*
X97245000Y-67115000D03*
X97245000Y-65845000D03*
X97245000Y-64575000D03*
X97245000Y-63305000D03*
X97245000Y-62035000D03*
X97245000Y-60765000D03*
X97245000Y-59495000D03*
X97245000Y-58225000D03*
X97245000Y-56955000D03*
X97245000Y-55685000D03*
X97245000Y-54415000D03*
X97245000Y-53145000D03*
X97245000Y-51875000D03*
D94*
X85595000Y-58195000D03*
X85595000Y-59595000D03*
X85595000Y-60995000D03*
X86995000Y-58195000D03*
X86995000Y-59595000D03*
X86995000Y-60995000D03*
X88395000Y-58195000D03*
X88395000Y-59595000D03*
X88395000Y-60995000D03*
%TD*%
D41*
%TO.C,C1*%
X62587500Y-63450000D03*
X64312500Y-63450000D03*
%TD*%
D31*
%TO.C,C35*%
X95900000Y-95320000D03*
X95900000Y-96280000D03*
%TD*%
D38*
%TO.C,TP4*%
X66650000Y-66100000D03*
%TD*%
D67*
%TO.C,R42*%
X120300000Y-55937500D03*
X120300000Y-57762500D03*
%TD*%
D95*
%TO.C,Q1*%
X76317500Y-108780000D03*
X76317500Y-106880000D03*
X74442500Y-107830000D03*
%TD*%
D71*
%TO.C,Q4*%
X74020000Y-72002500D03*
X72120000Y-72002500D03*
X73070000Y-73877500D03*
%TD*%
D96*
%TO.C,U3*%
X74170000Y-77870000D03*
X71870000Y-77870000D03*
D97*
X71870000Y-84170000D03*
D96*
X69570000Y-77870000D03*
%TD*%
D55*
%TO.C,R39*%
X87750000Y-90725000D03*
X87750000Y-89075000D03*
%TD*%
D56*
%TO.C,D1*%
X52495000Y-75010000D03*
X54370000Y-75010000D03*
%TD*%
D26*
%TO.C,C18*%
X89627500Y-95570000D03*
X89627500Y-97120000D03*
%TD*%
D39*
%TO.C,R47*%
X95550000Y-102740000D03*
X95550000Y-103760000D03*
%TD*%
%TO.C,R27*%
X91670000Y-71425000D03*
X91670000Y-72445000D03*
%TD*%
D53*
%TO.C,C26*%
X99250000Y-79150000D03*
X101150000Y-79150000D03*
%TD*%
D48*
%TO.C,C29*%
X88685000Y-84730000D03*
X87135000Y-84730000D03*
%TD*%
D32*
%TO.C,R15*%
X77202500Y-101100000D03*
X79027500Y-101100000D03*
%TD*%
D54*
%TO.C,R31*%
X85472500Y-83340000D03*
X83647500Y-83340000D03*
%TD*%
D39*
%TO.C,R53*%
X71050000Y-64740000D03*
X71050000Y-65760000D03*
%TD*%
D60*
%TO.C,J3*%
X93000000Y-111000000D03*
X98000000Y-111000000D03*
%TD*%
D23*
%TO.C,R21*%
X100045000Y-60735000D03*
X99025000Y-60735000D03*
%TD*%
D39*
%TO.C,R26*%
X87870000Y-71475000D03*
X87870000Y-72495000D03*
%TD*%
D57*
%TO.C,BT1*%
X65000000Y-114000000D03*
D98*
X62460000Y-114000000D03*
%TD*%
D48*
%TO.C,C31*%
X93230000Y-74870000D03*
X91680000Y-74870000D03*
%TD*%
D68*
%TO.C,H1*%
X55000000Y-55000000D03*
D69*
X55000000Y-55000000D03*
%TD*%
D56*
%TO.C,D2*%
X52495000Y-79180000D03*
X54370000Y-79180000D03*
%TD*%
D27*
%TO.C,R50*%
X76980000Y-58250000D03*
X78000000Y-58250000D03*
%TD*%
D51*
%TO.C,C36*%
X93820000Y-89010000D03*
X91920000Y-89010000D03*
%TD*%
D27*
%TO.C,R20*%
X101195000Y-55635000D03*
X102215000Y-55635000D03*
%TD*%
D99*
%TO.C,U1*%
X62600000Y-68887500D03*
X63550000Y-68887500D03*
X64500000Y-68887500D03*
X64500000Y-66612500D03*
X63550000Y-66612500D03*
X62600000Y-66612500D03*
%TD*%
D38*
%TO.C,TP5*%
X119550000Y-52150000D03*
%TD*%
D27*
%TO.C,R49*%
X76980000Y-59450000D03*
X78000000Y-59450000D03*
%TD*%
D100*
%TO.C,U6*%
X94425000Y-98500000D03*
X94425000Y-99000000D03*
X94425000Y-99500000D03*
X94425000Y-100000000D03*
X94425000Y-100500000D03*
D101*
X95350000Y-101425000D03*
X95850000Y-101425000D03*
X96350000Y-101425000D03*
X96850000Y-101425000D03*
X97350000Y-101425000D03*
D100*
X98275000Y-100500000D03*
X98275000Y-100000000D03*
X98275000Y-99500000D03*
X98275000Y-99000000D03*
X98275000Y-98500000D03*
D101*
X97350000Y-97575000D03*
X96850000Y-97575000D03*
X96350000Y-97575000D03*
X95850000Y-97575000D03*
X95350000Y-97575000D03*
D102*
X96350000Y-99500000D03*
%TD*%
D48*
%TO.C,C62*%
X73840000Y-70180000D03*
X72290000Y-70180000D03*
%TD*%
D103*
%TO.C,FL2*%
X59085511Y-81755511D03*
X57522805Y-80192805D03*
%TD*%
%TO.C,FL1*%
X120668647Y-95868647D03*
X122231353Y-97431353D03*
%TD*%
G36*
X95446620Y-100798809D02*
G01*
X95446928Y-100800581D01*
X95393535Y-100976585D01*
X95431375Y-101001870D01*
X95432260Y-101003402D01*
X95431583Y-101005037D01*
X95429874Y-101005495D01*
X95412301Y-101002000D01*
X95287699Y-101002000D01*
X95270106Y-101005499D01*
X95268397Y-101005041D01*
X95267720Y-101003406D01*
X95268605Y-101001874D01*
X95306464Y-100976570D01*
X95253064Y-100800581D01*
X95253372Y-100798809D01*
X95254978Y-100798000D01*
X95445014Y-100798000D01*
X95446620Y-100798809D01*
G37*
G36*
X96946616Y-100798809D02*
G01*
X96946924Y-100800581D01*
X96893535Y-100976593D01*
X96931368Y-101001869D01*
X96932253Y-101003401D01*
X96931576Y-101005036D01*
X96929867Y-101005494D01*
X96912301Y-101002000D01*
X96787699Y-101002000D01*
X96770114Y-101005498D01*
X96768405Y-101005040D01*
X96767728Y-101003405D01*
X96768613Y-101001873D01*
X96806464Y-100976578D01*
X96753068Y-100800581D01*
X96753376Y-100798809D01*
X96754982Y-100798000D01*
X96945010Y-100798000D01*
X96946616Y-100798809D01*
G37*
G36*
X96446620Y-100798809D02*
G01*
X96446928Y-100800581D01*
X96393535Y-100976585D01*
X96431375Y-101001870D01*
X96432260Y-101003402D01*
X96431583Y-101005037D01*
X96429874Y-101005495D01*
X96412301Y-101002000D01*
X96287699Y-101002000D01*
X96270114Y-101005498D01*
X96268405Y-101005040D01*
X96267728Y-101003405D01*
X96268613Y-101001873D01*
X96306464Y-100976578D01*
X96253068Y-100800581D01*
X96253376Y-100798809D01*
X96254982Y-100798000D01*
X96445014Y-100798000D01*
X96446620Y-100798809D01*
G37*
G36*
X95946620Y-100798809D02*
G01*
X95946928Y-100800581D01*
X95893535Y-100976585D01*
X95931375Y-101001870D01*
X95932260Y-101003402D01*
X95931583Y-101005037D01*
X95929874Y-101005495D01*
X95912301Y-101002000D01*
X95787699Y-101002000D01*
X95770114Y-101005498D01*
X95768405Y-101005040D01*
X95767728Y-101003405D01*
X95768613Y-101001873D01*
X95806464Y-100976578D01*
X95753068Y-100800581D01*
X95753376Y-100798809D01*
X95754982Y-100798000D01*
X95945014Y-100798000D01*
X95946620Y-100798809D01*
G37*
G36*
X97446616Y-100798809D02*
G01*
X97446924Y-100800581D01*
X97393535Y-100976593D01*
X97431368Y-101001869D01*
X97432253Y-101003401D01*
X97431576Y-101005036D01*
X97429867Y-101005494D01*
X97412301Y-101002000D01*
X97287699Y-101002000D01*
X97270124Y-101005496D01*
X97268415Y-101005038D01*
X97267738Y-101003403D01*
X97268623Y-101001871D01*
X97306464Y-100976585D01*
X97253072Y-100800581D01*
X97253380Y-100798809D01*
X97254986Y-100798000D01*
X97445010Y-100798000D01*
X97446616Y-100798809D01*
G37*
G36*
X95051191Y-98403376D02*
G01*
X95052000Y-98404982D01*
X95052000Y-100700263D01*
X95051000Y-100701995D01*
X95049000Y-100701995D01*
X95048000Y-100700263D01*
X95047999Y-100596488D01*
X94873395Y-100543536D01*
X94848133Y-100581355D01*
X94846601Y-100582240D01*
X94844966Y-100581563D01*
X94844508Y-100579854D01*
X94848000Y-100562301D01*
X94848000Y-100437699D01*
X94844506Y-100420137D01*
X94844964Y-100418428D01*
X94846599Y-100417751D01*
X94848131Y-100418636D01*
X94873402Y-100456463D01*
X95048000Y-100403506D01*
X95048000Y-100096489D01*
X94873395Y-100043536D01*
X94848133Y-100081355D01*
X94846601Y-100082240D01*
X94844966Y-100081563D01*
X94844508Y-100079854D01*
X94848000Y-100062300D01*
X94848000Y-99937699D01*
X94844504Y-99920127D01*
X94844962Y-99918418D01*
X94846597Y-99917741D01*
X94848129Y-99918626D01*
X94873409Y-99956462D01*
X95048000Y-99903502D01*
X95048000Y-99596494D01*
X94873402Y-99543536D01*
X94848131Y-99581362D01*
X94846599Y-99582247D01*
X94844964Y-99581570D01*
X94844506Y-99579861D01*
X94848000Y-99562301D01*
X94848000Y-99437699D01*
X94844504Y-99420127D01*
X94844962Y-99418418D01*
X94846597Y-99417741D01*
X94848129Y-99418626D01*
X94873409Y-99456462D01*
X95048000Y-99403502D01*
X95048000Y-99096494D01*
X94873402Y-99043536D01*
X94848131Y-99081362D01*
X94846599Y-99082247D01*
X94844964Y-99081570D01*
X94844506Y-99079861D01*
X94848000Y-99062301D01*
X94848000Y-98937699D01*
X94844504Y-98920127D01*
X94844962Y-98918418D01*
X94846597Y-98917741D01*
X94848129Y-98918626D01*
X94873409Y-98956462D01*
X95048000Y-98903502D01*
X95048000Y-98596494D01*
X94873402Y-98543536D01*
X94848131Y-98581362D01*
X94846599Y-98582247D01*
X94844964Y-98581570D01*
X94844506Y-98579861D01*
X94848000Y-98562301D01*
X94848000Y-98437699D01*
X94844502Y-98420118D01*
X94844960Y-98418409D01*
X94846595Y-98417732D01*
X94848127Y-98418617D01*
X94873417Y-98456462D01*
X95049419Y-98403068D01*
X95051191Y-98403376D01*
G37*
G36*
X97826578Y-100456464D02*
G01*
X97851873Y-100418613D01*
X97853405Y-100417728D01*
X97855040Y-100418405D01*
X97855498Y-100420114D01*
X97852000Y-100437699D01*
X97852000Y-100562301D01*
X97855498Y-100579885D01*
X97855040Y-100581594D01*
X97853405Y-100582271D01*
X97851873Y-100581386D01*
X97826577Y-100543535D01*
X97650581Y-100596932D01*
X97648809Y-100596624D01*
X97648000Y-100595018D01*
X97648000Y-100404982D01*
X97648809Y-100403376D01*
X97650581Y-100403068D01*
X97826578Y-100456464D01*
G37*
G36*
X97826578Y-99956464D02*
G01*
X97851873Y-99918613D01*
X97853405Y-99917728D01*
X97855040Y-99918405D01*
X97855498Y-99920114D01*
X97852000Y-99937699D01*
X97852000Y-100062300D01*
X97855495Y-100079874D01*
X97855037Y-100081583D01*
X97853402Y-100082260D01*
X97851870Y-100081375D01*
X97826585Y-100043535D01*
X97650581Y-100096928D01*
X97648809Y-100096620D01*
X97648000Y-100095014D01*
X97648000Y-99904982D01*
X97648809Y-99903376D01*
X97650581Y-99903068D01*
X97826578Y-99956464D01*
G37*
G36*
X97826578Y-99456464D02*
G01*
X97851873Y-99418613D01*
X97853405Y-99417728D01*
X97855040Y-99418405D01*
X97855498Y-99420114D01*
X97852000Y-99437699D01*
X97852000Y-99562301D01*
X97855495Y-99579874D01*
X97855037Y-99581583D01*
X97853402Y-99582260D01*
X97851870Y-99581375D01*
X97826585Y-99543535D01*
X97650581Y-99596928D01*
X97648809Y-99596620D01*
X97648000Y-99595014D01*
X97648000Y-99404982D01*
X97648809Y-99403376D01*
X97650581Y-99403068D01*
X97826578Y-99456464D01*
G37*
G36*
X97826585Y-98956464D02*
G01*
X97851871Y-98918623D01*
X97853403Y-98917738D01*
X97855038Y-98918415D01*
X97855496Y-98920124D01*
X97852000Y-98937699D01*
X97852000Y-99062301D01*
X97855495Y-99079874D01*
X97855037Y-99081583D01*
X97853402Y-99082260D01*
X97851870Y-99081375D01*
X97826585Y-99043535D01*
X97650581Y-99096928D01*
X97648809Y-99096620D01*
X97648000Y-99095014D01*
X97648000Y-98904986D01*
X97648809Y-98903380D01*
X97650581Y-98903072D01*
X97826585Y-98956464D01*
G37*
G36*
X97826585Y-98456464D02*
G01*
X97851871Y-98418623D01*
X97853403Y-98417738D01*
X97855038Y-98418415D01*
X97855496Y-98420124D01*
X97852000Y-98437699D01*
X97852000Y-98562301D01*
X97855494Y-98579867D01*
X97855036Y-98581576D01*
X97853401Y-98582253D01*
X97851869Y-98581368D01*
X97826593Y-98543535D01*
X97650581Y-98596924D01*
X97648809Y-98596616D01*
X97648000Y-98595010D01*
X97648000Y-98404986D01*
X97648809Y-98403380D01*
X97650581Y-98403072D01*
X97826585Y-98456464D01*
G37*
G36*
X97431580Y-97994962D02*
G01*
X97432257Y-97996597D01*
X97431372Y-97998129D01*
X97393537Y-98023409D01*
X97446928Y-98199419D01*
X97446620Y-98201191D01*
X97445014Y-98202000D01*
X95754990Y-98202000D01*
X95753384Y-98201191D01*
X95753076Y-98199419D01*
X95806463Y-98023402D01*
X95768636Y-97998131D01*
X95767751Y-97996599D01*
X95768428Y-97994964D01*
X95770137Y-97994506D01*
X95787699Y-97998000D01*
X95912301Y-97998000D01*
X95929861Y-97994506D01*
X95931570Y-97994964D01*
X95932247Y-97996599D01*
X95931362Y-97998131D01*
X95893536Y-98023402D01*
X95946494Y-98198000D01*
X96253502Y-98198000D01*
X96306462Y-98023409D01*
X96268626Y-97998129D01*
X96267741Y-97996597D01*
X96268418Y-97994962D01*
X96270127Y-97994504D01*
X96287699Y-97998000D01*
X96412301Y-97998000D01*
X96429861Y-97994506D01*
X96431570Y-97994964D01*
X96432247Y-97996599D01*
X96431362Y-97998131D01*
X96393536Y-98023402D01*
X96446494Y-98198000D01*
X96753502Y-98198000D01*
X96806462Y-98023409D01*
X96768626Y-97998129D01*
X96767741Y-97996597D01*
X96768418Y-97994962D01*
X96770127Y-97994504D01*
X96787699Y-97998000D01*
X96912301Y-97998000D01*
X96929861Y-97994506D01*
X96931570Y-97994964D01*
X96932247Y-97996599D01*
X96931362Y-97998131D01*
X96893536Y-98023402D01*
X96946494Y-98198000D01*
X97253502Y-98198000D01*
X97306462Y-98023409D01*
X97268626Y-97998129D01*
X97267741Y-97996597D01*
X97268418Y-97994962D01*
X97270127Y-97994504D01*
X97287699Y-97998000D01*
X97412301Y-97998000D01*
X97429871Y-97994504D01*
X97431580Y-97994962D01*
G37*
G36*
X95287699Y-97998000D02*
G01*
X95412301Y-97998000D01*
X95429854Y-97994508D01*
X95431563Y-97994966D01*
X95432240Y-97996601D01*
X95431355Y-97998133D01*
X95393536Y-98023395D01*
X95446920Y-98199420D01*
X95446612Y-98201191D01*
X95445006Y-98202000D01*
X95062312Y-98202000D01*
X95060580Y-98201000D01*
X95060580Y-98199000D01*
X95062312Y-98198000D01*
X95253507Y-98197999D01*
X95306462Y-98023402D01*
X95268636Y-97998131D01*
X95267751Y-97996599D01*
X95268428Y-97994964D01*
X95270137Y-97994506D01*
X95287699Y-97998000D01*
G37*
G36*
X92690240Y-81928539D02*
G01*
X92690443Y-81930442D01*
X92677000Y-81962898D01*
X92677000Y-82637102D01*
X92690442Y-82669553D01*
X92690268Y-82671412D01*
X92688636Y-82672318D01*
X92686967Y-82671480D01*
X92686962Y-82671473D01*
X92686741Y-82671077D01*
X92661069Y-82609126D01*
X92514343Y-82594687D01*
X92473129Y-82656371D01*
X92471597Y-82657256D01*
X92469962Y-82656579D01*
X92469504Y-82654870D01*
X92473000Y-82637301D01*
X92473000Y-81962699D01*
X92469504Y-81945129D01*
X92469962Y-81943420D01*
X92471597Y-81942743D01*
X92473129Y-81943628D01*
X92514343Y-82005309D01*
X92661062Y-81990875D01*
X92686738Y-81928926D01*
X92686871Y-81928663D01*
X92686880Y-81928648D01*
X92688530Y-81927678D01*
X92690240Y-81928539D01*
G37*
G36*
X90213194Y-81928785D02*
G01*
X90213195Y-81928787D01*
X90213254Y-81928916D01*
X90238919Y-81990867D01*
X90385650Y-82005315D01*
X90426870Y-81943623D01*
X90428402Y-81942738D01*
X90430037Y-81943415D01*
X90430495Y-81945124D01*
X90427000Y-81962699D01*
X90427000Y-82637301D01*
X90430495Y-82654872D01*
X90430037Y-82656581D01*
X90428402Y-82657258D01*
X90426870Y-82656373D01*
X90385649Y-82594681D01*
X90238912Y-82609134D01*
X90226848Y-82638261D01*
X90225518Y-82639428D01*
X90223782Y-82639083D01*
X90223000Y-82637496D01*
X90223000Y-81962898D01*
X90209557Y-81930444D01*
X90209790Y-81928499D01*
X90211572Y-81927686D01*
X90213194Y-81928785D01*
G37*
G36*
X92230037Y-81943417D02*
G01*
X92230495Y-81945126D01*
X92227000Y-81962699D01*
X92227000Y-82637301D01*
X92230495Y-82654870D01*
X92230037Y-82656579D01*
X92228402Y-82657256D01*
X92226870Y-82656371D01*
X92190746Y-82602306D01*
X92059254Y-82602306D01*
X92023130Y-82656370D01*
X92021598Y-82657255D01*
X92019963Y-82656578D01*
X92019505Y-82654869D01*
X92023000Y-82637301D01*
X92023000Y-81962699D01*
X92019504Y-81945128D01*
X92019962Y-81943419D01*
X92021597Y-81942742D01*
X92023129Y-81943627D01*
X92059255Y-81997693D01*
X92190745Y-81997693D01*
X92226870Y-81943625D01*
X92228402Y-81942740D01*
X92230037Y-81943417D01*
G37*
G36*
X91780037Y-81943417D02*
G01*
X91780495Y-81945126D01*
X91777000Y-81962699D01*
X91777000Y-82637301D01*
X91780495Y-82654870D01*
X91780037Y-82656579D01*
X91778402Y-82657256D01*
X91776870Y-82656371D01*
X91740746Y-82602306D01*
X91609254Y-82602306D01*
X91573130Y-82656370D01*
X91571598Y-82657255D01*
X91569963Y-82656578D01*
X91569505Y-82654869D01*
X91573000Y-82637301D01*
X91573000Y-81962699D01*
X91569504Y-81945128D01*
X91569962Y-81943419D01*
X91571597Y-81942742D01*
X91573129Y-81943627D01*
X91609255Y-81997693D01*
X91740745Y-81997693D01*
X91776870Y-81943625D01*
X91778402Y-81942740D01*
X91780037Y-81943417D01*
G37*
G36*
X91330037Y-81943417D02*
G01*
X91330495Y-81945126D01*
X91327000Y-81962699D01*
X91327000Y-82637301D01*
X91330495Y-82654870D01*
X91330037Y-82656579D01*
X91328402Y-82657256D01*
X91326870Y-82656371D01*
X91290746Y-82602306D01*
X91159254Y-82602306D01*
X91123130Y-82656370D01*
X91121598Y-82657255D01*
X91119963Y-82656578D01*
X91119505Y-82654869D01*
X91123000Y-82637301D01*
X91123000Y-81962699D01*
X91119504Y-81945128D01*
X91119962Y-81943419D01*
X91121597Y-81942742D01*
X91123129Y-81943627D01*
X91159255Y-81997693D01*
X91290745Y-81997693D01*
X91326870Y-81943625D01*
X91328402Y-81942740D01*
X91330037Y-81943417D01*
G37*
G36*
X90880037Y-81943417D02*
G01*
X90880495Y-81945126D01*
X90877000Y-81962699D01*
X90877000Y-82637301D01*
X90880495Y-82654870D01*
X90880037Y-82656579D01*
X90878402Y-82657256D01*
X90876870Y-82656371D01*
X90840746Y-82602306D01*
X90709254Y-82602306D01*
X90673130Y-82656370D01*
X90671598Y-82657255D01*
X90669963Y-82656578D01*
X90669505Y-82654869D01*
X90673000Y-82637301D01*
X90673000Y-81962699D01*
X90669504Y-81945128D01*
X90669962Y-81943419D01*
X90671597Y-81942742D01*
X90673129Y-81943627D01*
X90709255Y-81997693D01*
X90840745Y-81997693D01*
X90876870Y-81943625D01*
X90878402Y-81942740D01*
X90880037Y-81943417D01*
G37*
G36*
X93756579Y-81369962D02*
G01*
X93757256Y-81371597D01*
X93756371Y-81373129D01*
X93694687Y-81414343D01*
X93709126Y-81561069D01*
X93771077Y-81586741D01*
X93771473Y-81586962D01*
X93771480Y-81586967D01*
X93772318Y-81588636D01*
X93771412Y-81590268D01*
X93769553Y-81590442D01*
X93737102Y-81577000D01*
X93062898Y-81577000D01*
X93030442Y-81590443D01*
X93028539Y-81590240D01*
X93027678Y-81588530D01*
X93028648Y-81586880D01*
X93028663Y-81586871D01*
X93028926Y-81586738D01*
X93090875Y-81561062D01*
X93105309Y-81414343D01*
X93043628Y-81373129D01*
X93042743Y-81371597D01*
X93043420Y-81369962D01*
X93045129Y-81369504D01*
X93062699Y-81373000D01*
X93737301Y-81373000D01*
X93754870Y-81369504D01*
X93756579Y-81369962D01*
G37*
G36*
X89856579Y-81369962D02*
G01*
X89857256Y-81371597D01*
X89856371Y-81373129D01*
X89794687Y-81414343D01*
X89809126Y-81561069D01*
X89871077Y-81586741D01*
X89871473Y-81586962D01*
X89871480Y-81586967D01*
X89872318Y-81588636D01*
X89871412Y-81590268D01*
X89869553Y-81590442D01*
X89837102Y-81577000D01*
X89162898Y-81577000D01*
X89130442Y-81590443D01*
X89128539Y-81590240D01*
X89127678Y-81588530D01*
X89128648Y-81586880D01*
X89128663Y-81586871D01*
X89128926Y-81586738D01*
X89190875Y-81561062D01*
X89205309Y-81414343D01*
X89143628Y-81373129D01*
X89142743Y-81371597D01*
X89143420Y-81369962D01*
X89145129Y-81369504D01*
X89162699Y-81373000D01*
X89837301Y-81373000D01*
X89854870Y-81369504D01*
X89856579Y-81369962D01*
G37*
G36*
X93062699Y-80923000D02*
G01*
X93737301Y-80923000D01*
X93754869Y-80919505D01*
X93756578Y-80919963D01*
X93757255Y-80921598D01*
X93756370Y-80923130D01*
X93702306Y-80959254D01*
X93702306Y-81090746D01*
X93756371Y-81126870D01*
X93757256Y-81128402D01*
X93756579Y-81130037D01*
X93754870Y-81130495D01*
X93737301Y-81127000D01*
X93062699Y-81127000D01*
X93045126Y-81130495D01*
X93043417Y-81130037D01*
X93042740Y-81128402D01*
X93043625Y-81126870D01*
X93097693Y-81090745D01*
X93097693Y-80959255D01*
X93043627Y-80923129D01*
X93042742Y-80921597D01*
X93043419Y-80919962D01*
X93045128Y-80919504D01*
X93062699Y-80923000D01*
G37*
G36*
X89162699Y-80923000D02*
G01*
X89837301Y-80923000D01*
X89854869Y-80919505D01*
X89856578Y-80919963D01*
X89857255Y-80921598D01*
X89856370Y-80923130D01*
X89802306Y-80959254D01*
X89802306Y-81090746D01*
X89856371Y-81126870D01*
X89857256Y-81128402D01*
X89856579Y-81130037D01*
X89854870Y-81130495D01*
X89837301Y-81127000D01*
X89162699Y-81127000D01*
X89145126Y-81130495D01*
X89143417Y-81130037D01*
X89142740Y-81128402D01*
X89143625Y-81126870D01*
X89197693Y-81090745D01*
X89197693Y-80959255D01*
X89143627Y-80923129D01*
X89142742Y-80921597D01*
X89143419Y-80919962D01*
X89145128Y-80919504D01*
X89162699Y-80923000D01*
G37*
G36*
X93062699Y-80473000D02*
G01*
X93737301Y-80473000D01*
X93754869Y-80469505D01*
X93756578Y-80469963D01*
X93757255Y-80471598D01*
X93756370Y-80473130D01*
X93702306Y-80509254D01*
X93702306Y-80640746D01*
X93756371Y-80676870D01*
X93757256Y-80678402D01*
X93756579Y-80680037D01*
X93754870Y-80680495D01*
X93737301Y-80677000D01*
X93062699Y-80677000D01*
X93045126Y-80680495D01*
X93043417Y-80680037D01*
X93042740Y-80678402D01*
X93043625Y-80676870D01*
X93097693Y-80640745D01*
X93097693Y-80509255D01*
X93043627Y-80473129D01*
X93042742Y-80471597D01*
X93043419Y-80469962D01*
X93045128Y-80469504D01*
X93062699Y-80473000D01*
G37*
G36*
X89162699Y-80473000D02*
G01*
X89837301Y-80473000D01*
X89854869Y-80469505D01*
X89856578Y-80469963D01*
X89857255Y-80471598D01*
X89856370Y-80473130D01*
X89802306Y-80509254D01*
X89802306Y-80640746D01*
X89856371Y-80676870D01*
X89857256Y-80678402D01*
X89856579Y-80680037D01*
X89854870Y-80680495D01*
X89837301Y-80677000D01*
X89162699Y-80677000D01*
X89145126Y-80680495D01*
X89143417Y-80680037D01*
X89142740Y-80678402D01*
X89143625Y-80676870D01*
X89197693Y-80640745D01*
X89197693Y-80509255D01*
X89143627Y-80473129D01*
X89142742Y-80471597D01*
X89143419Y-80469962D01*
X89145128Y-80469504D01*
X89162699Y-80473000D01*
G37*
G36*
X93062699Y-80023000D02*
G01*
X93737301Y-80023000D01*
X93754869Y-80019505D01*
X93756578Y-80019963D01*
X93757255Y-80021598D01*
X93756370Y-80023130D01*
X93702306Y-80059254D01*
X93702306Y-80190746D01*
X93756371Y-80226870D01*
X93757256Y-80228402D01*
X93756579Y-80230037D01*
X93754870Y-80230495D01*
X93737301Y-80227000D01*
X93062699Y-80227000D01*
X93045126Y-80230495D01*
X93043417Y-80230037D01*
X93042740Y-80228402D01*
X93043625Y-80226870D01*
X93097693Y-80190745D01*
X93097693Y-80059255D01*
X93043627Y-80023129D01*
X93042742Y-80021597D01*
X93043419Y-80019962D01*
X93045128Y-80019504D01*
X93062699Y-80023000D01*
G37*
G36*
X89162699Y-80023000D02*
G01*
X89837301Y-80023000D01*
X89854869Y-80019505D01*
X89856578Y-80019963D01*
X89857255Y-80021598D01*
X89856370Y-80023130D01*
X89802306Y-80059254D01*
X89802306Y-80190746D01*
X89856371Y-80226870D01*
X89857256Y-80228402D01*
X89856579Y-80230037D01*
X89854870Y-80230495D01*
X89837301Y-80227000D01*
X89162699Y-80227000D01*
X89145126Y-80230495D01*
X89143417Y-80230037D01*
X89142740Y-80228402D01*
X89143625Y-80226870D01*
X89197693Y-80190745D01*
X89197693Y-80059255D01*
X89143627Y-80023129D01*
X89142742Y-80021597D01*
X89143419Y-80019962D01*
X89145128Y-80019504D01*
X89162699Y-80023000D01*
G37*
G36*
X93062699Y-79573000D02*
G01*
X93737301Y-79573000D01*
X93754869Y-79569505D01*
X93756578Y-79569963D01*
X93757255Y-79571598D01*
X93756370Y-79573130D01*
X93702306Y-79609254D01*
X93702306Y-79740746D01*
X93756371Y-79776870D01*
X93757256Y-79778402D01*
X93756579Y-79780037D01*
X93754870Y-79780495D01*
X93737301Y-79777000D01*
X93062699Y-79777000D01*
X93045126Y-79780495D01*
X93043417Y-79780037D01*
X93042740Y-79778402D01*
X93043625Y-79776870D01*
X93097693Y-79740745D01*
X93097693Y-79609255D01*
X93043627Y-79573129D01*
X93042742Y-79571597D01*
X93043419Y-79569962D01*
X93045128Y-79569504D01*
X93062699Y-79573000D01*
G37*
G36*
X89162699Y-79573000D02*
G01*
X89837301Y-79573000D01*
X89854869Y-79569505D01*
X89856578Y-79569963D01*
X89857255Y-79571598D01*
X89856370Y-79573130D01*
X89802306Y-79609254D01*
X89802306Y-79740746D01*
X89856371Y-79776870D01*
X89857256Y-79778402D01*
X89856579Y-79780037D01*
X89854870Y-79780495D01*
X89837301Y-79777000D01*
X89162699Y-79777000D01*
X89145126Y-79780495D01*
X89143417Y-79780037D01*
X89142740Y-79778402D01*
X89143625Y-79776870D01*
X89197693Y-79740745D01*
X89197693Y-79609255D01*
X89143627Y-79573129D01*
X89142742Y-79571597D01*
X89143419Y-79569962D01*
X89145128Y-79569504D01*
X89162699Y-79573000D01*
G37*
G36*
X93062898Y-79123000D02*
G01*
X93737496Y-79123000D01*
X93739083Y-79123782D01*
X93739428Y-79125518D01*
X93738261Y-79126848D01*
X93709134Y-79138912D01*
X93694681Y-79285649D01*
X93756373Y-79326870D01*
X93757258Y-79328402D01*
X93756581Y-79330037D01*
X93754872Y-79330495D01*
X93737301Y-79327000D01*
X93062699Y-79327000D01*
X93045124Y-79330495D01*
X93043415Y-79330037D01*
X93042738Y-79328402D01*
X93043623Y-79326870D01*
X93105315Y-79285650D01*
X93090867Y-79138919D01*
X93028916Y-79113254D01*
X93028787Y-79113195D01*
X93028785Y-79113194D01*
X93027686Y-79111572D01*
X93028499Y-79109790D01*
X93030444Y-79109557D01*
X93062898Y-79123000D01*
G37*
G36*
X89162898Y-79123000D02*
G01*
X89837496Y-79123000D01*
X89839083Y-79123782D01*
X89839428Y-79125518D01*
X89838261Y-79126848D01*
X89809134Y-79138912D01*
X89794681Y-79285649D01*
X89856373Y-79326870D01*
X89857258Y-79328402D01*
X89856581Y-79330037D01*
X89854872Y-79330495D01*
X89837301Y-79327000D01*
X89162699Y-79327000D01*
X89145124Y-79330495D01*
X89143415Y-79330037D01*
X89142738Y-79328402D01*
X89143623Y-79326870D01*
X89205315Y-79285650D01*
X89190867Y-79138919D01*
X89128916Y-79113254D01*
X89128787Y-79113195D01*
X89128785Y-79113194D01*
X89127686Y-79111572D01*
X89128499Y-79109790D01*
X89130444Y-79109557D01*
X89162898Y-79123000D01*
G37*
G36*
X92690240Y-78028539D02*
G01*
X92690443Y-78030442D01*
X92677000Y-78062898D01*
X92677000Y-78737102D01*
X92690442Y-78769553D01*
X92690268Y-78771412D01*
X92688636Y-78772318D01*
X92686967Y-78771480D01*
X92686962Y-78771473D01*
X92686741Y-78771077D01*
X92661069Y-78709126D01*
X92514343Y-78694687D01*
X92473129Y-78756371D01*
X92471597Y-78757256D01*
X92469962Y-78756579D01*
X92469504Y-78754870D01*
X92473000Y-78737301D01*
X92473000Y-78062699D01*
X92469504Y-78045129D01*
X92469962Y-78043420D01*
X92471597Y-78042743D01*
X92473129Y-78043628D01*
X92514343Y-78105309D01*
X92661062Y-78090875D01*
X92686738Y-78028926D01*
X92686871Y-78028663D01*
X92686880Y-78028648D01*
X92688530Y-78027678D01*
X92690240Y-78028539D01*
G37*
G36*
X90213194Y-78028785D02*
G01*
X90213195Y-78028787D01*
X90213254Y-78028916D01*
X90238919Y-78090867D01*
X90385650Y-78105315D01*
X90426870Y-78043623D01*
X90428402Y-78042738D01*
X90430037Y-78043415D01*
X90430495Y-78045124D01*
X90427000Y-78062699D01*
X90427000Y-78737301D01*
X90430495Y-78754872D01*
X90430037Y-78756581D01*
X90428402Y-78757258D01*
X90426870Y-78756373D01*
X90385649Y-78694681D01*
X90238912Y-78709134D01*
X90226848Y-78738261D01*
X90225518Y-78739428D01*
X90223782Y-78739083D01*
X90223000Y-78737496D01*
X90223000Y-78062898D01*
X90209557Y-78030444D01*
X90209790Y-78028499D01*
X90211572Y-78027686D01*
X90213194Y-78028785D01*
G37*
G36*
X92230037Y-78043417D02*
G01*
X92230495Y-78045126D01*
X92227000Y-78062699D01*
X92227000Y-78737301D01*
X92230495Y-78754870D01*
X92230037Y-78756579D01*
X92228402Y-78757256D01*
X92226870Y-78756371D01*
X92190746Y-78702306D01*
X92059254Y-78702306D01*
X92023130Y-78756370D01*
X92021598Y-78757255D01*
X92019963Y-78756578D01*
X92019505Y-78754869D01*
X92023000Y-78737301D01*
X92023000Y-78062699D01*
X92019504Y-78045128D01*
X92019962Y-78043419D01*
X92021597Y-78042742D01*
X92023129Y-78043627D01*
X92059255Y-78097693D01*
X92190745Y-78097693D01*
X92226870Y-78043625D01*
X92228402Y-78042740D01*
X92230037Y-78043417D01*
G37*
G36*
X91780037Y-78043417D02*
G01*
X91780495Y-78045126D01*
X91777000Y-78062699D01*
X91777000Y-78737301D01*
X91780495Y-78754870D01*
X91780037Y-78756579D01*
X91778402Y-78757256D01*
X91776870Y-78756371D01*
X91740746Y-78702306D01*
X91609254Y-78702306D01*
X91573130Y-78756370D01*
X91571598Y-78757255D01*
X91569963Y-78756578D01*
X91569505Y-78754869D01*
X91573000Y-78737301D01*
X91573000Y-78062699D01*
X91569504Y-78045128D01*
X91569962Y-78043419D01*
X91571597Y-78042742D01*
X91573129Y-78043627D01*
X91609255Y-78097693D01*
X91740745Y-78097693D01*
X91776870Y-78043625D01*
X91778402Y-78042740D01*
X91780037Y-78043417D01*
G37*
G36*
X91330037Y-78043417D02*
G01*
X91330495Y-78045126D01*
X91327000Y-78062699D01*
X91327000Y-78737301D01*
X91330495Y-78754870D01*
X91330037Y-78756579D01*
X91328402Y-78757256D01*
X91326870Y-78756371D01*
X91290746Y-78702306D01*
X91159254Y-78702306D01*
X91123130Y-78756370D01*
X91121598Y-78757255D01*
X91119963Y-78756578D01*
X91119505Y-78754869D01*
X91123000Y-78737301D01*
X91123000Y-78062699D01*
X91119504Y-78045128D01*
X91119962Y-78043419D01*
X91121597Y-78042742D01*
X91123129Y-78043627D01*
X91159255Y-78097693D01*
X91290745Y-78097693D01*
X91326870Y-78043625D01*
X91328402Y-78042740D01*
X91330037Y-78043417D01*
G37*
G36*
X90880037Y-78043417D02*
G01*
X90880495Y-78045126D01*
X90877000Y-78062699D01*
X90877000Y-78737301D01*
X90880495Y-78754870D01*
X90880037Y-78756579D01*
X90878402Y-78757256D01*
X90876870Y-78756371D01*
X90840746Y-78702306D01*
X90709254Y-78702306D01*
X90673130Y-78756370D01*
X90671598Y-78757255D01*
X90669963Y-78756578D01*
X90669505Y-78754869D01*
X90673000Y-78737301D01*
X90673000Y-78062699D01*
X90669504Y-78045128D01*
X90669962Y-78043419D01*
X90671597Y-78042742D01*
X90673129Y-78043627D01*
X90709255Y-78097693D01*
X90840745Y-78097693D01*
X90876870Y-78043625D01*
X90878402Y-78042740D01*
X90880037Y-78043417D01*
G37*
G36*
X59127179Y-70678681D02*
G01*
X59127658Y-70680261D01*
X59126786Y-70681663D01*
X59078009Y-70714253D01*
X59078009Y-70845747D01*
X59126788Y-70878337D01*
X59127660Y-70879739D01*
X59127181Y-70881319D01*
X59125677Y-70882000D01*
X57684322Y-70882000D01*
X57682818Y-70881319D01*
X57682339Y-70879739D01*
X57683211Y-70878337D01*
X57731990Y-70845745D01*
X57731990Y-70714255D01*
X57683212Y-70681663D01*
X57682340Y-70680261D01*
X57682819Y-70678681D01*
X57684323Y-70678000D01*
X59125675Y-70678000D01*
X59127179Y-70678681D01*
G37*
G36*
X59127179Y-69328681D02*
G01*
X59127658Y-69330261D01*
X59126786Y-69331663D01*
X59078009Y-69364253D01*
X59078009Y-69495747D01*
X59126788Y-69528337D01*
X59127660Y-69529739D01*
X59127181Y-69531319D01*
X59125677Y-69532000D01*
X57684322Y-69532000D01*
X57682818Y-69531319D01*
X57682339Y-69529739D01*
X57683211Y-69528337D01*
X57731990Y-69495745D01*
X57731990Y-69364255D01*
X57683212Y-69331663D01*
X57682340Y-69330261D01*
X57682819Y-69328681D01*
X57684323Y-69328000D01*
X59125675Y-69328000D01*
X59127179Y-69328681D01*
G37*
G36*
X59127179Y-68828681D02*
G01*
X59127658Y-68830261D01*
X59126786Y-68831663D01*
X59078009Y-68864253D01*
X59078009Y-68995747D01*
X59126788Y-69028337D01*
X59127660Y-69029739D01*
X59127181Y-69031319D01*
X59125677Y-69032000D01*
X57684322Y-69032000D01*
X57682818Y-69031319D01*
X57682339Y-69029739D01*
X57683211Y-69028337D01*
X57731990Y-68995745D01*
X57731990Y-68864255D01*
X57683212Y-68831663D01*
X57682340Y-68830261D01*
X57682819Y-68828681D01*
X57684323Y-68828000D01*
X59125675Y-68828000D01*
X59127179Y-68828681D01*
G37*
G36*
X59127179Y-68328681D02*
G01*
X59127658Y-68330261D01*
X59126786Y-68331663D01*
X59078009Y-68364253D01*
X59078009Y-68495747D01*
X59126788Y-68528337D01*
X59127660Y-68529739D01*
X59127181Y-68531319D01*
X59125677Y-68532000D01*
X57684322Y-68532000D01*
X57682818Y-68531319D01*
X57682339Y-68529739D01*
X57683211Y-68528337D01*
X57731990Y-68495745D01*
X57731990Y-68364255D01*
X57683212Y-68331663D01*
X57682340Y-68330261D01*
X57682819Y-68328681D01*
X57684323Y-68328000D01*
X59125675Y-68328000D01*
X59127179Y-68328681D01*
G37*
G36*
X59127179Y-67828681D02*
G01*
X59127658Y-67830261D01*
X59126786Y-67831663D01*
X59078009Y-67864253D01*
X59078009Y-67995747D01*
X59126788Y-68028337D01*
X59127660Y-68029739D01*
X59127181Y-68031319D01*
X59125677Y-68032000D01*
X57684322Y-68032000D01*
X57682818Y-68031319D01*
X57682339Y-68029739D01*
X57683211Y-68028337D01*
X57731990Y-67995745D01*
X57731990Y-67864255D01*
X57683212Y-67831663D01*
X57682340Y-67830261D01*
X57682819Y-67828681D01*
X57684323Y-67828000D01*
X59125675Y-67828000D01*
X59127179Y-67828681D01*
G37*
G36*
X59127179Y-67328681D02*
G01*
X59127658Y-67330261D01*
X59126786Y-67331663D01*
X59078009Y-67364253D01*
X59078009Y-67495747D01*
X59126788Y-67528337D01*
X59127660Y-67529739D01*
X59127181Y-67531319D01*
X59125677Y-67532000D01*
X57684322Y-67532000D01*
X57682818Y-67531319D01*
X57682339Y-67529739D01*
X57683211Y-67528337D01*
X57731990Y-67495745D01*
X57731990Y-67364255D01*
X57683212Y-67331663D01*
X57682340Y-67330261D01*
X57682819Y-67328681D01*
X57684323Y-67328000D01*
X59125675Y-67328000D01*
X59127179Y-67328681D01*
G37*
G36*
X59127179Y-66828681D02*
G01*
X59127658Y-66830261D01*
X59126786Y-66831663D01*
X59078009Y-66864253D01*
X59078009Y-66995747D01*
X59126788Y-67028337D01*
X59127660Y-67029739D01*
X59127181Y-67031319D01*
X59125677Y-67032000D01*
X57684322Y-67032000D01*
X57682818Y-67031319D01*
X57682339Y-67029739D01*
X57683211Y-67028337D01*
X57731990Y-66995745D01*
X57731990Y-66864255D01*
X57683212Y-66831663D01*
X57682340Y-66830261D01*
X57682819Y-66828681D01*
X57684323Y-66828000D01*
X59125675Y-66828000D01*
X59127179Y-66828681D01*
G37*
G36*
X59127179Y-66328681D02*
G01*
X59127658Y-66330261D01*
X59126786Y-66331663D01*
X59078009Y-66364253D01*
X59078009Y-66495747D01*
X59126788Y-66528337D01*
X59127660Y-66529739D01*
X59127181Y-66531319D01*
X59125677Y-66532000D01*
X57684322Y-66532000D01*
X57682818Y-66531319D01*
X57682339Y-66529739D01*
X57683211Y-66528337D01*
X57731990Y-66495745D01*
X57731990Y-66364255D01*
X57683212Y-66331663D01*
X57682340Y-66330261D01*
X57682819Y-66328681D01*
X57684323Y-66328000D01*
X59125675Y-66328000D01*
X59127179Y-66328681D01*
G37*
G36*
X59127179Y-64978681D02*
G01*
X59127658Y-64980261D01*
X59126786Y-64981663D01*
X59078009Y-65014253D01*
X59078009Y-65145747D01*
X59126788Y-65178337D01*
X59127660Y-65179739D01*
X59127181Y-65181319D01*
X59125677Y-65182000D01*
X57684322Y-65182000D01*
X57682818Y-65181319D01*
X57682339Y-65179739D01*
X57683211Y-65178337D01*
X57731990Y-65145745D01*
X57731990Y-65014255D01*
X57683212Y-64981663D01*
X57682340Y-64980261D01*
X57682819Y-64978681D01*
X57684323Y-64978000D01*
X59125675Y-64978000D01*
X59127179Y-64978681D01*
G37*
M02*
