%TF.GenerationSoftware,KiCad,Pcbnew,(6.0.9)*%
%TF.CreationDate,2023-04-05T21:44:48+03:00*%
%TF.ProjectId,cross_band_handy_walkie_talkie_ES8388,63726f73-735f-4626-916e-645f68616e64,rev?*%
%TF.SameCoordinates,Original*%
%TF.FileFunction,Legend,Bot*%
%TF.FilePolarity,Positive*%
%FSLAX46Y46*%
G04 Gerber Fmt 4.6, Leading zero omitted, Abs format (unit mm)*
G04 Created by KiCad (PCBNEW (6.0.9)) date 2023-04-05 21:44:48*
%MOMM*%
%LPD*%
G01*
G04 APERTURE LIST*
G04 Aperture macros list*
%AMRoundRect*
0 Rectangle with rounded corners*
0 $1 Rounding radius*
0 $2 $3 $4 $5 $6 $7 $8 $9 X,Y pos of 4 corners*
0 Add a 4 corners polygon primitive as box body*
4,1,4,$2,$3,$4,$5,$6,$7,$8,$9,$2,$3,0*
0 Add four circle primitives for the rounded corners*
1,1,$1+$1,$2,$3*
1,1,$1+$1,$4,$5*
1,1,$1+$1,$6,$7*
1,1,$1+$1,$8,$9*
0 Add four rect primitives between the rounded corners*
20,1,$1+$1,$2,$3,$4,$5,0*
20,1,$1+$1,$4,$5,$6,$7,0*
20,1,$1+$1,$6,$7,$8,$9,0*
20,1,$1+$1,$8,$9,$2,$3,0*%
G04 Aperture macros list end*
%ADD10C,0.150000*%
%ADD11C,0.120000*%
%ADD12C,0.010000*%
%ADD13C,0.650000*%
%ADD14O,1.600000X1.000000*%
%ADD15O,2.100000X1.000000*%
%ADD16C,2.000000*%
%ADD17R,2.000000X1.700000*%
%ADD18O,1.700000X1.700000*%
%ADD19C,3.000000*%
%ADD20C,5.600000*%
%ADD21C,3.600000*%
%ADD22R,1.700000X1.700000*%
%ADD23C,1.500000*%
%ADD24C,1.200000*%
%ADD25R,2.000000X2.000000*%
%ADD26C,2.050000*%
%ADD27C,2.250000*%
%ADD28R,1.700000X2.000000*%
%ADD29R,1.800000X1.800000*%
%ADD30R,8.500000X2.200000*%
%ADD31R,7.000000X9.000000*%
%ADD32RoundRect,0.225000X-0.225000X-0.250000X0.225000X-0.250000X0.225000X0.250000X-0.225000X0.250000X0*%
%ADD33RoundRect,0.249600X-0.268701X0.651104X-0.651104X0.268701X0.268701X-0.651104X0.651104X-0.268701X0*%
%ADD34RoundRect,0.152500X-0.224506X0.440174X-0.440174X0.224506X0.224506X-0.440174X0.440174X-0.224506X0*%
%ADD35C,0.610000*%
%ADD36R,1.000000X1.000000*%
%ADD37RoundRect,0.237500X0.300000X0.237500X-0.300000X0.237500X-0.300000X-0.237500X0.300000X-0.237500X0*%
%ADD38R,1.500000X1.000000*%
%ADD39RoundRect,0.249600X0.268701X-0.651104X0.651104X-0.268701X-0.268701X0.651104X-0.651104X0.268701X0*%
%ADD40RoundRect,0.152500X0.224506X-0.440174X0.440174X-0.224506X-0.224506X0.440174X-0.440174X0.224506X0*%
G04 APERTURE END LIST*
D10*
%TO.C,U7*%
X109727619Y-86101904D02*
X108918095Y-86101904D01*
X108822857Y-86054285D01*
X108775238Y-86006666D01*
X108727619Y-85911428D01*
X108727619Y-85720952D01*
X108775238Y-85625714D01*
X108822857Y-85578095D01*
X108918095Y-85530476D01*
X109727619Y-85530476D01*
X109727619Y-85149523D02*
X109727619Y-84482857D01*
X108727619Y-84911428D01*
X96627619Y-101004285D02*
X97627619Y-101004285D01*
X97151428Y-101004285D02*
X97151428Y-100432857D01*
X96627619Y-100432857D02*
X97627619Y-100432857D01*
X97675238Y-99242380D02*
X96389523Y-100099523D01*
X96627619Y-98432857D02*
X96627619Y-98909047D01*
X97627619Y-98909047D01*
X96675238Y-73599523D02*
X96627619Y-73456666D01*
X96627619Y-73218571D01*
X96675238Y-73123333D01*
X96722857Y-73075714D01*
X96818095Y-73028095D01*
X96913333Y-73028095D01*
X97008571Y-73075714D01*
X97056190Y-73123333D01*
X97103809Y-73218571D01*
X97151428Y-73409047D01*
X97199047Y-73504285D01*
X97246666Y-73551904D01*
X97341904Y-73599523D01*
X97437142Y-73599523D01*
X97532380Y-73551904D01*
X97580000Y-73504285D01*
X97627619Y-73409047D01*
X97627619Y-73170952D01*
X97580000Y-73028095D01*
X96532380Y-71932857D02*
X96580000Y-72028095D01*
X96675238Y-72123333D01*
X96818095Y-72266190D01*
X96865714Y-72361428D01*
X96865714Y-72456666D01*
X96627619Y-72409047D02*
X96675238Y-72504285D01*
X96770476Y-72599523D01*
X96960952Y-72647142D01*
X97294285Y-72647142D01*
X97484761Y-72599523D01*
X97580000Y-72504285D01*
X97627619Y-72409047D01*
X97627619Y-72218571D01*
X97580000Y-72123333D01*
X97484761Y-72028095D01*
X97294285Y-71980476D01*
X96960952Y-71980476D01*
X96770476Y-72028095D01*
X96675238Y-72123333D01*
X96627619Y-72218571D01*
X96627619Y-72409047D01*
X118427619Y-74061428D02*
X119427619Y-74061428D01*
X118713333Y-73728095D01*
X119427619Y-73394761D01*
X118427619Y-73394761D01*
X118427619Y-72918571D02*
X119427619Y-72918571D01*
X118522857Y-71870952D02*
X118475238Y-71918571D01*
X118427619Y-72061428D01*
X118427619Y-72156666D01*
X118475238Y-72299523D01*
X118570476Y-72394761D01*
X118665714Y-72442380D01*
X118856190Y-72490000D01*
X118999047Y-72490000D01*
X119189523Y-72442380D01*
X119284761Y-72394761D01*
X119380000Y-72299523D01*
X119427619Y-72156666D01*
X119427619Y-72061428D01*
X119380000Y-71918571D01*
X119332380Y-71870952D01*
X118427619Y-91375714D02*
X119427619Y-91375714D01*
X118427619Y-90804285D01*
X119427619Y-90804285D01*
X118522857Y-89756666D02*
X118475238Y-89804285D01*
X118427619Y-89947142D01*
X118427619Y-90042380D01*
X118475238Y-90185238D01*
X118570476Y-90280476D01*
X118665714Y-90328095D01*
X118856190Y-90375714D01*
X118999047Y-90375714D01*
X119189523Y-90328095D01*
X119284761Y-90280476D01*
X119380000Y-90185238D01*
X119427619Y-90042380D01*
X119427619Y-89947142D01*
X119380000Y-89804285D01*
X119332380Y-89756666D01*
X96627619Y-91613809D02*
X97627619Y-91613809D01*
X97627619Y-91232857D01*
X97580000Y-91137619D01*
X97532380Y-91090000D01*
X97437142Y-91042380D01*
X97294285Y-91042380D01*
X97199047Y-91090000D01*
X97151428Y-91137619D01*
X97103809Y-91232857D01*
X97103809Y-91613809D01*
X97627619Y-90756666D02*
X97627619Y-90185238D01*
X96627619Y-90470952D02*
X97627619Y-90470952D01*
X97627619Y-89994761D02*
X97627619Y-89423333D01*
X96627619Y-89709047D02*
X97627619Y-89709047D01*
X101827619Y-108447142D02*
X100827619Y-108113808D01*
X101827619Y-107780475D01*
X101351428Y-107113808D02*
X101303809Y-106970951D01*
X101256190Y-106923332D01*
X101160952Y-106875713D01*
X101018095Y-106875713D01*
X100922857Y-106923332D01*
X100875238Y-106970951D01*
X100827619Y-107066189D01*
X100827619Y-107447142D01*
X101827619Y-107447142D01*
X101827619Y-107113808D01*
X101780000Y-107018570D01*
X101732380Y-106970951D01*
X101637142Y-106923332D01*
X101541904Y-106923332D01*
X101446666Y-106970951D01*
X101399047Y-107018570D01*
X101351428Y-107113808D01*
X101351428Y-107447142D01*
X101113333Y-106494761D02*
X101113333Y-106018570D01*
X100827619Y-106589999D02*
X101827619Y-106256665D01*
X100827619Y-105923332D01*
X101827619Y-105732856D02*
X101827619Y-105161427D01*
X100827619Y-105447142D02*
X101827619Y-105447142D01*
X97483333Y-84626190D02*
X97483333Y-84150000D01*
X97197619Y-84721428D02*
X98197619Y-84388095D01*
X97197619Y-84054761D01*
X97721428Y-83388095D02*
X97721428Y-83721428D01*
X97197619Y-83721428D02*
X98197619Y-83721428D01*
X98197619Y-83245238D01*
X97102380Y-83102380D02*
X97102380Y-82340476D01*
X98197619Y-81911904D02*
X98197619Y-81721428D01*
X98150000Y-81626190D01*
X98054761Y-81530952D01*
X97864285Y-81483333D01*
X97530952Y-81483333D01*
X97340476Y-81530952D01*
X97245238Y-81626190D01*
X97197619Y-81721428D01*
X97197619Y-81911904D01*
X97245238Y-82007142D01*
X97340476Y-82102380D01*
X97530952Y-82150000D01*
X97864285Y-82150000D01*
X98054761Y-82102380D01*
X98150000Y-82007142D01*
X98197619Y-81911904D01*
X98197619Y-81054761D02*
X97388095Y-81054761D01*
X97292857Y-81007142D01*
X97245238Y-80959523D01*
X97197619Y-80864285D01*
X97197619Y-80673809D01*
X97245238Y-80578571D01*
X97292857Y-80530952D01*
X97388095Y-80483333D01*
X98197619Y-80483333D01*
X98197619Y-80150000D02*
X98197619Y-79578571D01*
X97197619Y-79864285D02*
X98197619Y-79864285D01*
X96627619Y-95951904D02*
X97627619Y-95951904D01*
X97627619Y-95570952D01*
X97580000Y-95475714D01*
X97532380Y-95428095D01*
X97437142Y-95380476D01*
X97294285Y-95380476D01*
X97199047Y-95428095D01*
X97151428Y-95475714D01*
X97103809Y-95570952D01*
X97103809Y-95951904D01*
X96627619Y-94951904D02*
X97627619Y-94951904D01*
X97627619Y-94713809D01*
X97580000Y-94570952D01*
X97484761Y-94475714D01*
X97389523Y-94428095D01*
X97199047Y-94380476D01*
X97056190Y-94380476D01*
X96865714Y-94428095D01*
X96770476Y-94475714D01*
X96675238Y-94570952D01*
X96627619Y-94713809D01*
X96627619Y-94951904D01*
X96627619Y-86975714D02*
X97627619Y-86975714D01*
X96627619Y-86404285D01*
X97627619Y-86404285D01*
X96722857Y-85356666D02*
X96675238Y-85404285D01*
X96627619Y-85547142D01*
X96627619Y-85642380D01*
X96675238Y-85785238D01*
X96770476Y-85880476D01*
X96865714Y-85928095D01*
X97056190Y-85975714D01*
X97199047Y-85975714D01*
X97389523Y-85928095D01*
X97484761Y-85880476D01*
X97580000Y-85785238D01*
X97627619Y-85642380D01*
X97627619Y-85547142D01*
X97580000Y-85404285D01*
X97532380Y-85356666D01*
X114427619Y-106875714D02*
X115427619Y-106875714D01*
X114427619Y-106304285D01*
X115427619Y-106304285D01*
X114522857Y-105256666D02*
X114475238Y-105304285D01*
X114427619Y-105447142D01*
X114427619Y-105542380D01*
X114475238Y-105685238D01*
X114570476Y-105780476D01*
X114665714Y-105828095D01*
X114856190Y-105875714D01*
X114999047Y-105875714D01*
X115189523Y-105828095D01*
X115284761Y-105780476D01*
X115380000Y-105685238D01*
X115427619Y-105542380D01*
X115427619Y-105447142D01*
X115380000Y-105304285D01*
X115332380Y-105256666D01*
X111180000Y-107351904D02*
X111227619Y-107447142D01*
X111227619Y-107590000D01*
X111180000Y-107732857D01*
X111084761Y-107828095D01*
X110989523Y-107875714D01*
X110799047Y-107923333D01*
X110656190Y-107923333D01*
X110465714Y-107875714D01*
X110370476Y-107828095D01*
X110275238Y-107732857D01*
X110227619Y-107590000D01*
X110227619Y-107494761D01*
X110275238Y-107351904D01*
X110322857Y-107304285D01*
X110656190Y-107304285D01*
X110656190Y-107494761D01*
X110227619Y-106875714D02*
X111227619Y-106875714D01*
X110227619Y-106304285D01*
X111227619Y-106304285D01*
X110227619Y-105828095D02*
X111227619Y-105828095D01*
X111227619Y-105590000D01*
X111180000Y-105447142D01*
X111084761Y-105351904D01*
X110989523Y-105304285D01*
X110799047Y-105256666D01*
X110656190Y-105256666D01*
X110465714Y-105304285D01*
X110370476Y-105351904D01*
X110275238Y-105447142D01*
X110227619Y-105590000D01*
X110227619Y-105828095D01*
X118222619Y-80441666D02*
X118698809Y-80775000D01*
X118222619Y-81013095D02*
X119222619Y-81013095D01*
X119222619Y-80632142D01*
X119175000Y-80536904D01*
X119127380Y-80489285D01*
X119032142Y-80441666D01*
X118889285Y-80441666D01*
X118794047Y-80489285D01*
X118746428Y-80536904D01*
X118698809Y-80632142D01*
X118698809Y-81013095D01*
X119222619Y-80108333D02*
X118222619Y-79441666D01*
X119222619Y-79441666D02*
X118222619Y-80108333D01*
X118427619Y-86975714D02*
X119427619Y-86975714D01*
X118427619Y-86404285D01*
X119427619Y-86404285D01*
X118522857Y-85356666D02*
X118475238Y-85404285D01*
X118427619Y-85547142D01*
X118427619Y-85642380D01*
X118475238Y-85785238D01*
X118570476Y-85880476D01*
X118665714Y-85928095D01*
X118856190Y-85975714D01*
X118999047Y-85975714D01*
X119189523Y-85928095D01*
X119284761Y-85880476D01*
X119380000Y-85785238D01*
X119427619Y-85642380D01*
X119427619Y-85547142D01*
X119380000Y-85404285D01*
X119332380Y-85356666D01*
X118833333Y-102992857D02*
X118833333Y-102516666D01*
X118547619Y-103088095D02*
X119547619Y-102754761D01*
X118547619Y-102421428D01*
X118547619Y-102088095D02*
X119547619Y-102088095D01*
X118547619Y-101516666D01*
X119547619Y-101516666D01*
X119547619Y-101183333D02*
X119547619Y-100611904D01*
X118547619Y-100897619D02*
X119547619Y-100897619D01*
X106580000Y-107351904D02*
X106627619Y-107447142D01*
X106627619Y-107590000D01*
X106580000Y-107732857D01*
X106484761Y-107828095D01*
X106389523Y-107875714D01*
X106199047Y-107923333D01*
X106056190Y-107923333D01*
X105865714Y-107875714D01*
X105770476Y-107828095D01*
X105675238Y-107732857D01*
X105627619Y-107590000D01*
X105627619Y-107494761D01*
X105675238Y-107351904D01*
X105722857Y-107304285D01*
X106056190Y-107304285D01*
X106056190Y-107494761D01*
X105627619Y-106875714D02*
X106627619Y-106875714D01*
X105627619Y-106304285D01*
X106627619Y-106304285D01*
X105627619Y-105828095D02*
X106627619Y-105828095D01*
X106627619Y-105590000D01*
X106580000Y-105447142D01*
X106484761Y-105351904D01*
X106389523Y-105304285D01*
X106199047Y-105256666D01*
X106056190Y-105256666D01*
X105865714Y-105304285D01*
X105770476Y-105351904D01*
X105675238Y-105447142D01*
X105627619Y-105590000D01*
X105627619Y-105828095D01*
X97122619Y-77010714D02*
X98122619Y-77010714D01*
X97122619Y-76439285D01*
X98122619Y-76439285D01*
X97217857Y-75391666D02*
X97170238Y-75439285D01*
X97122619Y-75582142D01*
X97122619Y-75677380D01*
X97170238Y-75820238D01*
X97265476Y-75915476D01*
X97360714Y-75963095D01*
X97551190Y-76010714D01*
X97694047Y-76010714D01*
X97884523Y-75963095D01*
X97979761Y-75915476D01*
X98075000Y-75820238D01*
X98122619Y-75677380D01*
X98122619Y-75582142D01*
X98075000Y-75439285D01*
X98027380Y-75391666D01*
X118427619Y-95975714D02*
X119427619Y-95975714D01*
X118427619Y-95404285D01*
X119427619Y-95404285D01*
X118522857Y-94356666D02*
X118475238Y-94404285D01*
X118427619Y-94547142D01*
X118427619Y-94642380D01*
X118475238Y-94785238D01*
X118570476Y-94880476D01*
X118665714Y-94928095D01*
X118856190Y-94975714D01*
X118999047Y-94975714D01*
X119189523Y-94928095D01*
X119284761Y-94880476D01*
X119380000Y-94785238D01*
X119427619Y-94642380D01*
X119427619Y-94547142D01*
X119380000Y-94404285D01*
X119332380Y-94356666D01*
X119427619Y-78151904D02*
X119427619Y-77580476D01*
X118427619Y-77866190D02*
X119427619Y-77866190D01*
X119427619Y-77342380D02*
X118427619Y-76675714D01*
X119427619Y-76675714D02*
X118427619Y-77342380D01*
%TO.C,C14*%
X109192857Y-51882142D02*
X109240476Y-51929761D01*
X109383333Y-51977380D01*
X109478571Y-51977380D01*
X109621428Y-51929761D01*
X109716666Y-51834523D01*
X109764285Y-51739285D01*
X109811904Y-51548809D01*
X109811904Y-51405952D01*
X109764285Y-51215476D01*
X109716666Y-51120238D01*
X109621428Y-51025000D01*
X109478571Y-50977380D01*
X109383333Y-50977380D01*
X109240476Y-51025000D01*
X109192857Y-51072619D01*
X108240476Y-51977380D02*
X108811904Y-51977380D01*
X108526190Y-51977380D02*
X108526190Y-50977380D01*
X108621428Y-51120238D01*
X108716666Y-51215476D01*
X108811904Y-51263095D01*
X107383333Y-51310714D02*
X107383333Y-51977380D01*
X107621428Y-50929761D02*
X107859523Y-51644047D01*
X107240476Y-51644047D01*
%TO.C,FL2*%
X57007795Y-78633971D02*
X57243497Y-78398268D01*
X57613887Y-78768658D02*
X56906780Y-78061551D01*
X56570062Y-78398268D01*
X56671078Y-79711467D02*
X57007795Y-79374749D01*
X56300688Y-78667642D01*
X55829284Y-79273734D02*
X55761940Y-79273734D01*
X55660925Y-79307406D01*
X55492566Y-79475765D01*
X55458894Y-79576780D01*
X55458894Y-79644123D01*
X55492566Y-79745139D01*
X55559910Y-79812482D01*
X55694597Y-79879826D01*
X56502719Y-79879826D01*
X56064986Y-80317558D01*
%TO.C,TP9*%
X60986904Y-108054380D02*
X60415476Y-108054380D01*
X60701190Y-109054380D02*
X60701190Y-108054380D01*
X60082142Y-109054380D02*
X60082142Y-108054380D01*
X59701190Y-108054380D01*
X59605952Y-108102000D01*
X59558333Y-108149619D01*
X59510714Y-108244857D01*
X59510714Y-108387714D01*
X59558333Y-108482952D01*
X59605952Y-108530571D01*
X59701190Y-108578190D01*
X60082142Y-108578190D01*
X59034523Y-109054380D02*
X58844047Y-109054380D01*
X58748809Y-109006761D01*
X58701190Y-108959142D01*
X58605952Y-108816285D01*
X58558333Y-108625809D01*
X58558333Y-108244857D01*
X58605952Y-108149619D01*
X58653571Y-108102000D01*
X58748809Y-108054380D01*
X58939285Y-108054380D01*
X59034523Y-108102000D01*
X59082142Y-108149619D01*
X59129761Y-108244857D01*
X59129761Y-108482952D01*
X59082142Y-108578190D01*
X59034523Y-108625809D01*
X58939285Y-108673428D01*
X58748809Y-108673428D01*
X58653571Y-108625809D01*
X58605952Y-108578190D01*
X58558333Y-108482952D01*
%TO.C,C8*%
X109116666Y-53507142D02*
X109164285Y-53554761D01*
X109307142Y-53602380D01*
X109402380Y-53602380D01*
X109545238Y-53554761D01*
X109640476Y-53459523D01*
X109688095Y-53364285D01*
X109735714Y-53173809D01*
X109735714Y-53030952D01*
X109688095Y-52840476D01*
X109640476Y-52745238D01*
X109545238Y-52650000D01*
X109402380Y-52602380D01*
X109307142Y-52602380D01*
X109164285Y-52650000D01*
X109116666Y-52697619D01*
X108545238Y-53030952D02*
X108640476Y-52983333D01*
X108688095Y-52935714D01*
X108735714Y-52840476D01*
X108735714Y-52792857D01*
X108688095Y-52697619D01*
X108640476Y-52650000D01*
X108545238Y-52602380D01*
X108354761Y-52602380D01*
X108259523Y-52650000D01*
X108211904Y-52697619D01*
X108164285Y-52792857D01*
X108164285Y-52840476D01*
X108211904Y-52935714D01*
X108259523Y-52983333D01*
X108354761Y-53030952D01*
X108545238Y-53030952D01*
X108640476Y-53078571D01*
X108688095Y-53126190D01*
X108735714Y-53221428D01*
X108735714Y-53411904D01*
X108688095Y-53507142D01*
X108640476Y-53554761D01*
X108545238Y-53602380D01*
X108354761Y-53602380D01*
X108259523Y-53554761D01*
X108211904Y-53507142D01*
X108164285Y-53411904D01*
X108164285Y-53221428D01*
X108211904Y-53126190D01*
X108259523Y-53078571D01*
X108354761Y-53030952D01*
%TO.C,TP11*%
X123638095Y-108477380D02*
X123066666Y-108477380D01*
X123352380Y-109477380D02*
X123352380Y-108477380D01*
X122733333Y-109477380D02*
X122733333Y-108477380D01*
X122352380Y-108477380D01*
X122257142Y-108525000D01*
X122209523Y-108572619D01*
X122161904Y-108667857D01*
X122161904Y-108810714D01*
X122209523Y-108905952D01*
X122257142Y-108953571D01*
X122352380Y-109001190D01*
X122733333Y-109001190D01*
X121209523Y-109477380D02*
X121780952Y-109477380D01*
X121495238Y-109477380D02*
X121495238Y-108477380D01*
X121590476Y-108620238D01*
X121685714Y-108715476D01*
X121780952Y-108763095D01*
X120257142Y-109477380D02*
X120828571Y-109477380D01*
X120542857Y-109477380D02*
X120542857Y-108477380D01*
X120638095Y-108620238D01*
X120733333Y-108715476D01*
X120828571Y-108763095D01*
%TO.C,TP12*%
X92963095Y-54552380D02*
X92391666Y-54552380D01*
X92677380Y-55552380D02*
X92677380Y-54552380D01*
X92058333Y-55552380D02*
X92058333Y-54552380D01*
X91677380Y-54552380D01*
X91582142Y-54600000D01*
X91534523Y-54647619D01*
X91486904Y-54742857D01*
X91486904Y-54885714D01*
X91534523Y-54980952D01*
X91582142Y-55028571D01*
X91677380Y-55076190D01*
X92058333Y-55076190D01*
X90534523Y-55552380D02*
X91105952Y-55552380D01*
X90820238Y-55552380D02*
X90820238Y-54552380D01*
X90915476Y-54695238D01*
X91010714Y-54790476D01*
X91105952Y-54838095D01*
X90153571Y-54647619D02*
X90105952Y-54600000D01*
X90010714Y-54552380D01*
X89772619Y-54552380D01*
X89677380Y-54600000D01*
X89629761Y-54647619D01*
X89582142Y-54742857D01*
X89582142Y-54838095D01*
X89629761Y-54980952D01*
X90201190Y-55552380D01*
X89582142Y-55552380D01*
%TO.C,JP2*%
X95002380Y-82866666D02*
X95716666Y-82866666D01*
X95859523Y-82819047D01*
X95954761Y-82723809D01*
X96002380Y-82580952D01*
X96002380Y-82485714D01*
X96002380Y-83342857D02*
X95002380Y-83342857D01*
X95002380Y-83723809D01*
X95050000Y-83819047D01*
X95097619Y-83866666D01*
X95192857Y-83914285D01*
X95335714Y-83914285D01*
X95430952Y-83866666D01*
X95478571Y-83819047D01*
X95526190Y-83723809D01*
X95526190Y-83342857D01*
X95097619Y-84295238D02*
X95050000Y-84342857D01*
X95002380Y-84438095D01*
X95002380Y-84676190D01*
X95050000Y-84771428D01*
X95097619Y-84819047D01*
X95192857Y-84866666D01*
X95288095Y-84866666D01*
X95430952Y-84819047D01*
X96002380Y-84247619D01*
X96002380Y-84866666D01*
%TO.C,U8*%
X70352380Y-92088095D02*
X71161904Y-92088095D01*
X71257142Y-92135714D01*
X71304761Y-92183333D01*
X71352380Y-92278571D01*
X71352380Y-92469047D01*
X71304761Y-92564285D01*
X71257142Y-92611904D01*
X71161904Y-92659523D01*
X70352380Y-92659523D01*
X70780952Y-93278571D02*
X70733333Y-93183333D01*
X70685714Y-93135714D01*
X70590476Y-93088095D01*
X70542857Y-93088095D01*
X70447619Y-93135714D01*
X70400000Y-93183333D01*
X70352380Y-93278571D01*
X70352380Y-93469047D01*
X70400000Y-93564285D01*
X70447619Y-93611904D01*
X70542857Y-93659523D01*
X70590476Y-93659523D01*
X70685714Y-93611904D01*
X70733333Y-93564285D01*
X70780952Y-93469047D01*
X70780952Y-93278571D01*
X70828571Y-93183333D01*
X70876190Y-93135714D01*
X70971428Y-93088095D01*
X71161904Y-93088095D01*
X71257142Y-93135714D01*
X71304761Y-93183333D01*
X71352380Y-93278571D01*
X71352380Y-93469047D01*
X71304761Y-93564285D01*
X71257142Y-93611904D01*
X71161904Y-93659523D01*
X70971428Y-93659523D01*
X70876190Y-93611904D01*
X70828571Y-93564285D01*
X70780952Y-93469047D01*
X61652380Y-104128571D02*
X60652380Y-104128571D01*
X61366666Y-104461904D01*
X60652380Y-104795238D01*
X61652380Y-104795238D01*
X61652380Y-105271428D02*
X60652380Y-105271428D01*
X61557142Y-106319047D02*
X61604761Y-106271428D01*
X61652380Y-106128571D01*
X61652380Y-106033333D01*
X61604761Y-105890476D01*
X61509523Y-105795238D01*
X61414285Y-105747619D01*
X61223809Y-105700000D01*
X61080952Y-105700000D01*
X60890476Y-105747619D01*
X60795238Y-105795238D01*
X60700000Y-105890476D01*
X60652380Y-106033333D01*
X60652380Y-106128571D01*
X60700000Y-106271428D01*
X60747619Y-106319047D01*
X82854761Y-104590476D02*
X82902380Y-104733333D01*
X82902380Y-104971428D01*
X82854761Y-105066666D01*
X82807142Y-105114285D01*
X82711904Y-105161904D01*
X82616666Y-105161904D01*
X82521428Y-105114285D01*
X82473809Y-105066666D01*
X82426190Y-104971428D01*
X82378571Y-104780952D01*
X82330952Y-104685714D01*
X82283333Y-104638095D01*
X82188095Y-104590476D01*
X82092857Y-104590476D01*
X81997619Y-104638095D01*
X81950000Y-104685714D01*
X81902380Y-104780952D01*
X81902380Y-105019047D01*
X81950000Y-105161904D01*
X82997619Y-106257142D02*
X82950000Y-106161904D01*
X82854761Y-106066666D01*
X82711904Y-105923809D01*
X82664285Y-105828571D01*
X82664285Y-105733333D01*
X82902380Y-105780952D02*
X82854761Y-105685714D01*
X82759523Y-105590476D01*
X82569047Y-105542857D01*
X82235714Y-105542857D01*
X82045238Y-105590476D01*
X81950000Y-105685714D01*
X81902380Y-105780952D01*
X81902380Y-105971428D01*
X81950000Y-106066666D01*
X82045238Y-106161904D01*
X82235714Y-106209523D01*
X82569047Y-106209523D01*
X82759523Y-106161904D01*
X82854761Y-106066666D01*
X82902380Y-105971428D01*
X82902380Y-105780952D01*
X83452380Y-82238095D02*
X82452380Y-82238095D01*
X82452380Y-82619047D01*
X82500000Y-82714285D01*
X82547619Y-82761904D01*
X82642857Y-82809523D01*
X82785714Y-82809523D01*
X82880952Y-82761904D01*
X82928571Y-82714285D01*
X82976190Y-82619047D01*
X82976190Y-82238095D01*
X83452380Y-83238095D02*
X82452380Y-83238095D01*
X82452380Y-83476190D01*
X82500000Y-83619047D01*
X82595238Y-83714285D01*
X82690476Y-83761904D01*
X82880952Y-83809523D01*
X83023809Y-83809523D01*
X83214285Y-83761904D01*
X83309523Y-83714285D01*
X83404761Y-83619047D01*
X83452380Y-83476190D01*
X83452380Y-83238095D01*
X61652380Y-82214285D02*
X60652380Y-82214285D01*
X61652380Y-82785714D01*
X60652380Y-82785714D01*
X61557142Y-83833333D02*
X61604761Y-83785714D01*
X61652380Y-83642857D01*
X61652380Y-83547619D01*
X61604761Y-83404761D01*
X61509523Y-83309523D01*
X61414285Y-83261904D01*
X61223809Y-83214285D01*
X61080952Y-83214285D01*
X60890476Y-83261904D01*
X60795238Y-83309523D01*
X60700000Y-83404761D01*
X60652380Y-83547619D01*
X60652380Y-83642857D01*
X60700000Y-83785714D01*
X60747619Y-83833333D01*
X61566666Y-75007142D02*
X61566666Y-75483333D01*
X61852380Y-74911904D02*
X60852380Y-75245238D01*
X61852380Y-75578571D01*
X61852380Y-75911904D02*
X60852380Y-75911904D01*
X61852380Y-76483333D01*
X60852380Y-76483333D01*
X60852380Y-76816666D02*
X60852380Y-77388095D01*
X61852380Y-77102380D02*
X60852380Y-77102380D01*
X83452380Y-86576190D02*
X82452380Y-86576190D01*
X82452380Y-86957142D01*
X82500000Y-87052380D01*
X82547619Y-87100000D01*
X82642857Y-87147619D01*
X82785714Y-87147619D01*
X82880952Y-87100000D01*
X82928571Y-87052380D01*
X82976190Y-86957142D01*
X82976190Y-86576190D01*
X82452380Y-87433333D02*
X82452380Y-88004761D01*
X83452380Y-87719047D02*
X82452380Y-87719047D01*
X82452380Y-88195238D02*
X82452380Y-88766666D01*
X83452380Y-88480952D02*
X82452380Y-88480952D01*
X65652380Y-71314285D02*
X64652380Y-71314285D01*
X65652380Y-71885714D01*
X64652380Y-71885714D01*
X65557142Y-72933333D02*
X65604761Y-72885714D01*
X65652380Y-72742857D01*
X65652380Y-72647619D01*
X65604761Y-72504761D01*
X65509523Y-72409523D01*
X65414285Y-72361904D01*
X65223809Y-72314285D01*
X65080952Y-72314285D01*
X64890476Y-72361904D01*
X64795238Y-72409523D01*
X64700000Y-72504761D01*
X64652380Y-72647619D01*
X64652380Y-72742857D01*
X64700000Y-72885714D01*
X64747619Y-72933333D01*
X83166666Y-94123809D02*
X83166666Y-94600000D01*
X83452380Y-94028571D02*
X82452380Y-94361904D01*
X83452380Y-94695238D01*
X82928571Y-95361904D02*
X82928571Y-95028571D01*
X83452380Y-95028571D02*
X82452380Y-95028571D01*
X82452380Y-95504761D01*
X83547619Y-95647619D02*
X83547619Y-96409523D01*
X82452380Y-96838095D02*
X82452380Y-97028571D01*
X82500000Y-97123809D01*
X82595238Y-97219047D01*
X82785714Y-97266666D01*
X83119047Y-97266666D01*
X83309523Y-97219047D01*
X83404761Y-97123809D01*
X83452380Y-97028571D01*
X83452380Y-96838095D01*
X83404761Y-96742857D01*
X83309523Y-96647619D01*
X83119047Y-96600000D01*
X82785714Y-96600000D01*
X82595238Y-96647619D01*
X82500000Y-96742857D01*
X82452380Y-96838095D01*
X82452380Y-97695238D02*
X83261904Y-97695238D01*
X83357142Y-97742857D01*
X83404761Y-97790476D01*
X83452380Y-97885714D01*
X83452380Y-98076190D01*
X83404761Y-98171428D01*
X83357142Y-98219047D01*
X83261904Y-98266666D01*
X82452380Y-98266666D01*
X82452380Y-98600000D02*
X82452380Y-99171428D01*
X83452380Y-98885714D02*
X82452380Y-98885714D01*
X83452380Y-91214285D02*
X82452380Y-91214285D01*
X83452380Y-91785714D01*
X82452380Y-91785714D01*
X83357142Y-92833333D02*
X83404761Y-92785714D01*
X83452380Y-92642857D01*
X83452380Y-92547619D01*
X83404761Y-92404761D01*
X83309523Y-92309523D01*
X83214285Y-92261904D01*
X83023809Y-92214285D01*
X82880952Y-92214285D01*
X82690476Y-92261904D01*
X82595238Y-92309523D01*
X82500000Y-92404761D01*
X82452380Y-92547619D01*
X82452380Y-92642857D01*
X82500000Y-92785714D01*
X82547619Y-92833333D01*
X68900000Y-70838095D02*
X68852380Y-70742857D01*
X68852380Y-70600000D01*
X68900000Y-70457142D01*
X68995238Y-70361904D01*
X69090476Y-70314285D01*
X69280952Y-70266666D01*
X69423809Y-70266666D01*
X69614285Y-70314285D01*
X69709523Y-70361904D01*
X69804761Y-70457142D01*
X69852380Y-70600000D01*
X69852380Y-70695238D01*
X69804761Y-70838095D01*
X69757142Y-70885714D01*
X69423809Y-70885714D01*
X69423809Y-70695238D01*
X69852380Y-71314285D02*
X68852380Y-71314285D01*
X69852380Y-71885714D01*
X68852380Y-71885714D01*
X69852380Y-72361904D02*
X68852380Y-72361904D01*
X68852380Y-72600000D01*
X68900000Y-72742857D01*
X68995238Y-72838095D01*
X69090476Y-72885714D01*
X69280952Y-72933333D01*
X69423809Y-72933333D01*
X69614285Y-72885714D01*
X69709523Y-72838095D01*
X69804761Y-72742857D01*
X69852380Y-72600000D01*
X69852380Y-72361904D01*
X83452380Y-100214285D02*
X82452380Y-100214285D01*
X83452380Y-100785714D01*
X82452380Y-100785714D01*
X83357142Y-101833333D02*
X83404761Y-101785714D01*
X83452380Y-101642857D01*
X83452380Y-101547619D01*
X83404761Y-101404761D01*
X83309523Y-101309523D01*
X83214285Y-101261904D01*
X83023809Y-101214285D01*
X82880952Y-101214285D01*
X82690476Y-101261904D01*
X82595238Y-101309523D01*
X82500000Y-101404761D01*
X82452380Y-101547619D01*
X82452380Y-101642857D01*
X82500000Y-101785714D01*
X82547619Y-101833333D01*
X61652380Y-86814285D02*
X60652380Y-86814285D01*
X61652380Y-87385714D01*
X60652380Y-87385714D01*
X61557142Y-88433333D02*
X61604761Y-88385714D01*
X61652380Y-88242857D01*
X61652380Y-88147619D01*
X61604761Y-88004761D01*
X61509523Y-87909523D01*
X61414285Y-87861904D01*
X61223809Y-87814285D01*
X61080952Y-87814285D01*
X60890476Y-87861904D01*
X60795238Y-87909523D01*
X60700000Y-88004761D01*
X60652380Y-88147619D01*
X60652380Y-88242857D01*
X60700000Y-88385714D01*
X60747619Y-88433333D01*
X78252380Y-69742857D02*
X79252380Y-70076191D01*
X78252380Y-70409524D01*
X78728571Y-71076191D02*
X78776190Y-71219048D01*
X78823809Y-71266667D01*
X78919047Y-71314286D01*
X79061904Y-71314286D01*
X79157142Y-71266667D01*
X79204761Y-71219048D01*
X79252380Y-71123810D01*
X79252380Y-70742857D01*
X78252380Y-70742857D01*
X78252380Y-71076191D01*
X78300000Y-71171429D01*
X78347619Y-71219048D01*
X78442857Y-71266667D01*
X78538095Y-71266667D01*
X78633333Y-71219048D01*
X78680952Y-71171429D01*
X78728571Y-71076191D01*
X78728571Y-70742857D01*
X78966666Y-71695238D02*
X78966666Y-72171429D01*
X79252380Y-71600000D02*
X78252380Y-71933334D01*
X79252380Y-72266667D01*
X78252380Y-72457143D02*
X78252380Y-73028572D01*
X79252380Y-72742857D02*
X78252380Y-72742857D01*
X60652380Y-100038095D02*
X60652380Y-100609523D01*
X61652380Y-100323809D02*
X60652380Y-100323809D01*
X60652380Y-100847619D02*
X61652380Y-101514285D01*
X60652380Y-101514285D02*
X61652380Y-100847619D01*
X61652380Y-91214285D02*
X60652380Y-91214285D01*
X61652380Y-91785714D01*
X60652380Y-91785714D01*
X61557142Y-92833333D02*
X61604761Y-92785714D01*
X61652380Y-92642857D01*
X61652380Y-92547619D01*
X61604761Y-92404761D01*
X61509523Y-92309523D01*
X61414285Y-92261904D01*
X61223809Y-92214285D01*
X61080952Y-92214285D01*
X60890476Y-92261904D01*
X60795238Y-92309523D01*
X60700000Y-92404761D01*
X60652380Y-92547619D01*
X60652380Y-92642857D01*
X60700000Y-92785714D01*
X60747619Y-92833333D01*
X83452380Y-77185714D02*
X82452380Y-77185714D01*
X82928571Y-77185714D02*
X82928571Y-77757142D01*
X83452380Y-77757142D02*
X82452380Y-77757142D01*
X82404761Y-78947619D02*
X83690476Y-78090476D01*
X83452380Y-79757142D02*
X83452380Y-79280952D01*
X82452380Y-79280952D01*
X61652380Y-96433333D02*
X61176190Y-96100000D01*
X61652380Y-95861904D02*
X60652380Y-95861904D01*
X60652380Y-96242857D01*
X60700000Y-96338095D01*
X60747619Y-96385714D01*
X60842857Y-96433333D01*
X60985714Y-96433333D01*
X61080952Y-96385714D01*
X61128571Y-96338095D01*
X61176190Y-96242857D01*
X61176190Y-95861904D01*
X60652380Y-96766666D02*
X61652380Y-97433333D01*
X60652380Y-97433333D02*
X61652380Y-96766666D01*
X73500000Y-70838095D02*
X73452380Y-70742857D01*
X73452380Y-70600000D01*
X73500000Y-70457142D01*
X73595238Y-70361904D01*
X73690476Y-70314285D01*
X73880952Y-70266666D01*
X74023809Y-70266666D01*
X74214285Y-70314285D01*
X74309523Y-70361904D01*
X74404761Y-70457142D01*
X74452380Y-70600000D01*
X74452380Y-70695238D01*
X74404761Y-70838095D01*
X74357142Y-70885714D01*
X74023809Y-70885714D01*
X74023809Y-70695238D01*
X74452380Y-71314285D02*
X73452380Y-71314285D01*
X74452380Y-71885714D01*
X73452380Y-71885714D01*
X74452380Y-72361904D02*
X73452380Y-72361904D01*
X73452380Y-72600000D01*
X73500000Y-72742857D01*
X73595238Y-72838095D01*
X73690476Y-72885714D01*
X73880952Y-72933333D01*
X74023809Y-72933333D01*
X74214285Y-72885714D01*
X74309523Y-72838095D01*
X74404761Y-72742857D01*
X74452380Y-72600000D01*
X74452380Y-72361904D01*
%TO.C,FL1*%
X123689171Y-97845347D02*
X123924873Y-97609644D01*
X124295263Y-97980034D02*
X123588156Y-97272927D01*
X123251438Y-97609644D01*
X123352454Y-98922843D02*
X123689171Y-98586125D01*
X122982064Y-97879018D01*
X122746362Y-99528934D02*
X123150423Y-99124873D01*
X122948392Y-99326904D02*
X122241286Y-98619797D01*
X122409644Y-98653469D01*
X122544331Y-98653469D01*
X122645347Y-98619797D01*
%TO.C,TP10*%
X90213095Y-51027380D02*
X89641666Y-51027380D01*
X89927380Y-52027380D02*
X89927380Y-51027380D01*
X89308333Y-52027380D02*
X89308333Y-51027380D01*
X88927380Y-51027380D01*
X88832142Y-51075000D01*
X88784523Y-51122619D01*
X88736904Y-51217857D01*
X88736904Y-51360714D01*
X88784523Y-51455952D01*
X88832142Y-51503571D01*
X88927380Y-51551190D01*
X89308333Y-51551190D01*
X87784523Y-52027380D02*
X88355952Y-52027380D01*
X88070238Y-52027380D02*
X88070238Y-51027380D01*
X88165476Y-51170238D01*
X88260714Y-51265476D01*
X88355952Y-51313095D01*
X87165476Y-51027380D02*
X87070238Y-51027380D01*
X86975000Y-51075000D01*
X86927380Y-51122619D01*
X86879761Y-51217857D01*
X86832142Y-51408333D01*
X86832142Y-51646428D01*
X86879761Y-51836904D01*
X86927380Y-51932142D01*
X86975000Y-51979761D01*
X87070238Y-52027380D01*
X87165476Y-52027380D01*
X87260714Y-51979761D01*
X87308333Y-51932142D01*
X87355952Y-51836904D01*
X87403571Y-51646428D01*
X87403571Y-51408333D01*
X87355952Y-51217857D01*
X87308333Y-51122619D01*
X87260714Y-51075000D01*
X87165476Y-51027380D01*
%TO.C,TP13*%
X92963095Y-56652380D02*
X92391666Y-56652380D01*
X92677380Y-57652380D02*
X92677380Y-56652380D01*
X92058333Y-57652380D02*
X92058333Y-56652380D01*
X91677380Y-56652380D01*
X91582142Y-56700000D01*
X91534523Y-56747619D01*
X91486904Y-56842857D01*
X91486904Y-56985714D01*
X91534523Y-57080952D01*
X91582142Y-57128571D01*
X91677380Y-57176190D01*
X92058333Y-57176190D01*
X90534523Y-57652380D02*
X91105952Y-57652380D01*
X90820238Y-57652380D02*
X90820238Y-56652380D01*
X90915476Y-56795238D01*
X91010714Y-56890476D01*
X91105952Y-56938095D01*
X90201190Y-56652380D02*
X89582142Y-56652380D01*
X89915476Y-57033333D01*
X89772619Y-57033333D01*
X89677380Y-57080952D01*
X89629761Y-57128571D01*
X89582142Y-57223809D01*
X89582142Y-57461904D01*
X89629761Y-57557142D01*
X89677380Y-57604761D01*
X89772619Y-57652380D01*
X90058333Y-57652380D01*
X90153571Y-57604761D01*
X90201190Y-57557142D01*
%TO.C,kibuzzard-642DBF97*%
G36*
X84086725Y-52780469D02*
G01*
X86500254Y-52780469D01*
X86963275Y-53475000D01*
X86500254Y-54169531D01*
X84086725Y-54169531D01*
X84086725Y-53459125D01*
X84152871Y-53459125D01*
X84158074Y-53602882D01*
X84173685Y-53725119D01*
X84199702Y-53825838D01*
X84257051Y-53940733D01*
X84335433Y-54015544D01*
X84438621Y-54056620D01*
X84570383Y-54070313D01*
X84700161Y-54062375D01*
X84739979Y-54054438D01*
X84997421Y-54054438D01*
X85175221Y-54054438D01*
X85422871Y-53213062D01*
X85426046Y-53213062D01*
X85426046Y-54054438D01*
X85600671Y-54054438D01*
X85600671Y-54014750D01*
X85767358Y-54014750D01*
X85852378Y-54045618D01*
X85942336Y-54064139D01*
X86037233Y-54070313D01*
X86130251Y-54060887D01*
X86210866Y-54032609D01*
X86279079Y-53985480D01*
X86334890Y-53919500D01*
X86378298Y-53834668D01*
X86409304Y-53730984D01*
X86427907Y-53608449D01*
X86434108Y-53467062D01*
X86427411Y-53324882D01*
X86407319Y-53203141D01*
X86373833Y-53101838D01*
X86326952Y-53020975D01*
X86243608Y-52942482D01*
X86136452Y-52895386D01*
X86005483Y-52879687D01*
X85904280Y-52888419D01*
X85807046Y-52914612D01*
X85807046Y-53057487D01*
X85908249Y-53028912D01*
X86005483Y-53019387D01*
X86118593Y-53044589D01*
X86197571Y-53120194D01*
X86231967Y-53203537D01*
X86252604Y-53319160D01*
X86259483Y-53467062D01*
X86252957Y-53618404D01*
X86233378Y-53737996D01*
X86200746Y-53825838D01*
X86129308Y-53906800D01*
X86032471Y-53933788D01*
X85937221Y-53914738D01*
X85937221Y-53498813D01*
X86137246Y-53498813D01*
X86137246Y-53363875D01*
X85767358Y-53363875D01*
X85767358Y-54014750D01*
X85600671Y-54014750D01*
X85600671Y-52895562D01*
X85416521Y-52895562D01*
X85168871Y-53736938D01*
X85164108Y-53736938D01*
X85164108Y-52895562D01*
X84997421Y-52895562D01*
X84997421Y-54054438D01*
X84739979Y-54054438D01*
X84819621Y-54038563D01*
X84819621Y-52911437D01*
X84695399Y-52887625D01*
X84570383Y-52879687D01*
X84436063Y-52894063D01*
X84329436Y-52937190D01*
X84250502Y-53009069D01*
X84207788Y-53085715D01*
X84177279Y-53186273D01*
X84158973Y-53310743D01*
X84152871Y-53459125D01*
X84086725Y-53459125D01*
X84086725Y-52780469D01*
G37*
G36*
X84641821Y-53032087D02*
G01*
X84641821Y-53919500D01*
X84570383Y-53933788D01*
X84459457Y-53908388D01*
X84383852Y-53832188D01*
X84351661Y-53745581D01*
X84332347Y-53621226D01*
X84325908Y-53459125D01*
X84332435Y-53312369D01*
X84352014Y-53198069D01*
X84384646Y-53116225D01*
X84460449Y-53042406D01*
X84570383Y-53017800D01*
X84641821Y-53032087D01*
G37*
%TO.C,kibuzzard-641EB11F*%
G36*
X94860816Y-58670156D02*
G01*
X94860816Y-59277375D01*
X94767947Y-59277375D01*
X94613166Y-59259516D01*
X94510772Y-59205937D01*
X94453622Y-59109497D01*
X94434572Y-58963050D01*
X94452431Y-58822854D01*
X94506009Y-58726116D01*
X94595902Y-58669859D01*
X94722703Y-58651106D01*
X94860816Y-58670156D01*
G37*
G36*
X95327681Y-58300069D02*
G01*
X95427656Y-58314898D01*
X95525696Y-58339456D01*
X95620856Y-58373505D01*
X95712221Y-58416718D01*
X95798911Y-58468677D01*
X95880090Y-58528884D01*
X95954977Y-58596757D01*
X96022851Y-58671644D01*
X96083057Y-58752823D01*
X96135017Y-58839513D01*
X96178229Y-58930878D01*
X96212278Y-59026039D01*
X96236836Y-59124078D01*
X96251666Y-59224053D01*
X96256625Y-59325000D01*
X96251666Y-59425947D01*
X96236836Y-59525922D01*
X96212278Y-59623961D01*
X96178229Y-59719122D01*
X96135017Y-59810487D01*
X96083057Y-59897177D01*
X96022851Y-59978356D01*
X95954977Y-60053243D01*
X95880090Y-60121116D01*
X95798911Y-60181323D01*
X95712221Y-60233282D01*
X95620856Y-60276495D01*
X95525696Y-60310544D01*
X95427656Y-60335102D01*
X95327681Y-60349931D01*
X95226734Y-60354891D01*
X92873266Y-60354891D01*
X92772319Y-60349931D01*
X92672344Y-60335102D01*
X92574304Y-60310544D01*
X92479144Y-60276495D01*
X92387779Y-60233282D01*
X92342366Y-60206063D01*
X92972484Y-60206063D01*
X93262997Y-60206063D01*
X93482072Y-59510738D01*
X93486834Y-59510738D01*
X93703528Y-60206063D01*
X93984516Y-60206063D01*
X94127391Y-60206063D01*
X94401234Y-60206063D01*
X94539347Y-59706000D01*
X94578340Y-59597951D01*
X94623881Y-59530978D01*
X94767947Y-59484544D01*
X94860816Y-59484544D01*
X94860816Y-60206063D01*
X95127516Y-60206063D01*
X95127516Y-58491562D01*
X94994695Y-58465104D01*
X94859757Y-58449229D01*
X94722703Y-58443937D01*
X94550592Y-58457828D01*
X94412082Y-58499500D01*
X94307175Y-58568953D01*
X94233753Y-58668304D01*
X94189700Y-58799670D01*
X94175016Y-58963050D01*
X94191684Y-59118724D01*
X94241691Y-59245228D01*
X94325034Y-59342562D01*
X94441716Y-59410725D01*
X94441716Y-59415488D01*
X94351228Y-59533359D01*
X94275028Y-59720288D01*
X94127391Y-60206063D01*
X93984516Y-60206063D01*
X93643997Y-59320237D01*
X93977372Y-58467750D01*
X93694003Y-58467750D01*
X93477309Y-59134500D01*
X93472547Y-59134500D01*
X93253472Y-58467750D01*
X92977247Y-58467750D01*
X93310622Y-59320237D01*
X92972484Y-60206063D01*
X92342366Y-60206063D01*
X92301089Y-60181323D01*
X92219910Y-60121116D01*
X92145023Y-60053243D01*
X92077149Y-59978356D01*
X92016943Y-59897177D01*
X91964983Y-59810487D01*
X91921771Y-59719122D01*
X91887722Y-59623961D01*
X91863164Y-59525922D01*
X91848334Y-59425947D01*
X91843375Y-59325000D01*
X91848334Y-59224053D01*
X91863164Y-59124078D01*
X91887722Y-59026039D01*
X91921771Y-58930878D01*
X91964983Y-58839513D01*
X92016943Y-58752823D01*
X92077149Y-58671644D01*
X92145023Y-58596757D01*
X92219910Y-58528884D01*
X92301089Y-58468677D01*
X92387779Y-58416718D01*
X92479144Y-58373505D01*
X92574304Y-58339456D01*
X92672344Y-58314898D01*
X92772319Y-58300069D01*
X92873266Y-58295109D01*
X95226734Y-58295109D01*
X95327681Y-58300069D01*
G37*
D11*
%TO.C,U7*%
X117780000Y-104290000D02*
X98380000Y-104290000D01*
X98380000Y-104290000D02*
X98380000Y-68190000D01*
X98380000Y-68190000D02*
X117780000Y-68190000D01*
X117780000Y-68190000D02*
X117780000Y-104290000D01*
%TO.C,C14*%
X111454420Y-51025000D02*
X111735580Y-51025000D01*
X111454420Y-52045000D02*
X111735580Y-52045000D01*
%TO.C,kibuzzard-641EB116*%
G36*
X95190802Y-52061917D02*
G01*
X95289621Y-52076576D01*
X95386527Y-52100850D01*
X95480588Y-52134505D01*
X95570896Y-52177218D01*
X95656584Y-52228577D01*
X95736824Y-52288087D01*
X95810846Y-52355176D01*
X95877934Y-52429198D01*
X95937445Y-52509438D01*
X95988804Y-52595125D01*
X96031517Y-52685434D01*
X96065172Y-52779495D01*
X96089446Y-52876401D01*
X96104104Y-52975220D01*
X96109006Y-53075000D01*
X96104104Y-53174780D01*
X96089446Y-53273599D01*
X96065172Y-53370505D01*
X96031517Y-53464566D01*
X95988804Y-53554875D01*
X95937445Y-53640562D01*
X95877934Y-53720802D01*
X95810846Y-53794824D01*
X95736824Y-53861913D01*
X95656584Y-53921423D01*
X95570896Y-53972782D01*
X95480588Y-54015495D01*
X95386527Y-54049150D01*
X95289621Y-54073424D01*
X95190802Y-54088083D01*
X95091022Y-54092984D01*
X92708978Y-54092984D01*
X92609198Y-54088083D01*
X92510379Y-54073424D01*
X92413473Y-54049150D01*
X92319412Y-54015495D01*
X92229104Y-53972782D01*
X92181344Y-53944156D01*
X92808197Y-53944156D01*
X93098709Y-53944156D01*
X93317784Y-53248831D01*
X93322547Y-53248831D01*
X93539241Y-53944156D01*
X93820228Y-53944156D01*
X93479709Y-53058331D01*
X93732069Y-52413012D01*
X94015491Y-52413012D01*
X94370297Y-52413012D01*
X94370297Y-53944156D01*
X94636997Y-53944156D01*
X94636997Y-52413012D01*
X94991803Y-52413012D01*
X94991803Y-52205844D01*
X94015491Y-52205844D01*
X94015491Y-52413012D01*
X93732069Y-52413012D01*
X93813084Y-52205844D01*
X93529716Y-52205844D01*
X93313022Y-52872594D01*
X93308259Y-52872594D01*
X93089184Y-52205844D01*
X92812959Y-52205844D01*
X93146334Y-53058331D01*
X92808197Y-53944156D01*
X92181344Y-53944156D01*
X92143416Y-53921423D01*
X92063176Y-53861913D01*
X91989154Y-53794824D01*
X91922066Y-53720802D01*
X91862555Y-53640562D01*
X91811196Y-53554875D01*
X91768483Y-53464566D01*
X91734828Y-53370505D01*
X91710554Y-53273599D01*
X91695896Y-53174780D01*
X91690994Y-53075000D01*
X91695896Y-52975220D01*
X91710554Y-52876401D01*
X91734828Y-52779495D01*
X91768483Y-52685434D01*
X91811196Y-52595125D01*
X91862555Y-52509438D01*
X91922066Y-52429198D01*
X91989154Y-52355176D01*
X92063176Y-52288087D01*
X92143416Y-52228577D01*
X92229104Y-52177218D01*
X92319412Y-52134505D01*
X92413473Y-52100850D01*
X92510379Y-52076576D01*
X92609198Y-52061917D01*
X92708978Y-52057016D01*
X95091022Y-52057016D01*
X95190802Y-52061917D01*
G37*
%TO.C,FL2*%
X57257640Y-80733742D02*
X57017224Y-80974158D01*
X59591092Y-80974158D02*
X59350676Y-81214574D01*
X58544574Y-82020676D02*
X58304158Y-82261092D01*
X58304158Y-79687224D02*
X58127381Y-79510447D01*
X58127381Y-79510447D02*
X58997123Y-78640706D01*
X58304158Y-79687224D02*
X58063742Y-79927640D01*
%TO.C,kibuzzard-641EB0C1*%
G36*
X60457666Y-94634550D02*
G01*
X60131434Y-94634550D01*
X60293359Y-93817781D01*
X60295741Y-93817781D01*
X60457666Y-94634550D01*
G37*
G36*
X53313916Y-94634550D02*
G01*
X52987684Y-94634550D01*
X53149609Y-93817781D01*
X53151991Y-93817781D01*
X53313916Y-94634550D01*
G37*
G36*
X61054333Y-93411917D02*
G01*
X61153152Y-93426576D01*
X61250058Y-93450850D01*
X61344119Y-93484505D01*
X61434428Y-93527218D01*
X61520115Y-93578577D01*
X61600356Y-93638087D01*
X61674377Y-93705176D01*
X61741466Y-93779198D01*
X61800976Y-93859438D01*
X61852335Y-93945125D01*
X61895048Y-94035434D01*
X61928703Y-94129495D01*
X61952977Y-94226401D01*
X61967636Y-94325220D01*
X61972537Y-94425000D01*
X61967636Y-94524780D01*
X61952977Y-94623599D01*
X61928703Y-94720505D01*
X61895048Y-94814566D01*
X61852335Y-94904875D01*
X61800976Y-94990562D01*
X61741466Y-95070802D01*
X61674377Y-95144824D01*
X61600356Y-95211913D01*
X61520115Y-95271423D01*
X61434428Y-95322782D01*
X61344119Y-95365495D01*
X61250058Y-95399150D01*
X61153152Y-95423424D01*
X61054333Y-95438083D01*
X60954553Y-95442984D01*
X51595447Y-95442984D01*
X51495667Y-95438083D01*
X51396848Y-95423424D01*
X51299942Y-95399150D01*
X51205881Y-95365495D01*
X51115572Y-95322782D01*
X51067813Y-95294156D01*
X51694666Y-95294156D01*
X51961366Y-95294156D01*
X52580491Y-95294156D01*
X52856716Y-95294156D01*
X52947203Y-94836956D01*
X53354397Y-94836956D01*
X53444884Y-95294156D01*
X53711584Y-95294156D01*
X53883034Y-95294156D01*
X54149734Y-95294156D01*
X54521209Y-94032094D01*
X54525972Y-94032094D01*
X54525972Y-95294156D01*
X54787909Y-95294156D01*
X55073659Y-95294156D01*
X55340359Y-95294156D01*
X55711834Y-94032094D01*
X55716597Y-94032094D01*
X55716597Y-95294156D01*
X55978534Y-95294156D01*
X56295241Y-95294156D01*
X57128678Y-95294156D01*
X57128678Y-93763012D01*
X57419191Y-93763012D01*
X57773997Y-93763012D01*
X57773997Y-95294156D01*
X58040697Y-95294156D01*
X58645534Y-95294156D01*
X58912234Y-95294156D01*
X59283709Y-94032094D01*
X59288472Y-94032094D01*
X59288472Y-95294156D01*
X59550409Y-95294156D01*
X59724241Y-95294156D01*
X60000466Y-95294156D01*
X60090953Y-94836956D01*
X60498147Y-94836956D01*
X60588634Y-95294156D01*
X60855334Y-95294156D01*
X60445759Y-93555844D01*
X60136197Y-93555844D01*
X59724241Y-95294156D01*
X59550409Y-95294156D01*
X59550409Y-93555844D01*
X59274184Y-93555844D01*
X58902709Y-94817906D01*
X58895566Y-94817906D01*
X58895566Y-93555844D01*
X58645534Y-93555844D01*
X58645534Y-95294156D01*
X58040697Y-95294156D01*
X58040697Y-93763012D01*
X58395503Y-93763012D01*
X58395503Y-93555844D01*
X57419191Y-93555844D01*
X57419191Y-93763012D01*
X57128678Y-93763012D01*
X57128678Y-93555844D01*
X56295241Y-93555844D01*
X56295241Y-93763012D01*
X56861978Y-93763012D01*
X56861978Y-94258312D01*
X56319053Y-94258312D01*
X56319053Y-94460719D01*
X56861978Y-94460719D01*
X56861978Y-95086988D01*
X56295241Y-95086988D01*
X56295241Y-95294156D01*
X55978534Y-95294156D01*
X55978534Y-93555844D01*
X55702309Y-93555844D01*
X55330834Y-94817906D01*
X55323691Y-94817906D01*
X55323691Y-93555844D01*
X55073659Y-93555844D01*
X55073659Y-95294156D01*
X54787909Y-95294156D01*
X54787909Y-93555844D01*
X54511684Y-93555844D01*
X54140209Y-94817906D01*
X54133066Y-94817906D01*
X54133066Y-93555844D01*
X53883034Y-93555844D01*
X53883034Y-95294156D01*
X53711584Y-95294156D01*
X53302009Y-93555844D01*
X52992447Y-93555844D01*
X52580491Y-95294156D01*
X51961366Y-95294156D01*
X51961366Y-93805875D01*
X51966128Y-93803494D01*
X52375703Y-94032094D01*
X52375703Y-93798731D01*
X51958984Y-93555844D01*
X51694666Y-93555844D01*
X51694666Y-95294156D01*
X51067813Y-95294156D01*
X51029885Y-95271423D01*
X50949644Y-95211913D01*
X50875623Y-95144824D01*
X50808534Y-95070802D01*
X50749024Y-94990562D01*
X50697665Y-94904875D01*
X50654952Y-94814566D01*
X50621297Y-94720505D01*
X50597023Y-94623599D01*
X50582364Y-94524780D01*
X50577463Y-94425000D01*
X50582364Y-94325220D01*
X50597023Y-94226401D01*
X50621297Y-94129495D01*
X50654952Y-94035434D01*
X50697665Y-93945125D01*
X50749024Y-93859438D01*
X50808534Y-93779198D01*
X50875623Y-93705176D01*
X50949644Y-93638087D01*
X51029885Y-93578577D01*
X51115572Y-93527218D01*
X51205881Y-93484505D01*
X51299942Y-93450850D01*
X51396848Y-93426576D01*
X51495667Y-93411917D01*
X51595447Y-93407016D01*
X60954553Y-93407016D01*
X61054333Y-93411917D01*
G37*
%TO.C,TP9*%
X60425000Y-110750000D02*
X60425000Y-109350000D01*
X59025000Y-110750000D02*
X60425000Y-110750000D01*
X59025000Y-109350000D02*
X59025000Y-110750000D01*
X60425000Y-109350000D02*
X59025000Y-109350000D01*
%TO.C,C8*%
X111741267Y-52625000D02*
X111448733Y-52625000D01*
X111741267Y-53645000D02*
X111448733Y-53645000D01*
%TO.C,TP11*%
X125650000Y-108100000D02*
X124250000Y-108100000D01*
X124250000Y-108100000D02*
X124250000Y-109500000D01*
X125650000Y-109500000D02*
X125650000Y-108100000D01*
X124250000Y-109500000D02*
X125650000Y-109500000D01*
%TO.C,FID2*%
G36*
X66154803Y-58223811D02*
G01*
X66159752Y-58230495D01*
X66165596Y-58241066D01*
X66170057Y-58255153D01*
X66173321Y-58275478D01*
X66175574Y-58304765D01*
X66177002Y-58345737D01*
X66177792Y-58401117D01*
X66178129Y-58473628D01*
X66178200Y-58565994D01*
X66178171Y-58631911D01*
X66177939Y-58710228D01*
X66177319Y-58770496D01*
X66176126Y-58815393D01*
X66174179Y-58847602D01*
X66171294Y-58869800D01*
X66167288Y-58884669D01*
X66161979Y-58894889D01*
X66155183Y-58903138D01*
X66150668Y-58907795D01*
X66142438Y-58914282D01*
X66131078Y-58919194D01*
X66113810Y-58922749D01*
X66087855Y-58925167D01*
X66050436Y-58926667D01*
X65998773Y-58927467D01*
X65930089Y-58927787D01*
X65841606Y-58927845D01*
X65821931Y-58927838D01*
X65734906Y-58927572D01*
X65667254Y-58926806D01*
X65616299Y-58925392D01*
X65579367Y-58923180D01*
X65553783Y-58920022D01*
X65536871Y-58915769D01*
X65525957Y-58910271D01*
X65515464Y-58900285D01*
X65502203Y-58869168D01*
X65503386Y-58833280D01*
X65519550Y-58801733D01*
X65521739Y-58799457D01*
X65530427Y-58793189D01*
X65543769Y-58788523D01*
X65564752Y-58785227D01*
X65596363Y-58783068D01*
X65641590Y-58781814D01*
X65703420Y-58781231D01*
X65784839Y-58781089D01*
X66031445Y-58781089D01*
X66031445Y-58623045D01*
X65869006Y-58623045D01*
X65833338Y-58622964D01*
X65777568Y-58622167D01*
X65738430Y-58620162D01*
X65711976Y-58616521D01*
X65694259Y-58610812D01*
X65681329Y-58602607D01*
X65677686Y-58599423D01*
X65659278Y-58568448D01*
X65658644Y-58532112D01*
X65676183Y-58498493D01*
X65676245Y-58498424D01*
X65685916Y-58489798D01*
X65699209Y-58483742D01*
X65719917Y-58479811D01*
X65751828Y-58477556D01*
X65798734Y-58476531D01*
X65864424Y-58476289D01*
X66032571Y-58476289D01*
X66029186Y-58411378D01*
X66025800Y-58346467D01*
X65783723Y-58343414D01*
X65758707Y-58343086D01*
X65677087Y-58341606D01*
X65614768Y-58339222D01*
X65569154Y-58335227D01*
X65537652Y-58328913D01*
X65517667Y-58319574D01*
X65506604Y-58306503D01*
X65501869Y-58288992D01*
X65500867Y-58266335D01*
X65500873Y-58263970D01*
X65502027Y-58243939D01*
X65506824Y-58228146D01*
X65517632Y-58216090D01*
X65536817Y-58207267D01*
X65566745Y-58201175D01*
X65609783Y-58197311D01*
X65668299Y-58195174D01*
X65744657Y-58194260D01*
X65841226Y-58194067D01*
X66131406Y-58194067D01*
X66154803Y-58223811D01*
G37*
D12*
X66154803Y-58223811D02*
X66159752Y-58230495D01*
X66165596Y-58241066D01*
X66170057Y-58255153D01*
X66173321Y-58275478D01*
X66175574Y-58304765D01*
X66177002Y-58345737D01*
X66177792Y-58401117D01*
X66178129Y-58473628D01*
X66178200Y-58565994D01*
X66178171Y-58631911D01*
X66177939Y-58710228D01*
X66177319Y-58770496D01*
X66176126Y-58815393D01*
X66174179Y-58847602D01*
X66171294Y-58869800D01*
X66167288Y-58884669D01*
X66161979Y-58894889D01*
X66155183Y-58903138D01*
X66150668Y-58907795D01*
X66142438Y-58914282D01*
X66131078Y-58919194D01*
X66113810Y-58922749D01*
X66087855Y-58925167D01*
X66050436Y-58926667D01*
X65998773Y-58927467D01*
X65930089Y-58927787D01*
X65841606Y-58927845D01*
X65821931Y-58927838D01*
X65734906Y-58927572D01*
X65667254Y-58926806D01*
X65616299Y-58925392D01*
X65579367Y-58923180D01*
X65553783Y-58920022D01*
X65536871Y-58915769D01*
X65525957Y-58910271D01*
X65515464Y-58900285D01*
X65502203Y-58869168D01*
X65503386Y-58833280D01*
X65519550Y-58801733D01*
X65521739Y-58799457D01*
X65530427Y-58793189D01*
X65543769Y-58788523D01*
X65564752Y-58785227D01*
X65596363Y-58783068D01*
X65641590Y-58781814D01*
X65703420Y-58781231D01*
X65784839Y-58781089D01*
X66031445Y-58781089D01*
X66031445Y-58623045D01*
X65869006Y-58623045D01*
X65833338Y-58622964D01*
X65777568Y-58622167D01*
X65738430Y-58620162D01*
X65711976Y-58616521D01*
X65694259Y-58610812D01*
X65681329Y-58602607D01*
X65677686Y-58599423D01*
X65659278Y-58568448D01*
X65658644Y-58532112D01*
X65676183Y-58498493D01*
X65676245Y-58498424D01*
X65685916Y-58489798D01*
X65699209Y-58483742D01*
X65719917Y-58479811D01*
X65751828Y-58477556D01*
X65798734Y-58476531D01*
X65864424Y-58476289D01*
X66032571Y-58476289D01*
X66029186Y-58411378D01*
X66025800Y-58346467D01*
X65783723Y-58343414D01*
X65758707Y-58343086D01*
X65677087Y-58341606D01*
X65614768Y-58339222D01*
X65569154Y-58335227D01*
X65537652Y-58328913D01*
X65517667Y-58319574D01*
X65506604Y-58306503D01*
X65501869Y-58288992D01*
X65500867Y-58266335D01*
X65500873Y-58263970D01*
X65502027Y-58243939D01*
X65506824Y-58228146D01*
X65517632Y-58216090D01*
X65536817Y-58207267D01*
X65566745Y-58201175D01*
X65609783Y-58197311D01*
X65668299Y-58195174D01*
X65744657Y-58194260D01*
X65841226Y-58194067D01*
X66131406Y-58194067D01*
X66154803Y-58223811D01*
G36*
X65963711Y-53887033D02*
G01*
X66059268Y-53904523D01*
X66223558Y-53949564D01*
X66377589Y-54012656D01*
X66523509Y-54094915D01*
X66663466Y-54197457D01*
X66799608Y-54321399D01*
X66843473Y-54366661D01*
X66955758Y-54498865D01*
X67048972Y-54636832D01*
X67125719Y-54784750D01*
X67188603Y-54946803D01*
X67192420Y-54958391D01*
X67242507Y-55144392D01*
X67275899Y-55340521D01*
X67292584Y-55542568D01*
X67292551Y-55746325D01*
X67275791Y-55947581D01*
X67242292Y-56142128D01*
X67192044Y-56325756D01*
X67148190Y-56443053D01*
X67070348Y-56605951D01*
X66976828Y-56759866D01*
X66869822Y-56901671D01*
X66751519Y-57028239D01*
X66624111Y-57136441D01*
X66546606Y-57189120D01*
X66419725Y-57258750D01*
X66282243Y-57317468D01*
X66140716Y-57362587D01*
X66001702Y-57391422D01*
X65987597Y-57393106D01*
X65944153Y-57396434D01*
X65886723Y-57399275D01*
X65821122Y-57401373D01*
X65753167Y-57402468D01*
X65626378Y-57400140D01*
X65478673Y-57387136D01*
X65340779Y-57362133D01*
X65207014Y-57324318D01*
X65183562Y-57315889D01*
X65135612Y-57296408D01*
X65079140Y-57271473D01*
X65017379Y-57242722D01*
X64953563Y-57211790D01*
X64890926Y-57180315D01*
X64832703Y-57149934D01*
X64782127Y-57122283D01*
X64742433Y-57098999D01*
X64716854Y-57081718D01*
X64708625Y-57072079D01*
X64710076Y-57068984D01*
X64721250Y-57049079D01*
X64742134Y-57013420D01*
X64771265Y-56964459D01*
X64807181Y-56904646D01*
X64848420Y-56836433D01*
X64893517Y-56762271D01*
X65074785Y-56465008D01*
X65121315Y-56509539D01*
X65212723Y-56587865D01*
X65326334Y-56662439D01*
X65444122Y-56716474D01*
X65564559Y-56749290D01*
X65686117Y-56760211D01*
X65727585Y-56758868D01*
X65845080Y-56740612D01*
X65955089Y-56701617D01*
X66056430Y-56642670D01*
X66147921Y-56564557D01*
X66228380Y-56468064D01*
X66296627Y-56353978D01*
X66312908Y-56319724D01*
X66358982Y-56196240D01*
X66394106Y-56057918D01*
X66418197Y-55908561D01*
X66431173Y-55751973D01*
X66432949Y-55591956D01*
X66423443Y-55432314D01*
X66402572Y-55276850D01*
X66370252Y-55129366D01*
X66326399Y-54993667D01*
X66288982Y-54907076D01*
X66224185Y-54793688D01*
X66148772Y-54700070D01*
X66062418Y-54625959D01*
X65964795Y-54571094D01*
X65855577Y-54535212D01*
X65734439Y-54518051D01*
X65665038Y-54516880D01*
X65542168Y-54531141D01*
X65426664Y-54566241D01*
X65319953Y-54621682D01*
X65223464Y-54696964D01*
X65207720Y-54711440D01*
X65177150Y-54737962D01*
X65154809Y-54755138D01*
X65144691Y-54759787D01*
X65142706Y-54757597D01*
X65128241Y-54738721D01*
X65104400Y-54705397D01*
X65073029Y-54660380D01*
X65035974Y-54606425D01*
X64995083Y-54546285D01*
X64952202Y-54482718D01*
X64909178Y-54418476D01*
X64867857Y-54356315D01*
X64830086Y-54298991D01*
X64797712Y-54249257D01*
X64772582Y-54209868D01*
X64756542Y-54183580D01*
X64751439Y-54173147D01*
X64756050Y-54168941D01*
X64775267Y-54163933D01*
X64784838Y-54161386D01*
X64812809Y-54150249D01*
X64854448Y-54131802D01*
X64905995Y-54107725D01*
X64963690Y-54079699D01*
X64974957Y-54074154D01*
X65152687Y-53994889D01*
X65322490Y-53935385D01*
X65486430Y-53895245D01*
X65646571Y-53874071D01*
X65804977Y-53871466D01*
X65963711Y-53887033D01*
G37*
X65963711Y-53887033D02*
X66059268Y-53904523D01*
X66223558Y-53949564D01*
X66377589Y-54012656D01*
X66523509Y-54094915D01*
X66663466Y-54197457D01*
X66799608Y-54321399D01*
X66843473Y-54366661D01*
X66955758Y-54498865D01*
X67048972Y-54636832D01*
X67125719Y-54784750D01*
X67188603Y-54946803D01*
X67192420Y-54958391D01*
X67242507Y-55144392D01*
X67275899Y-55340521D01*
X67292584Y-55542568D01*
X67292551Y-55746325D01*
X67275791Y-55947581D01*
X67242292Y-56142128D01*
X67192044Y-56325756D01*
X67148190Y-56443053D01*
X67070348Y-56605951D01*
X66976828Y-56759866D01*
X66869822Y-56901671D01*
X66751519Y-57028239D01*
X66624111Y-57136441D01*
X66546606Y-57189120D01*
X66419725Y-57258750D01*
X66282243Y-57317468D01*
X66140716Y-57362587D01*
X66001702Y-57391422D01*
X65987597Y-57393106D01*
X65944153Y-57396434D01*
X65886723Y-57399275D01*
X65821122Y-57401373D01*
X65753167Y-57402468D01*
X65626378Y-57400140D01*
X65478673Y-57387136D01*
X65340779Y-57362133D01*
X65207014Y-57324318D01*
X65183562Y-57315889D01*
X65135612Y-57296408D01*
X65079140Y-57271473D01*
X65017379Y-57242722D01*
X64953563Y-57211790D01*
X64890926Y-57180315D01*
X64832703Y-57149934D01*
X64782127Y-57122283D01*
X64742433Y-57098999D01*
X64716854Y-57081718D01*
X64708625Y-57072079D01*
X64710076Y-57068984D01*
X64721250Y-57049079D01*
X64742134Y-57013420D01*
X64771265Y-56964459D01*
X64807181Y-56904646D01*
X64848420Y-56836433D01*
X64893517Y-56762271D01*
X65074785Y-56465008D01*
X65121315Y-56509539D01*
X65212723Y-56587865D01*
X65326334Y-56662439D01*
X65444122Y-56716474D01*
X65564559Y-56749290D01*
X65686117Y-56760211D01*
X65727585Y-56758868D01*
X65845080Y-56740612D01*
X65955089Y-56701617D01*
X66056430Y-56642670D01*
X66147921Y-56564557D01*
X66228380Y-56468064D01*
X66296627Y-56353978D01*
X66312908Y-56319724D01*
X66358982Y-56196240D01*
X66394106Y-56057918D01*
X66418197Y-55908561D01*
X66431173Y-55751973D01*
X66432949Y-55591956D01*
X66423443Y-55432314D01*
X66402572Y-55276850D01*
X66370252Y-55129366D01*
X66326399Y-54993667D01*
X66288982Y-54907076D01*
X66224185Y-54793688D01*
X66148772Y-54700070D01*
X66062418Y-54625959D01*
X65964795Y-54571094D01*
X65855577Y-54535212D01*
X65734439Y-54518051D01*
X65665038Y-54516880D01*
X65542168Y-54531141D01*
X65426664Y-54566241D01*
X65319953Y-54621682D01*
X65223464Y-54696964D01*
X65207720Y-54711440D01*
X65177150Y-54737962D01*
X65154809Y-54755138D01*
X65144691Y-54759787D01*
X65142706Y-54757597D01*
X65128241Y-54738721D01*
X65104400Y-54705397D01*
X65073029Y-54660380D01*
X65035974Y-54606425D01*
X64995083Y-54546285D01*
X64952202Y-54482718D01*
X64909178Y-54418476D01*
X64867857Y-54356315D01*
X64830086Y-54298991D01*
X64797712Y-54249257D01*
X64772582Y-54209868D01*
X64756542Y-54183580D01*
X64751439Y-54173147D01*
X64756050Y-54168941D01*
X64775267Y-54163933D01*
X64784838Y-54161386D01*
X64812809Y-54150249D01*
X64854448Y-54131802D01*
X64905995Y-54107725D01*
X64963690Y-54079699D01*
X64974957Y-54074154D01*
X65152687Y-53994889D01*
X65322490Y-53935385D01*
X65486430Y-53895245D01*
X65646571Y-53874071D01*
X65804977Y-53871466D01*
X65963711Y-53887033D01*
G36*
X69815853Y-58194936D02*
G01*
X69882100Y-58200366D01*
X69937400Y-58209964D01*
X69988283Y-58224825D01*
X70059595Y-58257958D01*
X70110752Y-58300640D01*
X70141575Y-58352705D01*
X70151889Y-58413983D01*
X70150952Y-58445232D01*
X70145160Y-58470029D01*
X70130353Y-58491699D01*
X70102380Y-58519049D01*
X70094402Y-58526378D01*
X70070692Y-58547281D01*
X70048298Y-58564251D01*
X70024265Y-58578205D01*
X69995637Y-58590056D01*
X69959460Y-58600720D01*
X69912780Y-58611111D01*
X69852641Y-58622146D01*
X69776090Y-58634738D01*
X69680171Y-58649804D01*
X69661808Y-58652838D01*
X69599478Y-58666458D01*
X69554260Y-58682192D01*
X69527976Y-58699263D01*
X69522447Y-58716897D01*
X69525068Y-58721168D01*
X69543000Y-58736233D01*
X69571126Y-58752867D01*
X69583926Y-58758857D01*
X69605224Y-58766050D01*
X69631610Y-58770827D01*
X69667454Y-58773646D01*
X69717128Y-58774964D01*
X69785000Y-58775237D01*
X69802785Y-58775164D01*
X69870406Y-58774053D01*
X69935345Y-58771828D01*
X69990970Y-58768762D01*
X70030651Y-58765127D01*
X70066162Y-58761059D01*
X70095415Y-58760276D01*
X70114315Y-58764876D01*
X70129429Y-58775551D01*
X70133085Y-58779144D01*
X70149427Y-58810918D01*
X70148107Y-58846572D01*
X70129150Y-58877190D01*
X70108780Y-58888796D01*
X70072796Y-58901491D01*
X70030372Y-58911541D01*
X70026922Y-58912140D01*
X69984252Y-58917356D01*
X69926866Y-58921730D01*
X69861849Y-58924818D01*
X69796289Y-58926177D01*
X69780057Y-58926218D01*
X69681744Y-58923741D01*
X69601692Y-58915735D01*
X69536513Y-58901203D01*
X69482817Y-58879149D01*
X69437216Y-58848576D01*
X69396323Y-58808486D01*
X69376202Y-58782259D01*
X69364576Y-58752712D01*
X69361667Y-58712995D01*
X69361808Y-58701026D01*
X69365681Y-58668345D01*
X69378065Y-58641819D01*
X69403230Y-58610971D01*
X69424442Y-58588831D01*
X69450838Y-58566285D01*
X69480555Y-58547917D01*
X69516785Y-58532661D01*
X69562717Y-58519449D01*
X69621544Y-58507214D01*
X69696456Y-58494889D01*
X69790645Y-58481406D01*
X69835957Y-58474396D01*
X69903911Y-58459837D01*
X69953047Y-58443337D01*
X69982614Y-58425439D01*
X69991864Y-58406685D01*
X69980048Y-58387615D01*
X69946416Y-58368771D01*
X69943370Y-58367557D01*
X69897011Y-58355479D01*
X69834361Y-58347279D01*
X69760927Y-58343119D01*
X69682217Y-58343161D01*
X69603739Y-58347569D01*
X69531000Y-58356505D01*
X69527073Y-58357154D01*
X69478257Y-58364861D01*
X69446005Y-58368473D01*
X69425008Y-58367876D01*
X69409954Y-58362954D01*
X69395534Y-58353596D01*
X69394364Y-58352725D01*
X69369847Y-58322351D01*
X69365054Y-58286850D01*
X69380860Y-58252269D01*
X69385406Y-58247813D01*
X69415020Y-58232673D01*
X69462002Y-58219550D01*
X69522306Y-58208750D01*
X69591888Y-58200581D01*
X69666703Y-58195351D01*
X69742706Y-58193367D01*
X69815853Y-58194936D01*
G37*
X69815853Y-58194936D02*
X69882100Y-58200366D01*
X69937400Y-58209964D01*
X69988283Y-58224825D01*
X70059595Y-58257958D01*
X70110752Y-58300640D01*
X70141575Y-58352705D01*
X70151889Y-58413983D01*
X70150952Y-58445232D01*
X70145160Y-58470029D01*
X70130353Y-58491699D01*
X70102380Y-58519049D01*
X70094402Y-58526378D01*
X70070692Y-58547281D01*
X70048298Y-58564251D01*
X70024265Y-58578205D01*
X69995637Y-58590056D01*
X69959460Y-58600720D01*
X69912780Y-58611111D01*
X69852641Y-58622146D01*
X69776090Y-58634738D01*
X69680171Y-58649804D01*
X69661808Y-58652838D01*
X69599478Y-58666458D01*
X69554260Y-58682192D01*
X69527976Y-58699263D01*
X69522447Y-58716897D01*
X69525068Y-58721168D01*
X69543000Y-58736233D01*
X69571126Y-58752867D01*
X69583926Y-58758857D01*
X69605224Y-58766050D01*
X69631610Y-58770827D01*
X69667454Y-58773646D01*
X69717128Y-58774964D01*
X69785000Y-58775237D01*
X69802785Y-58775164D01*
X69870406Y-58774053D01*
X69935345Y-58771828D01*
X69990970Y-58768762D01*
X70030651Y-58765127D01*
X70066162Y-58761059D01*
X70095415Y-58760276D01*
X70114315Y-58764876D01*
X70129429Y-58775551D01*
X70133085Y-58779144D01*
X70149427Y-58810918D01*
X70148107Y-58846572D01*
X70129150Y-58877190D01*
X70108780Y-58888796D01*
X70072796Y-58901491D01*
X70030372Y-58911541D01*
X70026922Y-58912140D01*
X69984252Y-58917356D01*
X69926866Y-58921730D01*
X69861849Y-58924818D01*
X69796289Y-58926177D01*
X69780057Y-58926218D01*
X69681744Y-58923741D01*
X69601692Y-58915735D01*
X69536513Y-58901203D01*
X69482817Y-58879149D01*
X69437216Y-58848576D01*
X69396323Y-58808486D01*
X69376202Y-58782259D01*
X69364576Y-58752712D01*
X69361667Y-58712995D01*
X69361808Y-58701026D01*
X69365681Y-58668345D01*
X69378065Y-58641819D01*
X69403230Y-58610971D01*
X69424442Y-58588831D01*
X69450838Y-58566285D01*
X69480555Y-58547917D01*
X69516785Y-58532661D01*
X69562717Y-58519449D01*
X69621544Y-58507214D01*
X69696456Y-58494889D01*
X69790645Y-58481406D01*
X69835957Y-58474396D01*
X69903911Y-58459837D01*
X69953047Y-58443337D01*
X69982614Y-58425439D01*
X69991864Y-58406685D01*
X69980048Y-58387615D01*
X69946416Y-58368771D01*
X69943370Y-58367557D01*
X69897011Y-58355479D01*
X69834361Y-58347279D01*
X69760927Y-58343119D01*
X69682217Y-58343161D01*
X69603739Y-58347569D01*
X69531000Y-58356505D01*
X69527073Y-58357154D01*
X69478257Y-58364861D01*
X69446005Y-58368473D01*
X69425008Y-58367876D01*
X69409954Y-58362954D01*
X69395534Y-58353596D01*
X69394364Y-58352725D01*
X69369847Y-58322351D01*
X69365054Y-58286850D01*
X69380860Y-58252269D01*
X69385406Y-58247813D01*
X69415020Y-58232673D01*
X69462002Y-58219550D01*
X69522306Y-58208750D01*
X69591888Y-58200581D01*
X69666703Y-58195351D01*
X69742706Y-58193367D01*
X69815853Y-58194936D01*
G36*
X68961137Y-58198463D02*
G01*
X68995291Y-58221776D01*
X69023000Y-58249485D01*
X69023000Y-58562537D01*
X69022959Y-58646567D01*
X69022701Y-58720789D01*
X69022030Y-58777541D01*
X69020752Y-58819512D01*
X69018673Y-58849389D01*
X69015599Y-58869861D01*
X69011334Y-58883614D01*
X69005684Y-58893337D01*
X68998455Y-58901717D01*
X68966991Y-58923181D01*
X68931826Y-58924947D01*
X68898822Y-58905267D01*
X68893516Y-58899398D01*
X68888066Y-58890314D01*
X68883900Y-58876973D01*
X68880846Y-58856757D01*
X68878732Y-58827049D01*
X68877386Y-58785232D01*
X68876638Y-58728689D01*
X68876314Y-58654802D01*
X68876245Y-58560956D01*
X68876284Y-58485294D01*
X68876539Y-58407385D01*
X68877183Y-58347375D01*
X68878387Y-58302648D01*
X68880324Y-58270585D01*
X68883164Y-58248571D01*
X68887079Y-58233987D01*
X68892242Y-58224218D01*
X68898822Y-58216645D01*
X68928006Y-58197623D01*
X68961137Y-58198463D01*
G37*
X68961137Y-58198463D02*
X68995291Y-58221776D01*
X69023000Y-58249485D01*
X69023000Y-58562537D01*
X69022959Y-58646567D01*
X69022701Y-58720789D01*
X69022030Y-58777541D01*
X69020752Y-58819512D01*
X69018673Y-58849389D01*
X69015599Y-58869861D01*
X69011334Y-58883614D01*
X69005684Y-58893337D01*
X68998455Y-58901717D01*
X68966991Y-58923181D01*
X68931826Y-58924947D01*
X68898822Y-58905267D01*
X68893516Y-58899398D01*
X68888066Y-58890314D01*
X68883900Y-58876973D01*
X68880846Y-58856757D01*
X68878732Y-58827049D01*
X68877386Y-58785232D01*
X68876638Y-58728689D01*
X68876314Y-58654802D01*
X68876245Y-58560956D01*
X68876284Y-58485294D01*
X68876539Y-58407385D01*
X68877183Y-58347375D01*
X68878387Y-58302648D01*
X68880324Y-58270585D01*
X68883164Y-58248571D01*
X68887079Y-58233987D01*
X68892242Y-58224218D01*
X68898822Y-58216645D01*
X68928006Y-58197623D01*
X68961137Y-58198463D01*
G36*
X62160268Y-56245158D02*
G01*
X62151689Y-56396594D01*
X62132833Y-56533283D01*
X62102837Y-56659276D01*
X62060836Y-56778625D01*
X62005969Y-56895381D01*
X61939167Y-57006179D01*
X61848363Y-57119739D01*
X61744708Y-57215211D01*
X61628887Y-57292073D01*
X61501586Y-57349797D01*
X61363489Y-57387858D01*
X61325793Y-57393666D01*
X61246752Y-57399396D01*
X61158629Y-57399583D01*
X61069236Y-57394539D01*
X60986384Y-57384578D01*
X60917887Y-57370012D01*
X60887035Y-57360364D01*
X60809730Y-57330123D01*
X60732679Y-57292617D01*
X60663200Y-57251614D01*
X60608615Y-57210879D01*
X60585916Y-57191505D01*
X60563201Y-57173662D01*
X60551779Y-57166778D01*
X60550537Y-57168424D01*
X60547728Y-57186205D01*
X60545776Y-57219370D01*
X60545045Y-57262733D01*
X60545045Y-57358689D01*
X59686896Y-57358689D01*
X59721161Y-57297974D01*
X59726355Y-57288868D01*
X59734715Y-57274249D01*
X59742288Y-57260173D01*
X59749112Y-57245540D01*
X59755227Y-57229249D01*
X59760673Y-57210198D01*
X59765487Y-57187286D01*
X59769708Y-57159413D01*
X59773377Y-57125478D01*
X59776531Y-57084379D01*
X59779211Y-57035015D01*
X59781454Y-56976286D01*
X59783299Y-56907090D01*
X59784787Y-56826326D01*
X59785955Y-56732894D01*
X59786678Y-56645721D01*
X60590200Y-56645721D01*
X60660756Y-56692089D01*
X60701417Y-56715791D01*
X60755546Y-56741639D01*
X60804689Y-56759829D01*
X60868165Y-56775551D01*
X60964331Y-56786541D01*
X61048900Y-56778365D01*
X61122219Y-56750805D01*
X61184637Y-56703642D01*
X61236502Y-56636658D01*
X61278160Y-56549633D01*
X61309962Y-56442350D01*
X61312545Y-56430009D01*
X61321000Y-56368772D01*
X61326663Y-56291692D01*
X61329576Y-56204002D01*
X61329783Y-56110934D01*
X61327330Y-56017720D01*
X61322261Y-55929594D01*
X61314619Y-55851788D01*
X61304448Y-55789533D01*
X61303167Y-55783666D01*
X61274126Y-55673121D01*
X61239610Y-55582575D01*
X61198456Y-55509953D01*
X61149499Y-55453181D01*
X61091574Y-55410184D01*
X61059620Y-55394615D01*
X60986784Y-55375722D01*
X60905443Y-55372465D01*
X60820319Y-55384389D01*
X60736133Y-55411040D01*
X60657608Y-55451962D01*
X60590200Y-55495530D01*
X60590200Y-56645721D01*
X59786678Y-56645721D01*
X59786844Y-56625692D01*
X59787491Y-56503620D01*
X59787936Y-56365576D01*
X59788218Y-56210459D01*
X59788375Y-56037168D01*
X59788448Y-55844603D01*
X59788474Y-55631662D01*
X59788493Y-55397245D01*
X59788689Y-53712378D01*
X60694017Y-53712378D01*
X60669585Y-53749067D01*
X60663318Y-53758647D01*
X60637208Y-53804981D01*
X60619469Y-53852102D01*
X60607908Y-53907251D01*
X60600331Y-53977667D01*
X60599839Y-53984650D01*
X60598062Y-54022641D01*
X60596444Y-54076576D01*
X60594999Y-54143703D01*
X60593740Y-54221271D01*
X60592680Y-54306528D01*
X60591829Y-54396724D01*
X60591203Y-54489107D01*
X60590812Y-54580925D01*
X60590670Y-54669427D01*
X60590790Y-54751862D01*
X60591183Y-54825479D01*
X60591862Y-54887526D01*
X60592841Y-54935251D01*
X60594132Y-54965904D01*
X60595747Y-54976733D01*
X60603957Y-54972333D01*
X60625647Y-54957362D01*
X60655014Y-54935448D01*
X60703879Y-54901236D01*
X60792125Y-54854714D01*
X60890916Y-54821046D01*
X61003510Y-54799231D01*
X61133164Y-54788265D01*
X61225670Y-54787219D01*
X61347011Y-54797014D01*
X61457099Y-54821174D01*
X61560389Y-54860785D01*
X61661338Y-54916932D01*
X61706503Y-54947883D01*
X61811911Y-55039115D01*
X61903538Y-55148106D01*
X61981332Y-55274726D01*
X62045241Y-55418845D01*
X62095214Y-55580332D01*
X62131198Y-55759059D01*
X62153143Y-55954895D01*
X62158900Y-56110934D01*
X62160994Y-56167711D01*
X62160268Y-56245158D01*
G37*
X62160268Y-56245158D02*
X62151689Y-56396594D01*
X62132833Y-56533283D01*
X62102837Y-56659276D01*
X62060836Y-56778625D01*
X62005969Y-56895381D01*
X61939167Y-57006179D01*
X61848363Y-57119739D01*
X61744708Y-57215211D01*
X61628887Y-57292073D01*
X61501586Y-57349797D01*
X61363489Y-57387858D01*
X61325793Y-57393666D01*
X61246752Y-57399396D01*
X61158629Y-57399583D01*
X61069236Y-57394539D01*
X60986384Y-57384578D01*
X60917887Y-57370012D01*
X60887035Y-57360364D01*
X60809730Y-57330123D01*
X60732679Y-57292617D01*
X60663200Y-57251614D01*
X60608615Y-57210879D01*
X60585916Y-57191505D01*
X60563201Y-57173662D01*
X60551779Y-57166778D01*
X60550537Y-57168424D01*
X60547728Y-57186205D01*
X60545776Y-57219370D01*
X60545045Y-57262733D01*
X60545045Y-57358689D01*
X59686896Y-57358689D01*
X59721161Y-57297974D01*
X59726355Y-57288868D01*
X59734715Y-57274249D01*
X59742288Y-57260173D01*
X59749112Y-57245540D01*
X59755227Y-57229249D01*
X59760673Y-57210198D01*
X59765487Y-57187286D01*
X59769708Y-57159413D01*
X59773377Y-57125478D01*
X59776531Y-57084379D01*
X59779211Y-57035015D01*
X59781454Y-56976286D01*
X59783299Y-56907090D01*
X59784787Y-56826326D01*
X59785955Y-56732894D01*
X59786678Y-56645721D01*
X60590200Y-56645721D01*
X60660756Y-56692089D01*
X60701417Y-56715791D01*
X60755546Y-56741639D01*
X60804689Y-56759829D01*
X60868165Y-56775551D01*
X60964331Y-56786541D01*
X61048900Y-56778365D01*
X61122219Y-56750805D01*
X61184637Y-56703642D01*
X61236502Y-56636658D01*
X61278160Y-56549633D01*
X61309962Y-56442350D01*
X61312545Y-56430009D01*
X61321000Y-56368772D01*
X61326663Y-56291692D01*
X61329576Y-56204002D01*
X61329783Y-56110934D01*
X61327330Y-56017720D01*
X61322261Y-55929594D01*
X61314619Y-55851788D01*
X61304448Y-55789533D01*
X61303167Y-55783666D01*
X61274126Y-55673121D01*
X61239610Y-55582575D01*
X61198456Y-55509953D01*
X61149499Y-55453181D01*
X61091574Y-55410184D01*
X61059620Y-55394615D01*
X60986784Y-55375722D01*
X60905443Y-55372465D01*
X60820319Y-55384389D01*
X60736133Y-55411040D01*
X60657608Y-55451962D01*
X60590200Y-55495530D01*
X60590200Y-56645721D01*
X59786678Y-56645721D01*
X59786844Y-56625692D01*
X59787491Y-56503620D01*
X59787936Y-56365576D01*
X59788218Y-56210459D01*
X59788375Y-56037168D01*
X59788448Y-55844603D01*
X59788474Y-55631662D01*
X59788493Y-55397245D01*
X59788689Y-53712378D01*
X60694017Y-53712378D01*
X60669585Y-53749067D01*
X60663318Y-53758647D01*
X60637208Y-53804981D01*
X60619469Y-53852102D01*
X60607908Y-53907251D01*
X60600331Y-53977667D01*
X60599839Y-53984650D01*
X60598062Y-54022641D01*
X60596444Y-54076576D01*
X60594999Y-54143703D01*
X60593740Y-54221271D01*
X60592680Y-54306528D01*
X60591829Y-54396724D01*
X60591203Y-54489107D01*
X60590812Y-54580925D01*
X60590670Y-54669427D01*
X60590790Y-54751862D01*
X60591183Y-54825479D01*
X60591862Y-54887526D01*
X60592841Y-54935251D01*
X60594132Y-54965904D01*
X60595747Y-54976733D01*
X60603957Y-54972333D01*
X60625647Y-54957362D01*
X60655014Y-54935448D01*
X60703879Y-54901236D01*
X60792125Y-54854714D01*
X60890916Y-54821046D01*
X61003510Y-54799231D01*
X61133164Y-54788265D01*
X61225670Y-54787219D01*
X61347011Y-54797014D01*
X61457099Y-54821174D01*
X61560389Y-54860785D01*
X61661338Y-54916932D01*
X61706503Y-54947883D01*
X61811911Y-55039115D01*
X61903538Y-55148106D01*
X61981332Y-55274726D01*
X62045241Y-55418845D01*
X62095214Y-55580332D01*
X62131198Y-55759059D01*
X62153143Y-55954895D01*
X62158900Y-56110934D01*
X62160994Y-56167711D01*
X62160268Y-56245158D01*
G36*
X62264702Y-58203478D02*
G01*
X62282663Y-58221989D01*
X62303263Y-58253071D01*
X62328095Y-58298756D01*
X62358750Y-58361078D01*
X62396820Y-58442071D01*
X62411454Y-58473454D01*
X62441203Y-58536638D01*
X62467297Y-58591244D01*
X62488292Y-58634290D01*
X62502739Y-58662793D01*
X62509191Y-58673770D01*
X62510550Y-58673189D01*
X62520542Y-58659242D01*
X62537833Y-58629704D01*
X62560430Y-58588087D01*
X62586338Y-58537903D01*
X62602311Y-58506414D01*
X62631261Y-58451061D01*
X62653749Y-58412044D01*
X62671965Y-58386566D01*
X62688096Y-58371831D01*
X62704330Y-58365042D01*
X62722857Y-58363400D01*
X62733360Y-58363875D01*
X62749476Y-58368082D01*
X62764790Y-58378946D01*
X62781388Y-58399219D01*
X62801357Y-58431654D01*
X62826783Y-58479004D01*
X62859752Y-58544022D01*
X62869485Y-58563277D01*
X62893943Y-58609946D01*
X62914178Y-58646109D01*
X62928311Y-58668497D01*
X62934460Y-58673845D01*
X62935827Y-58670573D01*
X62945202Y-58649664D01*
X62962062Y-58612725D01*
X62984979Y-58562874D01*
X63012520Y-58503226D01*
X63043255Y-58436898D01*
X63069970Y-58379677D01*
X63099593Y-58317688D01*
X63122664Y-58271949D01*
X63140643Y-58239908D01*
X63154990Y-58219014D01*
X63167166Y-58206718D01*
X63178632Y-58200466D01*
X63188042Y-58197574D01*
X63213147Y-58197425D01*
X63240290Y-58212768D01*
X63241590Y-58213753D01*
X63263674Y-58236388D01*
X63274723Y-58258613D01*
X63274769Y-58259253D01*
X63270228Y-58276915D01*
X63257364Y-58311481D01*
X63237605Y-58359826D01*
X63212381Y-58418825D01*
X63183119Y-58485355D01*
X63151250Y-58556291D01*
X63118201Y-58628507D01*
X63085401Y-58698880D01*
X63054280Y-58764285D01*
X63026265Y-58821597D01*
X63002786Y-58867692D01*
X62985272Y-58899446D01*
X62975151Y-58913733D01*
X62940743Y-58927102D01*
X62899046Y-58920741D01*
X62893681Y-58916044D01*
X62877852Y-58893893D01*
X62855650Y-58857132D01*
X62829233Y-58809415D01*
X62800760Y-58754393D01*
X62720986Y-58595150D01*
X62647799Y-58741742D01*
X62638103Y-58761032D01*
X62611125Y-58813380D01*
X62587096Y-58858170D01*
X62568332Y-58891154D01*
X62557146Y-58908089D01*
X62556000Y-58909332D01*
X62527879Y-58924619D01*
X62492817Y-58926302D01*
X62461776Y-58913733D01*
X62459350Y-58910884D01*
X62447090Y-58890259D01*
X62427352Y-58852708D01*
X62401448Y-58800880D01*
X62370685Y-58737423D01*
X62336375Y-58664985D01*
X62299825Y-58586216D01*
X62279585Y-58542093D01*
X62242812Y-58461365D01*
X62214355Y-58397687D01*
X62193331Y-58348752D01*
X62178854Y-58312257D01*
X62170039Y-58285895D01*
X62166004Y-58267361D01*
X62165862Y-58254352D01*
X62168730Y-58244561D01*
X62183387Y-58223678D01*
X62209990Y-58203377D01*
X62210745Y-58203035D01*
X62230335Y-58196034D01*
X62247790Y-58195504D01*
X62264702Y-58203478D01*
G37*
X62264702Y-58203478D02*
X62282663Y-58221989D01*
X62303263Y-58253071D01*
X62328095Y-58298756D01*
X62358750Y-58361078D01*
X62396820Y-58442071D01*
X62411454Y-58473454D01*
X62441203Y-58536638D01*
X62467297Y-58591244D01*
X62488292Y-58634290D01*
X62502739Y-58662793D01*
X62509191Y-58673770D01*
X62510550Y-58673189D01*
X62520542Y-58659242D01*
X62537833Y-58629704D01*
X62560430Y-58588087D01*
X62586338Y-58537903D01*
X62602311Y-58506414D01*
X62631261Y-58451061D01*
X62653749Y-58412044D01*
X62671965Y-58386566D01*
X62688096Y-58371831D01*
X62704330Y-58365042D01*
X62722857Y-58363400D01*
X62733360Y-58363875D01*
X62749476Y-58368082D01*
X62764790Y-58378946D01*
X62781388Y-58399219D01*
X62801357Y-58431654D01*
X62826783Y-58479004D01*
X62859752Y-58544022D01*
X62869485Y-58563277D01*
X62893943Y-58609946D01*
X62914178Y-58646109D01*
X62928311Y-58668497D01*
X62934460Y-58673845D01*
X62935827Y-58670573D01*
X62945202Y-58649664D01*
X62962062Y-58612725D01*
X62984979Y-58562874D01*
X63012520Y-58503226D01*
X63043255Y-58436898D01*
X63069970Y-58379677D01*
X63099593Y-58317688D01*
X63122664Y-58271949D01*
X63140643Y-58239908D01*
X63154990Y-58219014D01*
X63167166Y-58206718D01*
X63178632Y-58200466D01*
X63188042Y-58197574D01*
X63213147Y-58197425D01*
X63240290Y-58212768D01*
X63241590Y-58213753D01*
X63263674Y-58236388D01*
X63274723Y-58258613D01*
X63274769Y-58259253D01*
X63270228Y-58276915D01*
X63257364Y-58311481D01*
X63237605Y-58359826D01*
X63212381Y-58418825D01*
X63183119Y-58485355D01*
X63151250Y-58556291D01*
X63118201Y-58628507D01*
X63085401Y-58698880D01*
X63054280Y-58764285D01*
X63026265Y-58821597D01*
X63002786Y-58867692D01*
X62985272Y-58899446D01*
X62975151Y-58913733D01*
X62940743Y-58927102D01*
X62899046Y-58920741D01*
X62893681Y-58916044D01*
X62877852Y-58893893D01*
X62855650Y-58857132D01*
X62829233Y-58809415D01*
X62800760Y-58754393D01*
X62720986Y-58595150D01*
X62647799Y-58741742D01*
X62638103Y-58761032D01*
X62611125Y-58813380D01*
X62587096Y-58858170D01*
X62568332Y-58891154D01*
X62557146Y-58908089D01*
X62556000Y-58909332D01*
X62527879Y-58924619D01*
X62492817Y-58926302D01*
X62461776Y-58913733D01*
X62459350Y-58910884D01*
X62447090Y-58890259D01*
X62427352Y-58852708D01*
X62401448Y-58800880D01*
X62370685Y-58737423D01*
X62336375Y-58664985D01*
X62299825Y-58586216D01*
X62279585Y-58542093D01*
X62242812Y-58461365D01*
X62214355Y-58397687D01*
X62193331Y-58348752D01*
X62178854Y-58312257D01*
X62170039Y-58285895D01*
X62166004Y-58267361D01*
X62165862Y-58254352D01*
X62168730Y-58244561D01*
X62183387Y-58223678D01*
X62209990Y-58203377D01*
X62210745Y-58203035D01*
X62230335Y-58196034D01*
X62247790Y-58195504D01*
X62264702Y-58203478D01*
G36*
X64702261Y-56602363D02*
G01*
X64698632Y-56677202D01*
X64691022Y-56739401D01*
X64678688Y-56795984D01*
X64634313Y-56922076D01*
X64571400Y-57036679D01*
X64491238Y-57137568D01*
X64394740Y-57223924D01*
X64282822Y-57294932D01*
X64156397Y-57349776D01*
X64016378Y-57387638D01*
X63980149Y-57393351D01*
X63901155Y-57399313D01*
X63812841Y-57399646D01*
X63723075Y-57394659D01*
X63639722Y-57384666D01*
X63570651Y-57369978D01*
X63484187Y-57339749D01*
X63374286Y-57285057D01*
X63276956Y-57217543D01*
X63214867Y-57166556D01*
X63211605Y-57262622D01*
X63208343Y-57358689D01*
X62785450Y-57358689D01*
X62774543Y-57358686D01*
X62680056Y-57358380D01*
X62593331Y-57357616D01*
X62516837Y-57356451D01*
X62453043Y-57354942D01*
X62404418Y-57353147D01*
X62373433Y-57351121D01*
X62362556Y-57348922D01*
X62362578Y-57348463D01*
X62369614Y-57332910D01*
X62385434Y-57310071D01*
X62389734Y-57304638D01*
X62400777Y-57290606D01*
X62410311Y-57277186D01*
X62418461Y-57262722D01*
X62425352Y-57245556D01*
X62431111Y-57224034D01*
X62435862Y-57196498D01*
X62439731Y-57161292D01*
X62442844Y-57116760D01*
X62445325Y-57061246D01*
X62447300Y-56993093D01*
X62448894Y-56910645D01*
X62450234Y-56812246D01*
X62451444Y-56696239D01*
X62451896Y-56645462D01*
X63254378Y-56645462D01*
X63299048Y-56701973D01*
X63311785Y-56717212D01*
X63358604Y-56759844D01*
X63419255Y-56795672D01*
X63429897Y-56800850D01*
X63468676Y-56817745D01*
X63503692Y-56827909D01*
X63543722Y-56833325D01*
X63597541Y-56835978D01*
X63615648Y-56836383D01*
X63691011Y-56833540D01*
X63751743Y-56821620D01*
X63803452Y-56799037D01*
X63851746Y-56764211D01*
X63856803Y-56759798D01*
X63905272Y-56704160D01*
X63933459Y-56640333D01*
X63942752Y-56565282D01*
X63935520Y-56493693D01*
X63910796Y-56430645D01*
X63866249Y-56372758D01*
X63811319Y-56325808D01*
X63738894Y-56285961D01*
X63652340Y-56258263D01*
X63549670Y-56242096D01*
X63428894Y-56236842D01*
X63420007Y-56236857D01*
X63364660Y-56237655D01*
X63317736Y-56239488D01*
X63283953Y-56242111D01*
X63268028Y-56245274D01*
X63263943Y-56251741D01*
X63259572Y-56273875D01*
X63256604Y-56312988D01*
X63254914Y-56370939D01*
X63254378Y-56449586D01*
X63254378Y-56645462D01*
X62451896Y-56645462D01*
X62452649Y-56560968D01*
X62453975Y-56404778D01*
X62455228Y-56262012D01*
X62456651Y-56116942D01*
X62458176Y-55991027D01*
X62459933Y-55882436D01*
X62462051Y-55789334D01*
X62464660Y-55709891D01*
X62467890Y-55642273D01*
X62471869Y-55584649D01*
X62476728Y-55535185D01*
X62482597Y-55492050D01*
X62489604Y-55453410D01*
X62497880Y-55417434D01*
X62507554Y-55382289D01*
X62518756Y-55346142D01*
X62531616Y-55307161D01*
X62547090Y-55264091D01*
X62589994Y-55171871D01*
X62643735Y-55092099D01*
X62712576Y-55017965D01*
X62790185Y-54954405D01*
X62894761Y-54892725D01*
X63014244Y-54845202D01*
X63149508Y-54811567D01*
X63301426Y-54791552D01*
X63470872Y-54784889D01*
X63528890Y-54785287D01*
X63594398Y-54787335D01*
X63655693Y-54791704D01*
X63717097Y-54799035D01*
X63782932Y-54809969D01*
X63857520Y-54825147D01*
X63945184Y-54845209D01*
X64050245Y-54870797D01*
X64078806Y-54877820D01*
X64154054Y-54895776D01*
X64224388Y-54911820D01*
X64285567Y-54925028D01*
X64333354Y-54934474D01*
X64363511Y-54939231D01*
X64391783Y-54942910D01*
X64418060Y-54948187D01*
X64428059Y-54952942D01*
X64424952Y-54961781D01*
X64414194Y-54989072D01*
X64396864Y-55031906D01*
X64374126Y-55087425D01*
X64347147Y-55152772D01*
X64317090Y-55225089D01*
X64310493Y-55240879D01*
X64271907Y-55331484D01*
X64240768Y-55401217D01*
X64216917Y-55450405D01*
X64200198Y-55479374D01*
X64190454Y-55488452D01*
X64182766Y-55486405D01*
X64156415Y-55476760D01*
X64117982Y-55461190D01*
X64072822Y-55441815D01*
X63978293Y-55403814D01*
X63841480Y-55362780D01*
X63700289Y-55337612D01*
X63662314Y-55333611D01*
X63559059Y-55331447D01*
X63471952Y-55344622D01*
X63400129Y-55373756D01*
X63342731Y-55419466D01*
X63298896Y-55482372D01*
X63267762Y-55563092D01*
X63248470Y-55662245D01*
X63241050Y-55721224D01*
X63402936Y-55714445D01*
X63529495Y-55712813D01*
X63680951Y-55719194D01*
X63829396Y-55733777D01*
X63965578Y-55755882D01*
X64030245Y-55770821D01*
X64162490Y-55813741D01*
X64284762Y-55870340D01*
X64394685Y-55939017D01*
X64489883Y-56018170D01*
X64567980Y-56106196D01*
X64626599Y-56201493D01*
X64650595Y-56253864D01*
X64676232Y-56324590D01*
X64692478Y-56395812D01*
X64700822Y-56474712D01*
X64702690Y-56565282D01*
X64702755Y-56568467D01*
X64702261Y-56602363D01*
G37*
X64702261Y-56602363D02*
X64698632Y-56677202D01*
X64691022Y-56739401D01*
X64678688Y-56795984D01*
X64634313Y-56922076D01*
X64571400Y-57036679D01*
X64491238Y-57137568D01*
X64394740Y-57223924D01*
X64282822Y-57294932D01*
X64156397Y-57349776D01*
X64016378Y-57387638D01*
X63980149Y-57393351D01*
X63901155Y-57399313D01*
X63812841Y-57399646D01*
X63723075Y-57394659D01*
X63639722Y-57384666D01*
X63570651Y-57369978D01*
X63484187Y-57339749D01*
X63374286Y-57285057D01*
X63276956Y-57217543D01*
X63214867Y-57166556D01*
X63211605Y-57262622D01*
X63208343Y-57358689D01*
X62785450Y-57358689D01*
X62774543Y-57358686D01*
X62680056Y-57358380D01*
X62593331Y-57357616D01*
X62516837Y-57356451D01*
X62453043Y-57354942D01*
X62404418Y-57353147D01*
X62373433Y-57351121D01*
X62362556Y-57348922D01*
X62362578Y-57348463D01*
X62369614Y-57332910D01*
X62385434Y-57310071D01*
X62389734Y-57304638D01*
X62400777Y-57290606D01*
X62410311Y-57277186D01*
X62418461Y-57262722D01*
X62425352Y-57245556D01*
X62431111Y-57224034D01*
X62435862Y-57196498D01*
X62439731Y-57161292D01*
X62442844Y-57116760D01*
X62445325Y-57061246D01*
X62447300Y-56993093D01*
X62448894Y-56910645D01*
X62450234Y-56812246D01*
X62451444Y-56696239D01*
X62451896Y-56645462D01*
X63254378Y-56645462D01*
X63299048Y-56701973D01*
X63311785Y-56717212D01*
X63358604Y-56759844D01*
X63419255Y-56795672D01*
X63429897Y-56800850D01*
X63468676Y-56817745D01*
X63503692Y-56827909D01*
X63543722Y-56833325D01*
X63597541Y-56835978D01*
X63615648Y-56836383D01*
X63691011Y-56833540D01*
X63751743Y-56821620D01*
X63803452Y-56799037D01*
X63851746Y-56764211D01*
X63856803Y-56759798D01*
X63905272Y-56704160D01*
X63933459Y-56640333D01*
X63942752Y-56565282D01*
X63935520Y-56493693D01*
X63910796Y-56430645D01*
X63866249Y-56372758D01*
X63811319Y-56325808D01*
X63738894Y-56285961D01*
X63652340Y-56258263D01*
X63549670Y-56242096D01*
X63428894Y-56236842D01*
X63420007Y-56236857D01*
X63364660Y-56237655D01*
X63317736Y-56239488D01*
X63283953Y-56242111D01*
X63268028Y-56245274D01*
X63263943Y-56251741D01*
X63259572Y-56273875D01*
X63256604Y-56312988D01*
X63254914Y-56370939D01*
X63254378Y-56449586D01*
X63254378Y-56645462D01*
X62451896Y-56645462D01*
X62452649Y-56560968D01*
X62453975Y-56404778D01*
X62455228Y-56262012D01*
X62456651Y-56116942D01*
X62458176Y-55991027D01*
X62459933Y-55882436D01*
X62462051Y-55789334D01*
X62464660Y-55709891D01*
X62467890Y-55642273D01*
X62471869Y-55584649D01*
X62476728Y-55535185D01*
X62482597Y-55492050D01*
X62489604Y-55453410D01*
X62497880Y-55417434D01*
X62507554Y-55382289D01*
X62518756Y-55346142D01*
X62531616Y-55307161D01*
X62547090Y-55264091D01*
X62589994Y-55171871D01*
X62643735Y-55092099D01*
X62712576Y-55017965D01*
X62790185Y-54954405D01*
X62894761Y-54892725D01*
X63014244Y-54845202D01*
X63149508Y-54811567D01*
X63301426Y-54791552D01*
X63470872Y-54784889D01*
X63528890Y-54785287D01*
X63594398Y-54787335D01*
X63655693Y-54791704D01*
X63717097Y-54799035D01*
X63782932Y-54809969D01*
X63857520Y-54825147D01*
X63945184Y-54845209D01*
X64050245Y-54870797D01*
X64078806Y-54877820D01*
X64154054Y-54895776D01*
X64224388Y-54911820D01*
X64285567Y-54925028D01*
X64333354Y-54934474D01*
X64363511Y-54939231D01*
X64391783Y-54942910D01*
X64418060Y-54948187D01*
X64428059Y-54952942D01*
X64424952Y-54961781D01*
X64414194Y-54989072D01*
X64396864Y-55031906D01*
X64374126Y-55087425D01*
X64347147Y-55152772D01*
X64317090Y-55225089D01*
X64310493Y-55240879D01*
X64271907Y-55331484D01*
X64240768Y-55401217D01*
X64216917Y-55450405D01*
X64200198Y-55479374D01*
X64190454Y-55488452D01*
X64182766Y-55486405D01*
X64156415Y-55476760D01*
X64117982Y-55461190D01*
X64072822Y-55441815D01*
X63978293Y-55403814D01*
X63841480Y-55362780D01*
X63700289Y-55337612D01*
X63662314Y-55333611D01*
X63559059Y-55331447D01*
X63471952Y-55344622D01*
X63400129Y-55373756D01*
X63342731Y-55419466D01*
X63298896Y-55482372D01*
X63267762Y-55563092D01*
X63248470Y-55662245D01*
X63241050Y-55721224D01*
X63402936Y-55714445D01*
X63529495Y-55712813D01*
X63680951Y-55719194D01*
X63829396Y-55733777D01*
X63965578Y-55755882D01*
X64030245Y-55770821D01*
X64162490Y-55813741D01*
X64284762Y-55870340D01*
X64394685Y-55939017D01*
X64489883Y-56018170D01*
X64567980Y-56106196D01*
X64626599Y-56201493D01*
X64650595Y-56253864D01*
X64676232Y-56324590D01*
X64692478Y-56395812D01*
X64700822Y-56474712D01*
X64702690Y-56565282D01*
X64702755Y-56568467D01*
X64702261Y-56602363D01*
G36*
X72251059Y-54168011D02*
G01*
X72251362Y-54315216D01*
X72251548Y-54479349D01*
X72251642Y-54661352D01*
X72251671Y-54862165D01*
X72251661Y-55082732D01*
X72251636Y-55323992D01*
X72251622Y-55586889D01*
X72251622Y-55629040D01*
X72251646Y-55889668D01*
X72251685Y-56128796D01*
X72251708Y-56347360D01*
X72251687Y-56546295D01*
X72251593Y-56726535D01*
X72251395Y-56889015D01*
X72251063Y-57034670D01*
X72250569Y-57164434D01*
X72249883Y-57279243D01*
X72248976Y-57380030D01*
X72247817Y-57467730D01*
X72246378Y-57543279D01*
X72244629Y-57607611D01*
X72242540Y-57661661D01*
X72240083Y-57706363D01*
X72237227Y-57742652D01*
X72233943Y-57771463D01*
X72230202Y-57793731D01*
X72225974Y-57810390D01*
X72221229Y-57822375D01*
X72215939Y-57830621D01*
X72210073Y-57836062D01*
X72203602Y-57839634D01*
X72196497Y-57842270D01*
X72188728Y-57844906D01*
X72180266Y-57848477D01*
X72175908Y-57850145D01*
X72167395Y-57852111D01*
X72154694Y-57853911D01*
X72136885Y-57855555D01*
X72113049Y-57857047D01*
X72082266Y-57858397D01*
X72043617Y-57859611D01*
X71996182Y-57860697D01*
X71939043Y-57861661D01*
X71871279Y-57862511D01*
X71791971Y-57863253D01*
X71700199Y-57863897D01*
X71595044Y-57864447D01*
X71475587Y-57864913D01*
X71340908Y-57865300D01*
X71190088Y-57865616D01*
X71022206Y-57865869D01*
X70836345Y-57866066D01*
X70631583Y-57866213D01*
X70407002Y-57866318D01*
X70161682Y-57866389D01*
X69894704Y-57866432D01*
X69856321Y-57866437D01*
X69590922Y-57866480D01*
X69347050Y-57866525D01*
X69123783Y-57866548D01*
X68920196Y-57866524D01*
X68735367Y-57866430D01*
X68568373Y-57866243D01*
X68418290Y-57865939D01*
X68284196Y-57865494D01*
X68165166Y-57864885D01*
X68060279Y-57864089D01*
X67968610Y-57863080D01*
X67889237Y-57861837D01*
X67821237Y-57860335D01*
X67763686Y-57858551D01*
X67715662Y-57856461D01*
X67676240Y-57854042D01*
X67644499Y-57851270D01*
X67619514Y-57848121D01*
X67600364Y-57844572D01*
X67586123Y-57840598D01*
X67575871Y-57836178D01*
X67568682Y-57831286D01*
X67563635Y-57825900D01*
X67559805Y-57819996D01*
X67556271Y-57813549D01*
X67552108Y-57806537D01*
X67551025Y-57804687D01*
X67548813Y-57799180D01*
X67546786Y-57790868D01*
X67544938Y-57778809D01*
X67543261Y-57762063D01*
X67541745Y-57739687D01*
X67540383Y-57710740D01*
X67539167Y-57674280D01*
X67538089Y-57629367D01*
X67537140Y-57575057D01*
X67536312Y-57510410D01*
X67535597Y-57434484D01*
X67534987Y-57346338D01*
X67534942Y-57337493D01*
X67826378Y-57337493D01*
X67830260Y-57338765D01*
X67853520Y-57340791D01*
X67895874Y-57342626D01*
X67955132Y-57344227D01*
X68029107Y-57345549D01*
X68115610Y-57346548D01*
X68212452Y-57347180D01*
X68317445Y-57347400D01*
X69015651Y-57347400D01*
X70170090Y-57347400D01*
X70169456Y-57271200D01*
X70170574Y-57229160D01*
X70176304Y-57193334D01*
X70188890Y-57155772D01*
X70210568Y-57107577D01*
X70213789Y-57100897D01*
X70239188Y-57051359D01*
X70265996Y-57003369D01*
X70288917Y-56966466D01*
X70293485Y-56959834D01*
X70315516Y-56928593D01*
X70347693Y-56883654D01*
X70388457Y-56827147D01*
X70436245Y-56761204D01*
X70489498Y-56687957D01*
X70546655Y-56609536D01*
X70606155Y-56528072D01*
X70666437Y-56445698D01*
X70725940Y-56364544D01*
X70783105Y-56286742D01*
X70836370Y-56214423D01*
X70884174Y-56149718D01*
X70924957Y-56094759D01*
X70957158Y-56051676D01*
X70979216Y-56022602D01*
X70989571Y-56009667D01*
X70994044Y-56005351D01*
X70998236Y-56003312D01*
X71001643Y-56005926D01*
X71004325Y-56014986D01*
X71006341Y-56032285D01*
X71007748Y-56059614D01*
X71008605Y-56098765D01*
X71008970Y-56151533D01*
X71008903Y-56219707D01*
X71008460Y-56305082D01*
X71007702Y-56409449D01*
X71006685Y-56534600D01*
X71006308Y-56579300D01*
X71005169Y-56700395D01*
X71003972Y-56801688D01*
X71002636Y-56885262D01*
X71001077Y-56953204D01*
X70999215Y-57007599D01*
X70996966Y-57050532D01*
X70994248Y-57084089D01*
X70990979Y-57110355D01*
X70987078Y-57131416D01*
X70982461Y-57149357D01*
X70974192Y-57175770D01*
X70950583Y-57237772D01*
X70924685Y-57290573D01*
X70899535Y-57327645D01*
X70898339Y-57329075D01*
X70896168Y-57333424D01*
X70898328Y-57337026D01*
X70906644Y-57339951D01*
X70922940Y-57342269D01*
X70949041Y-57344051D01*
X70986771Y-57345367D01*
X71037956Y-57346286D01*
X71104420Y-57346878D01*
X71187987Y-57347215D01*
X71290483Y-57347365D01*
X71413732Y-57347400D01*
X71945296Y-57347400D01*
X71906523Y-57289783D01*
X71900432Y-57280893D01*
X71889976Y-57266069D01*
X71880579Y-57252422D01*
X71872183Y-57238765D01*
X71864733Y-57223911D01*
X71858173Y-57206670D01*
X71852446Y-57185855D01*
X71847495Y-57160280D01*
X71843266Y-57128755D01*
X71839701Y-57090093D01*
X71836744Y-57043107D01*
X71834340Y-56986608D01*
X71832431Y-56919409D01*
X71830962Y-56840322D01*
X71829876Y-56748160D01*
X71829118Y-56641734D01*
X71828630Y-56519857D01*
X71828358Y-56381341D01*
X71828243Y-56224999D01*
X71828231Y-56049642D01*
X71828265Y-55854082D01*
X71828289Y-55637133D01*
X71828280Y-55514513D01*
X71828243Y-55309447D01*
X71828227Y-55125116D01*
X71828288Y-54960334D01*
X71828484Y-54813916D01*
X71828870Y-54684674D01*
X71829505Y-54571422D01*
X71830444Y-54472975D01*
X71831745Y-54388144D01*
X71833464Y-54315744D01*
X71835659Y-54254589D01*
X71838385Y-54203492D01*
X71841701Y-54161267D01*
X71845662Y-54126727D01*
X71850325Y-54098686D01*
X71855747Y-54075958D01*
X71861986Y-54057356D01*
X71869097Y-54041693D01*
X71877138Y-54027784D01*
X71886166Y-54014441D01*
X71896236Y-54000479D01*
X71907407Y-53984711D01*
X71947197Y-53926867D01*
X70887314Y-53926867D01*
X70925311Y-53989966D01*
X70939993Y-54015005D01*
X70954531Y-54042586D01*
X70966627Y-54070700D01*
X70976532Y-54101551D01*
X70984494Y-54137344D01*
X70990761Y-54180283D01*
X70995582Y-54232574D01*
X70999206Y-54296419D01*
X71001881Y-54374025D01*
X71003857Y-54467594D01*
X71005382Y-54579333D01*
X71006704Y-54711445D01*
X71007613Y-54831434D01*
X71008020Y-54948063D01*
X71007767Y-55043531D01*
X71006857Y-55117556D01*
X71005293Y-55169855D01*
X71003079Y-55200149D01*
X71000220Y-55208156D01*
X70997161Y-55204858D01*
X70979006Y-55183408D01*
X70949275Y-55146889D01*
X70909639Y-55097442D01*
X70861771Y-55037207D01*
X70807343Y-54968327D01*
X70748027Y-54892943D01*
X70685495Y-54813196D01*
X70621421Y-54731228D01*
X70557475Y-54649180D01*
X70495331Y-54569194D01*
X70436661Y-54493411D01*
X70383137Y-54423973D01*
X70336430Y-54363021D01*
X70298214Y-54312696D01*
X70270161Y-54275140D01*
X70253943Y-54252495D01*
X70208635Y-54180212D01*
X70168661Y-54100463D01*
X70147130Y-54032188D01*
X70143827Y-53974844D01*
X70149116Y-53926867D01*
X69017356Y-53927117D01*
X69056867Y-53957722D01*
X69066248Y-53965089D01*
X69129183Y-54019438D01*
X69197997Y-54087259D01*
X69274596Y-54170516D01*
X69360888Y-54271178D01*
X69378052Y-54291847D01*
X69418833Y-54341409D01*
X69468588Y-54402326D01*
X69525955Y-54472898D01*
X69589569Y-54551424D01*
X69658069Y-54636204D01*
X69730090Y-54725537D01*
X69804270Y-54817722D01*
X69819517Y-54836702D01*
X69879246Y-54911060D01*
X69953653Y-55003848D01*
X70026131Y-55094388D01*
X70095314Y-55180978D01*
X70159841Y-55261918D01*
X70218347Y-55335506D01*
X70269470Y-55400044D01*
X70311847Y-55453829D01*
X70344115Y-55495162D01*
X70364910Y-55522342D01*
X70372869Y-55533668D01*
X70371111Y-55537771D01*
X70358230Y-55558334D01*
X70333885Y-55594561D01*
X70299247Y-55644824D01*
X70255486Y-55707492D01*
X70203775Y-55780936D01*
X70145284Y-55863527D01*
X70081184Y-55953636D01*
X70012646Y-56049631D01*
X69940843Y-56149885D01*
X69866944Y-56252768D01*
X69792121Y-56356650D01*
X69717545Y-56459901D01*
X69644387Y-56560892D01*
X69573819Y-56657994D01*
X69507011Y-56749577D01*
X69445135Y-56834011D01*
X69389361Y-56909667D01*
X69340862Y-56974916D01*
X69300807Y-57028128D01*
X69270369Y-57067673D01*
X69249944Y-57093026D01*
X69203899Y-57147295D01*
X69153612Y-57203775D01*
X69106815Y-57253669D01*
X69015651Y-57347400D01*
X68317445Y-57347400D01*
X68386356Y-57347349D01*
X68484607Y-57347091D01*
X68574030Y-57346637D01*
X68652333Y-57346010D01*
X68717223Y-57345235D01*
X68766411Y-57344335D01*
X68797604Y-57343334D01*
X68808511Y-57342257D01*
X68807322Y-57339037D01*
X68797176Y-57321452D01*
X68780040Y-57295158D01*
X68771540Y-57282691D01*
X68762329Y-57268622D01*
X68754233Y-57254351D01*
X68747185Y-57238479D01*
X68741117Y-57219609D01*
X68735961Y-57196341D01*
X68731651Y-57167278D01*
X68728119Y-57131021D01*
X68725297Y-57086170D01*
X68723118Y-57031328D01*
X68721514Y-56965097D01*
X68720419Y-56886077D01*
X68719765Y-56792871D01*
X68719484Y-56684079D01*
X68719509Y-56558303D01*
X68719772Y-56414145D01*
X68720206Y-56250207D01*
X68720745Y-56065089D01*
X68721279Y-55886232D01*
X68721805Y-55727374D01*
X68722350Y-55588316D01*
X68722945Y-55467665D01*
X68723619Y-55364028D01*
X68724403Y-55276011D01*
X68725326Y-55202223D01*
X68726419Y-55141269D01*
X68727712Y-55091757D01*
X68729235Y-55052293D01*
X68731019Y-55021484D01*
X68733092Y-54997938D01*
X68735486Y-54980260D01*
X68738230Y-54967059D01*
X68741356Y-54956940D01*
X68744892Y-54948511D01*
X68748791Y-54940375D01*
X68768438Y-54903544D01*
X68787225Y-54873391D01*
X68788272Y-54871908D01*
X68802602Y-54849659D01*
X68808511Y-54836702D01*
X68807504Y-54836249D01*
X68790305Y-54834803D01*
X68753656Y-54833480D01*
X68699962Y-54832316D01*
X68631630Y-54831347D01*
X68551064Y-54830611D01*
X68460670Y-54830142D01*
X68362853Y-54829978D01*
X67917195Y-54829978D01*
X67914120Y-56006845D01*
X67911045Y-57183711D01*
X67884407Y-57242622D01*
X67872485Y-57267183D01*
X67855246Y-57297434D01*
X67842074Y-57314560D01*
X67834076Y-57322591D01*
X67826378Y-57337493D01*
X67534942Y-57337493D01*
X67534474Y-57245029D01*
X67534050Y-57129617D01*
X67533706Y-56999160D01*
X67533434Y-56852716D01*
X67533227Y-56689344D01*
X67533076Y-56508101D01*
X67532972Y-56308048D01*
X67532908Y-56088241D01*
X67532876Y-55847739D01*
X67532867Y-55585602D01*
X67532867Y-53394031D01*
X67571249Y-53355649D01*
X67598355Y-53331911D01*
X67625253Y-53320111D01*
X67661560Y-53317267D01*
X67713489Y-53317267D01*
X67713489Y-53405206D01*
X67715427Y-53455102D01*
X67734199Y-53565523D01*
X67771217Y-53666987D01*
X67824369Y-53758152D01*
X67891546Y-53837673D01*
X67970638Y-53904205D01*
X68059534Y-53956406D01*
X68156125Y-53992930D01*
X68258300Y-54012434D01*
X68363950Y-54013573D01*
X68470964Y-53995005D01*
X68577232Y-53955384D01*
X68674219Y-53897516D01*
X68759293Y-53822684D01*
X68828015Y-53734615D01*
X68878918Y-53635616D01*
X68910535Y-53527993D01*
X68921400Y-53414054D01*
X68921400Y-53317267D01*
X70541753Y-53317267D01*
X70752897Y-53317280D01*
X70957020Y-53317330D01*
X71140686Y-53317430D01*
X71304991Y-53317592D01*
X71451029Y-53317829D01*
X71579894Y-53318153D01*
X71692683Y-53318575D01*
X71790488Y-53319109D01*
X71874404Y-53319767D01*
X71945527Y-53320561D01*
X72004950Y-53321504D01*
X72053768Y-53322608D01*
X72093077Y-53323884D01*
X72123969Y-53325347D01*
X72147541Y-53327007D01*
X72164886Y-53328878D01*
X72177099Y-53330972D01*
X72185275Y-53333300D01*
X72190508Y-53335876D01*
X72196504Y-53339445D01*
X72203279Y-53342978D01*
X72209478Y-53346488D01*
X72215126Y-53350918D01*
X72220247Y-53357208D01*
X72224869Y-53366301D01*
X72229015Y-53379139D01*
X72232713Y-53396662D01*
X72235987Y-53419813D01*
X72238863Y-53449534D01*
X72241367Y-53486765D01*
X72243524Y-53532449D01*
X72245360Y-53587527D01*
X72246900Y-53652941D01*
X72248170Y-53729633D01*
X72249195Y-53818544D01*
X72250001Y-53920617D01*
X72250034Y-53926867D01*
X72250614Y-54036792D01*
X72251059Y-54168011D01*
G37*
X72251059Y-54168011D02*
X72251362Y-54315216D01*
X72251548Y-54479349D01*
X72251642Y-54661352D01*
X72251671Y-54862165D01*
X72251661Y-55082732D01*
X72251636Y-55323992D01*
X72251622Y-55586889D01*
X72251622Y-55629040D01*
X72251646Y-55889668D01*
X72251685Y-56128796D01*
X72251708Y-56347360D01*
X72251687Y-56546295D01*
X72251593Y-56726535D01*
X72251395Y-56889015D01*
X72251063Y-57034670D01*
X72250569Y-57164434D01*
X72249883Y-57279243D01*
X72248976Y-57380030D01*
X72247817Y-57467730D01*
X72246378Y-57543279D01*
X72244629Y-57607611D01*
X72242540Y-57661661D01*
X72240083Y-57706363D01*
X72237227Y-57742652D01*
X72233943Y-57771463D01*
X72230202Y-57793731D01*
X72225974Y-57810390D01*
X72221229Y-57822375D01*
X72215939Y-57830621D01*
X72210073Y-57836062D01*
X72203602Y-57839634D01*
X72196497Y-57842270D01*
X72188728Y-57844906D01*
X72180266Y-57848477D01*
X72175908Y-57850145D01*
X72167395Y-57852111D01*
X72154694Y-57853911D01*
X72136885Y-57855555D01*
X72113049Y-57857047D01*
X72082266Y-57858397D01*
X72043617Y-57859611D01*
X71996182Y-57860697D01*
X71939043Y-57861661D01*
X71871279Y-57862511D01*
X71791971Y-57863253D01*
X71700199Y-57863897D01*
X71595044Y-57864447D01*
X71475587Y-57864913D01*
X71340908Y-57865300D01*
X71190088Y-57865616D01*
X71022206Y-57865869D01*
X70836345Y-57866066D01*
X70631583Y-57866213D01*
X70407002Y-57866318D01*
X70161682Y-57866389D01*
X69894704Y-57866432D01*
X69856321Y-57866437D01*
X69590922Y-57866480D01*
X69347050Y-57866525D01*
X69123783Y-57866548D01*
X68920196Y-57866524D01*
X68735367Y-57866430D01*
X68568373Y-57866243D01*
X68418290Y-57865939D01*
X68284196Y-57865494D01*
X68165166Y-57864885D01*
X68060279Y-57864089D01*
X67968610Y-57863080D01*
X67889237Y-57861837D01*
X67821237Y-57860335D01*
X67763686Y-57858551D01*
X67715662Y-57856461D01*
X67676240Y-57854042D01*
X67644499Y-57851270D01*
X67619514Y-57848121D01*
X67600364Y-57844572D01*
X67586123Y-57840598D01*
X67575871Y-57836178D01*
X67568682Y-57831286D01*
X67563635Y-57825900D01*
X67559805Y-57819996D01*
X67556271Y-57813549D01*
X67552108Y-57806537D01*
X67551025Y-57804687D01*
X67548813Y-57799180D01*
X67546786Y-57790868D01*
X67544938Y-57778809D01*
X67543261Y-57762063D01*
X67541745Y-57739687D01*
X67540383Y-57710740D01*
X67539167Y-57674280D01*
X67538089Y-57629367D01*
X67537140Y-57575057D01*
X67536312Y-57510410D01*
X67535597Y-57434484D01*
X67534987Y-57346338D01*
X67534942Y-57337493D01*
X67826378Y-57337493D01*
X67830260Y-57338765D01*
X67853520Y-57340791D01*
X67895874Y-57342626D01*
X67955132Y-57344227D01*
X68029107Y-57345549D01*
X68115610Y-57346548D01*
X68212452Y-57347180D01*
X68317445Y-57347400D01*
X69015651Y-57347400D01*
X70170090Y-57347400D01*
X70169456Y-57271200D01*
X70170574Y-57229160D01*
X70176304Y-57193334D01*
X70188890Y-57155772D01*
X70210568Y-57107577D01*
X70213789Y-57100897D01*
X70239188Y-57051359D01*
X70265996Y-57003369D01*
X70288917Y-56966466D01*
X70293485Y-56959834D01*
X70315516Y-56928593D01*
X70347693Y-56883654D01*
X70388457Y-56827147D01*
X70436245Y-56761204D01*
X70489498Y-56687957D01*
X70546655Y-56609536D01*
X70606155Y-56528072D01*
X70666437Y-56445698D01*
X70725940Y-56364544D01*
X70783105Y-56286742D01*
X70836370Y-56214423D01*
X70884174Y-56149718D01*
X70924957Y-56094759D01*
X70957158Y-56051676D01*
X70979216Y-56022602D01*
X70989571Y-56009667D01*
X70994044Y-56005351D01*
X70998236Y-56003312D01*
X71001643Y-56005926D01*
X71004325Y-56014986D01*
X71006341Y-56032285D01*
X71007748Y-56059614D01*
X71008605Y-56098765D01*
X71008970Y-56151533D01*
X71008903Y-56219707D01*
X71008460Y-56305082D01*
X71007702Y-56409449D01*
X71006685Y-56534600D01*
X71006308Y-56579300D01*
X71005169Y-56700395D01*
X71003972Y-56801688D01*
X71002636Y-56885262D01*
X71001077Y-56953204D01*
X70999215Y-57007599D01*
X70996966Y-57050532D01*
X70994248Y-57084089D01*
X70990979Y-57110355D01*
X70987078Y-57131416D01*
X70982461Y-57149357D01*
X70974192Y-57175770D01*
X70950583Y-57237772D01*
X70924685Y-57290573D01*
X70899535Y-57327645D01*
X70898339Y-57329075D01*
X70896168Y-57333424D01*
X70898328Y-57337026D01*
X70906644Y-57339951D01*
X70922940Y-57342269D01*
X70949041Y-57344051D01*
X70986771Y-57345367D01*
X71037956Y-57346286D01*
X71104420Y-57346878D01*
X71187987Y-57347215D01*
X71290483Y-57347365D01*
X71413732Y-57347400D01*
X71945296Y-57347400D01*
X71906523Y-57289783D01*
X71900432Y-57280893D01*
X71889976Y-57266069D01*
X71880579Y-57252422D01*
X71872183Y-57238765D01*
X71864733Y-57223911D01*
X71858173Y-57206670D01*
X71852446Y-57185855D01*
X71847495Y-57160280D01*
X71843266Y-57128755D01*
X71839701Y-57090093D01*
X71836744Y-57043107D01*
X71834340Y-56986608D01*
X71832431Y-56919409D01*
X71830962Y-56840322D01*
X71829876Y-56748160D01*
X71829118Y-56641734D01*
X71828630Y-56519857D01*
X71828358Y-56381341D01*
X71828243Y-56224999D01*
X71828231Y-56049642D01*
X71828265Y-55854082D01*
X71828289Y-55637133D01*
X71828280Y-55514513D01*
X71828243Y-55309447D01*
X71828227Y-55125116D01*
X71828288Y-54960334D01*
X71828484Y-54813916D01*
X71828870Y-54684674D01*
X71829505Y-54571422D01*
X71830444Y-54472975D01*
X71831745Y-54388144D01*
X71833464Y-54315744D01*
X71835659Y-54254589D01*
X71838385Y-54203492D01*
X71841701Y-54161267D01*
X71845662Y-54126727D01*
X71850325Y-54098686D01*
X71855747Y-54075958D01*
X71861986Y-54057356D01*
X71869097Y-54041693D01*
X71877138Y-54027784D01*
X71886166Y-54014441D01*
X71896236Y-54000479D01*
X71907407Y-53984711D01*
X71947197Y-53926867D01*
X70887314Y-53926867D01*
X70925311Y-53989966D01*
X70939993Y-54015005D01*
X70954531Y-54042586D01*
X70966627Y-54070700D01*
X70976532Y-54101551D01*
X70984494Y-54137344D01*
X70990761Y-54180283D01*
X70995582Y-54232574D01*
X70999206Y-54296419D01*
X71001881Y-54374025D01*
X71003857Y-54467594D01*
X71005382Y-54579333D01*
X71006704Y-54711445D01*
X71007613Y-54831434D01*
X71008020Y-54948063D01*
X71007767Y-55043531D01*
X71006857Y-55117556D01*
X71005293Y-55169855D01*
X71003079Y-55200149D01*
X71000220Y-55208156D01*
X70997161Y-55204858D01*
X70979006Y-55183408D01*
X70949275Y-55146889D01*
X70909639Y-55097442D01*
X70861771Y-55037207D01*
X70807343Y-54968327D01*
X70748027Y-54892943D01*
X70685495Y-54813196D01*
X70621421Y-54731228D01*
X70557475Y-54649180D01*
X70495331Y-54569194D01*
X70436661Y-54493411D01*
X70383137Y-54423973D01*
X70336430Y-54363021D01*
X70298214Y-54312696D01*
X70270161Y-54275140D01*
X70253943Y-54252495D01*
X70208635Y-54180212D01*
X70168661Y-54100463D01*
X70147130Y-54032188D01*
X70143827Y-53974844D01*
X70149116Y-53926867D01*
X69017356Y-53927117D01*
X69056867Y-53957722D01*
X69066248Y-53965089D01*
X69129183Y-54019438D01*
X69197997Y-54087259D01*
X69274596Y-54170516D01*
X69360888Y-54271178D01*
X69378052Y-54291847D01*
X69418833Y-54341409D01*
X69468588Y-54402326D01*
X69525955Y-54472898D01*
X69589569Y-54551424D01*
X69658069Y-54636204D01*
X69730090Y-54725537D01*
X69804270Y-54817722D01*
X69819517Y-54836702D01*
X69879246Y-54911060D01*
X69953653Y-55003848D01*
X70026131Y-55094388D01*
X70095314Y-55180978D01*
X70159841Y-55261918D01*
X70218347Y-55335506D01*
X70269470Y-55400044D01*
X70311847Y-55453829D01*
X70344115Y-55495162D01*
X70364910Y-55522342D01*
X70372869Y-55533668D01*
X70371111Y-55537771D01*
X70358230Y-55558334D01*
X70333885Y-55594561D01*
X70299247Y-55644824D01*
X70255486Y-55707492D01*
X70203775Y-55780936D01*
X70145284Y-55863527D01*
X70081184Y-55953636D01*
X70012646Y-56049631D01*
X69940843Y-56149885D01*
X69866944Y-56252768D01*
X69792121Y-56356650D01*
X69717545Y-56459901D01*
X69644387Y-56560892D01*
X69573819Y-56657994D01*
X69507011Y-56749577D01*
X69445135Y-56834011D01*
X69389361Y-56909667D01*
X69340862Y-56974916D01*
X69300807Y-57028128D01*
X69270369Y-57067673D01*
X69249944Y-57093026D01*
X69203899Y-57147295D01*
X69153612Y-57203775D01*
X69106815Y-57253669D01*
X69015651Y-57347400D01*
X68317445Y-57347400D01*
X68386356Y-57347349D01*
X68484607Y-57347091D01*
X68574030Y-57346637D01*
X68652333Y-57346010D01*
X68717223Y-57345235D01*
X68766411Y-57344335D01*
X68797604Y-57343334D01*
X68808511Y-57342257D01*
X68807322Y-57339037D01*
X68797176Y-57321452D01*
X68780040Y-57295158D01*
X68771540Y-57282691D01*
X68762329Y-57268622D01*
X68754233Y-57254351D01*
X68747185Y-57238479D01*
X68741117Y-57219609D01*
X68735961Y-57196341D01*
X68731651Y-57167278D01*
X68728119Y-57131021D01*
X68725297Y-57086170D01*
X68723118Y-57031328D01*
X68721514Y-56965097D01*
X68720419Y-56886077D01*
X68719765Y-56792871D01*
X68719484Y-56684079D01*
X68719509Y-56558303D01*
X68719772Y-56414145D01*
X68720206Y-56250207D01*
X68720745Y-56065089D01*
X68721279Y-55886232D01*
X68721805Y-55727374D01*
X68722350Y-55588316D01*
X68722945Y-55467665D01*
X68723619Y-55364028D01*
X68724403Y-55276011D01*
X68725326Y-55202223D01*
X68726419Y-55141269D01*
X68727712Y-55091757D01*
X68729235Y-55052293D01*
X68731019Y-55021484D01*
X68733092Y-54997938D01*
X68735486Y-54980260D01*
X68738230Y-54967059D01*
X68741356Y-54956940D01*
X68744892Y-54948511D01*
X68748791Y-54940375D01*
X68768438Y-54903544D01*
X68787225Y-54873391D01*
X68788272Y-54871908D01*
X68802602Y-54849659D01*
X68808511Y-54836702D01*
X68807504Y-54836249D01*
X68790305Y-54834803D01*
X68753656Y-54833480D01*
X68699962Y-54832316D01*
X68631630Y-54831347D01*
X68551064Y-54830611D01*
X68460670Y-54830142D01*
X68362853Y-54829978D01*
X67917195Y-54829978D01*
X67914120Y-56006845D01*
X67911045Y-57183711D01*
X67884407Y-57242622D01*
X67872485Y-57267183D01*
X67855246Y-57297434D01*
X67842074Y-57314560D01*
X67834076Y-57322591D01*
X67826378Y-57337493D01*
X67534942Y-57337493D01*
X67534474Y-57245029D01*
X67534050Y-57129617D01*
X67533706Y-56999160D01*
X67533434Y-56852716D01*
X67533227Y-56689344D01*
X67533076Y-56508101D01*
X67532972Y-56308048D01*
X67532908Y-56088241D01*
X67532876Y-55847739D01*
X67532867Y-55585602D01*
X67532867Y-53394031D01*
X67571249Y-53355649D01*
X67598355Y-53331911D01*
X67625253Y-53320111D01*
X67661560Y-53317267D01*
X67713489Y-53317267D01*
X67713489Y-53405206D01*
X67715427Y-53455102D01*
X67734199Y-53565523D01*
X67771217Y-53666987D01*
X67824369Y-53758152D01*
X67891546Y-53837673D01*
X67970638Y-53904205D01*
X68059534Y-53956406D01*
X68156125Y-53992930D01*
X68258300Y-54012434D01*
X68363950Y-54013573D01*
X68470964Y-53995005D01*
X68577232Y-53955384D01*
X68674219Y-53897516D01*
X68759293Y-53822684D01*
X68828015Y-53734615D01*
X68878918Y-53635616D01*
X68910535Y-53527993D01*
X68921400Y-53414054D01*
X68921400Y-53317267D01*
X70541753Y-53317267D01*
X70752897Y-53317280D01*
X70957020Y-53317330D01*
X71140686Y-53317430D01*
X71304991Y-53317592D01*
X71451029Y-53317829D01*
X71579894Y-53318153D01*
X71692683Y-53318575D01*
X71790488Y-53319109D01*
X71874404Y-53319767D01*
X71945527Y-53320561D01*
X72004950Y-53321504D01*
X72053768Y-53322608D01*
X72093077Y-53323884D01*
X72123969Y-53325347D01*
X72147541Y-53327007D01*
X72164886Y-53328878D01*
X72177099Y-53330972D01*
X72185275Y-53333300D01*
X72190508Y-53335876D01*
X72196504Y-53339445D01*
X72203279Y-53342978D01*
X72209478Y-53346488D01*
X72215126Y-53350918D01*
X72220247Y-53357208D01*
X72224869Y-53366301D01*
X72229015Y-53379139D01*
X72232713Y-53396662D01*
X72235987Y-53419813D01*
X72238863Y-53449534D01*
X72241367Y-53486765D01*
X72243524Y-53532449D01*
X72245360Y-53587527D01*
X72246900Y-53652941D01*
X72248170Y-53729633D01*
X72249195Y-53818544D01*
X72250001Y-53920617D01*
X72250034Y-53926867D01*
X72250614Y-54036792D01*
X72251059Y-54168011D01*
G36*
X61130767Y-58194068D02*
G01*
X61224890Y-58194158D01*
X61299405Y-58194498D01*
X61356811Y-58195239D01*
X61399611Y-58196535D01*
X61430304Y-58198537D01*
X61451391Y-58201396D01*
X61465373Y-58205266D01*
X61474750Y-58210298D01*
X61482022Y-58216645D01*
X61500828Y-58249362D01*
X61502275Y-58286939D01*
X61485917Y-58320178D01*
X61484557Y-58321631D01*
X61473354Y-58329992D01*
X61456252Y-58335547D01*
X61429082Y-58338840D01*
X61387678Y-58340418D01*
X61327873Y-58340822D01*
X61188511Y-58340822D01*
X61188511Y-58604589D01*
X61188436Y-58680417D01*
X61188028Y-58747083D01*
X61187046Y-58796867D01*
X61185250Y-58832784D01*
X61182399Y-58857850D01*
X61178253Y-58875081D01*
X61172571Y-58887492D01*
X61165114Y-58898100D01*
X61162824Y-58900906D01*
X61131646Y-58923548D01*
X61097266Y-58925112D01*
X61064334Y-58905267D01*
X61057355Y-58897191D01*
X61051883Y-58886593D01*
X61047863Y-58870749D01*
X61045072Y-58846773D01*
X61043288Y-58811774D01*
X61042289Y-58762864D01*
X61041852Y-58697154D01*
X61041756Y-58611756D01*
X61041756Y-58340822D01*
X60895820Y-58340822D01*
X60884720Y-58340821D01*
X60828202Y-58340596D01*
X60789358Y-58339457D01*
X60763965Y-58336657D01*
X60747804Y-58331450D01*
X60736652Y-58323089D01*
X60726289Y-58310826D01*
X60710441Y-58280138D01*
X60713543Y-58246358D01*
X60739187Y-58213822D01*
X60744129Y-58210105D01*
X60754338Y-58205269D01*
X60769764Y-58201506D01*
X60792886Y-58198683D01*
X60826183Y-58196670D01*
X60872137Y-58195333D01*
X60933228Y-58194542D01*
X61011935Y-58194163D01*
X61110740Y-58194067D01*
X61130767Y-58194068D01*
G37*
X61130767Y-58194068D02*
X61224890Y-58194158D01*
X61299405Y-58194498D01*
X61356811Y-58195239D01*
X61399611Y-58196535D01*
X61430304Y-58198537D01*
X61451391Y-58201396D01*
X61465373Y-58205266D01*
X61474750Y-58210298D01*
X61482022Y-58216645D01*
X61500828Y-58249362D01*
X61502275Y-58286939D01*
X61485917Y-58320178D01*
X61484557Y-58321631D01*
X61473354Y-58329992D01*
X61456252Y-58335547D01*
X61429082Y-58338840D01*
X61387678Y-58340418D01*
X61327873Y-58340822D01*
X61188511Y-58340822D01*
X61188511Y-58604589D01*
X61188436Y-58680417D01*
X61188028Y-58747083D01*
X61187046Y-58796867D01*
X61185250Y-58832784D01*
X61182399Y-58857850D01*
X61178253Y-58875081D01*
X61172571Y-58887492D01*
X61165114Y-58898100D01*
X61162824Y-58900906D01*
X61131646Y-58923548D01*
X61097266Y-58925112D01*
X61064334Y-58905267D01*
X61057355Y-58897191D01*
X61051883Y-58886593D01*
X61047863Y-58870749D01*
X61045072Y-58846773D01*
X61043288Y-58811774D01*
X61042289Y-58762864D01*
X61041852Y-58697154D01*
X61041756Y-58611756D01*
X61041756Y-58340822D01*
X60895820Y-58340822D01*
X60884720Y-58340821D01*
X60828202Y-58340596D01*
X60789358Y-58339457D01*
X60763965Y-58336657D01*
X60747804Y-58331450D01*
X60736652Y-58323089D01*
X60726289Y-58310826D01*
X60710441Y-58280138D01*
X60713543Y-58246358D01*
X60739187Y-58213822D01*
X60744129Y-58210105D01*
X60754338Y-58205269D01*
X60769764Y-58201506D01*
X60792886Y-58198683D01*
X60826183Y-58196670D01*
X60872137Y-58195333D01*
X60933228Y-58194542D01*
X61011935Y-58194163D01*
X61110740Y-58194067D01*
X61130767Y-58194068D01*
G36*
X68104150Y-58199179D02*
G01*
X68210157Y-58215494D01*
X68303969Y-58243545D01*
X68382765Y-58282452D01*
X68443719Y-58331334D01*
X68469789Y-58364195D01*
X68499297Y-58413394D01*
X68524568Y-58467252D01*
X68542218Y-58518419D01*
X68548858Y-58559544D01*
X68547298Y-58579259D01*
X68534357Y-58630592D01*
X68511194Y-58687118D01*
X68481302Y-58741035D01*
X68448173Y-58784539D01*
X68437977Y-58794887D01*
X68370892Y-58846662D01*
X68290766Y-58886554D01*
X68204556Y-58910956D01*
X68149592Y-58919068D01*
X68056139Y-58925673D01*
X67966358Y-58923586D01*
X67883869Y-58913340D01*
X67812286Y-58895470D01*
X67755228Y-58870508D01*
X67716311Y-58838988D01*
X67714936Y-58837012D01*
X67707848Y-58811786D01*
X67703609Y-58764535D01*
X67702200Y-58695071D01*
X67703060Y-58632838D01*
X67707780Y-58585456D01*
X67719470Y-58553353D01*
X67741239Y-58533800D01*
X67776198Y-58524070D01*
X67827456Y-58521433D01*
X67898123Y-58523161D01*
X67946743Y-58526173D01*
X67996939Y-58534366D01*
X68029433Y-58548419D01*
X68046892Y-58569654D01*
X68051983Y-58599394D01*
X68051877Y-58603936D01*
X68043175Y-58638730D01*
X68019165Y-58662147D01*
X67977900Y-58675347D01*
X67917431Y-58679489D01*
X67848956Y-58679489D01*
X67848956Y-58717841D01*
X67849006Y-58726976D01*
X67851227Y-58744227D01*
X67860494Y-58754521D01*
X67881875Y-58761459D01*
X67920436Y-58768641D01*
X67925910Y-58769575D01*
X68022860Y-58779478D01*
X68112852Y-58776559D01*
X68193760Y-58761829D01*
X68263459Y-58736299D01*
X68319824Y-58700978D01*
X68360729Y-58656879D01*
X68384051Y-58605012D01*
X68387663Y-58546388D01*
X68382145Y-58517494D01*
X68355461Y-58461604D01*
X68309273Y-58415945D01*
X68244291Y-58381108D01*
X68161229Y-58357690D01*
X68136555Y-58353241D01*
X68047226Y-58342742D01*
X67967419Y-58343971D01*
X67889326Y-58356906D01*
X67854183Y-58363696D01*
X67808745Y-58364713D01*
X67777430Y-58352182D01*
X67757277Y-58325395D01*
X67750893Y-58297148D01*
X67760379Y-58265924D01*
X67769708Y-58252499D01*
X67803943Y-58228967D01*
X67856565Y-58211095D01*
X67925081Y-58199599D01*
X68007000Y-58195192D01*
X68104150Y-58199179D01*
G37*
X68104150Y-58199179D02*
X68210157Y-58215494D01*
X68303969Y-58243545D01*
X68382765Y-58282452D01*
X68443719Y-58331334D01*
X68469789Y-58364195D01*
X68499297Y-58413394D01*
X68524568Y-58467252D01*
X68542218Y-58518419D01*
X68548858Y-58559544D01*
X68547298Y-58579259D01*
X68534357Y-58630592D01*
X68511194Y-58687118D01*
X68481302Y-58741035D01*
X68448173Y-58784539D01*
X68437977Y-58794887D01*
X68370892Y-58846662D01*
X68290766Y-58886554D01*
X68204556Y-58910956D01*
X68149592Y-58919068D01*
X68056139Y-58925673D01*
X67966358Y-58923586D01*
X67883869Y-58913340D01*
X67812286Y-58895470D01*
X67755228Y-58870508D01*
X67716311Y-58838988D01*
X67714936Y-58837012D01*
X67707848Y-58811786D01*
X67703609Y-58764535D01*
X67702200Y-58695071D01*
X67703060Y-58632838D01*
X67707780Y-58585456D01*
X67719470Y-58553353D01*
X67741239Y-58533800D01*
X67776198Y-58524070D01*
X67827456Y-58521433D01*
X67898123Y-58523161D01*
X67946743Y-58526173D01*
X67996939Y-58534366D01*
X68029433Y-58548419D01*
X68046892Y-58569654D01*
X68051983Y-58599394D01*
X68051877Y-58603936D01*
X68043175Y-58638730D01*
X68019165Y-58662147D01*
X67977900Y-58675347D01*
X67917431Y-58679489D01*
X67848956Y-58679489D01*
X67848956Y-58717841D01*
X67849006Y-58726976D01*
X67851227Y-58744227D01*
X67860494Y-58754521D01*
X67881875Y-58761459D01*
X67920436Y-58768641D01*
X67925910Y-58769575D01*
X68022860Y-58779478D01*
X68112852Y-58776559D01*
X68193760Y-58761829D01*
X68263459Y-58736299D01*
X68319824Y-58700978D01*
X68360729Y-58656879D01*
X68384051Y-58605012D01*
X68387663Y-58546388D01*
X68382145Y-58517494D01*
X68355461Y-58461604D01*
X68309273Y-58415945D01*
X68244291Y-58381108D01*
X68161229Y-58357690D01*
X68136555Y-58353241D01*
X68047226Y-58342742D01*
X67967419Y-58343971D01*
X67889326Y-58356906D01*
X67854183Y-58363696D01*
X67808745Y-58364713D01*
X67777430Y-58352182D01*
X67757277Y-58325395D01*
X67750893Y-58297148D01*
X67760379Y-58265924D01*
X67769708Y-58252499D01*
X67803943Y-58228967D01*
X67856565Y-58211095D01*
X67925081Y-58199599D01*
X68007000Y-58195192D01*
X68104150Y-58199179D01*
G36*
X68429562Y-52957850D02*
G01*
X68512313Y-52985053D01*
X68587406Y-53030484D01*
X68659298Y-53096302D01*
X68697846Y-53140567D01*
X68737256Y-53198961D01*
X68762446Y-53259586D01*
X68775861Y-53328865D01*
X68779948Y-53413222D01*
X68779669Y-53459307D01*
X68777460Y-53500450D01*
X68771894Y-53532582D01*
X68761586Y-53563122D01*
X68745148Y-53599489D01*
X68731200Y-53626728D01*
X68672665Y-53712429D01*
X68600619Y-53781617D01*
X68516947Y-53832741D01*
X68423531Y-53864250D01*
X68390434Y-53871225D01*
X68349960Y-53878094D01*
X68316999Y-53879919D01*
X68282698Y-53876947D01*
X68238200Y-53869426D01*
X68186934Y-53857002D01*
X68096434Y-53819112D01*
X68017345Y-53764836D01*
X67951528Y-53696770D01*
X67900840Y-53617511D01*
X67867140Y-53529654D01*
X67852286Y-53435795D01*
X67858136Y-53338530D01*
X67884399Y-53242220D01*
X67929418Y-53153494D01*
X67990373Y-53078419D01*
X68065184Y-53018641D01*
X68151768Y-52975809D01*
X68248043Y-52951571D01*
X68351928Y-52947576D01*
X68429562Y-52957850D01*
G37*
X68429562Y-52957850D02*
X68512313Y-52985053D01*
X68587406Y-53030484D01*
X68659298Y-53096302D01*
X68697846Y-53140567D01*
X68737256Y-53198961D01*
X68762446Y-53259586D01*
X68775861Y-53328865D01*
X68779948Y-53413222D01*
X68779669Y-53459307D01*
X68777460Y-53500450D01*
X68771894Y-53532582D01*
X68761586Y-53563122D01*
X68745148Y-53599489D01*
X68731200Y-53626728D01*
X68672665Y-53712429D01*
X68600619Y-53781617D01*
X68516947Y-53832741D01*
X68423531Y-53864250D01*
X68390434Y-53871225D01*
X68349960Y-53878094D01*
X68316999Y-53879919D01*
X68282698Y-53876947D01*
X68238200Y-53869426D01*
X68186934Y-53857002D01*
X68096434Y-53819112D01*
X68017345Y-53764836D01*
X67951528Y-53696770D01*
X67900840Y-53617511D01*
X67867140Y-53529654D01*
X67852286Y-53435795D01*
X67858136Y-53338530D01*
X67884399Y-53242220D01*
X67929418Y-53153494D01*
X67990373Y-53078419D01*
X68065184Y-53018641D01*
X68151768Y-52975809D01*
X68248043Y-52951571D01*
X68351928Y-52947576D01*
X68429562Y-52957850D01*
G36*
X61830406Y-58199949D02*
G01*
X61856127Y-58215647D01*
X61882778Y-58237227D01*
X61882778Y-58884684D01*
X61856127Y-58906264D01*
X61824767Y-58923739D01*
X61788966Y-58924575D01*
X61757528Y-58904082D01*
X61753652Y-58899416D01*
X61748186Y-58889949D01*
X61743979Y-58876267D01*
X61740867Y-58855748D01*
X61738687Y-58825768D01*
X61737276Y-58783704D01*
X61736471Y-58726932D01*
X61736107Y-58652830D01*
X61736022Y-58558773D01*
X61736022Y-58237227D01*
X61762673Y-58215647D01*
X61786386Y-58200877D01*
X61809400Y-58194067D01*
X61830406Y-58199949D01*
G37*
X61830406Y-58199949D02*
X61856127Y-58215647D01*
X61882778Y-58237227D01*
X61882778Y-58884684D01*
X61856127Y-58906264D01*
X61824767Y-58923739D01*
X61788966Y-58924575D01*
X61757528Y-58904082D01*
X61753652Y-58899416D01*
X61748186Y-58889949D01*
X61743979Y-58876267D01*
X61740867Y-58855748D01*
X61738687Y-58825768D01*
X61737276Y-58783704D01*
X61736471Y-58726932D01*
X61736107Y-58652830D01*
X61736022Y-58558773D01*
X61736022Y-58237227D01*
X61762673Y-58215647D01*
X61786386Y-58200877D01*
X61809400Y-58194067D01*
X61830406Y-58199949D01*
G36*
X72251870Y-58460041D02*
G01*
X72251622Y-58560956D01*
X72251583Y-58636617D01*
X72251328Y-58714526D01*
X72250684Y-58774536D01*
X72249480Y-58819264D01*
X72247543Y-58851326D01*
X72244703Y-58873340D01*
X72240788Y-58887924D01*
X72235626Y-58897694D01*
X72229045Y-58905267D01*
X72222077Y-58911501D01*
X72209079Y-58918801D01*
X72189931Y-58923554D01*
X72160528Y-58926292D01*
X72116762Y-58927545D01*
X72054528Y-58927845D01*
X72005582Y-58927469D01*
X71898722Y-58923041D01*
X71809494Y-58912953D01*
X71734696Y-58896365D01*
X71671125Y-58872435D01*
X71615579Y-58840321D01*
X71564854Y-58799182D01*
X71558866Y-58793330D01*
X71521999Y-58744821D01*
X71490899Y-58684013D01*
X71469417Y-58619769D01*
X71464136Y-58581026D01*
X71611353Y-58581026D01*
X71629635Y-58631961D01*
X71659305Y-58677878D01*
X71706002Y-58720287D01*
X71767392Y-58750090D01*
X71846538Y-58769226D01*
X71848028Y-58769464D01*
X71896999Y-58775256D01*
X71955693Y-58779396D01*
X72011734Y-58781004D01*
X72104867Y-58781089D01*
X72104867Y-58340822D01*
X72028667Y-58340808D01*
X72025639Y-58340817D01*
X71974519Y-58342782D01*
X71914416Y-58347507D01*
X71857708Y-58354035D01*
X71807750Y-58363331D01*
X71732998Y-58389600D01*
X71675489Y-58428899D01*
X71633988Y-58481933D01*
X71612771Y-58533200D01*
X71611353Y-58581026D01*
X71464136Y-58581026D01*
X71461400Y-58560956D01*
X71462679Y-58539739D01*
X71474991Y-58482323D01*
X71497520Y-58422413D01*
X71526750Y-58368363D01*
X71559167Y-58328532D01*
X71578708Y-58311510D01*
X71633420Y-58272322D01*
X71693723Y-58242193D01*
X71762919Y-58220232D01*
X71844311Y-58205550D01*
X71941200Y-58197259D01*
X72056889Y-58194467D01*
X72096371Y-58194066D01*
X72142082Y-58193653D01*
X72177883Y-58195457D01*
X72204974Y-58201739D01*
X72224556Y-58214759D01*
X72237830Y-58236778D01*
X72245998Y-58270055D01*
X72250260Y-58316851D01*
X72250857Y-58340822D01*
X72251817Y-58379427D01*
X72251870Y-58460041D01*
G37*
X72251870Y-58460041D02*
X72251622Y-58560956D01*
X72251583Y-58636617D01*
X72251328Y-58714526D01*
X72250684Y-58774536D01*
X72249480Y-58819264D01*
X72247543Y-58851326D01*
X72244703Y-58873340D01*
X72240788Y-58887924D01*
X72235626Y-58897694D01*
X72229045Y-58905267D01*
X72222077Y-58911501D01*
X72209079Y-58918801D01*
X72189931Y-58923554D01*
X72160528Y-58926292D01*
X72116762Y-58927545D01*
X72054528Y-58927845D01*
X72005582Y-58927469D01*
X71898722Y-58923041D01*
X71809494Y-58912953D01*
X71734696Y-58896365D01*
X71671125Y-58872435D01*
X71615579Y-58840321D01*
X71564854Y-58799182D01*
X71558866Y-58793330D01*
X71521999Y-58744821D01*
X71490899Y-58684013D01*
X71469417Y-58619769D01*
X71464136Y-58581026D01*
X71611353Y-58581026D01*
X71629635Y-58631961D01*
X71659305Y-58677878D01*
X71706002Y-58720287D01*
X71767392Y-58750090D01*
X71846538Y-58769226D01*
X71848028Y-58769464D01*
X71896999Y-58775256D01*
X71955693Y-58779396D01*
X72011734Y-58781004D01*
X72104867Y-58781089D01*
X72104867Y-58340822D01*
X72028667Y-58340808D01*
X72025639Y-58340817D01*
X71974519Y-58342782D01*
X71914416Y-58347507D01*
X71857708Y-58354035D01*
X71807750Y-58363331D01*
X71732998Y-58389600D01*
X71675489Y-58428899D01*
X71633988Y-58481933D01*
X71612771Y-58533200D01*
X71611353Y-58581026D01*
X71464136Y-58581026D01*
X71461400Y-58560956D01*
X71462679Y-58539739D01*
X71474991Y-58482323D01*
X71497520Y-58422413D01*
X71526750Y-58368363D01*
X71559167Y-58328532D01*
X71578708Y-58311510D01*
X71633420Y-58272322D01*
X71693723Y-58242193D01*
X71762919Y-58220232D01*
X71844311Y-58205550D01*
X71941200Y-58197259D01*
X72056889Y-58194467D01*
X72096371Y-58194066D01*
X72142082Y-58193653D01*
X72177883Y-58195457D01*
X72204974Y-58201739D01*
X72224556Y-58214759D01*
X72237830Y-58236778D01*
X72245998Y-58270055D01*
X72250260Y-58316851D01*
X72250857Y-58340822D01*
X72251817Y-58379427D01*
X72251870Y-58460041D01*
G36*
X67306893Y-58192892D02*
G01*
X67318301Y-58199029D01*
X67328850Y-58209691D01*
X67340136Y-58223811D01*
X67344589Y-58229772D01*
X67350588Y-58240268D01*
X67355167Y-58254093D01*
X67358519Y-58273998D01*
X67360833Y-58302732D01*
X67362301Y-58343045D01*
X67363113Y-58397687D01*
X67363460Y-58469407D01*
X67363534Y-58560956D01*
X67363511Y-58619486D01*
X67363292Y-58698573D01*
X67362683Y-58759516D01*
X67361492Y-58805062D01*
X67359529Y-58837963D01*
X67356603Y-58860968D01*
X67352523Y-58876826D01*
X67347097Y-58888286D01*
X67340136Y-58898100D01*
X67309708Y-58922493D01*
X67274765Y-58925372D01*
X67237784Y-58906282D01*
X67233600Y-58902807D01*
X67225424Y-58894279D01*
X67219364Y-58882728D01*
X67214981Y-58864896D01*
X67211839Y-58837524D01*
X67209502Y-58797354D01*
X67207531Y-58741128D01*
X67205489Y-58665589D01*
X67199845Y-58446458D01*
X66934556Y-58687099D01*
X66860722Y-58753875D01*
X66795542Y-58811991D01*
X66743348Y-58856949D01*
X66702273Y-58889871D01*
X66670455Y-58911879D01*
X66646026Y-58924094D01*
X66627124Y-58927639D01*
X66611883Y-58923636D01*
X66598439Y-58913207D01*
X66584927Y-58897474D01*
X66578682Y-58888991D01*
X66573050Y-58878413D01*
X66568839Y-58864255D01*
X66565887Y-58843803D01*
X66564032Y-58814342D01*
X66563113Y-58773161D01*
X66562968Y-58717544D01*
X66563435Y-58644779D01*
X66564352Y-58552151D01*
X66567667Y-58237199D01*
X66594318Y-58215633D01*
X66620383Y-58199441D01*
X66653241Y-58196670D01*
X66687772Y-58215623D01*
X66692084Y-58219208D01*
X66700216Y-58227737D01*
X66706245Y-58239329D01*
X66710606Y-58257235D01*
X66713734Y-58284706D01*
X66716063Y-58324994D01*
X66718029Y-58381351D01*
X66720067Y-58457029D01*
X66725711Y-58676878D01*
X66906334Y-58513084D01*
X66993072Y-58434451D01*
X67068843Y-58366058D01*
X67130980Y-58310708D01*
X67181078Y-58267338D01*
X67220735Y-58234881D01*
X67251548Y-58212273D01*
X67275114Y-58198448D01*
X67293030Y-58192343D01*
X67306893Y-58192892D01*
G37*
X67306893Y-58192892D02*
X67318301Y-58199029D01*
X67328850Y-58209691D01*
X67340136Y-58223811D01*
X67344589Y-58229772D01*
X67350588Y-58240268D01*
X67355167Y-58254093D01*
X67358519Y-58273998D01*
X67360833Y-58302732D01*
X67362301Y-58343045D01*
X67363113Y-58397687D01*
X67363460Y-58469407D01*
X67363534Y-58560956D01*
X67363511Y-58619486D01*
X67363292Y-58698573D01*
X67362683Y-58759516D01*
X67361492Y-58805062D01*
X67359529Y-58837963D01*
X67356603Y-58860968D01*
X67352523Y-58876826D01*
X67347097Y-58888286D01*
X67340136Y-58898100D01*
X67309708Y-58922493D01*
X67274765Y-58925372D01*
X67237784Y-58906282D01*
X67233600Y-58902807D01*
X67225424Y-58894279D01*
X67219364Y-58882728D01*
X67214981Y-58864896D01*
X67211839Y-58837524D01*
X67209502Y-58797354D01*
X67207531Y-58741128D01*
X67205489Y-58665589D01*
X67199845Y-58446458D01*
X66934556Y-58687099D01*
X66860722Y-58753875D01*
X66795542Y-58811991D01*
X66743348Y-58856949D01*
X66702273Y-58889871D01*
X66670455Y-58911879D01*
X66646026Y-58924094D01*
X66627124Y-58927639D01*
X66611883Y-58923636D01*
X66598439Y-58913207D01*
X66584927Y-58897474D01*
X66578682Y-58888991D01*
X66573050Y-58878413D01*
X66568839Y-58864255D01*
X66565887Y-58843803D01*
X66564032Y-58814342D01*
X66563113Y-58773161D01*
X66562968Y-58717544D01*
X66563435Y-58644779D01*
X66564352Y-58552151D01*
X66567667Y-58237199D01*
X66594318Y-58215633D01*
X66620383Y-58199441D01*
X66653241Y-58196670D01*
X66687772Y-58215623D01*
X66692084Y-58219208D01*
X66700216Y-58227737D01*
X66706245Y-58239329D01*
X66710606Y-58257235D01*
X66713734Y-58284706D01*
X66716063Y-58324994D01*
X66718029Y-58381351D01*
X66720067Y-58457029D01*
X66725711Y-58676878D01*
X66906334Y-58513084D01*
X66993072Y-58434451D01*
X67068843Y-58366058D01*
X67130980Y-58310708D01*
X67181078Y-58267338D01*
X67220735Y-58234881D01*
X67251548Y-58212273D01*
X67275114Y-58198448D01*
X67293030Y-58192343D01*
X67306893Y-58192892D01*
G36*
X65158163Y-58838175D02*
G01*
X65155235Y-58861095D01*
X65151158Y-58876897D01*
X65145743Y-58888319D01*
X65138803Y-58898100D01*
X65115406Y-58927845D01*
X64949714Y-58927251D01*
X64914918Y-58926953D01*
X64816435Y-58923522D01*
X64735473Y-58915839D01*
X64668379Y-58903282D01*
X64611496Y-58885227D01*
X64561169Y-58861052D01*
X64557810Y-58859135D01*
X64499998Y-58822417D01*
X64457644Y-58785451D01*
X64424828Y-58741966D01*
X64395628Y-58685689D01*
X64391346Y-58676073D01*
X64368769Y-58612887D01*
X64363034Y-58567333D01*
X64512279Y-58567333D01*
X64517892Y-58592061D01*
X64523618Y-58607939D01*
X64556548Y-58667847D01*
X64603886Y-58713600D01*
X64667652Y-58746736D01*
X64749861Y-58768790D01*
X64752655Y-58769292D01*
X64798940Y-58775255D01*
X64855336Y-58779483D01*
X64910274Y-58781089D01*
X65004156Y-58781089D01*
X65004156Y-58340822D01*
X64916667Y-58341270D01*
X64849747Y-58343746D01*
X64757349Y-58354998D01*
X64678034Y-58374537D01*
X64616060Y-58401511D01*
X64585120Y-58422240D01*
X64557000Y-58452006D01*
X64533660Y-58494434D01*
X64526533Y-58510400D01*
X64514709Y-58542902D01*
X64512279Y-58567333D01*
X64363034Y-58567333D01*
X64361797Y-58557509D01*
X64370399Y-58502483D01*
X64394541Y-58440351D01*
X64395337Y-58438658D01*
X64435788Y-58369236D01*
X64486473Y-58312638D01*
X64549198Y-58268070D01*
X64625774Y-58234741D01*
X64718009Y-58211861D01*
X64827712Y-58198636D01*
X64956691Y-58194275D01*
X64960263Y-58194270D01*
X65020283Y-58194410D01*
X65062214Y-58195446D01*
X65090328Y-58198040D01*
X65108897Y-58202853D01*
X65122194Y-58210544D01*
X65134491Y-58221776D01*
X65162200Y-58249485D01*
X65162200Y-58558920D01*
X65162175Y-58620526D01*
X65161950Y-58699311D01*
X65161332Y-58760021D01*
X65160775Y-58781089D01*
X65160133Y-58805396D01*
X65158163Y-58838175D01*
G37*
X65158163Y-58838175D02*
X65155235Y-58861095D01*
X65151158Y-58876897D01*
X65145743Y-58888319D01*
X65138803Y-58898100D01*
X65115406Y-58927845D01*
X64949714Y-58927251D01*
X64914918Y-58926953D01*
X64816435Y-58923522D01*
X64735473Y-58915839D01*
X64668379Y-58903282D01*
X64611496Y-58885227D01*
X64561169Y-58861052D01*
X64557810Y-58859135D01*
X64499998Y-58822417D01*
X64457644Y-58785451D01*
X64424828Y-58741966D01*
X64395628Y-58685689D01*
X64391346Y-58676073D01*
X64368769Y-58612887D01*
X64363034Y-58567333D01*
X64512279Y-58567333D01*
X64517892Y-58592061D01*
X64523618Y-58607939D01*
X64556548Y-58667847D01*
X64603886Y-58713600D01*
X64667652Y-58746736D01*
X64749861Y-58768790D01*
X64752655Y-58769292D01*
X64798940Y-58775255D01*
X64855336Y-58779483D01*
X64910274Y-58781089D01*
X65004156Y-58781089D01*
X65004156Y-58340822D01*
X64916667Y-58341270D01*
X64849747Y-58343746D01*
X64757349Y-58354998D01*
X64678034Y-58374537D01*
X64616060Y-58401511D01*
X64585120Y-58422240D01*
X64557000Y-58452006D01*
X64533660Y-58494434D01*
X64526533Y-58510400D01*
X64514709Y-58542902D01*
X64512279Y-58567333D01*
X64363034Y-58567333D01*
X64361797Y-58557509D01*
X64370399Y-58502483D01*
X64394541Y-58440351D01*
X64395337Y-58438658D01*
X64435788Y-58369236D01*
X64486473Y-58312638D01*
X64549198Y-58268070D01*
X64625774Y-58234741D01*
X64718009Y-58211861D01*
X64827712Y-58198636D01*
X64956691Y-58194275D01*
X64960263Y-58194270D01*
X65020283Y-58194410D01*
X65062214Y-58195446D01*
X65090328Y-58198040D01*
X65108897Y-58202853D01*
X65122194Y-58210544D01*
X65134491Y-58221776D01*
X65162200Y-58249485D01*
X65162200Y-58558920D01*
X65162175Y-58620526D01*
X65161950Y-58699311D01*
X65161332Y-58760021D01*
X65160775Y-58781089D01*
X65160133Y-58805396D01*
X65158163Y-58838175D01*
G36*
X70831734Y-58194083D02*
G01*
X70908831Y-58194275D01*
X70967777Y-58194860D01*
X71011364Y-58196051D01*
X71042383Y-58198064D01*
X71063625Y-58201112D01*
X71077882Y-58205409D01*
X71087945Y-58211172D01*
X71096606Y-58218612D01*
X71098391Y-58220293D01*
X71105635Y-58227832D01*
X71111277Y-58236850D01*
X71115517Y-58249984D01*
X71118556Y-58269872D01*
X71120594Y-58299151D01*
X71121830Y-58340458D01*
X71122465Y-58396431D01*
X71122700Y-58469707D01*
X71122734Y-58562923D01*
X71122697Y-58635713D01*
X71122448Y-58713889D01*
X71121812Y-58774103D01*
X71120615Y-58818982D01*
X71118684Y-58851152D01*
X71115846Y-58873239D01*
X71111927Y-58887870D01*
X71106755Y-58897670D01*
X71100156Y-58905267D01*
X71096822Y-58908444D01*
X71088300Y-58914554D01*
X71076298Y-58919229D01*
X71058087Y-58922659D01*
X71030940Y-58925036D01*
X70992129Y-58926552D01*
X70938924Y-58927398D01*
X70868598Y-58927765D01*
X70778422Y-58927845D01*
X70736314Y-58927833D01*
X70655167Y-58927651D01*
X70592675Y-58927098D01*
X70546109Y-58925982D01*
X70512741Y-58924113D01*
X70489844Y-58921298D01*
X70474688Y-58917346D01*
X70464546Y-58912066D01*
X70456689Y-58905267D01*
X70441963Y-58883667D01*
X70434111Y-58854467D01*
X70439610Y-58830560D01*
X70456689Y-58803667D01*
X70461668Y-58799059D01*
X70471443Y-58792772D01*
X70485559Y-58788146D01*
X70507054Y-58784930D01*
X70538968Y-58782870D01*
X70584342Y-58781712D01*
X70646213Y-58781202D01*
X70727622Y-58781089D01*
X70975978Y-58781089D01*
X70975978Y-58623045D01*
X70814801Y-58623045D01*
X70778983Y-58622899D01*
X70713359Y-58621176D01*
X70666118Y-58616741D01*
X70634383Y-58608637D01*
X70615277Y-58595906D01*
X70605923Y-58577592D01*
X70603445Y-58552738D01*
X70604242Y-58532482D01*
X70609494Y-58510656D01*
X70622288Y-58495304D01*
X70645628Y-58485309D01*
X70682517Y-58479553D01*
X70735959Y-58476919D01*
X70808958Y-58476289D01*
X70977105Y-58476289D01*
X70973719Y-58411378D01*
X70970334Y-58346467D01*
X70722617Y-58343418D01*
X70660026Y-58342539D01*
X70591565Y-58341095D01*
X70540661Y-58339164D01*
X70504408Y-58336514D01*
X70479901Y-58332910D01*
X70464235Y-58328121D01*
X70454506Y-58321913D01*
X70448491Y-58315510D01*
X70435482Y-58283828D01*
X70439043Y-58248142D01*
X70458818Y-58217084D01*
X70462069Y-58214161D01*
X70471049Y-58207810D01*
X70483153Y-58202957D01*
X70501159Y-58199403D01*
X70527847Y-58196946D01*
X70565997Y-58195385D01*
X70618386Y-58194518D01*
X70687794Y-58194146D01*
X70777001Y-58194067D01*
X70831734Y-58194083D01*
G37*
X70831734Y-58194083D02*
X70908831Y-58194275D01*
X70967777Y-58194860D01*
X71011364Y-58196051D01*
X71042383Y-58198064D01*
X71063625Y-58201112D01*
X71077882Y-58205409D01*
X71087945Y-58211172D01*
X71096606Y-58218612D01*
X71098391Y-58220293D01*
X71105635Y-58227832D01*
X71111277Y-58236850D01*
X71115517Y-58249984D01*
X71118556Y-58269872D01*
X71120594Y-58299151D01*
X71121830Y-58340458D01*
X71122465Y-58396431D01*
X71122700Y-58469707D01*
X71122734Y-58562923D01*
X71122697Y-58635713D01*
X71122448Y-58713889D01*
X71121812Y-58774103D01*
X71120615Y-58818982D01*
X71118684Y-58851152D01*
X71115846Y-58873239D01*
X71111927Y-58887870D01*
X71106755Y-58897670D01*
X71100156Y-58905267D01*
X71096822Y-58908444D01*
X71088300Y-58914554D01*
X71076298Y-58919229D01*
X71058087Y-58922659D01*
X71030940Y-58925036D01*
X70992129Y-58926552D01*
X70938924Y-58927398D01*
X70868598Y-58927765D01*
X70778422Y-58927845D01*
X70736314Y-58927833D01*
X70655167Y-58927651D01*
X70592675Y-58927098D01*
X70546109Y-58925982D01*
X70512741Y-58924113D01*
X70489844Y-58921298D01*
X70474688Y-58917346D01*
X70464546Y-58912066D01*
X70456689Y-58905267D01*
X70441963Y-58883667D01*
X70434111Y-58854467D01*
X70439610Y-58830560D01*
X70456689Y-58803667D01*
X70461668Y-58799059D01*
X70471443Y-58792772D01*
X70485559Y-58788146D01*
X70507054Y-58784930D01*
X70538968Y-58782870D01*
X70584342Y-58781712D01*
X70646213Y-58781202D01*
X70727622Y-58781089D01*
X70975978Y-58781089D01*
X70975978Y-58623045D01*
X70814801Y-58623045D01*
X70778983Y-58622899D01*
X70713359Y-58621176D01*
X70666118Y-58616741D01*
X70634383Y-58608637D01*
X70615277Y-58595906D01*
X70605923Y-58577592D01*
X70603445Y-58552738D01*
X70604242Y-58532482D01*
X70609494Y-58510656D01*
X70622288Y-58495304D01*
X70645628Y-58485309D01*
X70682517Y-58479553D01*
X70735959Y-58476919D01*
X70808958Y-58476289D01*
X70977105Y-58476289D01*
X70973719Y-58411378D01*
X70970334Y-58346467D01*
X70722617Y-58343418D01*
X70660026Y-58342539D01*
X70591565Y-58341095D01*
X70540661Y-58339164D01*
X70504408Y-58336514D01*
X70479901Y-58332910D01*
X70464235Y-58328121D01*
X70454506Y-58321913D01*
X70448491Y-58315510D01*
X70435482Y-58283828D01*
X70439043Y-58248142D01*
X70458818Y-58217084D01*
X70462069Y-58214161D01*
X70471049Y-58207810D01*
X70483153Y-58202957D01*
X70501159Y-58199403D01*
X70527847Y-58196946D01*
X70565997Y-58195385D01*
X70618386Y-58194518D01*
X70687794Y-58194146D01*
X70777001Y-58194067D01*
X70831734Y-58194083D01*
G36*
X60454734Y-58216645D02*
G01*
X60460366Y-58222835D01*
X60465456Y-58231041D01*
X60469543Y-58242817D01*
X60472721Y-58260276D01*
X60475087Y-58285530D01*
X60476738Y-58320690D01*
X60477769Y-58367869D01*
X60478277Y-58429177D01*
X60478359Y-58506727D01*
X60478109Y-58602631D01*
X60477625Y-58719000D01*
X60477557Y-58733175D01*
X60476971Y-58794937D01*
X60475648Y-58838620D01*
X60473103Y-58868001D01*
X60468848Y-58886855D01*
X60462396Y-58898959D01*
X60453262Y-58908089D01*
X60419804Y-58925506D01*
X60384856Y-58922604D01*
X60353953Y-58898100D01*
X60344944Y-58884897D01*
X60337492Y-58866361D01*
X60333124Y-58840333D01*
X60331069Y-58801787D01*
X60330556Y-58745700D01*
X60330556Y-58623045D01*
X59833845Y-58623045D01*
X59833845Y-58757871D01*
X59833772Y-58793662D01*
X59833009Y-58839992D01*
X59830833Y-58870526D01*
X59826536Y-58889557D01*
X59819412Y-58901374D01*
X59808755Y-58910271D01*
X59776504Y-58925341D01*
X59741217Y-58922673D01*
X59710486Y-58898100D01*
X59705831Y-58891845D01*
X59699895Y-58881321D01*
X59695364Y-58867391D01*
X59692048Y-58847317D01*
X59689759Y-58818360D01*
X59688308Y-58777780D01*
X59687505Y-58722840D01*
X59687162Y-58650799D01*
X59687089Y-58558920D01*
X59687089Y-58249485D01*
X59714798Y-58221776D01*
X59746177Y-58199533D01*
X59779406Y-58196844D01*
X59811267Y-58216645D01*
X59819553Y-58226415D01*
X59826965Y-58242307D01*
X59831302Y-58266275D01*
X59833338Y-58303148D01*
X59833845Y-58357756D01*
X59833845Y-58476289D01*
X60330556Y-58476289D01*
X60330556Y-58360776D01*
X60330994Y-58309078D01*
X60332958Y-58274554D01*
X60337474Y-58251978D01*
X60345567Y-58236126D01*
X60358265Y-58221776D01*
X60389643Y-58199533D01*
X60422872Y-58196844D01*
X60454734Y-58216645D01*
G37*
X60454734Y-58216645D02*
X60460366Y-58222835D01*
X60465456Y-58231041D01*
X60469543Y-58242817D01*
X60472721Y-58260276D01*
X60475087Y-58285530D01*
X60476738Y-58320690D01*
X60477769Y-58367869D01*
X60478277Y-58429177D01*
X60478359Y-58506727D01*
X60478109Y-58602631D01*
X60477625Y-58719000D01*
X60477557Y-58733175D01*
X60476971Y-58794937D01*
X60475648Y-58838620D01*
X60473103Y-58868001D01*
X60468848Y-58886855D01*
X60462396Y-58898959D01*
X60453262Y-58908089D01*
X60419804Y-58925506D01*
X60384856Y-58922604D01*
X60353953Y-58898100D01*
X60344944Y-58884897D01*
X60337492Y-58866361D01*
X60333124Y-58840333D01*
X60331069Y-58801787D01*
X60330556Y-58745700D01*
X60330556Y-58623045D01*
X59833845Y-58623045D01*
X59833845Y-58757871D01*
X59833772Y-58793662D01*
X59833009Y-58839992D01*
X59830833Y-58870526D01*
X59826536Y-58889557D01*
X59819412Y-58901374D01*
X59808755Y-58910271D01*
X59776504Y-58925341D01*
X59741217Y-58922673D01*
X59710486Y-58898100D01*
X59705831Y-58891845D01*
X59699895Y-58881321D01*
X59695364Y-58867391D01*
X59692048Y-58847317D01*
X59689759Y-58818360D01*
X59688308Y-58777780D01*
X59687505Y-58722840D01*
X59687162Y-58650799D01*
X59687089Y-58558920D01*
X59687089Y-58249485D01*
X59714798Y-58221776D01*
X59746177Y-58199533D01*
X59779406Y-58196844D01*
X59811267Y-58216645D01*
X59819553Y-58226415D01*
X59826965Y-58242307D01*
X59831302Y-58266275D01*
X59833338Y-58303148D01*
X59833845Y-58357756D01*
X59833845Y-58476289D01*
X60330556Y-58476289D01*
X60330556Y-58360776D01*
X60330994Y-58309078D01*
X60332958Y-58274554D01*
X60337474Y-58251978D01*
X60345567Y-58236126D01*
X60358265Y-58221776D01*
X60389643Y-58199533D01*
X60422872Y-58196844D01*
X60454734Y-58216645D01*
%TO.C,kibuzzard-641EB0D1*%
G36*
X121173450Y-82596456D02*
G01*
X120847219Y-82596456D01*
X121009144Y-81779687D01*
X121011525Y-81779687D01*
X121173450Y-82596456D01*
G37*
G36*
X128915034Y-81350069D02*
G01*
X129015009Y-81364898D01*
X129113049Y-81389456D01*
X129208210Y-81423505D01*
X129299575Y-81466718D01*
X129386264Y-81518677D01*
X129467443Y-81578884D01*
X129542330Y-81646757D01*
X129610204Y-81721644D01*
X129670410Y-81802823D01*
X129722370Y-81889513D01*
X129765582Y-81980878D01*
X129799631Y-82076039D01*
X129824189Y-82174078D01*
X129839019Y-82274053D01*
X129843978Y-82375000D01*
X129839019Y-82475947D01*
X129824189Y-82575922D01*
X129799631Y-82673961D01*
X129765582Y-82769122D01*
X129722370Y-82860487D01*
X129670410Y-82947177D01*
X129610204Y-83028356D01*
X129542330Y-83103243D01*
X129467443Y-83171116D01*
X129386264Y-83231323D01*
X129299575Y-83283282D01*
X129208210Y-83326495D01*
X129113049Y-83360544D01*
X129015009Y-83385102D01*
X128915034Y-83399931D01*
X128814087Y-83404891D01*
X119285912Y-83404891D01*
X119184966Y-83399931D01*
X119084991Y-83385102D01*
X118986951Y-83360544D01*
X118891790Y-83326495D01*
X118800425Y-83283282D01*
X118755013Y-83256063D01*
X119385131Y-83256063D01*
X120242381Y-83256063D01*
X120440025Y-83256063D01*
X120716250Y-83256063D01*
X120806737Y-82798863D01*
X121213931Y-82798863D01*
X121304419Y-83256063D01*
X121571119Y-83256063D01*
X121742569Y-83256063D01*
X122009269Y-83256063D01*
X122380744Y-81994000D01*
X122385506Y-81994000D01*
X122385506Y-83256063D01*
X122647444Y-83256063D01*
X122933194Y-83256063D01*
X123199894Y-83256063D01*
X123571369Y-81994000D01*
X123576131Y-81994000D01*
X123576131Y-83256063D01*
X123838069Y-83256063D01*
X124154775Y-83256063D01*
X124988212Y-83256063D01*
X124988212Y-81724919D01*
X125278725Y-81724919D01*
X125633531Y-81724919D01*
X125633531Y-83256063D01*
X125900231Y-83256063D01*
X126505069Y-83256063D01*
X126771769Y-83256063D01*
X127143244Y-81994000D01*
X127148006Y-81994000D01*
X127148006Y-83256063D01*
X127409944Y-83256063D01*
X127583775Y-83256063D01*
X127860000Y-83256063D01*
X127950487Y-82798863D01*
X128357681Y-82798863D01*
X128448169Y-83256063D01*
X128714869Y-83256063D01*
X128305294Y-81517750D01*
X127995731Y-81517750D01*
X127583775Y-83256063D01*
X127409944Y-83256063D01*
X127409944Y-81517750D01*
X127133719Y-81517750D01*
X126762244Y-82779813D01*
X126755100Y-82779813D01*
X126755100Y-81517750D01*
X126505069Y-81517750D01*
X126505069Y-83256063D01*
X125900231Y-83256063D01*
X125900231Y-81724919D01*
X126255037Y-81724919D01*
X126255037Y-81517750D01*
X125278725Y-81517750D01*
X125278725Y-81724919D01*
X124988212Y-81724919D01*
X124988212Y-81517750D01*
X124154775Y-81517750D01*
X124154775Y-81724919D01*
X124721512Y-81724919D01*
X124721512Y-82220219D01*
X124178587Y-82220219D01*
X124178587Y-82422625D01*
X124721512Y-82422625D01*
X124721512Y-83048894D01*
X124154775Y-83048894D01*
X124154775Y-83256063D01*
X123838069Y-83256063D01*
X123838069Y-81517750D01*
X123561844Y-81517750D01*
X123190369Y-82779813D01*
X123183225Y-82779813D01*
X123183225Y-81517750D01*
X122933194Y-81517750D01*
X122933194Y-83256063D01*
X122647444Y-83256063D01*
X122647444Y-81517750D01*
X122371219Y-81517750D01*
X121999744Y-82779813D01*
X121992600Y-82779813D01*
X121992600Y-81517750D01*
X121742569Y-81517750D01*
X121742569Y-83256063D01*
X121571119Y-83256063D01*
X121161544Y-81517750D01*
X120851981Y-81517750D01*
X120440025Y-83256063D01*
X120242381Y-83256063D01*
X120242381Y-83048894D01*
X120089495Y-82871175D01*
X119960130Y-82701328D01*
X119854286Y-82539355D01*
X119771963Y-82385254D01*
X119713161Y-82239026D01*
X119677879Y-82100670D01*
X119666119Y-81970187D01*
X119678918Y-81848744D01*
X119717316Y-81765400D01*
X119873287Y-81701106D01*
X119985206Y-81716717D01*
X120108237Y-81763548D01*
X120242381Y-81841600D01*
X120242381Y-81617762D01*
X120110619Y-81548971D01*
X119969331Y-81507696D01*
X119818519Y-81493937D01*
X119637841Y-81523405D01*
X119505384Y-81611809D01*
X119424124Y-81757363D01*
X119397037Y-81958281D01*
X119411986Y-82109094D01*
X119456833Y-82269431D01*
X119531578Y-82439294D01*
X119609192Y-82575323D01*
X119707493Y-82721472D01*
X119826481Y-82877741D01*
X119966156Y-83044131D01*
X119966156Y-83048894D01*
X119385131Y-83048894D01*
X119385131Y-83256063D01*
X118755013Y-83256063D01*
X118713736Y-83231323D01*
X118632557Y-83171116D01*
X118557670Y-83103243D01*
X118489796Y-83028356D01*
X118429590Y-82947177D01*
X118377630Y-82860487D01*
X118334418Y-82769122D01*
X118300369Y-82673961D01*
X118275811Y-82575922D01*
X118260981Y-82475947D01*
X118256022Y-82375000D01*
X118260981Y-82274053D01*
X118275811Y-82174078D01*
X118300369Y-82076039D01*
X118334418Y-81980878D01*
X118377630Y-81889513D01*
X118429590Y-81802823D01*
X118489796Y-81721644D01*
X118557670Y-81646757D01*
X118632557Y-81578884D01*
X118713736Y-81518677D01*
X118800425Y-81466718D01*
X118891790Y-81423505D01*
X118986951Y-81389456D01*
X119084991Y-81364898D01*
X119184966Y-81350069D01*
X119285912Y-81345109D01*
X128814087Y-81345109D01*
X128915034Y-81350069D01*
G37*
G36*
X128317200Y-82596456D02*
G01*
X127990969Y-82596456D01*
X128152894Y-81779687D01*
X128155275Y-81779687D01*
X128317200Y-82596456D01*
G37*
D11*
%TO.C,TP12*%
X94800000Y-55900000D02*
X94800000Y-54500000D01*
X94800000Y-54500000D02*
X93400000Y-54500000D01*
X93400000Y-55900000D02*
X94800000Y-55900000D01*
X93400000Y-54500000D02*
X93400000Y-55900000D01*
%TO.C,JP2*%
X96917500Y-78590000D02*
X97217500Y-78890000D01*
X96717500Y-77840000D02*
X94717500Y-77840000D01*
X96917500Y-78590000D02*
X97217500Y-78290000D01*
X94717500Y-81940000D02*
X96717500Y-81940000D01*
X97217500Y-78290000D02*
X97217500Y-78890000D01*
X96717500Y-81940000D02*
X96717500Y-77840000D01*
X94717500Y-77840000D02*
X94717500Y-81940000D01*
%TO.C,U8*%
X62300000Y-73900000D02*
X81700000Y-73900000D01*
X81700000Y-73900000D02*
X81700000Y-110000000D01*
X81700000Y-110000000D02*
X62300000Y-110000000D01*
X62300000Y-110000000D02*
X62300000Y-73900000D01*
%TO.C,FL1*%
X122496518Y-96890416D02*
X122736934Y-96650000D01*
X121450000Y-97936934D02*
X121626777Y-98113711D01*
X121209584Y-95603482D02*
X121450000Y-95363066D01*
X120163066Y-96650000D02*
X120403482Y-96409584D01*
X121626777Y-98113711D02*
X120757035Y-98983452D01*
X121450000Y-97936934D02*
X121690416Y-97696518D01*
%TO.C,TP10*%
X87750000Y-54050000D02*
X89150000Y-54050000D01*
X87750000Y-52650000D02*
X87750000Y-54050000D01*
X89150000Y-52650000D02*
X87750000Y-52650000D01*
X89150000Y-54050000D02*
X89150000Y-52650000D01*
%TO.C,TP13*%
X94800000Y-56600000D02*
X93400000Y-56600000D01*
X93400000Y-56600000D02*
X93400000Y-58000000D01*
X93400000Y-58000000D02*
X94800000Y-58000000D01*
X94800000Y-58000000D02*
X94800000Y-56600000D01*
%TO.C,FID3*%
G36*
X124561662Y-101460696D02*
G01*
X124601314Y-101461782D01*
X124669109Y-101461782D01*
X124669109Y-101574951D01*
X124509577Y-101574951D01*
X124494682Y-101752732D01*
X124492682Y-101777037D01*
X124488023Y-101837880D01*
X124484731Y-101887389D01*
X124483092Y-101920992D01*
X124483390Y-101934116D01*
X124487724Y-101930343D01*
X124507496Y-101910676D01*
X124541679Y-101875818D01*
X124588541Y-101827576D01*
X124646354Y-101767757D01*
X124713387Y-101698167D01*
X124787912Y-101620615D01*
X124868197Y-101536907D01*
X124952513Y-101448849D01*
X125039130Y-101358250D01*
X125126319Y-101266915D01*
X125212349Y-101176653D01*
X125295492Y-101089269D01*
X125374016Y-101006572D01*
X125446192Y-100930368D01*
X125510291Y-100862463D01*
X125564583Y-100804666D01*
X125661592Y-100701040D01*
X125662034Y-100789315D01*
X125662475Y-100877589D01*
X125061938Y-101509158D01*
X124461401Y-102140726D01*
X124449396Y-102284674D01*
X124401365Y-102860635D01*
X124392876Y-102962791D01*
X124382343Y-103090612D01*
X124372621Y-103209767D01*
X124363898Y-103317914D01*
X124356358Y-103412713D01*
X124350187Y-103491819D01*
X124345573Y-103552892D01*
X124342700Y-103593590D01*
X124341754Y-103611570D01*
X124344251Y-103619808D01*
X124355471Y-103637599D01*
X124376751Y-103664411D01*
X124387021Y-103676129D01*
X124409225Y-103701466D01*
X124454023Y-103749986D01*
X124512281Y-103811192D01*
X124585129Y-103886307D01*
X124673703Y-103976550D01*
X124779134Y-104083145D01*
X124848492Y-104153093D01*
X124945179Y-104250658D01*
X125041526Y-104347941D01*
X125134638Y-104442014D01*
X125221618Y-104529950D01*
X125299569Y-104608820D01*
X125365596Y-104675699D01*
X125416802Y-104727658D01*
X125617514Y-104931620D01*
X125581058Y-104969671D01*
X125572460Y-104978245D01*
X125547095Y-104999297D01*
X125529695Y-105007723D01*
X125516071Y-105000530D01*
X125490743Y-104978944D01*
X125460379Y-104947995D01*
X125441896Y-104928448D01*
X125407427Y-104892752D01*
X125358712Y-104842684D01*
X125297469Y-104780001D01*
X125225420Y-104706457D01*
X125144285Y-104623810D01*
X125055784Y-104533815D01*
X124961637Y-104438228D01*
X124863565Y-104338805D01*
X124321161Y-103789343D01*
X124299066Y-104074746D01*
X124294250Y-104135662D01*
X124287216Y-104217548D01*
X124280872Y-104279569D01*
X124274748Y-104324987D01*
X124268373Y-104357062D01*
X124261277Y-104379052D01*
X124252991Y-104394219D01*
X124241393Y-104415416D01*
X124231850Y-104454386D01*
X124229010Y-104510531D01*
X124229010Y-104592773D01*
X124002674Y-104592773D01*
X124002674Y-104416733D01*
X123157082Y-104416733D01*
X123108203Y-104472262D01*
X123094836Y-104486722D01*
X123022388Y-104544813D01*
X122940532Y-104580576D01*
X122851900Y-104592773D01*
X122773692Y-104586306D01*
X122685233Y-104559047D01*
X122609507Y-104510328D01*
X122594748Y-104496403D01*
X122557864Y-104451328D01*
X122525503Y-104398819D01*
X122502297Y-104347061D01*
X122492879Y-104304239D01*
X122492697Y-104298023D01*
X122491342Y-104275246D01*
X122487800Y-104259513D01*
X122480390Y-104252068D01*
X122467431Y-104254156D01*
X122447243Y-104267020D01*
X122418145Y-104291905D01*
X122378456Y-104330053D01*
X122326496Y-104382710D01*
X122260584Y-104451119D01*
X122179040Y-104536524D01*
X122135604Y-104582112D01*
X122063000Y-104658441D01*
X121994309Y-104730808D01*
X121932223Y-104796366D01*
X121879434Y-104852274D01*
X121838634Y-104895686D01*
X121812515Y-104923758D01*
X121741119Y-105001436D01*
X121652863Y-104913416D01*
X122198690Y-104341287D01*
X122233105Y-104305188D01*
X122355546Y-104176272D01*
X122460651Y-104064754D01*
X122548736Y-103970288D01*
X122620116Y-103892529D01*
X122670588Y-103836174D01*
X122877247Y-103836174D01*
X122878872Y-103849434D01*
X122879156Y-103850819D01*
X122892698Y-103882228D01*
X122919748Y-103896863D01*
X123003129Y-103928063D01*
X123077418Y-103980038D01*
X123135846Y-104048791D01*
X123175890Y-104131315D01*
X123195026Y-104224606D01*
X123201364Y-104303565D01*
X124150838Y-104303565D01*
X124157458Y-104275273D01*
X124158629Y-104268329D01*
X124162268Y-104237281D01*
X124167234Y-104187081D01*
X124173157Y-104121727D01*
X124179669Y-104045219D01*
X124186401Y-103961555D01*
X124208724Y-103676129D01*
X123907826Y-103370565D01*
X123852636Y-103314704D01*
X123785109Y-103246888D01*
X123724529Y-103186643D01*
X123673021Y-103136052D01*
X123632710Y-103097200D01*
X123605722Y-103072170D01*
X123594182Y-103063046D01*
X123586444Y-103067405D01*
X123563395Y-103087241D01*
X123528709Y-103120375D01*
X123485487Y-103163820D01*
X123436832Y-103214587D01*
X123424140Y-103228051D01*
X123367229Y-103288275D01*
X123299414Y-103359864D01*
X123225800Y-103437437D01*
X123151493Y-103515611D01*
X123081599Y-103589005D01*
X123077401Y-103593409D01*
X123012420Y-103661785D01*
X122962836Y-103714732D01*
X122926688Y-103754767D01*
X122902016Y-103784411D01*
X122886858Y-103806181D01*
X122879256Y-103822595D01*
X122877247Y-103836174D01*
X122670588Y-103836174D01*
X122675105Y-103831131D01*
X122714019Y-103785748D01*
X122737173Y-103756035D01*
X122744882Y-103741644D01*
X122744883Y-103741559D01*
X122743825Y-103723624D01*
X122740737Y-103683421D01*
X122735858Y-103623687D01*
X122729432Y-103547158D01*
X122721700Y-103456569D01*
X122712905Y-103354657D01*
X122703287Y-103244159D01*
X122693091Y-103127811D01*
X122682556Y-103008348D01*
X122671926Y-102888507D01*
X122661442Y-102771025D01*
X122651346Y-102658637D01*
X122641881Y-102554081D01*
X122633288Y-102460091D01*
X122625809Y-102379405D01*
X122619687Y-102314759D01*
X122615162Y-102268888D01*
X122612478Y-102244530D01*
X122607067Y-102203732D01*
X122736253Y-102203732D01*
X122737908Y-102234653D01*
X122741549Y-102286653D01*
X122746995Y-102357487D01*
X122754063Y-102444911D01*
X122762570Y-102546681D01*
X122772335Y-102660552D01*
X122783174Y-102784279D01*
X122794907Y-102915618D01*
X122804079Y-103016908D01*
X122815566Y-103142526D01*
X122826322Y-103258762D01*
X122836131Y-103363380D01*
X122844781Y-103454140D01*
X122852057Y-103528804D01*
X122857746Y-103585134D01*
X122861634Y-103620891D01*
X122863506Y-103633837D01*
X122869188Y-103629826D01*
X122890020Y-103610138D01*
X122923872Y-103576322D01*
X122968412Y-103530837D01*
X123021310Y-103476146D01*
X123080236Y-103414710D01*
X123142858Y-103348990D01*
X123206848Y-103281449D01*
X123269874Y-103214547D01*
X123329606Y-103150746D01*
X123383713Y-103092507D01*
X123429865Y-103042292D01*
X123465733Y-103002563D01*
X123488984Y-102975780D01*
X123495778Y-102966477D01*
X123677601Y-102966477D01*
X123953305Y-103241968D01*
X124020726Y-103309224D01*
X124084267Y-103372162D01*
X124133490Y-103420100D01*
X124170196Y-103454594D01*
X124196190Y-103477199D01*
X124213276Y-103489471D01*
X124223256Y-103492966D01*
X124227935Y-103489238D01*
X124229116Y-103479844D01*
X124229873Y-103464749D01*
X124232601Y-103425883D01*
X124237108Y-103366895D01*
X124243179Y-103290473D01*
X124250596Y-103199305D01*
X124259142Y-103096080D01*
X124268602Y-102983483D01*
X124278758Y-102864205D01*
X124287723Y-102759077D01*
X124297066Y-102648351D01*
X124305443Y-102547814D01*
X124312653Y-102459943D01*
X124318496Y-102387215D01*
X124322769Y-102332110D01*
X124325273Y-102297104D01*
X124325805Y-102284674D01*
X124325384Y-102284908D01*
X124313509Y-102296350D01*
X124287130Y-102323198D01*
X124248570Y-102363018D01*
X124200153Y-102413372D01*
X124144203Y-102471828D01*
X124083042Y-102535948D01*
X124018995Y-102603298D01*
X123954385Y-102671443D01*
X123891535Y-102737948D01*
X123832768Y-102800377D01*
X123780409Y-102856295D01*
X123679533Y-102964406D01*
X123677601Y-102966477D01*
X123495778Y-102966477D01*
X123497290Y-102964406D01*
X123489148Y-102953383D01*
X123465478Y-102926999D01*
X123428478Y-102887527D01*
X123380350Y-102837191D01*
X123323296Y-102778217D01*
X123259520Y-102712830D01*
X123191222Y-102643255D01*
X123120605Y-102571716D01*
X123049871Y-102500438D01*
X122981222Y-102431647D01*
X122916861Y-102367566D01*
X122858989Y-102310422D01*
X122809810Y-102262439D01*
X122771524Y-102225841D01*
X122746334Y-102202854D01*
X122736442Y-102195703D01*
X122736253Y-102203732D01*
X122607067Y-102203732D01*
X122605390Y-102191089D01*
X122330297Y-102191089D01*
X122330140Y-102090495D01*
X122430891Y-102090495D01*
X122512624Y-102090495D01*
X122519895Y-102090489D01*
X122560950Y-102089613D01*
X122583277Y-102085867D01*
X122592529Y-102077270D01*
X122594357Y-102061840D01*
X122586306Y-102039159D01*
X122558730Y-102001428D01*
X122512624Y-101952179D01*
X122430891Y-101871172D01*
X122430891Y-102090495D01*
X122330140Y-102090495D01*
X122329968Y-101980471D01*
X122329639Y-101769852D01*
X121877914Y-101310891D01*
X121426189Y-100851931D01*
X121425570Y-100764848D01*
X121424951Y-100677767D01*
X121966769Y-101226952D01*
X122019137Y-101279998D01*
X122127803Y-101389772D01*
X122220709Y-101483114D01*
X122299055Y-101561173D01*
X122364043Y-101625097D01*
X122416872Y-101676035D01*
X122458743Y-101715135D01*
X122490855Y-101743548D01*
X122514410Y-101762420D01*
X122530608Y-101772901D01*
X122540649Y-101776139D01*
X122557579Y-101775158D01*
X122567084Y-101767996D01*
X122568723Y-101748401D01*
X122564782Y-101710124D01*
X122562065Y-101686025D01*
X122558284Y-101645744D01*
X122556760Y-101618961D01*
X122556015Y-101609728D01*
X122548746Y-101599839D01*
X122528668Y-101596562D01*
X122489689Y-101597992D01*
X122479737Y-101598553D01*
X122439898Y-101597921D01*
X122411560Y-101589167D01*
X122391586Y-101574951D01*
X122674852Y-101574951D01*
X122679013Y-101622104D01*
X122680935Y-101643498D01*
X122686924Y-101701909D01*
X122692826Y-101740381D01*
X122699727Y-101762912D01*
X122708712Y-101773498D01*
X122720870Y-101776139D01*
X122731801Y-101777937D01*
X122739050Y-101786530D01*
X122743100Y-101806505D01*
X122744863Y-101842450D01*
X122745248Y-101898952D01*
X122745248Y-102021766D01*
X122785447Y-102061840D01*
X122883565Y-102159654D01*
X123021881Y-102297542D01*
X123021881Y-102191089D01*
X123776337Y-102191089D01*
X123776337Y-102430000D01*
X123157831Y-102430000D01*
X123367592Y-102646906D01*
X123407770Y-102688334D01*
X123463328Y-102745200D01*
X123511570Y-102794082D01*
X123549971Y-102832441D01*
X123576003Y-102857741D01*
X123587140Y-102867442D01*
X123591373Y-102864767D01*
X123611224Y-102846782D01*
X123645451Y-102813481D01*
X123692227Y-102766712D01*
X123749724Y-102708325D01*
X123816112Y-102640169D01*
X123889564Y-102564094D01*
X123968251Y-102481950D01*
X124047341Y-102398943D01*
X124124871Y-102317136D01*
X124187746Y-102250083D01*
X124237502Y-102196007D01*
X124275678Y-102153129D01*
X124303811Y-102119673D01*
X124323440Y-102093861D01*
X124336101Y-102073914D01*
X124343334Y-102058056D01*
X124346675Y-102044509D01*
X124347561Y-102037910D01*
X124351488Y-102001548D01*
X124356459Y-101948018D01*
X124361927Y-101883421D01*
X124367344Y-101813862D01*
X124369181Y-101789635D01*
X124374488Y-101724178D01*
X124379548Y-101667717D01*
X124383863Y-101625618D01*
X124386934Y-101603243D01*
X124392955Y-101574951D01*
X122674852Y-101574951D01*
X122391586Y-101574951D01*
X122383630Y-101569289D01*
X122378820Y-101565104D01*
X122339482Y-101514427D01*
X122323903Y-101461782D01*
X122664698Y-101461782D01*
X124079221Y-101461782D01*
X124291881Y-101461782D01*
X124348908Y-101461782D01*
X124365993Y-101461662D01*
X124391308Y-101459462D01*
X124398616Y-101452334D01*
X124392943Y-101437508D01*
X124391267Y-101434682D01*
X124372448Y-101412944D01*
X124345183Y-101388820D01*
X124317987Y-101369254D01*
X124299371Y-101361188D01*
X124297697Y-101362463D01*
X124293544Y-101379976D01*
X124291881Y-101411485D01*
X124291881Y-101461782D01*
X124079221Y-101461782D01*
X124075526Y-101371095D01*
X124071832Y-101280407D01*
X123996386Y-101265252D01*
X123958551Y-101258379D01*
X123895368Y-101248756D01*
X123836065Y-101241496D01*
X123751188Y-101232893D01*
X123751188Y-101336040D01*
X123172773Y-101336040D01*
X123172773Y-101245122D01*
X123100471Y-101253753D01*
X122989998Y-101272249D01*
X122878816Y-101305691D01*
X122786850Y-101352324D01*
X122712542Y-101412786D01*
X122664698Y-101461782D01*
X122323903Y-101461782D01*
X122322172Y-101455934D01*
X122327474Y-101394575D01*
X122355975Y-101335297D01*
X122358733Y-101331606D01*
X122396822Y-101299851D01*
X122446476Y-101281067D01*
X122500002Y-101276071D01*
X122549707Y-101285678D01*
X122587900Y-101310704D01*
X122600831Y-101323480D01*
X122613428Y-101326576D01*
X122631467Y-101316998D01*
X122661928Y-101293082D01*
X122671274Y-101285731D01*
X122743430Y-101239339D01*
X122828915Y-101198084D01*
X122898830Y-101172575D01*
X123273367Y-101172575D01*
X123273367Y-101235446D01*
X123650594Y-101235446D01*
X123650594Y-101172575D01*
X123273367Y-101172575D01*
X122898830Y-101172575D01*
X122919767Y-101164936D01*
X123008027Y-101142868D01*
X123085736Y-101134852D01*
X123093991Y-101134788D01*
X123139879Y-101130321D01*
X123165079Y-101117795D01*
X123172773Y-101095784D01*
X123173676Y-101088849D01*
X123178615Y-101082885D01*
X123190611Y-101078519D01*
X123212680Y-101075503D01*
X123247836Y-101073590D01*
X123299094Y-101072530D01*
X123369471Y-101072077D01*
X123461980Y-101071980D01*
X123548660Y-101072150D01*
X123622332Y-101072834D01*
X123676265Y-101074215D01*
X123713288Y-101076470D01*
X123736230Y-101079778D01*
X123747920Y-101084320D01*
X123751188Y-101090272D01*
X123761937Y-101104888D01*
X123792055Y-101114215D01*
X123803582Y-101115847D01*
X123842886Y-101121591D01*
X123895188Y-101129378D01*
X123952376Y-101138003D01*
X123983916Y-101142393D01*
X124030074Y-101147148D01*
X124062641Y-101148295D01*
X124076023Y-101145495D01*
X124078308Y-101143671D01*
X124099405Y-101139165D01*
X124137355Y-101136029D01*
X124186048Y-101134852D01*
X124291881Y-101134852D01*
X124291894Y-101172575D01*
X124291894Y-101175718D01*
X124292388Y-101188668D01*
X124298819Y-101210411D01*
X124317123Y-101228851D01*
X124352830Y-101250801D01*
X124384174Y-101270854D01*
X124431893Y-101309356D01*
X124475138Y-101352579D01*
X124508219Y-101394627D01*
X124525442Y-101429604D01*
X124529662Y-101443081D01*
X124537480Y-101452334D01*
X124540116Y-101455454D01*
X124561662Y-101460696D01*
G37*
D12*
X124561662Y-101460696D02*
X124601314Y-101461782D01*
X124669109Y-101461782D01*
X124669109Y-101574951D01*
X124509577Y-101574951D01*
X124494682Y-101752732D01*
X124492682Y-101777037D01*
X124488023Y-101837880D01*
X124484731Y-101887389D01*
X124483092Y-101920992D01*
X124483390Y-101934116D01*
X124487724Y-101930343D01*
X124507496Y-101910676D01*
X124541679Y-101875818D01*
X124588541Y-101827576D01*
X124646354Y-101767757D01*
X124713387Y-101698167D01*
X124787912Y-101620615D01*
X124868197Y-101536907D01*
X124952513Y-101448849D01*
X125039130Y-101358250D01*
X125126319Y-101266915D01*
X125212349Y-101176653D01*
X125295492Y-101089269D01*
X125374016Y-101006572D01*
X125446192Y-100930368D01*
X125510291Y-100862463D01*
X125564583Y-100804666D01*
X125661592Y-100701040D01*
X125662034Y-100789315D01*
X125662475Y-100877589D01*
X125061938Y-101509158D01*
X124461401Y-102140726D01*
X124449396Y-102284674D01*
X124401365Y-102860635D01*
X124392876Y-102962791D01*
X124382343Y-103090612D01*
X124372621Y-103209767D01*
X124363898Y-103317914D01*
X124356358Y-103412713D01*
X124350187Y-103491819D01*
X124345573Y-103552892D01*
X124342700Y-103593590D01*
X124341754Y-103611570D01*
X124344251Y-103619808D01*
X124355471Y-103637599D01*
X124376751Y-103664411D01*
X124387021Y-103676129D01*
X124409225Y-103701466D01*
X124454023Y-103749986D01*
X124512281Y-103811192D01*
X124585129Y-103886307D01*
X124673703Y-103976550D01*
X124779134Y-104083145D01*
X124848492Y-104153093D01*
X124945179Y-104250658D01*
X125041526Y-104347941D01*
X125134638Y-104442014D01*
X125221618Y-104529950D01*
X125299569Y-104608820D01*
X125365596Y-104675699D01*
X125416802Y-104727658D01*
X125617514Y-104931620D01*
X125581058Y-104969671D01*
X125572460Y-104978245D01*
X125547095Y-104999297D01*
X125529695Y-105007723D01*
X125516071Y-105000530D01*
X125490743Y-104978944D01*
X125460379Y-104947995D01*
X125441896Y-104928448D01*
X125407427Y-104892752D01*
X125358712Y-104842684D01*
X125297469Y-104780001D01*
X125225420Y-104706457D01*
X125144285Y-104623810D01*
X125055784Y-104533815D01*
X124961637Y-104438228D01*
X124863565Y-104338805D01*
X124321161Y-103789343D01*
X124299066Y-104074746D01*
X124294250Y-104135662D01*
X124287216Y-104217548D01*
X124280872Y-104279569D01*
X124274748Y-104324987D01*
X124268373Y-104357062D01*
X124261277Y-104379052D01*
X124252991Y-104394219D01*
X124241393Y-104415416D01*
X124231850Y-104454386D01*
X124229010Y-104510531D01*
X124229010Y-104592773D01*
X124002674Y-104592773D01*
X124002674Y-104416733D01*
X123157082Y-104416733D01*
X123108203Y-104472262D01*
X123094836Y-104486722D01*
X123022388Y-104544813D01*
X122940532Y-104580576D01*
X122851900Y-104592773D01*
X122773692Y-104586306D01*
X122685233Y-104559047D01*
X122609507Y-104510328D01*
X122594748Y-104496403D01*
X122557864Y-104451328D01*
X122525503Y-104398819D01*
X122502297Y-104347061D01*
X122492879Y-104304239D01*
X122492697Y-104298023D01*
X122491342Y-104275246D01*
X122487800Y-104259513D01*
X122480390Y-104252068D01*
X122467431Y-104254156D01*
X122447243Y-104267020D01*
X122418145Y-104291905D01*
X122378456Y-104330053D01*
X122326496Y-104382710D01*
X122260584Y-104451119D01*
X122179040Y-104536524D01*
X122135604Y-104582112D01*
X122063000Y-104658441D01*
X121994309Y-104730808D01*
X121932223Y-104796366D01*
X121879434Y-104852274D01*
X121838634Y-104895686D01*
X121812515Y-104923758D01*
X121741119Y-105001436D01*
X121652863Y-104913416D01*
X122198690Y-104341287D01*
X122233105Y-104305188D01*
X122355546Y-104176272D01*
X122460651Y-104064754D01*
X122548736Y-103970288D01*
X122620116Y-103892529D01*
X122670588Y-103836174D01*
X122877247Y-103836174D01*
X122878872Y-103849434D01*
X122879156Y-103850819D01*
X122892698Y-103882228D01*
X122919748Y-103896863D01*
X123003129Y-103928063D01*
X123077418Y-103980038D01*
X123135846Y-104048791D01*
X123175890Y-104131315D01*
X123195026Y-104224606D01*
X123201364Y-104303565D01*
X124150838Y-104303565D01*
X124157458Y-104275273D01*
X124158629Y-104268329D01*
X124162268Y-104237281D01*
X124167234Y-104187081D01*
X124173157Y-104121727D01*
X124179669Y-104045219D01*
X124186401Y-103961555D01*
X124208724Y-103676129D01*
X123907826Y-103370565D01*
X123852636Y-103314704D01*
X123785109Y-103246888D01*
X123724529Y-103186643D01*
X123673021Y-103136052D01*
X123632710Y-103097200D01*
X123605722Y-103072170D01*
X123594182Y-103063046D01*
X123586444Y-103067405D01*
X123563395Y-103087241D01*
X123528709Y-103120375D01*
X123485487Y-103163820D01*
X123436832Y-103214587D01*
X123424140Y-103228051D01*
X123367229Y-103288275D01*
X123299414Y-103359864D01*
X123225800Y-103437437D01*
X123151493Y-103515611D01*
X123081599Y-103589005D01*
X123077401Y-103593409D01*
X123012420Y-103661785D01*
X122962836Y-103714732D01*
X122926688Y-103754767D01*
X122902016Y-103784411D01*
X122886858Y-103806181D01*
X122879256Y-103822595D01*
X122877247Y-103836174D01*
X122670588Y-103836174D01*
X122675105Y-103831131D01*
X122714019Y-103785748D01*
X122737173Y-103756035D01*
X122744882Y-103741644D01*
X122744883Y-103741559D01*
X122743825Y-103723624D01*
X122740737Y-103683421D01*
X122735858Y-103623687D01*
X122729432Y-103547158D01*
X122721700Y-103456569D01*
X122712905Y-103354657D01*
X122703287Y-103244159D01*
X122693091Y-103127811D01*
X122682556Y-103008348D01*
X122671926Y-102888507D01*
X122661442Y-102771025D01*
X122651346Y-102658637D01*
X122641881Y-102554081D01*
X122633288Y-102460091D01*
X122625809Y-102379405D01*
X122619687Y-102314759D01*
X122615162Y-102268888D01*
X122612478Y-102244530D01*
X122607067Y-102203732D01*
X122736253Y-102203732D01*
X122737908Y-102234653D01*
X122741549Y-102286653D01*
X122746995Y-102357487D01*
X122754063Y-102444911D01*
X122762570Y-102546681D01*
X122772335Y-102660552D01*
X122783174Y-102784279D01*
X122794907Y-102915618D01*
X122804079Y-103016908D01*
X122815566Y-103142526D01*
X122826322Y-103258762D01*
X122836131Y-103363380D01*
X122844781Y-103454140D01*
X122852057Y-103528804D01*
X122857746Y-103585134D01*
X122861634Y-103620891D01*
X122863506Y-103633837D01*
X122869188Y-103629826D01*
X122890020Y-103610138D01*
X122923872Y-103576322D01*
X122968412Y-103530837D01*
X123021310Y-103476146D01*
X123080236Y-103414710D01*
X123142858Y-103348990D01*
X123206848Y-103281449D01*
X123269874Y-103214547D01*
X123329606Y-103150746D01*
X123383713Y-103092507D01*
X123429865Y-103042292D01*
X123465733Y-103002563D01*
X123488984Y-102975780D01*
X123495778Y-102966477D01*
X123677601Y-102966477D01*
X123953305Y-103241968D01*
X124020726Y-103309224D01*
X124084267Y-103372162D01*
X124133490Y-103420100D01*
X124170196Y-103454594D01*
X124196190Y-103477199D01*
X124213276Y-103489471D01*
X124223256Y-103492966D01*
X124227935Y-103489238D01*
X124229116Y-103479844D01*
X124229873Y-103464749D01*
X124232601Y-103425883D01*
X124237108Y-103366895D01*
X124243179Y-103290473D01*
X124250596Y-103199305D01*
X124259142Y-103096080D01*
X124268602Y-102983483D01*
X124278758Y-102864205D01*
X124287723Y-102759077D01*
X124297066Y-102648351D01*
X124305443Y-102547814D01*
X124312653Y-102459943D01*
X124318496Y-102387215D01*
X124322769Y-102332110D01*
X124325273Y-102297104D01*
X124325805Y-102284674D01*
X124325384Y-102284908D01*
X124313509Y-102296350D01*
X124287130Y-102323198D01*
X124248570Y-102363018D01*
X124200153Y-102413372D01*
X124144203Y-102471828D01*
X124083042Y-102535948D01*
X124018995Y-102603298D01*
X123954385Y-102671443D01*
X123891535Y-102737948D01*
X123832768Y-102800377D01*
X123780409Y-102856295D01*
X123679533Y-102964406D01*
X123677601Y-102966477D01*
X123495778Y-102966477D01*
X123497290Y-102964406D01*
X123489148Y-102953383D01*
X123465478Y-102926999D01*
X123428478Y-102887527D01*
X123380350Y-102837191D01*
X123323296Y-102778217D01*
X123259520Y-102712830D01*
X123191222Y-102643255D01*
X123120605Y-102571716D01*
X123049871Y-102500438D01*
X122981222Y-102431647D01*
X122916861Y-102367566D01*
X122858989Y-102310422D01*
X122809810Y-102262439D01*
X122771524Y-102225841D01*
X122746334Y-102202854D01*
X122736442Y-102195703D01*
X122736253Y-102203732D01*
X122607067Y-102203732D01*
X122605390Y-102191089D01*
X122330297Y-102191089D01*
X122330140Y-102090495D01*
X122430891Y-102090495D01*
X122512624Y-102090495D01*
X122519895Y-102090489D01*
X122560950Y-102089613D01*
X122583277Y-102085867D01*
X122592529Y-102077270D01*
X122594357Y-102061840D01*
X122586306Y-102039159D01*
X122558730Y-102001428D01*
X122512624Y-101952179D01*
X122430891Y-101871172D01*
X122430891Y-102090495D01*
X122330140Y-102090495D01*
X122329968Y-101980471D01*
X122329639Y-101769852D01*
X121877914Y-101310891D01*
X121426189Y-100851931D01*
X121425570Y-100764848D01*
X121424951Y-100677767D01*
X121966769Y-101226952D01*
X122019137Y-101279998D01*
X122127803Y-101389772D01*
X122220709Y-101483114D01*
X122299055Y-101561173D01*
X122364043Y-101625097D01*
X122416872Y-101676035D01*
X122458743Y-101715135D01*
X122490855Y-101743548D01*
X122514410Y-101762420D01*
X122530608Y-101772901D01*
X122540649Y-101776139D01*
X122557579Y-101775158D01*
X122567084Y-101767996D01*
X122568723Y-101748401D01*
X122564782Y-101710124D01*
X122562065Y-101686025D01*
X122558284Y-101645744D01*
X122556760Y-101618961D01*
X122556015Y-101609728D01*
X122548746Y-101599839D01*
X122528668Y-101596562D01*
X122489689Y-101597992D01*
X122479737Y-101598553D01*
X122439898Y-101597921D01*
X122411560Y-101589167D01*
X122391586Y-101574951D01*
X122674852Y-101574951D01*
X122679013Y-101622104D01*
X122680935Y-101643498D01*
X122686924Y-101701909D01*
X122692826Y-101740381D01*
X122699727Y-101762912D01*
X122708712Y-101773498D01*
X122720870Y-101776139D01*
X122731801Y-101777937D01*
X122739050Y-101786530D01*
X122743100Y-101806505D01*
X122744863Y-101842450D01*
X122745248Y-101898952D01*
X122745248Y-102021766D01*
X122785447Y-102061840D01*
X122883565Y-102159654D01*
X123021881Y-102297542D01*
X123021881Y-102191089D01*
X123776337Y-102191089D01*
X123776337Y-102430000D01*
X123157831Y-102430000D01*
X123367592Y-102646906D01*
X123407770Y-102688334D01*
X123463328Y-102745200D01*
X123511570Y-102794082D01*
X123549971Y-102832441D01*
X123576003Y-102857741D01*
X123587140Y-102867442D01*
X123591373Y-102864767D01*
X123611224Y-102846782D01*
X123645451Y-102813481D01*
X123692227Y-102766712D01*
X123749724Y-102708325D01*
X123816112Y-102640169D01*
X123889564Y-102564094D01*
X123968251Y-102481950D01*
X124047341Y-102398943D01*
X124124871Y-102317136D01*
X124187746Y-102250083D01*
X124237502Y-102196007D01*
X124275678Y-102153129D01*
X124303811Y-102119673D01*
X124323440Y-102093861D01*
X124336101Y-102073914D01*
X124343334Y-102058056D01*
X124346675Y-102044509D01*
X124347561Y-102037910D01*
X124351488Y-102001548D01*
X124356459Y-101948018D01*
X124361927Y-101883421D01*
X124367344Y-101813862D01*
X124369181Y-101789635D01*
X124374488Y-101724178D01*
X124379548Y-101667717D01*
X124383863Y-101625618D01*
X124386934Y-101603243D01*
X124392955Y-101574951D01*
X122674852Y-101574951D01*
X122391586Y-101574951D01*
X122383630Y-101569289D01*
X122378820Y-101565104D01*
X122339482Y-101514427D01*
X122323903Y-101461782D01*
X122664698Y-101461782D01*
X124079221Y-101461782D01*
X124291881Y-101461782D01*
X124348908Y-101461782D01*
X124365993Y-101461662D01*
X124391308Y-101459462D01*
X124398616Y-101452334D01*
X124392943Y-101437508D01*
X124391267Y-101434682D01*
X124372448Y-101412944D01*
X124345183Y-101388820D01*
X124317987Y-101369254D01*
X124299371Y-101361188D01*
X124297697Y-101362463D01*
X124293544Y-101379976D01*
X124291881Y-101411485D01*
X124291881Y-101461782D01*
X124079221Y-101461782D01*
X124075526Y-101371095D01*
X124071832Y-101280407D01*
X123996386Y-101265252D01*
X123958551Y-101258379D01*
X123895368Y-101248756D01*
X123836065Y-101241496D01*
X123751188Y-101232893D01*
X123751188Y-101336040D01*
X123172773Y-101336040D01*
X123172773Y-101245122D01*
X123100471Y-101253753D01*
X122989998Y-101272249D01*
X122878816Y-101305691D01*
X122786850Y-101352324D01*
X122712542Y-101412786D01*
X122664698Y-101461782D01*
X122323903Y-101461782D01*
X122322172Y-101455934D01*
X122327474Y-101394575D01*
X122355975Y-101335297D01*
X122358733Y-101331606D01*
X122396822Y-101299851D01*
X122446476Y-101281067D01*
X122500002Y-101276071D01*
X122549707Y-101285678D01*
X122587900Y-101310704D01*
X122600831Y-101323480D01*
X122613428Y-101326576D01*
X122631467Y-101316998D01*
X122661928Y-101293082D01*
X122671274Y-101285731D01*
X122743430Y-101239339D01*
X122828915Y-101198084D01*
X122898830Y-101172575D01*
X123273367Y-101172575D01*
X123273367Y-101235446D01*
X123650594Y-101235446D01*
X123650594Y-101172575D01*
X123273367Y-101172575D01*
X122898830Y-101172575D01*
X122919767Y-101164936D01*
X123008027Y-101142868D01*
X123085736Y-101134852D01*
X123093991Y-101134788D01*
X123139879Y-101130321D01*
X123165079Y-101117795D01*
X123172773Y-101095784D01*
X123173676Y-101088849D01*
X123178615Y-101082885D01*
X123190611Y-101078519D01*
X123212680Y-101075503D01*
X123247836Y-101073590D01*
X123299094Y-101072530D01*
X123369471Y-101072077D01*
X123461980Y-101071980D01*
X123548660Y-101072150D01*
X123622332Y-101072834D01*
X123676265Y-101074215D01*
X123713288Y-101076470D01*
X123736230Y-101079778D01*
X123747920Y-101084320D01*
X123751188Y-101090272D01*
X123761937Y-101104888D01*
X123792055Y-101114215D01*
X123803582Y-101115847D01*
X123842886Y-101121591D01*
X123895188Y-101129378D01*
X123952376Y-101138003D01*
X123983916Y-101142393D01*
X124030074Y-101147148D01*
X124062641Y-101148295D01*
X124076023Y-101145495D01*
X124078308Y-101143671D01*
X124099405Y-101139165D01*
X124137355Y-101136029D01*
X124186048Y-101134852D01*
X124291881Y-101134852D01*
X124291894Y-101172575D01*
X124291894Y-101175718D01*
X124292388Y-101188668D01*
X124298819Y-101210411D01*
X124317123Y-101228851D01*
X124352830Y-101250801D01*
X124384174Y-101270854D01*
X124431893Y-101309356D01*
X124475138Y-101352579D01*
X124508219Y-101394627D01*
X124525442Y-101429604D01*
X124529662Y-101443081D01*
X124537480Y-101452334D01*
X124540116Y-101455454D01*
X124561662Y-101460696D01*
G36*
X125322971Y-106717822D02*
G01*
X121802178Y-106717822D01*
X121802178Y-105850198D01*
X125322971Y-105850198D01*
X125322971Y-106717822D01*
G37*
X125322971Y-106717822D02*
X121802178Y-106717822D01*
X121802178Y-105850198D01*
X125322971Y-105850198D01*
X125322971Y-106717822D01*
%TD*%
%LPC*%
D13*
%TO.C,J1*%
X56960000Y-70820000D03*
X56960000Y-65040000D03*
D14*
X53310000Y-63610000D03*
X53310000Y-72250000D03*
D15*
X57490000Y-63610000D03*
X57490000Y-72250000D03*
%TD*%
D16*
%TO.C,J4*%
X84250000Y-103000000D03*
D17*
X84250000Y-105540000D03*
D18*
X84250000Y-108080000D03*
X84250000Y-110620000D03*
D17*
X84250000Y-113160000D03*
D18*
X84250000Y-115700000D03*
%TD*%
D19*
%TO.C,J5*%
X110000000Y-111000000D03*
X115000000Y-111000000D03*
%TD*%
D20*
%TO.C,H3*%
X125000000Y-115000000D03*
D21*
X125000000Y-115000000D03*
%TD*%
D20*
%TO.C,H4*%
X55000000Y-115000000D03*
D21*
X55000000Y-115000000D03*
%TD*%
D22*
%TO.C,J9*%
X114420000Y-65910000D03*
D18*
X111880000Y-65910000D03*
X109340000Y-65910000D03*
X106800000Y-65910000D03*
%TD*%
D23*
%TO.C,SW3*%
X52600000Y-99550000D03*
X52600000Y-102050000D03*
X52600000Y-104550000D03*
%TD*%
D24*
%TO.C,BT2*%
X72400000Y-117000000D03*
D16*
X74000000Y-115000000D03*
D25*
X76500000Y-115000000D03*
%TD*%
D21*
%TO.C,H2*%
X125000000Y-55000000D03*
D20*
X125000000Y-55000000D03*
%TD*%
D22*
%TO.C,J10*%
X125375000Y-61350000D03*
D18*
X122835000Y-61350000D03*
X120295000Y-61350000D03*
%TD*%
D26*
%TO.C,J7*%
X124000000Y-89000000D03*
D27*
X121460000Y-86460000D03*
X126540000Y-86460000D03*
X121460000Y-91540000D03*
X126540000Y-91540000D03*
%TD*%
D26*
%TO.C,J8*%
X56000000Y-89000000D03*
D27*
X58540000Y-91540000D03*
X53460000Y-91540000D03*
X58540000Y-86460000D03*
X53460000Y-86460000D03*
%TD*%
D19*
%TO.C,J3*%
X93000000Y-111000000D03*
X98000000Y-111000000D03*
%TD*%
D16*
%TO.C,BT1*%
X65000000Y-114000000D03*
D28*
X62460000Y-114000000D03*
%TD*%
D20*
%TO.C,H1*%
X55000000Y-55000000D03*
D21*
X55000000Y-55000000D03*
%TD*%
D29*
%TO.C,U7*%
X99480000Y-72890000D03*
X99480000Y-77340000D03*
X99480000Y-81790000D03*
X99480000Y-86240000D03*
X99480000Y-90690000D03*
X99480000Y-95140000D03*
X99480000Y-99590000D03*
X101570000Y-103140000D03*
X106020000Y-103140000D03*
D30*
X113480000Y-69190000D03*
D31*
X108080000Y-96590000D03*
D29*
X110470000Y-103140000D03*
D30*
X102680000Y-69190000D03*
D29*
X114920000Y-103140000D03*
X116680000Y-99590000D03*
X116680000Y-95140000D03*
X116680000Y-90690000D03*
X116680000Y-86240000D03*
X116680000Y-81790000D03*
X116680000Y-77340000D03*
X116680000Y-72890000D03*
%TD*%
D32*
%TO.C,C14*%
X110820000Y-51535000D03*
X112370000Y-51535000D03*
%TD*%
D33*
%TO.C,FL2*%
X59453207Y-79825109D03*
D34*
X58960000Y-81630000D03*
D35*
X59085511Y-81755511D03*
D33*
X57155109Y-82123207D03*
D34*
X57648316Y-80318316D03*
D35*
X57522805Y-80192805D03*
%TD*%
D36*
%TO.C,TP9*%
X59725000Y-110050000D03*
%TD*%
D37*
%TO.C,C8*%
X112457500Y-53135000D03*
X110732500Y-53135000D03*
%TD*%
D36*
%TO.C,TP11*%
X124950000Y-108800000D03*
%TD*%
%TO.C,TP12*%
X94100000Y-55200000D03*
%TD*%
D38*
%TO.C,JP2*%
X95717500Y-78590000D03*
X95717500Y-79890000D03*
X95717500Y-81190000D03*
%TD*%
D29*
%TO.C,U8*%
X80600000Y-105300000D03*
X80600000Y-100850000D03*
X80600000Y-96400000D03*
X80600000Y-91950000D03*
X80600000Y-87500000D03*
X80600000Y-83050000D03*
X80600000Y-78600000D03*
X78510000Y-75050000D03*
X74060000Y-75050000D03*
D30*
X77400000Y-109000000D03*
D31*
X72000000Y-81600000D03*
D29*
X69610000Y-75050000D03*
D30*
X66600000Y-109000000D03*
D29*
X65160000Y-75050000D03*
X63400000Y-78600000D03*
X63400000Y-83050000D03*
X63400000Y-87500000D03*
X63400000Y-91950000D03*
X63400000Y-96400000D03*
X63400000Y-100850000D03*
X63400000Y-105300000D03*
%TD*%
D39*
%TO.C,FL1*%
X120300951Y-97799049D03*
D35*
X120668647Y-95868647D03*
D40*
X120794158Y-95994158D03*
D39*
X122599049Y-95500951D03*
D35*
X122231353Y-97431353D03*
D40*
X122105842Y-97305842D03*
%TD*%
D36*
%TO.C,TP10*%
X88450000Y-53350000D03*
%TD*%
%TO.C,TP13*%
X94100000Y-57300000D03*
%TD*%
M02*
