%TF.GenerationSoftware,KiCad,Pcbnew,7.0.1*%
%TF.CreationDate,2023-04-10T22:37:02+03:00*%
%TF.ProjectId,cross_band_handy_walkie_talkie_ES8388,63726f73-735f-4626-916e-645f68616e64,rev?*%
%TF.SameCoordinates,Original*%
%TF.FileFunction,Soldermask,Top*%
%TF.FilePolarity,Negative*%
%FSLAX46Y46*%
G04 Gerber Fmt 4.6, Leading zero omitted, Abs format (unit mm)*
G04 Created by KiCad (PCBNEW 7.0.1) date 2023-04-10 22:37:02*
%MOMM*%
%LPD*%
G01*
G04 APERTURE LIST*
G04 Aperture macros list*
%AMRoundRect*
0 Rectangle with rounded corners*
0 $1 Rounding radius*
0 $2 $3 $4 $5 $6 $7 $8 $9 X,Y pos of 4 corners*
0 Add a 4 corners polygon primitive as box body*
4,1,4,$2,$3,$4,$5,$6,$7,$8,$9,$2,$3,0*
0 Add four circle primitives for the rounded corners*
1,1,$1+$1,$2,$3*
1,1,$1+$1,$4,$5*
1,1,$1+$1,$6,$7*
1,1,$1+$1,$8,$9*
0 Add four rect primitives between the rounded corners*
20,1,$1+$1,$2,$3,$4,$5,0*
20,1,$1+$1,$4,$5,$6,$7,0*
20,1,$1+$1,$6,$7,$8,$9,0*
20,1,$1+$1,$8,$9,$2,$3,0*%
G04 Aperture macros list end*
%ADD10RoundRect,0.135000X0.135000X0.185000X-0.135000X0.185000X-0.135000X-0.185000X0.135000X-0.185000X0*%
%ADD11R,1.300000X2.000000*%
%ADD12R,2.000000X2.000000*%
%ADD13RoundRect,0.225000X-0.250000X0.225000X-0.250000X-0.225000X0.250000X-0.225000X0.250000X0.225000X0*%
%ADD14RoundRect,0.135000X-0.135000X-0.185000X0.135000X-0.185000X0.135000X0.185000X-0.135000X0.185000X0*%
%ADD15RoundRect,0.150000X-0.587500X-0.150000X0.587500X-0.150000X0.587500X0.150000X-0.587500X0.150000X0*%
%ADD16RoundRect,0.250000X0.262500X0.450000X-0.262500X0.450000X-0.262500X-0.450000X0.262500X-0.450000X0*%
%ADD17RoundRect,0.237500X-0.250000X-0.237500X0.250000X-0.237500X0.250000X0.237500X-0.250000X0.237500X0*%
%ADD18RoundRect,0.140000X-0.170000X0.140000X-0.170000X-0.140000X0.170000X-0.140000X0.170000X0.140000X0*%
%ADD19RoundRect,0.250000X-0.262500X-0.450000X0.262500X-0.450000X0.262500X0.450000X-0.262500X0.450000X0*%
%ADD20R,1.500000X1.000000*%
%ADD21RoundRect,0.140000X-0.140000X-0.170000X0.140000X-0.170000X0.140000X0.170000X-0.140000X0.170000X0*%
%ADD22RoundRect,0.107480X-0.642520X-1.217520X0.642520X-1.217520X0.642520X1.217520X-0.642520X1.217520X0*%
%ADD23RoundRect,0.218750X-0.218750X-0.256250X0.218750X-0.256250X0.218750X0.256250X-0.218750X0.256250X0*%
%ADD24RoundRect,0.225000X-0.225000X-0.250000X0.225000X-0.250000X0.225000X0.250000X-0.225000X0.250000X0*%
%ADD25RoundRect,0.140000X0.140000X0.170000X-0.140000X0.170000X-0.140000X-0.170000X0.140000X-0.170000X0*%
%ADD26R,1.000000X1.000000*%
%ADD27RoundRect,0.135000X-0.185000X0.135000X-0.185000X-0.135000X0.185000X-0.135000X0.185000X0.135000X0*%
%ADD28RoundRect,0.225000X0.250000X-0.225000X0.250000X0.225000X-0.250000X0.225000X-0.250000X-0.225000X0*%
%ADD29RoundRect,0.237500X-0.300000X-0.237500X0.300000X-0.237500X0.300000X0.237500X-0.300000X0.237500X0*%
%ADD30RoundRect,0.237500X0.300000X0.237500X-0.300000X0.237500X-0.300000X-0.237500X0.300000X-0.237500X0*%
%ADD31C,0.650000*%
%ADD32R,1.450000X0.600000*%
%ADD33R,1.450000X0.300000*%
%ADD34O,1.600000X1.000000*%
%ADD35O,2.100000X1.000000*%
%ADD36RoundRect,0.225000X0.225000X0.250000X-0.225000X0.250000X-0.225000X-0.250000X0.225000X-0.250000X0*%
%ADD37RoundRect,0.250000X-0.475000X0.250000X-0.475000X-0.250000X0.475000X-0.250000X0.475000X0.250000X0*%
%ADD38RoundRect,0.218750X0.256250X-0.218750X0.256250X0.218750X-0.256250X0.218750X-0.256250X-0.218750X0*%
%ADD39RoundRect,0.250000X0.250000X0.475000X-0.250000X0.475000X-0.250000X-0.475000X0.250000X-0.475000X0*%
%ADD40R,1.000000X1.500000*%
%ADD41RoundRect,0.250000X-0.250000X-0.475000X0.250000X-0.475000X0.250000X0.475000X-0.250000X0.475000X0*%
%ADD42RoundRect,0.237500X0.250000X0.237500X-0.250000X0.237500X-0.250000X-0.237500X0.250000X-0.237500X0*%
%ADD43RoundRect,0.200000X0.275000X-0.200000X0.275000X0.200000X-0.275000X0.200000X-0.275000X-0.200000X0*%
%ADD44RoundRect,0.243750X-0.243750X-0.456250X0.243750X-0.456250X0.243750X0.456250X-0.243750X0.456250X0*%
%ADD45C,2.000000*%
%ADD46R,2.000000X1.700000*%
%ADD47O,1.700000X1.700000*%
%ADD48C,3.000000*%
%ADD49RoundRect,0.300000X0.800000X-0.300000X0.800000X0.300000X-0.800000X0.300000X-0.800000X-0.300000X0*%
%ADD50R,0.700000X1.000000*%
%ADD51RoundRect,0.218750X0.218750X0.256250X-0.218750X0.256250X-0.218750X-0.256250X0.218750X-0.256250X0*%
%ADD52R,3.500000X1.800000*%
%ADD53RoundRect,0.135000X0.185000X-0.135000X0.185000X0.135000X-0.185000X0.135000X-0.185000X-0.135000X0*%
%ADD54C,1.000000*%
%ADD55RoundRect,0.237500X-0.237500X0.250000X-0.237500X-0.250000X0.237500X-0.250000X0.237500X0.250000X0*%
%ADD56C,3.600000*%
%ADD57C,5.600000*%
%ADD58R,1.700000X1.700000*%
%ADD59RoundRect,0.150000X-0.150000X0.587500X-0.150000X-0.587500X0.150000X-0.587500X0.150000X0.587500X0*%
%ADD60C,1.500000*%
%ADD61RoundRect,0.075000X-0.075000X0.337500X-0.075000X-0.337500X0.075000X-0.337500X0.075000X0.337500X0*%
%ADD62RoundRect,0.075000X-0.337500X0.075000X-0.337500X-0.075000X0.337500X-0.075000X0.337500X0.075000X0*%
%ADD63R,2.500000X2.500000*%
%ADD64RoundRect,0.300000X-0.300000X-0.800000X0.300000X-0.800000X0.300000X0.800000X-0.300000X0.800000X0*%
%ADD65RoundRect,0.150000X0.150000X-0.587500X0.150000X0.587500X-0.150000X0.587500X-0.150000X-0.587500X0*%
%ADD66RoundRect,0.300000X-0.800000X0.300000X-0.800000X-0.300000X0.800000X-0.300000X0.800000X0.300000X0*%
%ADD67C,1.200000*%
%ADD68RoundRect,0.140000X0.170000X-0.140000X0.170000X0.140000X-0.170000X0.140000X-0.170000X-0.140000X0*%
%ADD69R,0.850000X1.100000*%
%ADD70R,0.750000X1.100000*%
%ADD71R,1.200000X1.000000*%
%ADD72R,1.550000X1.350000*%
%ADD73R,1.170000X1.800000*%
%ADD74R,1.900000X1.350000*%
%ADD75RoundRect,0.250000X0.625000X-0.312500X0.625000X0.312500X-0.625000X0.312500X-0.625000X-0.312500X0*%
%ADD76RoundRect,0.062500X-0.062500X0.350000X-0.062500X-0.350000X0.062500X-0.350000X0.062500X0.350000X0*%
%ADD77RoundRect,0.062500X-0.350000X0.062500X-0.350000X-0.062500X0.350000X-0.062500X0.350000X0.062500X0*%
%ADD78R,2.400000X2.400000*%
%ADD79RoundRect,0.250000X0.312500X0.625000X-0.312500X0.625000X-0.312500X-0.625000X0.312500X-0.625000X0*%
%ADD80C,2.050000*%
%ADD81C,2.250000*%
%ADD82RoundRect,0.200000X0.200000X0.275000X-0.200000X0.275000X-0.200000X-0.275000X0.200000X-0.275000X0*%
%ADD83R,1.400000X0.800000*%
%ADD84R,0.800000X1.400000*%
%ADD85R,0.800000X0.800000*%
%ADD86RoundRect,0.150000X0.587500X0.150000X-0.587500X0.150000X-0.587500X-0.150000X0.587500X-0.150000X0*%
%ADD87R,1.500000X2.000000*%
%ADD88R,3.800000X2.000000*%
%ADD89R,1.700000X2.000000*%
%ADD90RoundRect,0.150000X0.150000X-0.512500X0.150000X0.512500X-0.150000X0.512500X-0.150000X-0.512500X0*%
%ADD91RoundRect,0.062500X-0.362500X-0.062500X0.362500X-0.062500X0.362500X0.062500X-0.362500X0.062500X0*%
%ADD92RoundRect,0.062500X-0.062500X-0.362500X0.062500X-0.362500X0.062500X0.362500X-0.062500X0.362500X0*%
%ADD93R,2.600000X2.600000*%
%ADD94C,0.610000*%
G04 APERTURE END LIST*
D10*
%TO.C,R10*%
X100045000Y-53135000D03*
X99025000Y-53135000D03*
%TD*%
D11*
%TO.C,RV4*%
X107460000Y-93530000D03*
D12*
X108610000Y-89530000D03*
D11*
X109760000Y-93530000D03*
%TD*%
D13*
%TO.C,C19*%
X92900000Y-98975000D03*
X92900000Y-100525000D03*
%TD*%
D14*
%TO.C,R3*%
X60150000Y-69710000D03*
X61170000Y-69710000D03*
%TD*%
D15*
%TO.C,Q6*%
X73462500Y-63550000D03*
X73462500Y-65450000D03*
X75337500Y-64500000D03*
%TD*%
D14*
%TO.C,R41*%
X96840000Y-93300000D03*
X97860000Y-93300000D03*
%TD*%
D16*
%TO.C,FB1*%
X62882500Y-71410000D03*
X61057500Y-71410000D03*
%TD*%
D17*
%TO.C,R7*%
X55847500Y-60660000D03*
X57672500Y-60660000D03*
%TD*%
D18*
%TO.C,C40*%
X97800000Y-95320000D03*
X97800000Y-96280000D03*
%TD*%
D19*
%TO.C,R5*%
X52520000Y-81300000D03*
X54345000Y-81300000D03*
%TD*%
D20*
%TO.C,JP1*%
X87270000Y-94480000D03*
X87270000Y-95780000D03*
X87270000Y-97080000D03*
%TD*%
D18*
%TO.C,C13*%
X65955000Y-102450000D03*
X65955000Y-103410000D03*
%TD*%
D13*
%TO.C,C9*%
X75455000Y-101055000D03*
X75455000Y-102605000D03*
%TD*%
D21*
%TO.C,C17*%
X69925000Y-106530000D03*
X70885000Y-106530000D03*
%TD*%
D22*
%TO.C,J6*%
X124210000Y-64970000D03*
X119210000Y-64970000D03*
X126810000Y-72970000D03*
X126810000Y-64970000D03*
X120210000Y-72970000D03*
X118210000Y-72970000D03*
%TD*%
D23*
%TO.C,D4*%
X77147500Y-105210000D03*
X78722500Y-105210000D03*
%TD*%
D24*
%TO.C,C57*%
X72305000Y-75770000D03*
X73855000Y-75770000D03*
%TD*%
D25*
%TO.C,C51*%
X94185000Y-83520000D03*
X93225000Y-83520000D03*
%TD*%
D26*
%TO.C,TP2*%
X72405000Y-108215000D03*
%TD*%
D14*
%TO.C,R32*%
X94890000Y-93300000D03*
X95910000Y-93300000D03*
%TD*%
%TO.C,R19*%
X101175000Y-54335000D03*
X102195000Y-54335000D03*
%TD*%
D10*
%TO.C,R52*%
X75660000Y-66750000D03*
X74640000Y-66750000D03*
%TD*%
D24*
%TO.C,C11*%
X61590000Y-108590000D03*
X63140000Y-108590000D03*
%TD*%
D27*
%TO.C,R29*%
X90395000Y-71425000D03*
X90395000Y-72445000D03*
%TD*%
D25*
%TO.C,C27*%
X95930000Y-94350000D03*
X94970000Y-94350000D03*
%TD*%
D28*
%TO.C,C25*%
X85310000Y-86720000D03*
X85310000Y-85170000D03*
%TD*%
D29*
%TO.C,C6*%
X52530000Y-60660000D03*
X54255000Y-60660000D03*
%TD*%
D30*
%TO.C,C56*%
X77152500Y-75770000D03*
X75427500Y-75770000D03*
%TD*%
%TO.C,C55*%
X104602500Y-102510000D03*
X102877500Y-102510000D03*
%TD*%
D31*
%TO.C,J1*%
X56960000Y-70820000D03*
X56960000Y-65040000D03*
D32*
X58405000Y-64680000D03*
X58405000Y-65480000D03*
D33*
X58405000Y-66680000D03*
X58405000Y-67680000D03*
X58405000Y-68180000D03*
X58405000Y-69180000D03*
D32*
X58405000Y-70380000D03*
X58405000Y-71180000D03*
X58405000Y-71180000D03*
X58405000Y-70380000D03*
D33*
X58405000Y-69680000D03*
X58405000Y-68680000D03*
X58405000Y-67180000D03*
X58405000Y-66180000D03*
D32*
X58405000Y-65480000D03*
X58405000Y-64680000D03*
D34*
X53310000Y-63610000D03*
X53310000Y-72250000D03*
D35*
X57490000Y-63610000D03*
X57490000Y-72250000D03*
%TD*%
D36*
%TO.C,C16*%
X70630000Y-107780000D03*
X69080000Y-107780000D03*
%TD*%
D14*
%TO.C,R17*%
X101195000Y-59535000D03*
X102215000Y-59535000D03*
%TD*%
D37*
%TO.C,C30*%
X98800000Y-83300000D03*
X98800000Y-85200000D03*
%TD*%
D13*
%TO.C,C61*%
X75570000Y-70325000D03*
X75570000Y-71875000D03*
%TD*%
D25*
%TO.C,C53*%
X72785000Y-106530000D03*
X71825000Y-106530000D03*
%TD*%
D21*
%TO.C,C20*%
X91575000Y-76170000D03*
X92535000Y-76170000D03*
%TD*%
D38*
%TO.C,D6*%
X83610000Y-90680000D03*
X83610000Y-89105000D03*
%TD*%
D39*
%TO.C,C33*%
X93600000Y-91720000D03*
X91700000Y-91720000D03*
%TD*%
D11*
%TO.C,RV3*%
X107120000Y-78970000D03*
D12*
X108270000Y-74970000D03*
D11*
X109420000Y-78970000D03*
%TD*%
D40*
%TO.C,JP4*%
X79950000Y-78075000D03*
X78650000Y-78075000D03*
X77350000Y-78075000D03*
%TD*%
D41*
%TO.C,C28*%
X99250000Y-81200000D03*
X101150000Y-81200000D03*
%TD*%
D42*
%TO.C,R1*%
X76027500Y-56740000D03*
X74202500Y-56740000D03*
%TD*%
D18*
%TO.C,C5*%
X78095000Y-52080000D03*
X78095000Y-53040000D03*
%TD*%
D28*
%TO.C,C41*%
X87990000Y-79695000D03*
X87990000Y-78145000D03*
%TD*%
D14*
%TO.C,R18*%
X101185000Y-53135000D03*
X102205000Y-53135000D03*
%TD*%
D43*
%TO.C,R38*%
X85150000Y-90725000D03*
X85150000Y-89075000D03*
%TD*%
D18*
%TO.C,C37*%
X94950000Y-95320000D03*
X94950000Y-96280000D03*
%TD*%
D21*
%TO.C,C34*%
X91590000Y-77170000D03*
X92550000Y-77170000D03*
%TD*%
D44*
%TO.C,D5*%
X77197500Y-103290000D03*
X79072500Y-103290000D03*
%TD*%
D11*
%TO.C,RV2*%
X109410000Y-82150000D03*
D12*
X108260000Y-86150000D03*
D11*
X107110000Y-82150000D03*
%TD*%
D45*
%TO.C,J4*%
X84250000Y-103000000D03*
D46*
X84250000Y-105540000D03*
D47*
X84250000Y-108080000D03*
X84250000Y-110620000D03*
D46*
X84250000Y-113160000D03*
D47*
X84250000Y-115700000D03*
%TD*%
D48*
%TO.C,J5*%
X110000000Y-111000000D03*
X115000000Y-111000000D03*
%TD*%
D27*
%TO.C,R34*%
X113700000Y-71390000D03*
X113700000Y-72410000D03*
%TD*%
D14*
%TO.C,R14*%
X101185000Y-58235000D03*
X102205000Y-58235000D03*
%TD*%
D49*
%TO.C,L1*%
X60615000Y-107040000D03*
X60615000Y-105040000D03*
%TD*%
D50*
%TO.C,SW1*%
X64325000Y-60625000D03*
X64325000Y-54625000D03*
X60625000Y-54625000D03*
X60625000Y-60625000D03*
%TD*%
D51*
%TO.C,D8*%
X69537500Y-114650000D03*
X67962500Y-114650000D03*
%TD*%
D14*
%TO.C,R33*%
X94870000Y-92250000D03*
X95890000Y-92250000D03*
%TD*%
D24*
%TO.C,C39*%
X90480000Y-85720000D03*
X92030000Y-85720000D03*
%TD*%
D52*
%TO.C,D3*%
X68755000Y-98480000D03*
X73755000Y-98480000D03*
%TD*%
D41*
%TO.C,C24*%
X99250000Y-77100000D03*
X101150000Y-77100000D03*
%TD*%
D14*
%TO.C,R36*%
X101185000Y-56935000D03*
X102205000Y-56935000D03*
%TD*%
D13*
%TO.C,C22*%
X99750000Y-99425000D03*
X99750000Y-100975000D03*
%TD*%
D53*
%TO.C,R46*%
X68430000Y-74470000D03*
X68430000Y-73450000D03*
%TD*%
D19*
%TO.C,R4*%
X52520000Y-77110000D03*
X54345000Y-77110000D03*
%TD*%
D24*
%TO.C,C44*%
X90480000Y-87220000D03*
X92030000Y-87220000D03*
%TD*%
D54*
%TO.C,FID1*%
X105525000Y-116100000D03*
%TD*%
D55*
%TO.C,R30*%
X78130000Y-106967500D03*
X78130000Y-108792500D03*
%TD*%
D30*
%TO.C,C48*%
X114932500Y-69550000D03*
X113207500Y-69550000D03*
%TD*%
D26*
%TO.C,TP7*%
X66450000Y-69250000D03*
%TD*%
%TO.C,TP8*%
X108975000Y-72600000D03*
%TD*%
D10*
%TO.C,R13*%
X100045000Y-56935000D03*
X99025000Y-56935000D03*
%TD*%
D17*
%TO.C,R37*%
X101087500Y-96400000D03*
X102912500Y-96400000D03*
%TD*%
D56*
%TO.C,H3*%
X125000000Y-115000000D03*
D57*
X125000000Y-115000000D03*
%TD*%
D56*
%TO.C,H4*%
X55000000Y-115000000D03*
D57*
X55000000Y-115000000D03*
%TD*%
D10*
%TO.C,R22*%
X100190000Y-65860000D03*
X99170000Y-65860000D03*
%TD*%
D26*
%TO.C,TP3*%
X115800000Y-71950000D03*
%TD*%
D36*
%TO.C,C7*%
X70185000Y-75730000D03*
X68635000Y-75730000D03*
%TD*%
D58*
%TO.C,J9*%
X114420000Y-65910000D03*
D47*
X111880000Y-65910000D03*
X109340000Y-65910000D03*
X106800000Y-65910000D03*
%TD*%
D59*
%TO.C,Q5*%
X109825000Y-96112500D03*
X107925000Y-96112500D03*
X108875000Y-97987500D03*
%TD*%
D30*
%TO.C,C2*%
X71487500Y-63475000D03*
X69762500Y-63475000D03*
%TD*%
D14*
%TO.C,R48*%
X76980000Y-60750000D03*
X78000000Y-60750000D03*
%TD*%
D21*
%TO.C,C32*%
X96850000Y-94350000D03*
X97810000Y-94350000D03*
%TD*%
D10*
%TO.C,R12*%
X100045000Y-55635000D03*
X99025000Y-55635000D03*
%TD*%
D13*
%TO.C,C12*%
X68555000Y-104705000D03*
X68555000Y-106255000D03*
%TD*%
D60*
%TO.C,SW3*%
X52600000Y-99550000D03*
X52600000Y-102050000D03*
X52600000Y-104550000D03*
%TD*%
D27*
%TO.C,R25*%
X92945000Y-71425000D03*
X92945000Y-72445000D03*
%TD*%
D10*
%TO.C,R8*%
X100045000Y-58235000D03*
X99025000Y-58235000D03*
%TD*%
D36*
%TO.C,C59*%
X60140000Y-103490000D03*
X58590000Y-103490000D03*
%TD*%
%TO.C,C10*%
X60090000Y-108590000D03*
X58540000Y-108590000D03*
%TD*%
%TO.C,C15*%
X102070000Y-51835000D03*
X100520000Y-51835000D03*
%TD*%
D27*
%TO.C,R28*%
X86595000Y-71460000D03*
X86595000Y-72480000D03*
%TD*%
D61*
%TO.C,U4*%
X72980000Y-101442500D03*
X72330000Y-101442500D03*
X71680000Y-101442500D03*
X71030000Y-101442500D03*
D62*
X70067500Y-102405000D03*
X70067500Y-103055000D03*
X70067500Y-103705000D03*
X70067500Y-104355000D03*
D61*
X71030000Y-105317500D03*
X71680000Y-105317500D03*
X72330000Y-105317500D03*
X72980000Y-105317500D03*
D62*
X73942500Y-104355000D03*
X73942500Y-103705000D03*
X73942500Y-103055000D03*
X73942500Y-102405000D03*
D63*
X72005000Y-103380000D03*
%TD*%
D24*
%TO.C,C58*%
X61590000Y-103490000D03*
X63140000Y-103490000D03*
%TD*%
D64*
%TO.C,L3*%
X86910000Y-86860000D03*
X88910000Y-86860000D03*
%TD*%
D65*
%TO.C,Q3*%
X68620000Y-71897500D03*
X70520000Y-71897500D03*
X69570000Y-70022500D03*
%TD*%
D10*
%TO.C,R9*%
X100045000Y-59535000D03*
X99025000Y-59535000D03*
%TD*%
D66*
%TO.C,L4*%
X67955000Y-101080000D03*
X67955000Y-103080000D03*
%TD*%
D67*
%TO.C,BT2*%
X72400000Y-117000000D03*
D45*
X74000000Y-115000000D03*
D12*
X76500000Y-115000000D03*
%TD*%
D24*
%TO.C,C52*%
X102940000Y-104060000D03*
X104490000Y-104060000D03*
%TD*%
D68*
%TO.C,C42*%
X98840000Y-93330000D03*
X98840000Y-92370000D03*
%TD*%
D28*
%TO.C,C3*%
X75295000Y-53335000D03*
X75295000Y-51785000D03*
%TD*%
D24*
%TO.C,C21*%
X96775000Y-102900000D03*
X98325000Y-102900000D03*
%TD*%
D36*
%TO.C,C60*%
X91172500Y-99050000D03*
X89622500Y-99050000D03*
%TD*%
D50*
%TO.C,SW2*%
X71600000Y-54625000D03*
X71600000Y-60625000D03*
X67900000Y-54625000D03*
X67900000Y-60625000D03*
%TD*%
D13*
%TO.C,C47*%
X93505000Y-84845000D03*
X93505000Y-86395000D03*
%TD*%
D53*
%TO.C,R24*%
X81300000Y-115760000D03*
X81300000Y-114740000D03*
%TD*%
D69*
%TO.C,J2*%
X107090000Y-51772500D03*
X108190000Y-51772500D03*
X109290000Y-51772500D03*
X110390000Y-51772500D03*
X111490000Y-51772500D03*
X112590000Y-51772500D03*
X113690000Y-51772500D03*
D70*
X114740000Y-51772500D03*
D71*
X104455000Y-57922500D03*
X104455000Y-61622500D03*
D72*
X104630000Y-51897500D03*
D73*
X115950000Y-52122500D03*
D74*
X107955000Y-62597500D03*
X113925000Y-62597500D03*
%TD*%
D18*
%TO.C,C46*%
X92255000Y-83540000D03*
X92255000Y-84500000D03*
%TD*%
D41*
%TO.C,C63*%
X87050000Y-110650000D03*
X88950000Y-110650000D03*
%TD*%
D55*
%TO.C,R51*%
X96800000Y-86512500D03*
X96800000Y-88337500D03*
%TD*%
D13*
%TO.C,C50*%
X95055000Y-84845000D03*
X95055000Y-86395000D03*
%TD*%
D17*
%TO.C,R6*%
X74215000Y-55130000D03*
X76040000Y-55130000D03*
%TD*%
D26*
%TO.C,TP6*%
X124950000Y-108800000D03*
%TD*%
D53*
%TO.C,R2*%
X60200000Y-66590000D03*
X60200000Y-65570000D03*
%TD*%
D56*
%TO.C,H2*%
X125000000Y-55000000D03*
D57*
X125000000Y-55000000D03*
%TD*%
D75*
%TO.C,R16*%
X66605000Y-107692500D03*
X66605000Y-104767500D03*
%TD*%
D10*
%TO.C,R11*%
X100045000Y-54335000D03*
X99025000Y-54335000D03*
%TD*%
D76*
%TO.C,U5*%
X92655000Y-78432500D03*
X92255000Y-78432500D03*
X91855000Y-78432500D03*
X91455000Y-78432500D03*
X91055000Y-78432500D03*
X90655000Y-78432500D03*
X90255000Y-78432500D03*
D77*
X89517500Y-79170000D03*
X89517500Y-79570000D03*
X89517500Y-79970000D03*
X89517500Y-80370000D03*
X89517500Y-80770000D03*
X89517500Y-81170000D03*
X89517500Y-81570000D03*
D76*
X90255000Y-82307500D03*
X90655000Y-82307500D03*
X91055000Y-82307500D03*
X91455000Y-82307500D03*
X91855000Y-82307500D03*
X92255000Y-82307500D03*
X92655000Y-82307500D03*
D77*
X93392500Y-81570000D03*
X93392500Y-81170000D03*
X93392500Y-80770000D03*
X93392500Y-80370000D03*
X93392500Y-79970000D03*
X93392500Y-79570000D03*
X93392500Y-79170000D03*
D78*
X91455000Y-80370000D03*
%TD*%
D66*
%TO.C,L2*%
X91980000Y-95360000D03*
X91980000Y-97360000D03*
%TD*%
D58*
%TO.C,J10*%
X125375000Y-61350000D03*
D47*
X122835000Y-61350000D03*
X120295000Y-61350000D03*
%TD*%
D79*
%TO.C,R43*%
X70517500Y-109730000D03*
X67592500Y-109730000D03*
%TD*%
D28*
%TO.C,C4*%
X76820000Y-53335000D03*
X76820000Y-51785000D03*
%TD*%
D43*
%TO.C,R44*%
X105875000Y-98950000D03*
X105875000Y-97300000D03*
%TD*%
D21*
%TO.C,C23*%
X92970000Y-93270000D03*
X93930000Y-93270000D03*
%TD*%
D10*
%TO.C,R23*%
X100190000Y-66860000D03*
X99170000Y-66860000D03*
%TD*%
D80*
%TO.C,J7*%
X124000000Y-89000000D03*
D81*
X121460000Y-86460000D03*
X126540000Y-86460000D03*
X121460000Y-91540000D03*
X126540000Y-91540000D03*
%TD*%
D82*
%TO.C,R45*%
X69575000Y-116200000D03*
X67925000Y-116200000D03*
%TD*%
D38*
%TO.C,D7*%
X89300000Y-90687500D03*
X89300000Y-89112500D03*
%TD*%
D14*
%TO.C,R40*%
X101185000Y-60735000D03*
X102205000Y-60735000D03*
%TD*%
D36*
%TO.C,C54*%
X77115000Y-74220000D03*
X75565000Y-74220000D03*
%TD*%
D80*
%TO.C,J8*%
X56000000Y-89000000D03*
D81*
X58540000Y-91540000D03*
X53460000Y-91540000D03*
X58540000Y-86460000D03*
X53460000Y-86460000D03*
%TD*%
D27*
%TO.C,R35*%
X96900000Y-91300000D03*
X96900000Y-92320000D03*
%TD*%
D21*
%TO.C,C43*%
X90325000Y-83520000D03*
X91285000Y-83520000D03*
%TD*%
D11*
%TO.C,RV1*%
X102260000Y-93530000D03*
D12*
X103410000Y-89530000D03*
D11*
X104560000Y-93530000D03*
%TD*%
D59*
%TO.C,Q2*%
X66980000Y-73302500D03*
X65080000Y-73302500D03*
X66030000Y-75177500D03*
%TD*%
D25*
%TO.C,C45*%
X91285000Y-84470000D03*
X90325000Y-84470000D03*
%TD*%
D18*
%TO.C,C38*%
X96850000Y-95320000D03*
X96850000Y-96280000D03*
%TD*%
D83*
%TO.C,U2*%
X79745000Y-51875000D03*
X79745000Y-53145000D03*
X79745000Y-54415000D03*
X79745000Y-55685000D03*
X79745000Y-56955000D03*
X79745000Y-58225000D03*
X79745000Y-59495000D03*
X79745000Y-60765000D03*
X79745000Y-62035000D03*
X79745000Y-63305000D03*
X79745000Y-64575000D03*
X79745000Y-65845000D03*
X79745000Y-67115000D03*
X79745000Y-68385000D03*
D84*
X81510000Y-69635000D03*
X82780000Y-69635000D03*
X84050000Y-69635000D03*
X85320000Y-69635000D03*
X86590000Y-69635000D03*
X87860000Y-69635000D03*
X89130000Y-69635000D03*
X90400000Y-69635000D03*
X91670000Y-69635000D03*
X92940000Y-69635000D03*
X94210000Y-69635000D03*
X95480000Y-69635000D03*
D83*
X97245000Y-68385000D03*
X97245000Y-67115000D03*
X97245000Y-65845000D03*
X97245000Y-64575000D03*
X97245000Y-63305000D03*
X97245000Y-62035000D03*
X97245000Y-60765000D03*
X97245000Y-59495000D03*
X97245000Y-58225000D03*
X97245000Y-56955000D03*
X97245000Y-55685000D03*
X97245000Y-54415000D03*
X97245000Y-53145000D03*
X97245000Y-51875000D03*
D85*
X88395000Y-58195000D03*
X85595000Y-60995000D03*
X88395000Y-60995000D03*
X86995000Y-59595000D03*
X86995000Y-60995000D03*
X88395000Y-59595000D03*
X85595000Y-58195000D03*
X86995000Y-58195000D03*
X85595000Y-59595000D03*
%TD*%
D29*
%TO.C,C1*%
X62587500Y-63450000D03*
X64312500Y-63450000D03*
%TD*%
D18*
%TO.C,C35*%
X95900000Y-95320000D03*
X95900000Y-96280000D03*
%TD*%
D26*
%TO.C,TP4*%
X66650000Y-66100000D03*
%TD*%
D55*
%TO.C,R42*%
X120300000Y-55937500D03*
X120300000Y-57762500D03*
%TD*%
D86*
%TO.C,Q1*%
X76317500Y-108780000D03*
X76317500Y-106880000D03*
X74442500Y-107830000D03*
%TD*%
D59*
%TO.C,Q4*%
X74020000Y-72002500D03*
X72120000Y-72002500D03*
X73070000Y-73877500D03*
%TD*%
D87*
%TO.C,U3*%
X74170000Y-77870000D03*
D88*
X71870000Y-84170000D03*
D87*
X71870000Y-77870000D03*
X69570000Y-77870000D03*
%TD*%
D43*
%TO.C,R39*%
X87750000Y-90725000D03*
X87750000Y-89075000D03*
%TD*%
D44*
%TO.C,D1*%
X52495000Y-75010000D03*
X54370000Y-75010000D03*
%TD*%
D13*
%TO.C,C18*%
X89627500Y-95570000D03*
X89627500Y-97120000D03*
%TD*%
D27*
%TO.C,R47*%
X95550000Y-102740000D03*
X95550000Y-103760000D03*
%TD*%
%TO.C,R27*%
X91670000Y-71425000D03*
X91670000Y-72445000D03*
%TD*%
D41*
%TO.C,C26*%
X99250000Y-79150000D03*
X101150000Y-79150000D03*
%TD*%
D36*
%TO.C,C29*%
X88685000Y-84730000D03*
X87135000Y-84730000D03*
%TD*%
D19*
%TO.C,R15*%
X77202500Y-101100000D03*
X79027500Y-101100000D03*
%TD*%
D42*
%TO.C,R31*%
X85472500Y-83340000D03*
X83647500Y-83340000D03*
%TD*%
D27*
%TO.C,R53*%
X71050000Y-64740000D03*
X71050000Y-65760000D03*
%TD*%
D48*
%TO.C,J3*%
X93000000Y-111000000D03*
X98000000Y-111000000D03*
%TD*%
D10*
%TO.C,R21*%
X100045000Y-60735000D03*
X99025000Y-60735000D03*
%TD*%
D27*
%TO.C,R26*%
X87870000Y-71475000D03*
X87870000Y-72495000D03*
%TD*%
D45*
%TO.C,BT1*%
X65000000Y-114000000D03*
D89*
X62460000Y-114000000D03*
%TD*%
D36*
%TO.C,C31*%
X93230000Y-74870000D03*
X91680000Y-74870000D03*
%TD*%
D57*
%TO.C,H1*%
X55000000Y-55000000D03*
D56*
X55000000Y-55000000D03*
%TD*%
D44*
%TO.C,D2*%
X52495000Y-79180000D03*
X54370000Y-79180000D03*
%TD*%
D14*
%TO.C,R50*%
X76980000Y-58250000D03*
X78000000Y-58250000D03*
%TD*%
D39*
%TO.C,C36*%
X93820000Y-89010000D03*
X91920000Y-89010000D03*
%TD*%
D14*
%TO.C,R20*%
X101195000Y-55635000D03*
X102215000Y-55635000D03*
%TD*%
D90*
%TO.C,U1*%
X62600000Y-68887500D03*
X63550000Y-68887500D03*
X64500000Y-68887500D03*
X64500000Y-66612500D03*
X63550000Y-66612500D03*
X62600000Y-66612500D03*
%TD*%
D26*
%TO.C,TP5*%
X119550000Y-52150000D03*
%TD*%
D14*
%TO.C,R49*%
X76980000Y-59450000D03*
X78000000Y-59450000D03*
%TD*%
D91*
%TO.C,U6*%
X94425000Y-98500000D03*
X94425000Y-99000000D03*
X94425000Y-99500000D03*
X94425000Y-100000000D03*
X94425000Y-100500000D03*
D92*
X95350000Y-101425000D03*
X95850000Y-101425000D03*
X96350000Y-101425000D03*
X96850000Y-101425000D03*
X97350000Y-101425000D03*
D91*
X98275000Y-100500000D03*
X98275000Y-100000000D03*
X98275000Y-99500000D03*
X98275000Y-99000000D03*
X98275000Y-98500000D03*
D92*
X97350000Y-97575000D03*
X96850000Y-97575000D03*
X96350000Y-97575000D03*
X95850000Y-97575000D03*
X95350000Y-97575000D03*
D93*
X96350000Y-99500000D03*
%TD*%
D36*
%TO.C,C62*%
X73840000Y-70180000D03*
X72290000Y-70180000D03*
%TD*%
D94*
%TO.C,FL2*%
X59085511Y-81755511D03*
X57522805Y-80192805D03*
%TD*%
%TO.C,FL1*%
X120668647Y-95868647D03*
X122231353Y-97431353D03*
%TD*%
G36*
X95446620Y-100798809D02*
G01*
X95446928Y-100800581D01*
X95393535Y-100976585D01*
X95431375Y-101001870D01*
X95432260Y-101003402D01*
X95431583Y-101005037D01*
X95429874Y-101005495D01*
X95412301Y-101002000D01*
X95287699Y-101002000D01*
X95270106Y-101005499D01*
X95268397Y-101005041D01*
X95267720Y-101003406D01*
X95268605Y-101001874D01*
X95306464Y-100976570D01*
X95253064Y-100800581D01*
X95253372Y-100798809D01*
X95254978Y-100798000D01*
X95445014Y-100798000D01*
X95446620Y-100798809D01*
G37*
G36*
X96946616Y-100798809D02*
G01*
X96946924Y-100800581D01*
X96893535Y-100976593D01*
X96931368Y-101001869D01*
X96932253Y-101003401D01*
X96931576Y-101005036D01*
X96929867Y-101005494D01*
X96912301Y-101002000D01*
X96787699Y-101002000D01*
X96770114Y-101005498D01*
X96768405Y-101005040D01*
X96767728Y-101003405D01*
X96768613Y-101001873D01*
X96806464Y-100976578D01*
X96753068Y-100800581D01*
X96753376Y-100798809D01*
X96754982Y-100798000D01*
X96945010Y-100798000D01*
X96946616Y-100798809D01*
G37*
G36*
X96446620Y-100798809D02*
G01*
X96446928Y-100800581D01*
X96393535Y-100976585D01*
X96431375Y-101001870D01*
X96432260Y-101003402D01*
X96431583Y-101005037D01*
X96429874Y-101005495D01*
X96412301Y-101002000D01*
X96287699Y-101002000D01*
X96270114Y-101005498D01*
X96268405Y-101005040D01*
X96267728Y-101003405D01*
X96268613Y-101001873D01*
X96306464Y-100976578D01*
X96253068Y-100800581D01*
X96253376Y-100798809D01*
X96254982Y-100798000D01*
X96445014Y-100798000D01*
X96446620Y-100798809D01*
G37*
G36*
X95946620Y-100798809D02*
G01*
X95946928Y-100800581D01*
X95893535Y-100976585D01*
X95931375Y-101001870D01*
X95932260Y-101003402D01*
X95931583Y-101005037D01*
X95929874Y-101005495D01*
X95912301Y-101002000D01*
X95787699Y-101002000D01*
X95770114Y-101005498D01*
X95768405Y-101005040D01*
X95767728Y-101003405D01*
X95768613Y-101001873D01*
X95806464Y-100976578D01*
X95753068Y-100800581D01*
X95753376Y-100798809D01*
X95754982Y-100798000D01*
X95945014Y-100798000D01*
X95946620Y-100798809D01*
G37*
G36*
X97446616Y-100798809D02*
G01*
X97446924Y-100800581D01*
X97393535Y-100976593D01*
X97431368Y-101001869D01*
X97432253Y-101003401D01*
X97431576Y-101005036D01*
X97429867Y-101005494D01*
X97412301Y-101002000D01*
X97287699Y-101002000D01*
X97270124Y-101005496D01*
X97268415Y-101005038D01*
X97267738Y-101003403D01*
X97268623Y-101001871D01*
X97306464Y-100976585D01*
X97253072Y-100800581D01*
X97253380Y-100798809D01*
X97254986Y-100798000D01*
X97445010Y-100798000D01*
X97446616Y-100798809D01*
G37*
G36*
X95051191Y-98403376D02*
G01*
X95052000Y-98404982D01*
X95052000Y-100700263D01*
X95051000Y-100701995D01*
X95049000Y-100701995D01*
X95048000Y-100700263D01*
X95047999Y-100596488D01*
X94873395Y-100543536D01*
X94848133Y-100581355D01*
X94846601Y-100582240D01*
X94844966Y-100581563D01*
X94844508Y-100579854D01*
X94848000Y-100562301D01*
X94848000Y-100437699D01*
X94844506Y-100420137D01*
X94844964Y-100418428D01*
X94846599Y-100417751D01*
X94848131Y-100418636D01*
X94873402Y-100456463D01*
X95048000Y-100403506D01*
X95048000Y-100096489D01*
X94873395Y-100043536D01*
X94848133Y-100081355D01*
X94846601Y-100082240D01*
X94844966Y-100081563D01*
X94844508Y-100079854D01*
X94848000Y-100062300D01*
X94848000Y-99937699D01*
X94844504Y-99920127D01*
X94844962Y-99918418D01*
X94846597Y-99917741D01*
X94848129Y-99918626D01*
X94873409Y-99956462D01*
X95048000Y-99903502D01*
X95048000Y-99596494D01*
X94873402Y-99543536D01*
X94848131Y-99581362D01*
X94846599Y-99582247D01*
X94844964Y-99581570D01*
X94844506Y-99579861D01*
X94848000Y-99562301D01*
X94848000Y-99437699D01*
X94844504Y-99420127D01*
X94844962Y-99418418D01*
X94846597Y-99417741D01*
X94848129Y-99418626D01*
X94873409Y-99456462D01*
X95048000Y-99403502D01*
X95048000Y-99096494D01*
X94873402Y-99043536D01*
X94848131Y-99081362D01*
X94846599Y-99082247D01*
X94844964Y-99081570D01*
X94844506Y-99079861D01*
X94848000Y-99062301D01*
X94848000Y-98937699D01*
X94844504Y-98920127D01*
X94844962Y-98918418D01*
X94846597Y-98917741D01*
X94848129Y-98918626D01*
X94873409Y-98956462D01*
X95048000Y-98903502D01*
X95048000Y-98596494D01*
X94873402Y-98543536D01*
X94848131Y-98581362D01*
X94846599Y-98582247D01*
X94844964Y-98581570D01*
X94844506Y-98579861D01*
X94848000Y-98562301D01*
X94848000Y-98437699D01*
X94844502Y-98420118D01*
X94844960Y-98418409D01*
X94846595Y-98417732D01*
X94848127Y-98418617D01*
X94873417Y-98456462D01*
X95049419Y-98403068D01*
X95051191Y-98403376D01*
G37*
G36*
X97826578Y-100456464D02*
G01*
X97851873Y-100418613D01*
X97853405Y-100417728D01*
X97855040Y-100418405D01*
X97855498Y-100420114D01*
X97852000Y-100437699D01*
X97852000Y-100562301D01*
X97855498Y-100579885D01*
X97855040Y-100581594D01*
X97853405Y-100582271D01*
X97851873Y-100581386D01*
X97826577Y-100543535D01*
X97650581Y-100596932D01*
X97648809Y-100596624D01*
X97648000Y-100595018D01*
X97648000Y-100404982D01*
X97648809Y-100403376D01*
X97650581Y-100403068D01*
X97826578Y-100456464D01*
G37*
G36*
X97826578Y-99956464D02*
G01*
X97851873Y-99918613D01*
X97853405Y-99917728D01*
X97855040Y-99918405D01*
X97855498Y-99920114D01*
X97852000Y-99937699D01*
X97852000Y-100062300D01*
X97855495Y-100079874D01*
X97855037Y-100081583D01*
X97853402Y-100082260D01*
X97851870Y-100081375D01*
X97826585Y-100043535D01*
X97650581Y-100096928D01*
X97648809Y-100096620D01*
X97648000Y-100095014D01*
X97648000Y-99904982D01*
X97648809Y-99903376D01*
X97650581Y-99903068D01*
X97826578Y-99956464D01*
G37*
G36*
X97826578Y-99456464D02*
G01*
X97851873Y-99418613D01*
X97853405Y-99417728D01*
X97855040Y-99418405D01*
X97855498Y-99420114D01*
X97852000Y-99437699D01*
X97852000Y-99562301D01*
X97855495Y-99579874D01*
X97855037Y-99581583D01*
X97853402Y-99582260D01*
X97851870Y-99581375D01*
X97826585Y-99543535D01*
X97650581Y-99596928D01*
X97648809Y-99596620D01*
X97648000Y-99595014D01*
X97648000Y-99404982D01*
X97648809Y-99403376D01*
X97650581Y-99403068D01*
X97826578Y-99456464D01*
G37*
G36*
X97826585Y-98956464D02*
G01*
X97851871Y-98918623D01*
X97853403Y-98917738D01*
X97855038Y-98918415D01*
X97855496Y-98920124D01*
X97852000Y-98937699D01*
X97852000Y-99062301D01*
X97855495Y-99079874D01*
X97855037Y-99081583D01*
X97853402Y-99082260D01*
X97851870Y-99081375D01*
X97826585Y-99043535D01*
X97650581Y-99096928D01*
X97648809Y-99096620D01*
X97648000Y-99095014D01*
X97648000Y-98904986D01*
X97648809Y-98903380D01*
X97650581Y-98903072D01*
X97826585Y-98956464D01*
G37*
G36*
X97826585Y-98456464D02*
G01*
X97851871Y-98418623D01*
X97853403Y-98417738D01*
X97855038Y-98418415D01*
X97855496Y-98420124D01*
X97852000Y-98437699D01*
X97852000Y-98562301D01*
X97855494Y-98579867D01*
X97855036Y-98581576D01*
X97853401Y-98582253D01*
X97851869Y-98581368D01*
X97826593Y-98543535D01*
X97650581Y-98596924D01*
X97648809Y-98596616D01*
X97648000Y-98595010D01*
X97648000Y-98404986D01*
X97648809Y-98403380D01*
X97650581Y-98403072D01*
X97826585Y-98456464D01*
G37*
G36*
X97431580Y-97994962D02*
G01*
X97432257Y-97996597D01*
X97431372Y-97998129D01*
X97393537Y-98023409D01*
X97446928Y-98199419D01*
X97446620Y-98201191D01*
X97445014Y-98202000D01*
X95754990Y-98202000D01*
X95753384Y-98201191D01*
X95753076Y-98199419D01*
X95806463Y-98023402D01*
X95768636Y-97998131D01*
X95767751Y-97996599D01*
X95768428Y-97994964D01*
X95770137Y-97994506D01*
X95787699Y-97998000D01*
X95912301Y-97998000D01*
X95929861Y-97994506D01*
X95931570Y-97994964D01*
X95932247Y-97996599D01*
X95931362Y-97998131D01*
X95893536Y-98023402D01*
X95946494Y-98198000D01*
X96253502Y-98198000D01*
X96306462Y-98023409D01*
X96268626Y-97998129D01*
X96267741Y-97996597D01*
X96268418Y-97994962D01*
X96270127Y-97994504D01*
X96287699Y-97998000D01*
X96412301Y-97998000D01*
X96429861Y-97994506D01*
X96431570Y-97994964D01*
X96432247Y-97996599D01*
X96431362Y-97998131D01*
X96393536Y-98023402D01*
X96446494Y-98198000D01*
X96753502Y-98198000D01*
X96806462Y-98023409D01*
X96768626Y-97998129D01*
X96767741Y-97996597D01*
X96768418Y-97994962D01*
X96770127Y-97994504D01*
X96787699Y-97998000D01*
X96912301Y-97998000D01*
X96929861Y-97994506D01*
X96931570Y-97994964D01*
X96932247Y-97996599D01*
X96931362Y-97998131D01*
X96893536Y-98023402D01*
X96946494Y-98198000D01*
X97253502Y-98198000D01*
X97306462Y-98023409D01*
X97268626Y-97998129D01*
X97267741Y-97996597D01*
X97268418Y-97994962D01*
X97270127Y-97994504D01*
X97287699Y-97998000D01*
X97412301Y-97998000D01*
X97429871Y-97994504D01*
X97431580Y-97994962D01*
G37*
G36*
X95287699Y-97998000D02*
G01*
X95412301Y-97998000D01*
X95429854Y-97994508D01*
X95431563Y-97994966D01*
X95432240Y-97996601D01*
X95431355Y-97998133D01*
X95393536Y-98023395D01*
X95446920Y-98199420D01*
X95446612Y-98201191D01*
X95445006Y-98202000D01*
X95062312Y-98202000D01*
X95060580Y-98201000D01*
X95060580Y-98199000D01*
X95062312Y-98198000D01*
X95253507Y-98197999D01*
X95306462Y-98023402D01*
X95268636Y-97998131D01*
X95267751Y-97996599D01*
X95268428Y-97994964D01*
X95270137Y-97994506D01*
X95287699Y-97998000D01*
G37*
G36*
X92535038Y-81938415D02*
G01*
X92535496Y-81940124D01*
X92532000Y-81957699D01*
X92532000Y-82657301D01*
X92535494Y-82674867D01*
X92535036Y-82676576D01*
X92533401Y-82677253D01*
X92531869Y-82676368D01*
X92520748Y-82659722D01*
X92389252Y-82659722D01*
X92378130Y-82676367D01*
X92376598Y-82677252D01*
X92374963Y-82676575D01*
X92374505Y-82674866D01*
X92378000Y-82657301D01*
X92378000Y-81957699D01*
X92374504Y-81940125D01*
X92374962Y-81938416D01*
X92376597Y-81937739D01*
X92378129Y-81938624D01*
X92389257Y-81955277D01*
X92520743Y-81955277D01*
X92531871Y-81938623D01*
X92533403Y-81937738D01*
X92535038Y-81938415D01*
G37*
G36*
X92135038Y-81938415D02*
G01*
X92135496Y-81940124D01*
X92132000Y-81957699D01*
X92132000Y-82657301D01*
X92135494Y-82674867D01*
X92135036Y-82676576D01*
X92133401Y-82677253D01*
X92131869Y-82676368D01*
X92120748Y-82659722D01*
X91989252Y-82659722D01*
X91978130Y-82676367D01*
X91976598Y-82677252D01*
X91974963Y-82676575D01*
X91974505Y-82674866D01*
X91978000Y-82657301D01*
X91978000Y-81957699D01*
X91974504Y-81940125D01*
X91974962Y-81938416D01*
X91976597Y-81937739D01*
X91978129Y-81938624D01*
X91989257Y-81955277D01*
X92120743Y-81955277D01*
X92131871Y-81938623D01*
X92133403Y-81937738D01*
X92135038Y-81938415D01*
G37*
G36*
X91735038Y-81938415D02*
G01*
X91735496Y-81940124D01*
X91732000Y-81957699D01*
X91732000Y-82657301D01*
X91735494Y-82674867D01*
X91735036Y-82676576D01*
X91733401Y-82677253D01*
X91731869Y-82676368D01*
X91720748Y-82659722D01*
X91589252Y-82659722D01*
X91578130Y-82676367D01*
X91576598Y-82677252D01*
X91574963Y-82676575D01*
X91574505Y-82674866D01*
X91578000Y-82657301D01*
X91578000Y-81957699D01*
X91574504Y-81940125D01*
X91574962Y-81938416D01*
X91576597Y-81937739D01*
X91578129Y-81938624D01*
X91589257Y-81955277D01*
X91720743Y-81955277D01*
X91731871Y-81938623D01*
X91733403Y-81937738D01*
X91735038Y-81938415D01*
G37*
G36*
X91335038Y-81938415D02*
G01*
X91335496Y-81940124D01*
X91332000Y-81957699D01*
X91332000Y-82657301D01*
X91335494Y-82674867D01*
X91335036Y-82676576D01*
X91333401Y-82677253D01*
X91331869Y-82676368D01*
X91320748Y-82659722D01*
X91189252Y-82659722D01*
X91178130Y-82676367D01*
X91176598Y-82677252D01*
X91174963Y-82676575D01*
X91174505Y-82674866D01*
X91178000Y-82657301D01*
X91178000Y-81957699D01*
X91174504Y-81940125D01*
X91174962Y-81938416D01*
X91176597Y-81937739D01*
X91178129Y-81938624D01*
X91189257Y-81955277D01*
X91320743Y-81955277D01*
X91331871Y-81938623D01*
X91333403Y-81937738D01*
X91335038Y-81938415D01*
G37*
G36*
X90935038Y-81938415D02*
G01*
X90935496Y-81940124D01*
X90932000Y-81957699D01*
X90932000Y-82657301D01*
X90935494Y-82674867D01*
X90935036Y-82676576D01*
X90933401Y-82677253D01*
X90931869Y-82676368D01*
X90920748Y-82659722D01*
X90789252Y-82659722D01*
X90778130Y-82676367D01*
X90776598Y-82677252D01*
X90774963Y-82676575D01*
X90774505Y-82674866D01*
X90778000Y-82657301D01*
X90778000Y-81957699D01*
X90774504Y-81940125D01*
X90774962Y-81938416D01*
X90776597Y-81937739D01*
X90778129Y-81938624D01*
X90789257Y-81955277D01*
X90920743Y-81955277D01*
X90931871Y-81938623D01*
X90933403Y-81937738D01*
X90935038Y-81938415D01*
G37*
G36*
X90535038Y-81938415D02*
G01*
X90535496Y-81940124D01*
X90532000Y-81957699D01*
X90532000Y-82657301D01*
X90535494Y-82674867D01*
X90535036Y-82676576D01*
X90533401Y-82677253D01*
X90531869Y-82676368D01*
X90520748Y-82659722D01*
X90389252Y-82659722D01*
X90378130Y-82676367D01*
X90376598Y-82677252D01*
X90374963Y-82676575D01*
X90374505Y-82674866D01*
X90378000Y-82657301D01*
X90378000Y-81957699D01*
X90374504Y-81940125D01*
X90374962Y-81938416D01*
X90376597Y-81937739D01*
X90378129Y-81938624D01*
X90389257Y-81955277D01*
X90520743Y-81955277D01*
X90531871Y-81938623D01*
X90533403Y-81937738D01*
X90535038Y-81938415D01*
G37*
G36*
X93042699Y-81293000D02*
G01*
X93742301Y-81293000D01*
X93759866Y-81289505D01*
X93761575Y-81289963D01*
X93762252Y-81291598D01*
X93761367Y-81293130D01*
X93744722Y-81304252D01*
X93744722Y-81435748D01*
X93761368Y-81446869D01*
X93762253Y-81448401D01*
X93761576Y-81450036D01*
X93759867Y-81450494D01*
X93742301Y-81447000D01*
X93042699Y-81447000D01*
X93025124Y-81450496D01*
X93023415Y-81450038D01*
X93022738Y-81448403D01*
X93023623Y-81446871D01*
X93040277Y-81435743D01*
X93040277Y-81304257D01*
X93023624Y-81293129D01*
X93022739Y-81291597D01*
X93023416Y-81289962D01*
X93025125Y-81289504D01*
X93042699Y-81293000D01*
G37*
G36*
X89167699Y-81293000D02*
G01*
X89867301Y-81293000D01*
X89884866Y-81289505D01*
X89886575Y-81289963D01*
X89887252Y-81291598D01*
X89886367Y-81293130D01*
X89869722Y-81304252D01*
X89869722Y-81435748D01*
X89886368Y-81446869D01*
X89887253Y-81448401D01*
X89886576Y-81450036D01*
X89884867Y-81450494D01*
X89867301Y-81447000D01*
X89167699Y-81447000D01*
X89150124Y-81450496D01*
X89148415Y-81450038D01*
X89147738Y-81448403D01*
X89148623Y-81446871D01*
X89165277Y-81435743D01*
X89165277Y-81304257D01*
X89148624Y-81293129D01*
X89147739Y-81291597D01*
X89148416Y-81289962D01*
X89150125Y-81289504D01*
X89167699Y-81293000D01*
G37*
G36*
X93042699Y-80893000D02*
G01*
X93742301Y-80893000D01*
X93759866Y-80889505D01*
X93761575Y-80889963D01*
X93762252Y-80891598D01*
X93761367Y-80893130D01*
X93744722Y-80904252D01*
X93744722Y-81035748D01*
X93761368Y-81046869D01*
X93762253Y-81048401D01*
X93761576Y-81050036D01*
X93759867Y-81050494D01*
X93742301Y-81047000D01*
X93042699Y-81047000D01*
X93025124Y-81050496D01*
X93023415Y-81050038D01*
X93022738Y-81048403D01*
X93023623Y-81046871D01*
X93040277Y-81035743D01*
X93040277Y-80904257D01*
X93023624Y-80893129D01*
X93022739Y-80891597D01*
X93023416Y-80889962D01*
X93025125Y-80889504D01*
X93042699Y-80893000D01*
G37*
G36*
X89167699Y-80893000D02*
G01*
X89867301Y-80893000D01*
X89884866Y-80889505D01*
X89886575Y-80889963D01*
X89887252Y-80891598D01*
X89886367Y-80893130D01*
X89869722Y-80904252D01*
X89869722Y-81035748D01*
X89886368Y-81046869D01*
X89887253Y-81048401D01*
X89886576Y-81050036D01*
X89884867Y-81050494D01*
X89867301Y-81047000D01*
X89167699Y-81047000D01*
X89150124Y-81050496D01*
X89148415Y-81050038D01*
X89147738Y-81048403D01*
X89148623Y-81046871D01*
X89165277Y-81035743D01*
X89165277Y-80904257D01*
X89148624Y-80893129D01*
X89147739Y-80891597D01*
X89148416Y-80889962D01*
X89150125Y-80889504D01*
X89167699Y-80893000D01*
G37*
G36*
X93042699Y-80493000D02*
G01*
X93742301Y-80493000D01*
X93759852Y-80489508D01*
X93761561Y-80489966D01*
X93762238Y-80491601D01*
X93761353Y-80493133D01*
X93744727Y-80504239D01*
X93744716Y-80635735D01*
X93761381Y-80646872D01*
X93762266Y-80648404D01*
X93761589Y-80650039D01*
X93759880Y-80650497D01*
X93742301Y-80647000D01*
X93042699Y-80647000D01*
X93025109Y-80650499D01*
X93023400Y-80650041D01*
X93022723Y-80648406D01*
X93023608Y-80646874D01*
X93040282Y-80635730D01*
X93040271Y-80504244D01*
X93023637Y-80493131D01*
X93022752Y-80491599D01*
X93023429Y-80489964D01*
X93025138Y-80489506D01*
X93042699Y-80493000D01*
G37*
G36*
X89167699Y-80493000D02*
G01*
X89867301Y-80493000D01*
X89884852Y-80489508D01*
X89886561Y-80489966D01*
X89887238Y-80491601D01*
X89886353Y-80493133D01*
X89869727Y-80504239D01*
X89869716Y-80635735D01*
X89886381Y-80646872D01*
X89887266Y-80648404D01*
X89886589Y-80650039D01*
X89884880Y-80650497D01*
X89867301Y-80647000D01*
X89167699Y-80647000D01*
X89150109Y-80650499D01*
X89148400Y-80650041D01*
X89147723Y-80648406D01*
X89148608Y-80646874D01*
X89165282Y-80635730D01*
X89165271Y-80504244D01*
X89148637Y-80493131D01*
X89147752Y-80491599D01*
X89148429Y-80489964D01*
X89150138Y-80489506D01*
X89167699Y-80493000D01*
G37*
G36*
X93042699Y-80093000D02*
G01*
X93742301Y-80093000D01*
X93759852Y-80089508D01*
X93761561Y-80089966D01*
X93762238Y-80091601D01*
X93761353Y-80093133D01*
X93744727Y-80104239D01*
X93744716Y-80235735D01*
X93761381Y-80246872D01*
X93762266Y-80248404D01*
X93761589Y-80250039D01*
X93759880Y-80250497D01*
X93742301Y-80247000D01*
X93042699Y-80247000D01*
X93025109Y-80250499D01*
X93023400Y-80250041D01*
X93022723Y-80248406D01*
X93023608Y-80246874D01*
X93040282Y-80235730D01*
X93040271Y-80104244D01*
X93023637Y-80093131D01*
X93022752Y-80091599D01*
X93023429Y-80089964D01*
X93025138Y-80089506D01*
X93042699Y-80093000D01*
G37*
G36*
X89167699Y-80093000D02*
G01*
X89867301Y-80093000D01*
X89884852Y-80089508D01*
X89886561Y-80089966D01*
X89887238Y-80091601D01*
X89886353Y-80093133D01*
X89869727Y-80104239D01*
X89869716Y-80235735D01*
X89886381Y-80246872D01*
X89887266Y-80248404D01*
X89886589Y-80250039D01*
X89884880Y-80250497D01*
X89867301Y-80247000D01*
X89167699Y-80247000D01*
X89150109Y-80250499D01*
X89148400Y-80250041D01*
X89147723Y-80248406D01*
X89148608Y-80246874D01*
X89165282Y-80235730D01*
X89165271Y-80104244D01*
X89148637Y-80093131D01*
X89147752Y-80091599D01*
X89148429Y-80089964D01*
X89150138Y-80089506D01*
X89167699Y-80093000D01*
G37*
G36*
X93042699Y-79693000D02*
G01*
X93742301Y-79693000D01*
X93759852Y-79689508D01*
X93761561Y-79689966D01*
X93762238Y-79691601D01*
X93761353Y-79693133D01*
X93744727Y-79704239D01*
X93744716Y-79835735D01*
X93761381Y-79846872D01*
X93762266Y-79848404D01*
X93761589Y-79850039D01*
X93759880Y-79850497D01*
X93742301Y-79847000D01*
X93042699Y-79847000D01*
X93025109Y-79850499D01*
X93023400Y-79850041D01*
X93022723Y-79848406D01*
X93023608Y-79846874D01*
X93040282Y-79835730D01*
X93040271Y-79704244D01*
X93023637Y-79693131D01*
X93022752Y-79691599D01*
X93023429Y-79689964D01*
X93025138Y-79689506D01*
X93042699Y-79693000D01*
G37*
G36*
X89167699Y-79693000D02*
G01*
X89867301Y-79693000D01*
X89884852Y-79689508D01*
X89886561Y-79689966D01*
X89887238Y-79691601D01*
X89886353Y-79693133D01*
X89869727Y-79704239D01*
X89869716Y-79835735D01*
X89886381Y-79846872D01*
X89887266Y-79848404D01*
X89886589Y-79850039D01*
X89884880Y-79850497D01*
X89867301Y-79847000D01*
X89167699Y-79847000D01*
X89150109Y-79850499D01*
X89148400Y-79850041D01*
X89147723Y-79848406D01*
X89148608Y-79846874D01*
X89165282Y-79835730D01*
X89165271Y-79704244D01*
X89148637Y-79693131D01*
X89147752Y-79691599D01*
X89148429Y-79689964D01*
X89150138Y-79689506D01*
X89167699Y-79693000D01*
G37*
G36*
X93042699Y-79293000D02*
G01*
X93742301Y-79293000D01*
X93759866Y-79289505D01*
X93761575Y-79289963D01*
X93762252Y-79291598D01*
X93761367Y-79293130D01*
X93744722Y-79304252D01*
X93744722Y-79435748D01*
X93761368Y-79446869D01*
X93762253Y-79448401D01*
X93761576Y-79450036D01*
X93759867Y-79450494D01*
X93742301Y-79447000D01*
X93042699Y-79447000D01*
X93025124Y-79450496D01*
X93023415Y-79450038D01*
X93022738Y-79448403D01*
X93023623Y-79446871D01*
X93040277Y-79435743D01*
X93040277Y-79304257D01*
X93023624Y-79293129D01*
X93022739Y-79291597D01*
X93023416Y-79289962D01*
X93025125Y-79289504D01*
X93042699Y-79293000D01*
G37*
G36*
X89167699Y-79293000D02*
G01*
X89867301Y-79293000D01*
X89884866Y-79289505D01*
X89886575Y-79289963D01*
X89887252Y-79291598D01*
X89886367Y-79293130D01*
X89869722Y-79304252D01*
X89869722Y-79435748D01*
X89886368Y-79446869D01*
X89887253Y-79448401D01*
X89886576Y-79450036D01*
X89884867Y-79450494D01*
X89867301Y-79447000D01*
X89167699Y-79447000D01*
X89150124Y-79450496D01*
X89148415Y-79450038D01*
X89147738Y-79448403D01*
X89148623Y-79446871D01*
X89165277Y-79435743D01*
X89165277Y-79304257D01*
X89148624Y-79293129D01*
X89147739Y-79291597D01*
X89148416Y-79289962D01*
X89150125Y-79289504D01*
X89167699Y-79293000D01*
G37*
G36*
X92535038Y-78063415D02*
G01*
X92535496Y-78065124D01*
X92532000Y-78082699D01*
X92532000Y-78782301D01*
X92535494Y-78799867D01*
X92535036Y-78801576D01*
X92533401Y-78802253D01*
X92531869Y-78801368D01*
X92520748Y-78784722D01*
X92389252Y-78784722D01*
X92378130Y-78801367D01*
X92376598Y-78802252D01*
X92374963Y-78801575D01*
X92374505Y-78799866D01*
X92378000Y-78782301D01*
X92378000Y-78082699D01*
X92374504Y-78065125D01*
X92374962Y-78063416D01*
X92376597Y-78062739D01*
X92378129Y-78063624D01*
X92389257Y-78080277D01*
X92520743Y-78080277D01*
X92531871Y-78063623D01*
X92533403Y-78062738D01*
X92535038Y-78063415D01*
G37*
G36*
X92135038Y-78063415D02*
G01*
X92135496Y-78065124D01*
X92132000Y-78082699D01*
X92132000Y-78782301D01*
X92135494Y-78799867D01*
X92135036Y-78801576D01*
X92133401Y-78802253D01*
X92131869Y-78801368D01*
X92120748Y-78784722D01*
X91989252Y-78784722D01*
X91978130Y-78801367D01*
X91976598Y-78802252D01*
X91974963Y-78801575D01*
X91974505Y-78799866D01*
X91978000Y-78782301D01*
X91978000Y-78082699D01*
X91974504Y-78065125D01*
X91974962Y-78063416D01*
X91976597Y-78062739D01*
X91978129Y-78063624D01*
X91989257Y-78080277D01*
X92120743Y-78080277D01*
X92131871Y-78063623D01*
X92133403Y-78062738D01*
X92135038Y-78063415D01*
G37*
G36*
X91735038Y-78063415D02*
G01*
X91735496Y-78065124D01*
X91732000Y-78082699D01*
X91732000Y-78782301D01*
X91735494Y-78799867D01*
X91735036Y-78801576D01*
X91733401Y-78802253D01*
X91731869Y-78801368D01*
X91720748Y-78784722D01*
X91589252Y-78784722D01*
X91578130Y-78801367D01*
X91576598Y-78802252D01*
X91574963Y-78801575D01*
X91574505Y-78799866D01*
X91578000Y-78782301D01*
X91578000Y-78082699D01*
X91574504Y-78065125D01*
X91574962Y-78063416D01*
X91576597Y-78062739D01*
X91578129Y-78063624D01*
X91589257Y-78080277D01*
X91720743Y-78080277D01*
X91731871Y-78063623D01*
X91733403Y-78062738D01*
X91735038Y-78063415D01*
G37*
G36*
X91335038Y-78063415D02*
G01*
X91335496Y-78065124D01*
X91332000Y-78082699D01*
X91332000Y-78782301D01*
X91335494Y-78799867D01*
X91335036Y-78801576D01*
X91333401Y-78802253D01*
X91331869Y-78801368D01*
X91320748Y-78784722D01*
X91189252Y-78784722D01*
X91178130Y-78801367D01*
X91176598Y-78802252D01*
X91174963Y-78801575D01*
X91174505Y-78799866D01*
X91178000Y-78782301D01*
X91178000Y-78082699D01*
X91174504Y-78065125D01*
X91174962Y-78063416D01*
X91176597Y-78062739D01*
X91178129Y-78063624D01*
X91189257Y-78080277D01*
X91320743Y-78080277D01*
X91331871Y-78063623D01*
X91333403Y-78062738D01*
X91335038Y-78063415D01*
G37*
G36*
X90935038Y-78063415D02*
G01*
X90935496Y-78065124D01*
X90932000Y-78082699D01*
X90932000Y-78782301D01*
X90935494Y-78799867D01*
X90935036Y-78801576D01*
X90933401Y-78802253D01*
X90931869Y-78801368D01*
X90920748Y-78784722D01*
X90789252Y-78784722D01*
X90778130Y-78801367D01*
X90776598Y-78802252D01*
X90774963Y-78801575D01*
X90774505Y-78799866D01*
X90778000Y-78782301D01*
X90778000Y-78082699D01*
X90774504Y-78065125D01*
X90774962Y-78063416D01*
X90776597Y-78062739D01*
X90778129Y-78063624D01*
X90789257Y-78080277D01*
X90920743Y-78080277D01*
X90931871Y-78063623D01*
X90933403Y-78062738D01*
X90935038Y-78063415D01*
G37*
G36*
X90535038Y-78063415D02*
G01*
X90535496Y-78065124D01*
X90532000Y-78082699D01*
X90532000Y-78782301D01*
X90535494Y-78799867D01*
X90535036Y-78801576D01*
X90533401Y-78802253D01*
X90531869Y-78801368D01*
X90520748Y-78784722D01*
X90389252Y-78784722D01*
X90378130Y-78801367D01*
X90376598Y-78802252D01*
X90374963Y-78801575D01*
X90374505Y-78799866D01*
X90378000Y-78782301D01*
X90378000Y-78082699D01*
X90374504Y-78065125D01*
X90374962Y-78063416D01*
X90376597Y-78062739D01*
X90378129Y-78063624D01*
X90389257Y-78080277D01*
X90520743Y-78080277D01*
X90531871Y-78063623D01*
X90533403Y-78062738D01*
X90535038Y-78063415D01*
G37*
G36*
X59127179Y-70678681D02*
G01*
X59127658Y-70680261D01*
X59126786Y-70681663D01*
X59078009Y-70714253D01*
X59078009Y-70845747D01*
X59126788Y-70878337D01*
X59127660Y-70879739D01*
X59127181Y-70881319D01*
X59125677Y-70882000D01*
X57684322Y-70882000D01*
X57682818Y-70881319D01*
X57682339Y-70879739D01*
X57683211Y-70878337D01*
X57731990Y-70845745D01*
X57731990Y-70714255D01*
X57683212Y-70681663D01*
X57682340Y-70680261D01*
X57682819Y-70678681D01*
X57684323Y-70678000D01*
X59125675Y-70678000D01*
X59127179Y-70678681D01*
G37*
G36*
X59127179Y-69328681D02*
G01*
X59127658Y-69330261D01*
X59126786Y-69331663D01*
X59078009Y-69364253D01*
X59078009Y-69495747D01*
X59126788Y-69528337D01*
X59127660Y-69529739D01*
X59127181Y-69531319D01*
X59125677Y-69532000D01*
X57684322Y-69532000D01*
X57682818Y-69531319D01*
X57682339Y-69529739D01*
X57683211Y-69528337D01*
X57731990Y-69495745D01*
X57731990Y-69364255D01*
X57683212Y-69331663D01*
X57682340Y-69330261D01*
X57682819Y-69328681D01*
X57684323Y-69328000D01*
X59125675Y-69328000D01*
X59127179Y-69328681D01*
G37*
G36*
X59127179Y-68828681D02*
G01*
X59127658Y-68830261D01*
X59126786Y-68831663D01*
X59078009Y-68864253D01*
X59078009Y-68995747D01*
X59126788Y-69028337D01*
X59127660Y-69029739D01*
X59127181Y-69031319D01*
X59125677Y-69032000D01*
X57684322Y-69032000D01*
X57682818Y-69031319D01*
X57682339Y-69029739D01*
X57683211Y-69028337D01*
X57731990Y-68995745D01*
X57731990Y-68864255D01*
X57683212Y-68831663D01*
X57682340Y-68830261D01*
X57682819Y-68828681D01*
X57684323Y-68828000D01*
X59125675Y-68828000D01*
X59127179Y-68828681D01*
G37*
G36*
X59127179Y-68328681D02*
G01*
X59127658Y-68330261D01*
X59126786Y-68331663D01*
X59078009Y-68364253D01*
X59078009Y-68495747D01*
X59126788Y-68528337D01*
X59127660Y-68529739D01*
X59127181Y-68531319D01*
X59125677Y-68532000D01*
X57684322Y-68532000D01*
X57682818Y-68531319D01*
X57682339Y-68529739D01*
X57683211Y-68528337D01*
X57731990Y-68495745D01*
X57731990Y-68364255D01*
X57683212Y-68331663D01*
X57682340Y-68330261D01*
X57682819Y-68328681D01*
X57684323Y-68328000D01*
X59125675Y-68328000D01*
X59127179Y-68328681D01*
G37*
G36*
X59127179Y-67828681D02*
G01*
X59127658Y-67830261D01*
X59126786Y-67831663D01*
X59078009Y-67864253D01*
X59078009Y-67995747D01*
X59126788Y-68028337D01*
X59127660Y-68029739D01*
X59127181Y-68031319D01*
X59125677Y-68032000D01*
X57684322Y-68032000D01*
X57682818Y-68031319D01*
X57682339Y-68029739D01*
X57683211Y-68028337D01*
X57731990Y-67995745D01*
X57731990Y-67864255D01*
X57683212Y-67831663D01*
X57682340Y-67830261D01*
X57682819Y-67828681D01*
X57684323Y-67828000D01*
X59125675Y-67828000D01*
X59127179Y-67828681D01*
G37*
G36*
X59127179Y-67328681D02*
G01*
X59127658Y-67330261D01*
X59126786Y-67331663D01*
X59078009Y-67364253D01*
X59078009Y-67495747D01*
X59126788Y-67528337D01*
X59127660Y-67529739D01*
X59127181Y-67531319D01*
X59125677Y-67532000D01*
X57684322Y-67532000D01*
X57682818Y-67531319D01*
X57682339Y-67529739D01*
X57683211Y-67528337D01*
X57731990Y-67495745D01*
X57731990Y-67364255D01*
X57683212Y-67331663D01*
X57682340Y-67330261D01*
X57682819Y-67328681D01*
X57684323Y-67328000D01*
X59125675Y-67328000D01*
X59127179Y-67328681D01*
G37*
G36*
X59127179Y-66828681D02*
G01*
X59127658Y-66830261D01*
X59126786Y-66831663D01*
X59078009Y-66864253D01*
X59078009Y-66995747D01*
X59126788Y-67028337D01*
X59127660Y-67029739D01*
X59127181Y-67031319D01*
X59125677Y-67032000D01*
X57684322Y-67032000D01*
X57682818Y-67031319D01*
X57682339Y-67029739D01*
X57683211Y-67028337D01*
X57731990Y-66995745D01*
X57731990Y-66864255D01*
X57683212Y-66831663D01*
X57682340Y-66830261D01*
X57682819Y-66828681D01*
X57684323Y-66828000D01*
X59125675Y-66828000D01*
X59127179Y-66828681D01*
G37*
G36*
X59127179Y-66328681D02*
G01*
X59127658Y-66330261D01*
X59126786Y-66331663D01*
X59078009Y-66364253D01*
X59078009Y-66495747D01*
X59126788Y-66528337D01*
X59127660Y-66529739D01*
X59127181Y-66531319D01*
X59125677Y-66532000D01*
X57684322Y-66532000D01*
X57682818Y-66531319D01*
X57682339Y-66529739D01*
X57683211Y-66528337D01*
X57731990Y-66495745D01*
X57731990Y-66364255D01*
X57683212Y-66331663D01*
X57682340Y-66330261D01*
X57682819Y-66328681D01*
X57684323Y-66328000D01*
X59125675Y-66328000D01*
X59127179Y-66328681D01*
G37*
G36*
X59127179Y-64978681D02*
G01*
X59127658Y-64980261D01*
X59126786Y-64981663D01*
X59078009Y-65014253D01*
X59078009Y-65145747D01*
X59126788Y-65178337D01*
X59127660Y-65179739D01*
X59127181Y-65181319D01*
X59125677Y-65182000D01*
X57684322Y-65182000D01*
X57682818Y-65181319D01*
X57682339Y-65179739D01*
X57683211Y-65178337D01*
X57731990Y-65145745D01*
X57731990Y-65014255D01*
X57683212Y-64981663D01*
X57682340Y-64980261D01*
X57682819Y-64978681D01*
X57684323Y-64978000D01*
X59125675Y-64978000D01*
X59127179Y-64978681D01*
G37*
M02*
