%TF.GenerationSoftware,KiCad,Pcbnew,(6.0.9)*%
%TF.CreationDate,2023-04-06T22:09:24+03:00*%
%TF.ProjectId,cross_band_handy_walkie_talkie_ES8388,63726f73-735f-4626-916e-645f68616e64,rev?*%
%TF.SameCoordinates,Original*%
%TF.FileFunction,Soldermask,Top*%
%TF.FilePolarity,Negative*%
%FSLAX46Y46*%
G04 Gerber Fmt 4.6, Leading zero omitted, Abs format (unit mm)*
G04 Created by KiCad (PCBNEW (6.0.9)) date 2023-04-06 22:09:24*
%MOMM*%
%LPD*%
G01*
G04 APERTURE LIST*
G04 Aperture macros list*
%AMRoundRect*
0 Rectangle with rounded corners*
0 $1 Rounding radius*
0 $2 $3 $4 $5 $6 $7 $8 $9 X,Y pos of 4 corners*
0 Add a 4 corners polygon primitive as box body*
4,1,4,$2,$3,$4,$5,$6,$7,$8,$9,$2,$3,0*
0 Add four circle primitives for the rounded corners*
1,1,$1+$1,$2,$3*
1,1,$1+$1,$4,$5*
1,1,$1+$1,$6,$7*
1,1,$1+$1,$8,$9*
0 Add four rect primitives between the rounded corners*
20,1,$1+$1,$2,$3,$4,$5,0*
20,1,$1+$1,$4,$5,$6,$7,0*
20,1,$1+$1,$6,$7,$8,$9,0*
20,1,$1+$1,$8,$9,$2,$3,0*%
G04 Aperture macros list end*
%ADD10RoundRect,0.300000X-0.800000X0.300000X-0.800000X-0.300000X0.800000X-0.300000X0.800000X0.300000X0*%
%ADD11RoundRect,0.300000X-0.300000X-0.800000X0.300000X-0.800000X0.300000X0.800000X-0.300000X0.800000X0*%
%ADD12RoundRect,0.300000X0.800000X-0.300000X0.800000X0.300000X-0.800000X0.300000X-0.800000X-0.300000X0*%
%ADD13C,0.610000*%
%ADD14RoundRect,0.225000X0.225000X0.250000X-0.225000X0.250000X-0.225000X-0.250000X0.225000X-0.250000X0*%
%ADD15RoundRect,0.062500X-0.362500X-0.062500X0.362500X-0.062500X0.362500X0.062500X-0.362500X0.062500X0*%
%ADD16RoundRect,0.062500X-0.062500X-0.362500X0.062500X-0.362500X0.062500X0.362500X-0.062500X0.362500X0*%
%ADD17R,2.600000X2.600000*%
%ADD18RoundRect,0.135000X-0.135000X-0.185000X0.135000X-0.185000X0.135000X0.185000X-0.135000X0.185000X0*%
%ADD19R,1.000000X1.000000*%
%ADD20RoundRect,0.150000X0.150000X-0.512500X0.150000X0.512500X-0.150000X0.512500X-0.150000X-0.512500X0*%
%ADD21RoundRect,0.250000X0.250000X0.475000X-0.250000X0.475000X-0.250000X-0.475000X0.250000X-0.475000X0*%
%ADD22RoundRect,0.243750X-0.243750X-0.456250X0.243750X-0.456250X0.243750X0.456250X-0.243750X0.456250X0*%
%ADD23C,5.600000*%
%ADD24C,3.600000*%
%ADD25C,2.000000*%
%ADD26R,1.700000X2.000000*%
%ADD27RoundRect,0.135000X-0.185000X0.135000X-0.185000X-0.135000X0.185000X-0.135000X0.185000X0.135000X0*%
%ADD28RoundRect,0.135000X0.135000X0.185000X-0.135000X0.185000X-0.135000X-0.185000X0.135000X-0.185000X0*%
%ADD29C,3.000000*%
%ADD30RoundRect,0.237500X0.250000X0.237500X-0.250000X0.237500X-0.250000X-0.237500X0.250000X-0.237500X0*%
%ADD31RoundRect,0.250000X-0.262500X-0.450000X0.262500X-0.450000X0.262500X0.450000X-0.262500X0.450000X0*%
%ADD32RoundRect,0.250000X-0.250000X-0.475000X0.250000X-0.475000X0.250000X0.475000X-0.250000X0.475000X0*%
%ADD33RoundRect,0.225000X-0.250000X0.225000X-0.250000X-0.225000X0.250000X-0.225000X0.250000X0.225000X0*%
%ADD34RoundRect,0.200000X0.275000X-0.200000X0.275000X0.200000X-0.275000X0.200000X-0.275000X-0.200000X0*%
%ADD35R,1.500000X2.000000*%
%ADD36R,3.800000X2.000000*%
%ADD37RoundRect,0.150000X-0.150000X0.587500X-0.150000X-0.587500X0.150000X-0.587500X0.150000X0.587500X0*%
%ADD38RoundRect,0.150000X0.587500X0.150000X-0.587500X0.150000X-0.587500X-0.150000X0.587500X-0.150000X0*%
%ADD39RoundRect,0.237500X-0.237500X0.250000X-0.237500X-0.250000X0.237500X-0.250000X0.237500X0.250000X0*%
%ADD40RoundRect,0.140000X-0.170000X0.140000X-0.170000X-0.140000X0.170000X-0.140000X0.170000X0.140000X0*%
%ADD41RoundRect,0.237500X-0.300000X-0.237500X0.300000X-0.237500X0.300000X0.237500X-0.300000X0.237500X0*%
%ADD42R,1.400000X0.800000*%
%ADD43R,0.800000X1.400000*%
%ADD44R,0.800000X0.800000*%
%ADD45RoundRect,0.140000X0.140000X0.170000X-0.140000X0.170000X-0.140000X-0.170000X0.140000X-0.170000X0*%
%ADD46R,1.300000X2.000000*%
%ADD47R,2.000000X2.000000*%
%ADD48RoundRect,0.140000X-0.140000X-0.170000X0.140000X-0.170000X0.140000X0.170000X-0.140000X0.170000X0*%
%ADD49C,2.050000*%
%ADD50C,2.250000*%
%ADD51RoundRect,0.218750X0.256250X-0.218750X0.256250X0.218750X-0.256250X0.218750X-0.256250X-0.218750X0*%
%ADD52RoundRect,0.200000X0.200000X0.275000X-0.200000X0.275000X-0.200000X-0.275000X0.200000X-0.275000X0*%
%ADD53RoundRect,0.225000X0.250000X-0.225000X0.250000X0.225000X-0.250000X0.225000X-0.250000X-0.225000X0*%
%ADD54RoundRect,0.250000X0.312500X0.625000X-0.312500X0.625000X-0.312500X-0.625000X0.312500X-0.625000X0*%
%ADD55R,1.700000X1.700000*%
%ADD56O,1.700000X1.700000*%
%ADD57RoundRect,0.062500X-0.062500X0.350000X-0.062500X-0.350000X0.062500X-0.350000X0.062500X0.350000X0*%
%ADD58RoundRect,0.062500X-0.350000X0.062500X-0.350000X-0.062500X0.350000X-0.062500X0.350000X0.062500X0*%
%ADD59R,2.400000X2.400000*%
%ADD60RoundRect,0.250000X0.625000X-0.312500X0.625000X0.312500X-0.625000X0.312500X-0.625000X-0.312500X0*%
%ADD61RoundRect,0.135000X0.185000X-0.135000X0.185000X0.135000X-0.185000X0.135000X-0.185000X-0.135000X0*%
%ADD62RoundRect,0.237500X-0.250000X-0.237500X0.250000X-0.237500X0.250000X0.237500X-0.250000X0.237500X0*%
%ADD63R,0.850000X1.100000*%
%ADD64R,0.750000X1.100000*%
%ADD65R,1.200000X1.000000*%
%ADD66R,1.550000X1.350000*%
%ADD67R,1.170000X1.800000*%
%ADD68R,1.900000X1.350000*%
%ADD69R,0.700000X1.000000*%
%ADD70RoundRect,0.225000X-0.225000X-0.250000X0.225000X-0.250000X0.225000X0.250000X-0.225000X0.250000X0*%
%ADD71RoundRect,0.140000X0.170000X-0.140000X0.170000X0.140000X-0.170000X0.140000X-0.170000X-0.140000X0*%
%ADD72C,1.200000*%
%ADD73RoundRect,0.150000X0.150000X-0.587500X0.150000X0.587500X-0.150000X0.587500X-0.150000X-0.587500X0*%
%ADD74RoundRect,0.075000X-0.075000X0.337500X-0.075000X-0.337500X0.075000X-0.337500X0.075000X0.337500X0*%
%ADD75RoundRect,0.075000X-0.337500X0.075000X-0.337500X-0.075000X0.337500X-0.075000X0.337500X0.075000X0*%
%ADD76R,2.500000X2.500000*%
%ADD77C,1.500000*%
%ADD78RoundRect,0.237500X0.300000X0.237500X-0.300000X0.237500X-0.300000X-0.237500X0.300000X-0.237500X0*%
%ADD79C,1.000000*%
%ADD80R,3.500000X1.800000*%
%ADD81RoundRect,0.218750X0.218750X0.256250X-0.218750X0.256250X-0.218750X-0.256250X0.218750X-0.256250X0*%
%ADD82R,2.000000X1.700000*%
%ADD83R,1.000000X1.500000*%
%ADD84RoundRect,0.250000X-0.475000X0.250000X-0.475000X-0.250000X0.475000X-0.250000X0.475000X0.250000X0*%
%ADD85C,0.650000*%
%ADD86R,1.450000X0.600000*%
%ADD87R,1.450000X0.300000*%
%ADD88O,1.600000X1.000000*%
%ADD89O,2.100000X1.000000*%
%ADD90RoundRect,0.218750X-0.218750X-0.256250X0.218750X-0.256250X0.218750X0.256250X-0.218750X0.256250X0*%
%ADD91RoundRect,0.107480X-0.642520X-1.217520X0.642520X-1.217520X0.642520X1.217520X-0.642520X1.217520X0*%
%ADD92R,1.500000X1.000000*%
%ADD93RoundRect,0.250000X0.262500X0.450000X-0.262500X0.450000X-0.262500X-0.450000X0.262500X-0.450000X0*%
%ADD94RoundRect,0.150000X-0.587500X-0.150000X0.587500X-0.150000X0.587500X0.150000X-0.587500X0.150000X0*%
G04 APERTURE END LIST*
D10*
%TO.C,L2*%
X91980000Y-97360000D03*
X91980000Y-95360000D03*
%TD*%
%TO.C,L4*%
X67955000Y-101080000D03*
X67955000Y-103080000D03*
%TD*%
D11*
%TO.C,L3*%
X86910000Y-86860000D03*
X88910000Y-86860000D03*
%TD*%
D12*
%TO.C,L1*%
X60615000Y-107040000D03*
X60615000Y-105040000D03*
%TD*%
D13*
%TO.C,FL1*%
X120668647Y-95868647D03*
X122231353Y-97431353D03*
%TD*%
%TO.C,FL2*%
X59085511Y-81755511D03*
X57522805Y-80192805D03*
%TD*%
D14*
%TO.C,C62*%
X73840000Y-70180000D03*
X72290000Y-70180000D03*
%TD*%
D15*
%TO.C,U6*%
X94425000Y-98500000D03*
X94425000Y-99000000D03*
X94425000Y-99500000D03*
X94425000Y-100000000D03*
X94425000Y-100500000D03*
D16*
X95350000Y-101425000D03*
X95850000Y-101425000D03*
X96350000Y-101425000D03*
X96850000Y-101425000D03*
X97350000Y-101425000D03*
D15*
X98275000Y-100500000D03*
X98275000Y-100000000D03*
X98275000Y-99500000D03*
X98275000Y-99000000D03*
X98275000Y-98500000D03*
D16*
X97350000Y-97575000D03*
X96850000Y-97575000D03*
X96350000Y-97575000D03*
X95850000Y-97575000D03*
X95350000Y-97575000D03*
D17*
X96350000Y-99500000D03*
%TD*%
D18*
%TO.C,R49*%
X76980000Y-59450000D03*
X78000000Y-59450000D03*
%TD*%
D19*
%TO.C,TP5*%
X119550000Y-52150000D03*
%TD*%
D20*
%TO.C,U1*%
X62600000Y-68887500D03*
X63550000Y-68887500D03*
X64500000Y-68887500D03*
X64500000Y-66612500D03*
X63550000Y-66612500D03*
X62600000Y-66612500D03*
%TD*%
D18*
%TO.C,R20*%
X101195000Y-55635000D03*
X102215000Y-55635000D03*
%TD*%
D21*
%TO.C,C36*%
X93820000Y-89010000D03*
X91920000Y-89010000D03*
%TD*%
D18*
%TO.C,R50*%
X76980000Y-58250000D03*
X78000000Y-58250000D03*
%TD*%
D22*
%TO.C,D2*%
X52495000Y-79180000D03*
X54370000Y-79180000D03*
%TD*%
D23*
%TO.C,H1*%
X55000000Y-55000000D03*
D24*
X55000000Y-55000000D03*
%TD*%
D14*
%TO.C,C31*%
X93230000Y-74870000D03*
X91680000Y-74870000D03*
%TD*%
D25*
%TO.C,BT1*%
X65000000Y-114000000D03*
D26*
X62460000Y-114000000D03*
%TD*%
D27*
%TO.C,R26*%
X87870000Y-71475000D03*
X87870000Y-72495000D03*
%TD*%
D28*
%TO.C,R21*%
X100045000Y-60735000D03*
X99025000Y-60735000D03*
%TD*%
D29*
%TO.C,J3*%
X93000000Y-111000000D03*
X98000000Y-111000000D03*
%TD*%
D27*
%TO.C,R53*%
X71050000Y-64740000D03*
X71050000Y-65760000D03*
%TD*%
D30*
%TO.C,R31*%
X85472500Y-83340000D03*
X83647500Y-83340000D03*
%TD*%
D31*
%TO.C,R15*%
X77202500Y-101100000D03*
X79027500Y-101100000D03*
%TD*%
D14*
%TO.C,C29*%
X88685000Y-84730000D03*
X87135000Y-84730000D03*
%TD*%
D32*
%TO.C,C26*%
X99250000Y-79150000D03*
X101150000Y-79150000D03*
%TD*%
D27*
%TO.C,R27*%
X91670000Y-71425000D03*
X91670000Y-72445000D03*
%TD*%
%TO.C,R47*%
X95550000Y-102740000D03*
X95550000Y-103760000D03*
%TD*%
D33*
%TO.C,C18*%
X89627500Y-95570000D03*
X89627500Y-97120000D03*
%TD*%
D22*
%TO.C,D1*%
X52495000Y-75010000D03*
X54370000Y-75010000D03*
%TD*%
D34*
%TO.C,R39*%
X87750000Y-90725000D03*
X87750000Y-89075000D03*
%TD*%
D35*
%TO.C,U3*%
X74170000Y-77870000D03*
D36*
X71870000Y-84170000D03*
D35*
X71870000Y-77870000D03*
X69570000Y-77870000D03*
%TD*%
D37*
%TO.C,Q4*%
X74020000Y-72002500D03*
X72120000Y-72002500D03*
X73070000Y-73877500D03*
%TD*%
D38*
%TO.C,Q1*%
X76317500Y-108780000D03*
X76317500Y-106880000D03*
X74442500Y-107830000D03*
%TD*%
D39*
%TO.C,R42*%
X120300000Y-55937500D03*
X120300000Y-57762500D03*
%TD*%
D19*
%TO.C,TP4*%
X66650000Y-66100000D03*
%TD*%
D40*
%TO.C,C35*%
X95900000Y-95320000D03*
X95900000Y-96280000D03*
%TD*%
D41*
%TO.C,C1*%
X62587500Y-63450000D03*
X64312500Y-63450000D03*
%TD*%
D42*
%TO.C,U2*%
X79745000Y-51875000D03*
X79745000Y-53145000D03*
X79745000Y-54415000D03*
X79745000Y-55685000D03*
X79745000Y-56955000D03*
X79745000Y-58225000D03*
X79745000Y-59495000D03*
X79745000Y-60765000D03*
X79745000Y-62035000D03*
X79745000Y-63305000D03*
X79745000Y-64575000D03*
X79745000Y-65845000D03*
X79745000Y-67115000D03*
X79745000Y-68385000D03*
D43*
X81510000Y-69635000D03*
X82780000Y-69635000D03*
X84050000Y-69635000D03*
X85320000Y-69635000D03*
X86590000Y-69635000D03*
X87860000Y-69635000D03*
X89130000Y-69635000D03*
X90400000Y-69635000D03*
X91670000Y-69635000D03*
X92940000Y-69635000D03*
X94210000Y-69635000D03*
X95480000Y-69635000D03*
D42*
X97245000Y-68385000D03*
X97245000Y-67115000D03*
X97245000Y-65845000D03*
X97245000Y-64575000D03*
X97245000Y-63305000D03*
X97245000Y-62035000D03*
X97245000Y-60765000D03*
X97245000Y-59495000D03*
X97245000Y-58225000D03*
X97245000Y-56955000D03*
X97245000Y-55685000D03*
X97245000Y-54415000D03*
X97245000Y-53145000D03*
X97245000Y-51875000D03*
D44*
X88395000Y-58195000D03*
X85595000Y-60995000D03*
X88395000Y-60995000D03*
X86995000Y-59595000D03*
X86995000Y-60995000D03*
X88395000Y-59595000D03*
X85595000Y-58195000D03*
X86995000Y-58195000D03*
X85595000Y-59595000D03*
%TD*%
D40*
%TO.C,C38*%
X96850000Y-95320000D03*
X96850000Y-96280000D03*
%TD*%
D45*
%TO.C,C45*%
X91285000Y-84470000D03*
X90325000Y-84470000D03*
%TD*%
D37*
%TO.C,Q2*%
X66980000Y-73302500D03*
X65080000Y-73302500D03*
X66030000Y-75177500D03*
%TD*%
D46*
%TO.C,RV1*%
X102260000Y-93530000D03*
D47*
X103410000Y-89530000D03*
D46*
X104560000Y-93530000D03*
%TD*%
D48*
%TO.C,C43*%
X90325000Y-83520000D03*
X91285000Y-83520000D03*
%TD*%
D27*
%TO.C,R35*%
X96900000Y-91300000D03*
X96900000Y-92320000D03*
%TD*%
D49*
%TO.C,J8*%
X56000000Y-89000000D03*
D50*
X58540000Y-91540000D03*
X53460000Y-91540000D03*
X58540000Y-86460000D03*
X53460000Y-86460000D03*
%TD*%
D14*
%TO.C,C54*%
X77115000Y-74220000D03*
X75565000Y-74220000D03*
%TD*%
D18*
%TO.C,R40*%
X101185000Y-60735000D03*
X102205000Y-60735000D03*
%TD*%
D51*
%TO.C,D7*%
X89300000Y-90687500D03*
X89300000Y-89112500D03*
%TD*%
D52*
%TO.C,R45*%
X69575000Y-116200000D03*
X67925000Y-116200000D03*
%TD*%
D49*
%TO.C,J7*%
X124000000Y-89000000D03*
D50*
X121460000Y-86460000D03*
X126540000Y-86460000D03*
X121460000Y-91540000D03*
X126540000Y-91540000D03*
%TD*%
D28*
%TO.C,R23*%
X100190000Y-66860000D03*
X99170000Y-66860000D03*
%TD*%
D48*
%TO.C,C23*%
X92970000Y-93270000D03*
X93930000Y-93270000D03*
%TD*%
D34*
%TO.C,R44*%
X105875000Y-98950000D03*
X105875000Y-97300000D03*
%TD*%
D53*
%TO.C,C4*%
X76820000Y-53335000D03*
X76820000Y-51785000D03*
%TD*%
D54*
%TO.C,R43*%
X70517500Y-109730000D03*
X67592500Y-109730000D03*
%TD*%
D55*
%TO.C,J10*%
X125375000Y-61350000D03*
D56*
X122835000Y-61350000D03*
X120295000Y-61350000D03*
%TD*%
D57*
%TO.C,U5*%
X92655000Y-78432500D03*
X92255000Y-78432500D03*
X91855000Y-78432500D03*
X91455000Y-78432500D03*
X91055000Y-78432500D03*
X90655000Y-78432500D03*
X90255000Y-78432500D03*
D58*
X89517500Y-79170000D03*
X89517500Y-79570000D03*
X89517500Y-79970000D03*
X89517500Y-80370000D03*
X89517500Y-80770000D03*
X89517500Y-81170000D03*
X89517500Y-81570000D03*
D57*
X90255000Y-82307500D03*
X90655000Y-82307500D03*
X91055000Y-82307500D03*
X91455000Y-82307500D03*
X91855000Y-82307500D03*
X92255000Y-82307500D03*
X92655000Y-82307500D03*
D58*
X93392500Y-81570000D03*
X93392500Y-81170000D03*
X93392500Y-80770000D03*
X93392500Y-80370000D03*
X93392500Y-79970000D03*
X93392500Y-79570000D03*
X93392500Y-79170000D03*
D59*
X91455000Y-80370000D03*
%TD*%
D28*
%TO.C,R11*%
X100045000Y-54335000D03*
X99025000Y-54335000D03*
%TD*%
D60*
%TO.C,R16*%
X66605000Y-107692500D03*
X66605000Y-104767500D03*
%TD*%
D24*
%TO.C,H2*%
X125000000Y-55000000D03*
D23*
X125000000Y-55000000D03*
%TD*%
D61*
%TO.C,R2*%
X60200000Y-66590000D03*
X60200000Y-65570000D03*
%TD*%
D19*
%TO.C,TP6*%
X124950000Y-108800000D03*
%TD*%
D62*
%TO.C,R6*%
X74215000Y-55130000D03*
X76040000Y-55130000D03*
%TD*%
D33*
%TO.C,C50*%
X95055000Y-84845000D03*
X95055000Y-86395000D03*
%TD*%
D39*
%TO.C,R51*%
X96800000Y-86512500D03*
X96800000Y-88337500D03*
%TD*%
D32*
%TO.C,C63*%
X87050000Y-110650000D03*
X88950000Y-110650000D03*
%TD*%
D40*
%TO.C,C46*%
X92255000Y-83540000D03*
X92255000Y-84500000D03*
%TD*%
D63*
%TO.C,J2*%
X107090000Y-51772500D03*
X108190000Y-51772500D03*
X109290000Y-51772500D03*
X110390000Y-51772500D03*
X111490000Y-51772500D03*
X112590000Y-51772500D03*
X113690000Y-51772500D03*
D64*
X114740000Y-51772500D03*
D65*
X104455000Y-57922500D03*
X104455000Y-61622500D03*
D66*
X104630000Y-51897500D03*
D67*
X115950000Y-52122500D03*
D68*
X107955000Y-62597500D03*
X113925000Y-62597500D03*
%TD*%
D61*
%TO.C,R24*%
X81300000Y-115760000D03*
X81300000Y-114740000D03*
%TD*%
D33*
%TO.C,C47*%
X93505000Y-84845000D03*
X93505000Y-86395000D03*
%TD*%
D69*
%TO.C,SW2*%
X71600000Y-54625000D03*
X71600000Y-60625000D03*
X67900000Y-54625000D03*
X67900000Y-60625000D03*
%TD*%
D14*
%TO.C,C60*%
X91172500Y-99050000D03*
X89622500Y-99050000D03*
%TD*%
D70*
%TO.C,C21*%
X96775000Y-102900000D03*
X98325000Y-102900000D03*
%TD*%
D53*
%TO.C,C3*%
X75295000Y-53335000D03*
X75295000Y-51785000D03*
%TD*%
D71*
%TO.C,C42*%
X98840000Y-93330000D03*
X98840000Y-92370000D03*
%TD*%
D70*
%TO.C,C52*%
X102940000Y-104060000D03*
X104490000Y-104060000D03*
%TD*%
D72*
%TO.C,BT2*%
X72400000Y-117000000D03*
D25*
X74000000Y-115000000D03*
D47*
X76500000Y-115000000D03*
%TD*%
D28*
%TO.C,R9*%
X100045000Y-59535000D03*
X99025000Y-59535000D03*
%TD*%
D73*
%TO.C,Q3*%
X68620000Y-71897500D03*
X70520000Y-71897500D03*
X69570000Y-70022500D03*
%TD*%
D70*
%TO.C,C58*%
X61590000Y-103490000D03*
X63140000Y-103490000D03*
%TD*%
D74*
%TO.C,U4*%
X72980000Y-101442500D03*
X72330000Y-101442500D03*
X71680000Y-101442500D03*
X71030000Y-101442500D03*
D75*
X70067500Y-102405000D03*
X70067500Y-103055000D03*
X70067500Y-103705000D03*
X70067500Y-104355000D03*
D74*
X71030000Y-105317500D03*
X71680000Y-105317500D03*
X72330000Y-105317500D03*
X72980000Y-105317500D03*
D75*
X73942500Y-104355000D03*
X73942500Y-103705000D03*
X73942500Y-103055000D03*
X73942500Y-102405000D03*
D76*
X72005000Y-103380000D03*
%TD*%
D27*
%TO.C,R28*%
X86595000Y-71460000D03*
X86595000Y-72480000D03*
%TD*%
D14*
%TO.C,C15*%
X102070000Y-51835000D03*
X100520000Y-51835000D03*
%TD*%
%TO.C,C10*%
X60090000Y-108590000D03*
X58540000Y-108590000D03*
%TD*%
%TO.C,C59*%
X60140000Y-103490000D03*
X58590000Y-103490000D03*
%TD*%
D28*
%TO.C,R8*%
X100045000Y-58235000D03*
X99025000Y-58235000D03*
%TD*%
D27*
%TO.C,R25*%
X92945000Y-71425000D03*
X92945000Y-72445000D03*
%TD*%
D77*
%TO.C,SW3*%
X52600000Y-99550000D03*
X52600000Y-102050000D03*
X52600000Y-104550000D03*
%TD*%
D33*
%TO.C,C12*%
X68555000Y-104705000D03*
X68555000Y-106255000D03*
%TD*%
D28*
%TO.C,R12*%
X100045000Y-55635000D03*
X99025000Y-55635000D03*
%TD*%
D48*
%TO.C,C32*%
X96850000Y-94350000D03*
X97810000Y-94350000D03*
%TD*%
D18*
%TO.C,R48*%
X76980000Y-60750000D03*
X78000000Y-60750000D03*
%TD*%
D78*
%TO.C,C2*%
X71487500Y-63475000D03*
X69762500Y-63475000D03*
%TD*%
D37*
%TO.C,Q5*%
X109825000Y-96112500D03*
X107925000Y-96112500D03*
X108875000Y-97987500D03*
%TD*%
D55*
%TO.C,J9*%
X114420000Y-65910000D03*
D56*
X111880000Y-65910000D03*
X109340000Y-65910000D03*
X106800000Y-65910000D03*
%TD*%
D14*
%TO.C,C7*%
X70185000Y-75730000D03*
X68635000Y-75730000D03*
%TD*%
D19*
%TO.C,TP3*%
X115800000Y-71950000D03*
%TD*%
D28*
%TO.C,R22*%
X100190000Y-65860000D03*
X99170000Y-65860000D03*
%TD*%
D24*
%TO.C,H4*%
X55000000Y-115000000D03*
D23*
X55000000Y-115000000D03*
%TD*%
D24*
%TO.C,H3*%
X125000000Y-115000000D03*
D23*
X125000000Y-115000000D03*
%TD*%
D62*
%TO.C,R37*%
X101087500Y-96400000D03*
X102912500Y-96400000D03*
%TD*%
D28*
%TO.C,R13*%
X100045000Y-56935000D03*
X99025000Y-56935000D03*
%TD*%
D19*
%TO.C,TP8*%
X108975000Y-72600000D03*
%TD*%
%TO.C,TP7*%
X66450000Y-69250000D03*
%TD*%
D78*
%TO.C,C48*%
X114932500Y-69550000D03*
X113207500Y-69550000D03*
%TD*%
D39*
%TO.C,R30*%
X78130000Y-106967500D03*
X78130000Y-108792500D03*
%TD*%
D79*
%TO.C,FID1*%
X105525000Y-116100000D03*
%TD*%
D70*
%TO.C,C44*%
X90480000Y-87220000D03*
X92030000Y-87220000D03*
%TD*%
D31*
%TO.C,R4*%
X52520000Y-77110000D03*
X54345000Y-77110000D03*
%TD*%
D61*
%TO.C,R46*%
X68430000Y-74470000D03*
X68430000Y-73450000D03*
%TD*%
D33*
%TO.C,C22*%
X99750000Y-99425000D03*
X99750000Y-100975000D03*
%TD*%
D18*
%TO.C,R36*%
X101185000Y-56935000D03*
X102205000Y-56935000D03*
%TD*%
D32*
%TO.C,C24*%
X99250000Y-77100000D03*
X101150000Y-77100000D03*
%TD*%
D80*
%TO.C,D3*%
X68755000Y-98480000D03*
X73755000Y-98480000D03*
%TD*%
D70*
%TO.C,C39*%
X90480000Y-85720000D03*
X92030000Y-85720000D03*
%TD*%
D18*
%TO.C,R33*%
X94870000Y-92250000D03*
X95890000Y-92250000D03*
%TD*%
D81*
%TO.C,D8*%
X69537500Y-114650000D03*
X67962500Y-114650000D03*
%TD*%
D69*
%TO.C,SW1*%
X64325000Y-60625000D03*
X64325000Y-54625000D03*
X60625000Y-54625000D03*
X60625000Y-60625000D03*
%TD*%
D18*
%TO.C,R14*%
X101185000Y-58235000D03*
X102205000Y-58235000D03*
%TD*%
D27*
%TO.C,R34*%
X113700000Y-71390000D03*
X113700000Y-72410000D03*
%TD*%
D29*
%TO.C,J5*%
X110000000Y-111000000D03*
X115000000Y-111000000D03*
%TD*%
D25*
%TO.C,J4*%
X84250000Y-103000000D03*
D82*
X84250000Y-105540000D03*
D56*
X84250000Y-108080000D03*
X84250000Y-110620000D03*
D82*
X84250000Y-113160000D03*
D56*
X84250000Y-115700000D03*
%TD*%
D46*
%TO.C,RV2*%
X109410000Y-82150000D03*
D47*
X108260000Y-86150000D03*
D46*
X107110000Y-82150000D03*
%TD*%
D22*
%TO.C,D5*%
X77197500Y-103290000D03*
X79072500Y-103290000D03*
%TD*%
D48*
%TO.C,C34*%
X91590000Y-77170000D03*
X92550000Y-77170000D03*
%TD*%
D40*
%TO.C,C37*%
X94950000Y-95320000D03*
X94950000Y-96280000D03*
%TD*%
D34*
%TO.C,R38*%
X85150000Y-90725000D03*
X85150000Y-89075000D03*
%TD*%
D18*
%TO.C,R18*%
X101185000Y-53135000D03*
X102205000Y-53135000D03*
%TD*%
D53*
%TO.C,C41*%
X87990000Y-79695000D03*
X87990000Y-78145000D03*
%TD*%
D40*
%TO.C,C5*%
X78095000Y-52080000D03*
X78095000Y-53040000D03*
%TD*%
D30*
%TO.C,R1*%
X76027500Y-56740000D03*
X74202500Y-56740000D03*
%TD*%
D32*
%TO.C,C28*%
X99250000Y-81200000D03*
X101150000Y-81200000D03*
%TD*%
D83*
%TO.C,JP4*%
X79950000Y-78075000D03*
X78650000Y-78075000D03*
X77350000Y-78075000D03*
%TD*%
D46*
%TO.C,RV3*%
X107120000Y-78970000D03*
D47*
X108270000Y-74970000D03*
D46*
X109420000Y-78970000D03*
%TD*%
D21*
%TO.C,C33*%
X93600000Y-91720000D03*
X91700000Y-91720000D03*
%TD*%
D51*
%TO.C,D6*%
X83610000Y-90680000D03*
X83610000Y-89105000D03*
%TD*%
D48*
%TO.C,C20*%
X91575000Y-76170000D03*
X92535000Y-76170000D03*
%TD*%
D45*
%TO.C,C53*%
X72785000Y-106530000D03*
X71825000Y-106530000D03*
%TD*%
D33*
%TO.C,C61*%
X75570000Y-70325000D03*
X75570000Y-71875000D03*
%TD*%
D84*
%TO.C,C30*%
X98800000Y-83300000D03*
X98800000Y-85200000D03*
%TD*%
D18*
%TO.C,R17*%
X101195000Y-59535000D03*
X102215000Y-59535000D03*
%TD*%
D14*
%TO.C,C16*%
X70630000Y-107780000D03*
X69080000Y-107780000D03*
%TD*%
D85*
%TO.C,J1*%
X56960000Y-70820000D03*
X56960000Y-65040000D03*
D86*
X58405000Y-64680000D03*
X58405000Y-65480000D03*
D87*
X58405000Y-66680000D03*
X58405000Y-67680000D03*
X58405000Y-68180000D03*
X58405000Y-69180000D03*
D86*
X58405000Y-70380000D03*
X58405000Y-71180000D03*
X58405000Y-71180000D03*
X58405000Y-70380000D03*
D87*
X58405000Y-69680000D03*
X58405000Y-68680000D03*
X58405000Y-67180000D03*
X58405000Y-66180000D03*
D86*
X58405000Y-65480000D03*
X58405000Y-64680000D03*
D88*
X53310000Y-63610000D03*
X53310000Y-72250000D03*
D89*
X57490000Y-63610000D03*
X57490000Y-72250000D03*
%TD*%
D78*
%TO.C,C55*%
X104602500Y-102510000D03*
X102877500Y-102510000D03*
%TD*%
%TO.C,C56*%
X77152500Y-75770000D03*
X75427500Y-75770000D03*
%TD*%
D41*
%TO.C,C6*%
X52530000Y-60660000D03*
X54255000Y-60660000D03*
%TD*%
D53*
%TO.C,C25*%
X85310000Y-86720000D03*
X85310000Y-85170000D03*
%TD*%
D45*
%TO.C,C27*%
X95930000Y-94350000D03*
X94970000Y-94350000D03*
%TD*%
D27*
%TO.C,R29*%
X90395000Y-71425000D03*
X90395000Y-72445000D03*
%TD*%
D70*
%TO.C,C11*%
X61590000Y-108590000D03*
X63140000Y-108590000D03*
%TD*%
D28*
%TO.C,R52*%
X75660000Y-66750000D03*
X74640000Y-66750000D03*
%TD*%
D18*
%TO.C,R19*%
X101175000Y-54335000D03*
X102195000Y-54335000D03*
%TD*%
%TO.C,R32*%
X94890000Y-93300000D03*
X95910000Y-93300000D03*
%TD*%
D19*
%TO.C,TP2*%
X72405000Y-108215000D03*
%TD*%
D45*
%TO.C,C51*%
X94185000Y-83520000D03*
X93225000Y-83520000D03*
%TD*%
D70*
%TO.C,C57*%
X72305000Y-75770000D03*
X73855000Y-75770000D03*
%TD*%
D90*
%TO.C,D4*%
X77147500Y-105210000D03*
X78722500Y-105210000D03*
%TD*%
D91*
%TO.C,J6*%
X124210000Y-64970000D03*
X119210000Y-64970000D03*
X126810000Y-72970000D03*
X126810000Y-64970000D03*
X120210000Y-72970000D03*
X118210000Y-72970000D03*
%TD*%
D48*
%TO.C,C17*%
X69925000Y-106530000D03*
X70885000Y-106530000D03*
%TD*%
D33*
%TO.C,C9*%
X75455000Y-101055000D03*
X75455000Y-102605000D03*
%TD*%
D40*
%TO.C,C13*%
X65955000Y-102450000D03*
X65955000Y-103410000D03*
%TD*%
D92*
%TO.C,JP1*%
X87270000Y-94480000D03*
X87270000Y-95780000D03*
X87270000Y-97080000D03*
%TD*%
D31*
%TO.C,R5*%
X52520000Y-81300000D03*
X54345000Y-81300000D03*
%TD*%
D40*
%TO.C,C40*%
X97800000Y-95320000D03*
X97800000Y-96280000D03*
%TD*%
D62*
%TO.C,R7*%
X55847500Y-60660000D03*
X57672500Y-60660000D03*
%TD*%
D93*
%TO.C,FB1*%
X62882500Y-71410000D03*
X61057500Y-71410000D03*
%TD*%
D18*
%TO.C,R41*%
X96840000Y-93300000D03*
X97860000Y-93300000D03*
%TD*%
D94*
%TO.C,Q6*%
X73462500Y-63550000D03*
X73462500Y-65450000D03*
X75337500Y-64500000D03*
%TD*%
D18*
%TO.C,R3*%
X60150000Y-69710000D03*
X61170000Y-69710000D03*
%TD*%
D33*
%TO.C,C19*%
X92900000Y-98975000D03*
X92900000Y-100525000D03*
%TD*%
D46*
%TO.C,RV4*%
X107460000Y-93530000D03*
D47*
X108610000Y-89530000D03*
D46*
X109760000Y-93530000D03*
%TD*%
D28*
%TO.C,R10*%
X100045000Y-53135000D03*
X99025000Y-53135000D03*
%TD*%
G36*
X96539448Y-100799000D02*
G01*
X96539448Y-100801000D01*
X96538279Y-100801919D01*
X96471267Y-100821595D01*
X96425912Y-100873938D01*
X96416055Y-100942491D01*
X96444893Y-101005637D01*
X96451648Y-101011597D01*
X96451988Y-101011986D01*
X96453139Y-101013708D01*
X96453270Y-101015703D01*
X96451607Y-101016815D01*
X96450365Y-101016482D01*
X96435639Y-101006643D01*
X96412301Y-101002000D01*
X96287699Y-101002000D01*
X96264361Y-101006643D01*
X96249634Y-101016483D01*
X96247638Y-101016614D01*
X96246527Y-101014951D01*
X96246860Y-101013709D01*
X96256121Y-100999849D01*
X96255307Y-100998198D01*
X96255768Y-100997046D01*
X96274978Y-100974062D01*
X96283615Y-100905347D01*
X96253728Y-100842868D01*
X96194672Y-100806381D01*
X96162148Y-100802000D01*
X96038007Y-100802000D01*
X95971268Y-100821596D01*
X95925913Y-100873939D01*
X95916056Y-100942492D01*
X95944894Y-101005637D01*
X95951648Y-101011596D01*
X95951988Y-101011985D01*
X95953140Y-101013709D01*
X95953271Y-101015705D01*
X95951608Y-101016816D01*
X95950366Y-101016483D01*
X95935639Y-101006643D01*
X95912301Y-101002000D01*
X95787699Y-101002000D01*
X95764361Y-101006643D01*
X95749634Y-101016483D01*
X95747638Y-101016614D01*
X95746527Y-101014951D01*
X95746860Y-101013709D01*
X95756121Y-100999849D01*
X95755306Y-100998197D01*
X95755767Y-100997045D01*
X95774980Y-100974055D01*
X95783613Y-100905340D01*
X95753723Y-100842864D01*
X95694661Y-100806379D01*
X95662147Y-100802000D01*
X95538007Y-100802000D01*
X95471268Y-100821596D01*
X95425913Y-100873939D01*
X95416056Y-100942492D01*
X95444894Y-101005637D01*
X95451648Y-101011596D01*
X95451988Y-101011985D01*
X95453140Y-101013709D01*
X95453271Y-101015705D01*
X95451608Y-101016816D01*
X95450366Y-101016483D01*
X95435639Y-101006643D01*
X95412301Y-101002000D01*
X95287699Y-101002000D01*
X95264361Y-101006643D01*
X95249634Y-101016483D01*
X95247638Y-101016614D01*
X95246527Y-101014951D01*
X95246860Y-101013709D01*
X95256121Y-100999849D01*
X95255306Y-100998197D01*
X95255767Y-100997045D01*
X95274980Y-100974055D01*
X95283613Y-100905340D01*
X95253723Y-100842864D01*
X95194661Y-100806379D01*
X95162013Y-100801982D01*
X95160430Y-100800760D01*
X95160697Y-100798778D01*
X95162280Y-100798000D01*
X96537716Y-100798000D01*
X96539448Y-100799000D01*
G37*
G36*
X97539448Y-100799000D02*
G01*
X97539448Y-100801000D01*
X97538279Y-100801919D01*
X97471267Y-100821595D01*
X97425912Y-100873938D01*
X97416055Y-100942491D01*
X97444893Y-101005637D01*
X97451648Y-101011597D01*
X97451988Y-101011986D01*
X97453139Y-101013708D01*
X97453270Y-101015703D01*
X97451607Y-101016815D01*
X97450365Y-101016482D01*
X97435639Y-101006643D01*
X97412301Y-101002000D01*
X97287699Y-101002000D01*
X97264361Y-101006643D01*
X97249634Y-101016483D01*
X97247638Y-101016614D01*
X97246527Y-101014951D01*
X97246860Y-101013709D01*
X97256121Y-100999849D01*
X97255307Y-100998197D01*
X97255768Y-100997046D01*
X97274983Y-100974053D01*
X97283613Y-100905335D01*
X97253721Y-100842860D01*
X97194659Y-100806377D01*
X97162021Y-100801982D01*
X97160438Y-100800760D01*
X97160705Y-100798778D01*
X97162288Y-100798000D01*
X97537716Y-100798000D01*
X97539448Y-100799000D01*
G37*
G36*
X97039448Y-100799000D02*
G01*
X97039448Y-100801000D01*
X97038279Y-100801919D01*
X96971267Y-100821595D01*
X96925912Y-100873938D01*
X96916055Y-100942491D01*
X96944893Y-101005637D01*
X96951648Y-101011597D01*
X96951988Y-101011986D01*
X96953139Y-101013708D01*
X96953270Y-101015703D01*
X96951607Y-101016815D01*
X96950365Y-101016482D01*
X96935639Y-101006643D01*
X96912301Y-101002000D01*
X96787699Y-101002000D01*
X96764361Y-101006643D01*
X96749634Y-101016483D01*
X96747638Y-101016614D01*
X96746527Y-101014951D01*
X96746860Y-101013709D01*
X96756121Y-100999849D01*
X96755307Y-100998197D01*
X96755768Y-100997046D01*
X96774983Y-100974053D01*
X96783613Y-100905335D01*
X96753721Y-100842860D01*
X96694659Y-100806377D01*
X96662021Y-100801982D01*
X96660438Y-100800760D01*
X96660705Y-100798778D01*
X96662288Y-100798000D01*
X97037716Y-100798000D01*
X97039448Y-100799000D01*
G37*
G36*
X97651919Y-100311718D02*
G01*
X97671596Y-100378732D01*
X97723939Y-100424087D01*
X97792492Y-100433944D01*
X97855637Y-100405106D01*
X97861596Y-100398352D01*
X97861985Y-100398012D01*
X97863709Y-100396860D01*
X97865705Y-100396729D01*
X97866816Y-100398392D01*
X97866483Y-100399634D01*
X97856643Y-100414361D01*
X97852000Y-100437699D01*
X97852000Y-100562301D01*
X97856643Y-100585639D01*
X97866483Y-100600366D01*
X97866614Y-100602362D01*
X97864951Y-100603473D01*
X97863709Y-100603140D01*
X97849849Y-100593879D01*
X97848197Y-100594694D01*
X97847045Y-100594233D01*
X97824055Y-100575020D01*
X97755340Y-100566387D01*
X97692864Y-100596277D01*
X97656379Y-100655339D01*
X97651982Y-100687986D01*
X97650760Y-100689569D01*
X97648778Y-100689302D01*
X97648000Y-100687719D01*
X97648000Y-100312281D01*
X97649000Y-100310549D01*
X97651000Y-100310549D01*
X97651919Y-100311718D01*
G37*
G36*
X95051222Y-100310705D02*
G01*
X95052000Y-100312288D01*
X95052000Y-100687716D01*
X95051000Y-100689448D01*
X95049000Y-100689448D01*
X95048081Y-100688279D01*
X95028405Y-100621267D01*
X94976062Y-100575912D01*
X94907509Y-100566055D01*
X94844363Y-100594893D01*
X94838403Y-100601648D01*
X94838014Y-100601988D01*
X94836292Y-100603139D01*
X94834297Y-100603270D01*
X94833185Y-100601607D01*
X94833518Y-100600365D01*
X94843357Y-100585639D01*
X94848000Y-100562301D01*
X94848000Y-100437699D01*
X94843357Y-100414361D01*
X94833517Y-100399634D01*
X94833386Y-100397638D01*
X94835049Y-100396527D01*
X94836291Y-100396860D01*
X94850151Y-100406121D01*
X94851803Y-100405307D01*
X94852954Y-100405768D01*
X94875947Y-100424983D01*
X94944665Y-100433613D01*
X95007140Y-100403721D01*
X95043623Y-100344659D01*
X95048018Y-100312021D01*
X95049240Y-100310438D01*
X95051222Y-100310705D01*
G37*
G36*
X97651919Y-99811718D02*
G01*
X97671596Y-99878732D01*
X97723939Y-99924087D01*
X97792492Y-99933944D01*
X97855637Y-99905106D01*
X97861596Y-99898352D01*
X97861985Y-99898012D01*
X97863709Y-99896860D01*
X97865705Y-99896729D01*
X97866816Y-99898392D01*
X97866483Y-99899634D01*
X97856643Y-99914361D01*
X97852000Y-99937699D01*
X97852000Y-100062301D01*
X97856643Y-100085639D01*
X97866483Y-100100366D01*
X97866614Y-100102362D01*
X97864951Y-100103473D01*
X97863709Y-100103140D01*
X97849849Y-100093879D01*
X97848197Y-100094694D01*
X97847045Y-100094233D01*
X97824055Y-100075020D01*
X97755340Y-100066387D01*
X97692864Y-100096277D01*
X97656379Y-100155339D01*
X97651982Y-100187986D01*
X97650760Y-100189569D01*
X97648778Y-100189302D01*
X97648000Y-100187719D01*
X97648000Y-99812281D01*
X97649000Y-99810549D01*
X97651000Y-99810549D01*
X97651919Y-99811718D01*
G37*
G36*
X95051222Y-99810705D02*
G01*
X95052000Y-99812288D01*
X95052000Y-100187716D01*
X95051000Y-100189448D01*
X95049000Y-100189448D01*
X95048081Y-100188279D01*
X95028405Y-100121267D01*
X94976062Y-100075912D01*
X94907509Y-100066055D01*
X94844363Y-100094893D01*
X94838403Y-100101648D01*
X94838014Y-100101988D01*
X94836292Y-100103139D01*
X94834297Y-100103270D01*
X94833185Y-100101607D01*
X94833518Y-100100365D01*
X94843357Y-100085639D01*
X94848000Y-100062301D01*
X94848000Y-99937699D01*
X94843357Y-99914361D01*
X94833517Y-99899634D01*
X94833386Y-99897638D01*
X94835049Y-99896527D01*
X94836291Y-99896860D01*
X94850151Y-99906121D01*
X94851803Y-99905307D01*
X94852954Y-99905768D01*
X94875947Y-99924983D01*
X94944665Y-99933613D01*
X95007140Y-99903721D01*
X95043623Y-99844659D01*
X95048018Y-99812021D01*
X95049240Y-99810438D01*
X95051222Y-99810705D01*
G37*
G36*
X97651919Y-99311721D02*
G01*
X97671595Y-99378733D01*
X97723938Y-99424088D01*
X97792491Y-99433945D01*
X97855637Y-99405107D01*
X97861597Y-99398352D01*
X97861986Y-99398012D01*
X97863708Y-99396861D01*
X97865703Y-99396730D01*
X97866815Y-99398393D01*
X97866482Y-99399635D01*
X97856643Y-99414361D01*
X97852000Y-99437699D01*
X97852000Y-99562301D01*
X97856643Y-99585639D01*
X97866483Y-99600366D01*
X97866614Y-99602362D01*
X97864951Y-99603473D01*
X97863709Y-99603140D01*
X97849849Y-99593879D01*
X97848198Y-99594693D01*
X97847046Y-99594232D01*
X97824062Y-99575022D01*
X97755347Y-99566385D01*
X97692868Y-99596272D01*
X97656381Y-99655328D01*
X97651982Y-99687986D01*
X97650760Y-99689569D01*
X97648778Y-99689302D01*
X97648000Y-99687719D01*
X97648000Y-99312284D01*
X97649000Y-99310552D01*
X97651000Y-99310552D01*
X97651919Y-99311721D01*
G37*
G36*
X95051222Y-99310698D02*
G01*
X95052000Y-99312281D01*
X95052000Y-99687716D01*
X95051000Y-99689448D01*
X95049000Y-99689448D01*
X95048081Y-99688279D01*
X95028405Y-99621267D01*
X94976062Y-99575912D01*
X94907509Y-99566055D01*
X94844363Y-99594893D01*
X94838403Y-99601648D01*
X94838014Y-99601988D01*
X94836292Y-99603139D01*
X94834297Y-99603270D01*
X94833185Y-99601607D01*
X94833518Y-99600365D01*
X94843357Y-99585639D01*
X94848000Y-99562301D01*
X94848000Y-99437699D01*
X94843357Y-99414361D01*
X94833517Y-99399634D01*
X94833386Y-99397638D01*
X94835049Y-99396527D01*
X94836291Y-99396860D01*
X94850151Y-99406121D01*
X94851802Y-99405307D01*
X94852954Y-99405768D01*
X94875938Y-99424978D01*
X94944653Y-99433615D01*
X95007132Y-99403728D01*
X95043619Y-99344672D01*
X95048018Y-99312014D01*
X95049240Y-99310431D01*
X95051222Y-99310698D01*
G37*
G36*
X97651919Y-98811721D02*
G01*
X97671595Y-98878733D01*
X97723938Y-98924088D01*
X97792491Y-98933945D01*
X97855637Y-98905107D01*
X97861597Y-98898352D01*
X97861986Y-98898012D01*
X97863708Y-98896861D01*
X97865703Y-98896730D01*
X97866815Y-98898393D01*
X97866482Y-98899635D01*
X97856643Y-98914361D01*
X97852000Y-98937699D01*
X97852000Y-99062301D01*
X97856643Y-99085639D01*
X97866483Y-99100366D01*
X97866614Y-99102362D01*
X97864951Y-99103473D01*
X97863709Y-99103140D01*
X97849849Y-99093879D01*
X97848197Y-99094693D01*
X97847046Y-99094232D01*
X97824053Y-99075017D01*
X97755335Y-99066387D01*
X97692860Y-99096279D01*
X97656377Y-99155341D01*
X97651982Y-99187979D01*
X97650760Y-99189562D01*
X97648778Y-99189295D01*
X97648000Y-99187712D01*
X97648000Y-98812284D01*
X97649000Y-98810552D01*
X97651000Y-98810552D01*
X97651919Y-98811721D01*
G37*
G36*
X95051222Y-98810698D02*
G01*
X95052000Y-98812281D01*
X95052000Y-99187719D01*
X95051000Y-99189451D01*
X95049000Y-99189451D01*
X95048081Y-99188282D01*
X95028404Y-99121268D01*
X94976061Y-99075913D01*
X94907508Y-99066056D01*
X94844363Y-99094894D01*
X94838404Y-99101648D01*
X94838015Y-99101988D01*
X94836291Y-99103140D01*
X94834295Y-99103271D01*
X94833184Y-99101608D01*
X94833517Y-99100366D01*
X94843357Y-99085639D01*
X94848000Y-99062301D01*
X94848000Y-98937699D01*
X94843357Y-98914361D01*
X94833517Y-98899634D01*
X94833386Y-98897638D01*
X94835049Y-98896527D01*
X94836291Y-98896860D01*
X94850151Y-98906121D01*
X94851803Y-98905306D01*
X94852955Y-98905767D01*
X94875945Y-98924980D01*
X94944660Y-98933613D01*
X95007136Y-98903723D01*
X95043621Y-98844661D01*
X95048018Y-98812014D01*
X95049240Y-98810431D01*
X95051222Y-98810698D01*
G37*
G36*
X97651919Y-98311721D02*
G01*
X97671595Y-98378733D01*
X97723938Y-98424088D01*
X97792491Y-98433945D01*
X97855637Y-98405107D01*
X97861597Y-98398352D01*
X97861986Y-98398012D01*
X97863708Y-98396861D01*
X97865703Y-98396730D01*
X97866815Y-98398393D01*
X97866482Y-98399635D01*
X97856643Y-98414361D01*
X97852000Y-98437699D01*
X97852000Y-98562301D01*
X97856643Y-98585639D01*
X97866483Y-98600366D01*
X97866614Y-98602362D01*
X97864951Y-98603473D01*
X97863709Y-98603140D01*
X97849849Y-98593879D01*
X97848197Y-98594693D01*
X97847046Y-98594232D01*
X97824053Y-98575017D01*
X97755335Y-98566387D01*
X97692860Y-98596279D01*
X97656377Y-98655341D01*
X97651982Y-98687979D01*
X97650760Y-98689562D01*
X97648778Y-98689295D01*
X97648000Y-98687712D01*
X97648000Y-98312284D01*
X97649000Y-98310552D01*
X97651000Y-98310552D01*
X97651919Y-98311721D01*
G37*
G36*
X95051222Y-98310698D02*
G01*
X95052000Y-98312281D01*
X95052000Y-98687719D01*
X95051000Y-98689451D01*
X95049000Y-98689451D01*
X95048081Y-98688282D01*
X95028404Y-98621268D01*
X94976061Y-98575913D01*
X94907508Y-98566056D01*
X94844363Y-98594894D01*
X94838404Y-98601648D01*
X94838015Y-98601988D01*
X94836291Y-98603140D01*
X94834295Y-98603271D01*
X94833184Y-98601608D01*
X94833517Y-98600366D01*
X94843357Y-98585639D01*
X94848000Y-98562301D01*
X94848000Y-98437699D01*
X94843357Y-98414361D01*
X94833517Y-98399634D01*
X94833386Y-98397638D01*
X94835049Y-98396527D01*
X94836291Y-98396860D01*
X94850151Y-98406121D01*
X94851803Y-98405306D01*
X94852955Y-98405767D01*
X94875945Y-98424980D01*
X94944660Y-98433613D01*
X95007136Y-98403723D01*
X95043621Y-98344661D01*
X95048018Y-98312014D01*
X95049240Y-98310431D01*
X95051222Y-98310698D01*
G37*
G36*
X97249634Y-97983517D02*
G01*
X97264361Y-97993357D01*
X97287699Y-97998000D01*
X97412301Y-97998000D01*
X97435639Y-97993357D01*
X97450366Y-97983517D01*
X97452362Y-97983386D01*
X97453473Y-97985049D01*
X97453140Y-97986291D01*
X97443879Y-98000151D01*
X97444694Y-98001803D01*
X97444233Y-98002955D01*
X97425020Y-98025945D01*
X97416387Y-98094660D01*
X97446277Y-98157136D01*
X97505339Y-98193621D01*
X97537987Y-98198018D01*
X97539570Y-98199240D01*
X97539303Y-98201222D01*
X97537720Y-98202000D01*
X97162280Y-98202000D01*
X97160548Y-98201000D01*
X97160548Y-98199000D01*
X97161717Y-98198081D01*
X97228732Y-98178404D01*
X97274087Y-98126061D01*
X97283944Y-98057508D01*
X97255106Y-97994363D01*
X97248352Y-97988404D01*
X97248012Y-97988015D01*
X97246860Y-97986291D01*
X97246729Y-97984295D01*
X97248392Y-97983184D01*
X97249634Y-97983517D01*
G37*
G36*
X95749635Y-97983518D02*
G01*
X95764361Y-97993357D01*
X95787699Y-97998000D01*
X95912301Y-97998000D01*
X95935639Y-97993357D01*
X95950366Y-97983517D01*
X95952362Y-97983386D01*
X95953473Y-97985049D01*
X95953140Y-97986291D01*
X95943879Y-98000151D01*
X95944693Y-98001803D01*
X95944232Y-98002954D01*
X95925017Y-98025947D01*
X95916387Y-98094665D01*
X95946279Y-98157140D01*
X96005341Y-98193623D01*
X96037979Y-98198018D01*
X96039562Y-98199240D01*
X96039295Y-98201222D01*
X96037712Y-98202000D01*
X95662284Y-98202000D01*
X95660552Y-98201000D01*
X95660552Y-98199000D01*
X95661721Y-98198081D01*
X95728733Y-98178405D01*
X95774088Y-98126062D01*
X95783945Y-98057509D01*
X95755107Y-97994363D01*
X95748352Y-97988403D01*
X95748012Y-97988014D01*
X95746861Y-97986292D01*
X95746730Y-97984297D01*
X95748393Y-97983185D01*
X95749635Y-97983518D01*
G37*
G36*
X96749634Y-97983517D02*
G01*
X96764361Y-97993357D01*
X96787699Y-97998000D01*
X96912301Y-97998000D01*
X96935639Y-97993357D01*
X96950366Y-97983517D01*
X96952362Y-97983386D01*
X96953473Y-97985049D01*
X96953140Y-97986291D01*
X96943879Y-98000151D01*
X96944694Y-98001803D01*
X96944233Y-98002955D01*
X96925020Y-98025945D01*
X96916387Y-98094660D01*
X96946277Y-98157136D01*
X97005339Y-98193621D01*
X97037987Y-98198018D01*
X97039570Y-98199240D01*
X97039303Y-98201222D01*
X97037720Y-98202000D01*
X96662280Y-98202000D01*
X96660548Y-98201000D01*
X96660548Y-98199000D01*
X96661717Y-98198081D01*
X96728732Y-98178404D01*
X96774087Y-98126061D01*
X96783944Y-98057508D01*
X96755106Y-97994363D01*
X96748352Y-97988404D01*
X96748012Y-97988015D01*
X96746860Y-97986291D01*
X96746729Y-97984295D01*
X96748392Y-97983184D01*
X96749634Y-97983517D01*
G37*
G36*
X96249635Y-97983518D02*
G01*
X96264361Y-97993357D01*
X96287699Y-97998000D01*
X96412301Y-97998000D01*
X96435639Y-97993357D01*
X96450366Y-97983517D01*
X96452362Y-97983386D01*
X96453473Y-97985049D01*
X96453140Y-97986291D01*
X96443879Y-98000151D01*
X96444693Y-98001802D01*
X96444232Y-98002954D01*
X96425022Y-98025938D01*
X96416385Y-98094653D01*
X96446272Y-98157132D01*
X96505328Y-98193619D01*
X96537986Y-98198018D01*
X96539569Y-98199240D01*
X96539302Y-98201222D01*
X96537719Y-98202000D01*
X96162284Y-98202000D01*
X96160552Y-98201000D01*
X96160552Y-98199000D01*
X96161721Y-98198081D01*
X96228733Y-98178405D01*
X96274088Y-98126062D01*
X96283945Y-98057509D01*
X96255107Y-97994363D01*
X96248352Y-97988403D01*
X96248012Y-97988014D01*
X96246861Y-97986292D01*
X96246730Y-97984297D01*
X96248393Y-97983185D01*
X96249635Y-97983518D01*
G37*
G36*
X95249635Y-97983518D02*
G01*
X95264361Y-97993357D01*
X95287699Y-97998000D01*
X95412301Y-97998000D01*
X95435639Y-97993357D01*
X95450366Y-97983517D01*
X95452362Y-97983386D01*
X95453473Y-97985049D01*
X95453140Y-97986291D01*
X95443879Y-98000151D01*
X95444693Y-98001803D01*
X95444232Y-98002954D01*
X95425017Y-98025947D01*
X95416387Y-98094665D01*
X95446279Y-98157140D01*
X95505341Y-98193623D01*
X95537979Y-98198018D01*
X95539562Y-98199240D01*
X95539295Y-98201222D01*
X95537712Y-98202000D01*
X95162284Y-98202000D01*
X95160552Y-98201000D01*
X95160552Y-98199000D01*
X95161721Y-98198081D01*
X95228733Y-98178405D01*
X95274088Y-98126062D01*
X95283945Y-98057509D01*
X95255107Y-97994363D01*
X95248352Y-97988403D01*
X95248012Y-97988014D01*
X95246861Y-97986292D01*
X95246730Y-97984297D01*
X95248393Y-97983185D01*
X95249635Y-97983518D01*
G37*
G36*
X90766291Y-81916860D02*
G01*
X90780150Y-81926120D01*
X90781802Y-81925305D01*
X90782954Y-81925766D01*
X90805946Y-81944980D01*
X90874663Y-81953610D01*
X90937293Y-81923644D01*
X90942256Y-81917917D01*
X90942657Y-81917564D01*
X90943710Y-81916861D01*
X90945705Y-81916731D01*
X90946816Y-81918394D01*
X90946483Y-81919635D01*
X90936643Y-81934361D01*
X90932000Y-81957699D01*
X90932000Y-82657301D01*
X90936643Y-82680639D01*
X90946483Y-82695366D01*
X90946614Y-82697362D01*
X90944951Y-82698473D01*
X90943709Y-82698140D01*
X90929850Y-82688880D01*
X90928198Y-82689695D01*
X90927046Y-82689234D01*
X90904054Y-82670020D01*
X90835337Y-82661390D01*
X90772707Y-82691356D01*
X90767744Y-82697083D01*
X90767343Y-82697436D01*
X90766290Y-82698139D01*
X90764295Y-82698269D01*
X90763184Y-82696606D01*
X90763517Y-82695365D01*
X90773357Y-82680639D01*
X90778000Y-82657301D01*
X90778000Y-81957699D01*
X90773357Y-81934361D01*
X90763517Y-81919634D01*
X90763386Y-81917638D01*
X90765049Y-81916527D01*
X90766291Y-81916860D01*
G37*
G36*
X91166291Y-81916860D02*
G01*
X91180150Y-81926120D01*
X91181802Y-81925305D01*
X91182954Y-81925766D01*
X91205946Y-81944980D01*
X91274663Y-81953610D01*
X91337293Y-81923644D01*
X91342256Y-81917917D01*
X91342657Y-81917564D01*
X91343710Y-81916861D01*
X91345705Y-81916731D01*
X91346816Y-81918394D01*
X91346483Y-81919635D01*
X91336643Y-81934361D01*
X91332000Y-81957699D01*
X91332000Y-82657301D01*
X91336643Y-82680639D01*
X91346483Y-82695366D01*
X91346614Y-82697362D01*
X91344951Y-82698473D01*
X91343709Y-82698140D01*
X91329850Y-82688880D01*
X91328198Y-82689695D01*
X91327046Y-82689234D01*
X91304054Y-82670020D01*
X91235337Y-82661390D01*
X91172707Y-82691356D01*
X91167744Y-82697083D01*
X91167343Y-82697436D01*
X91166290Y-82698139D01*
X91164295Y-82698269D01*
X91163184Y-82696606D01*
X91163517Y-82695365D01*
X91173357Y-82680639D01*
X91178000Y-82657301D01*
X91178000Y-81957699D01*
X91173357Y-81934361D01*
X91163517Y-81919634D01*
X91163386Y-81917638D01*
X91165049Y-81916527D01*
X91166291Y-81916860D01*
G37*
G36*
X90366291Y-81916860D02*
G01*
X90380150Y-81926120D01*
X90381802Y-81925305D01*
X90382954Y-81925766D01*
X90405946Y-81944980D01*
X90474663Y-81953610D01*
X90537293Y-81923644D01*
X90542256Y-81917917D01*
X90542657Y-81917564D01*
X90543710Y-81916861D01*
X90545705Y-81916731D01*
X90546816Y-81918394D01*
X90546483Y-81919635D01*
X90536643Y-81934361D01*
X90532000Y-81957699D01*
X90532000Y-82657301D01*
X90536643Y-82680639D01*
X90546483Y-82695366D01*
X90546614Y-82697362D01*
X90544951Y-82698473D01*
X90543709Y-82698140D01*
X90529850Y-82688880D01*
X90528198Y-82689695D01*
X90527046Y-82689234D01*
X90504054Y-82670020D01*
X90435337Y-82661390D01*
X90372707Y-82691356D01*
X90367744Y-82697083D01*
X90367343Y-82697436D01*
X90366290Y-82698139D01*
X90364295Y-82698269D01*
X90363184Y-82696606D01*
X90363517Y-82695365D01*
X90373357Y-82680639D01*
X90378000Y-82657301D01*
X90378000Y-81957699D01*
X90373357Y-81934361D01*
X90363517Y-81919634D01*
X90363386Y-81917638D01*
X90365049Y-81916527D01*
X90366291Y-81916860D01*
G37*
G36*
X91966291Y-81916860D02*
G01*
X91980150Y-81926120D01*
X91981802Y-81925305D01*
X91982954Y-81925766D01*
X92005946Y-81944980D01*
X92074663Y-81953610D01*
X92137293Y-81923644D01*
X92142256Y-81917917D01*
X92142657Y-81917564D01*
X92143710Y-81916861D01*
X92145705Y-81916731D01*
X92146816Y-81918394D01*
X92146483Y-81919635D01*
X92136643Y-81934361D01*
X92132000Y-81957699D01*
X92132000Y-82657301D01*
X92136643Y-82680639D01*
X92146483Y-82695366D01*
X92146614Y-82697362D01*
X92144951Y-82698473D01*
X92143709Y-82698140D01*
X92129850Y-82688880D01*
X92128198Y-82689695D01*
X92127046Y-82689234D01*
X92104054Y-82670020D01*
X92035337Y-82661390D01*
X91972707Y-82691356D01*
X91967744Y-82697083D01*
X91967343Y-82697436D01*
X91966290Y-82698139D01*
X91964295Y-82698269D01*
X91963184Y-82696606D01*
X91963517Y-82695365D01*
X91973357Y-82680639D01*
X91978000Y-82657301D01*
X91978000Y-81957699D01*
X91973357Y-81934361D01*
X91963517Y-81919634D01*
X91963386Y-81917638D01*
X91965049Y-81916527D01*
X91966291Y-81916860D01*
G37*
G36*
X92366291Y-81916860D02*
G01*
X92380150Y-81926120D01*
X92381802Y-81925305D01*
X92382954Y-81925766D01*
X92405946Y-81944980D01*
X92474663Y-81953610D01*
X92537293Y-81923644D01*
X92542256Y-81917917D01*
X92542657Y-81917564D01*
X92543710Y-81916861D01*
X92545705Y-81916731D01*
X92546816Y-81918394D01*
X92546483Y-81919635D01*
X92536643Y-81934361D01*
X92532000Y-81957699D01*
X92532000Y-82657301D01*
X92536643Y-82680639D01*
X92546483Y-82695366D01*
X92546614Y-82697362D01*
X92544951Y-82698473D01*
X92543709Y-82698140D01*
X92529850Y-82688880D01*
X92528198Y-82689695D01*
X92527046Y-82689234D01*
X92504054Y-82670020D01*
X92435337Y-82661390D01*
X92372707Y-82691356D01*
X92367744Y-82697083D01*
X92367343Y-82697436D01*
X92366290Y-82698139D01*
X92364295Y-82698269D01*
X92363184Y-82696606D01*
X92363517Y-82695365D01*
X92373357Y-82680639D01*
X92378000Y-82657301D01*
X92378000Y-81957699D01*
X92373357Y-81934361D01*
X92363517Y-81919634D01*
X92363386Y-81917638D01*
X92365049Y-81916527D01*
X92366291Y-81916860D01*
G37*
G36*
X91566291Y-81916860D02*
G01*
X91580150Y-81926120D01*
X91581802Y-81925305D01*
X91582954Y-81925766D01*
X91605946Y-81944980D01*
X91674663Y-81953610D01*
X91737293Y-81923644D01*
X91742256Y-81917917D01*
X91742657Y-81917564D01*
X91743710Y-81916861D01*
X91745705Y-81916731D01*
X91746816Y-81918394D01*
X91746483Y-81919635D01*
X91736643Y-81934361D01*
X91732000Y-81957699D01*
X91732000Y-82657301D01*
X91736643Y-82680639D01*
X91746483Y-82695366D01*
X91746614Y-82697362D01*
X91744951Y-82698473D01*
X91743709Y-82698140D01*
X91729850Y-82688880D01*
X91728198Y-82689695D01*
X91727046Y-82689234D01*
X91704054Y-82670020D01*
X91635337Y-82661390D01*
X91572707Y-82691356D01*
X91567744Y-82697083D01*
X91567343Y-82697436D01*
X91566290Y-82698139D01*
X91564295Y-82698269D01*
X91563184Y-82696606D01*
X91563517Y-82695365D01*
X91573357Y-82680639D01*
X91578000Y-82657301D01*
X91578000Y-81957699D01*
X91573357Y-81934361D01*
X91563517Y-81919634D01*
X91563386Y-81917638D01*
X91565049Y-81916527D01*
X91566291Y-81916860D01*
G37*
G36*
X93004635Y-81278517D02*
G01*
X93019361Y-81288357D01*
X93042699Y-81293000D01*
X93742301Y-81293000D01*
X93765639Y-81288357D01*
X93780366Y-81278517D01*
X93782362Y-81278386D01*
X93783473Y-81280049D01*
X93783140Y-81281291D01*
X93773880Y-81295150D01*
X93774695Y-81296802D01*
X93774234Y-81297954D01*
X93755020Y-81320946D01*
X93746390Y-81389663D01*
X93776356Y-81452293D01*
X93782083Y-81457256D01*
X93782436Y-81457657D01*
X93783139Y-81458710D01*
X93783269Y-81460705D01*
X93781606Y-81461816D01*
X93780365Y-81461483D01*
X93765639Y-81451643D01*
X93742301Y-81447000D01*
X93042699Y-81447000D01*
X93019361Y-81451643D01*
X93004634Y-81461483D01*
X93002638Y-81461614D01*
X93001527Y-81459951D01*
X93001860Y-81458709D01*
X93011120Y-81444850D01*
X93010305Y-81443198D01*
X93010766Y-81442046D01*
X93029980Y-81419054D01*
X93038610Y-81350337D01*
X93008644Y-81287707D01*
X93002917Y-81282744D01*
X93002564Y-81282343D01*
X93001861Y-81281290D01*
X93001731Y-81279295D01*
X93003394Y-81278184D01*
X93004635Y-81278517D01*
G37*
G36*
X89129635Y-81278517D02*
G01*
X89144361Y-81288357D01*
X89167699Y-81293000D01*
X89867301Y-81293000D01*
X89890639Y-81288357D01*
X89905366Y-81278517D01*
X89907362Y-81278386D01*
X89908473Y-81280049D01*
X89908140Y-81281291D01*
X89898880Y-81295150D01*
X89899695Y-81296802D01*
X89899234Y-81297954D01*
X89880020Y-81320946D01*
X89871390Y-81389663D01*
X89901356Y-81452293D01*
X89907083Y-81457256D01*
X89907436Y-81457657D01*
X89908139Y-81458710D01*
X89908269Y-81460705D01*
X89906606Y-81461816D01*
X89905365Y-81461483D01*
X89890639Y-81451643D01*
X89867301Y-81447000D01*
X89167699Y-81447000D01*
X89144361Y-81451643D01*
X89129634Y-81461483D01*
X89127638Y-81461614D01*
X89126527Y-81459951D01*
X89126860Y-81458709D01*
X89136120Y-81444850D01*
X89135305Y-81443198D01*
X89135766Y-81442046D01*
X89154980Y-81419054D01*
X89163610Y-81350337D01*
X89133644Y-81287707D01*
X89127917Y-81282744D01*
X89127564Y-81282343D01*
X89126861Y-81281290D01*
X89126731Y-81279295D01*
X89128394Y-81278184D01*
X89129635Y-81278517D01*
G37*
G36*
X93004635Y-80878517D02*
G01*
X93019361Y-80888357D01*
X93042699Y-80893000D01*
X93742301Y-80893000D01*
X93765639Y-80888357D01*
X93780366Y-80878517D01*
X93782362Y-80878386D01*
X93783473Y-80880049D01*
X93783140Y-80881291D01*
X93773880Y-80895150D01*
X93774695Y-80896802D01*
X93774234Y-80897954D01*
X93755020Y-80920946D01*
X93746390Y-80989663D01*
X93776356Y-81052293D01*
X93782083Y-81057256D01*
X93782436Y-81057657D01*
X93783139Y-81058710D01*
X93783269Y-81060705D01*
X93781606Y-81061816D01*
X93780365Y-81061483D01*
X93765639Y-81051643D01*
X93742301Y-81047000D01*
X93042699Y-81047000D01*
X93019361Y-81051643D01*
X93004634Y-81061483D01*
X93002638Y-81061614D01*
X93001527Y-81059951D01*
X93001860Y-81058709D01*
X93011120Y-81044850D01*
X93010305Y-81043198D01*
X93010766Y-81042046D01*
X93029980Y-81019054D01*
X93038610Y-80950337D01*
X93008644Y-80887707D01*
X93002917Y-80882744D01*
X93002564Y-80882343D01*
X93001861Y-80881290D01*
X93001731Y-80879295D01*
X93003394Y-80878184D01*
X93004635Y-80878517D01*
G37*
G36*
X89129635Y-80878517D02*
G01*
X89144361Y-80888357D01*
X89167699Y-80893000D01*
X89867301Y-80893000D01*
X89890639Y-80888357D01*
X89905366Y-80878517D01*
X89907362Y-80878386D01*
X89908473Y-80880049D01*
X89908140Y-80881291D01*
X89898880Y-80895150D01*
X89899695Y-80896802D01*
X89899234Y-80897954D01*
X89880020Y-80920946D01*
X89871390Y-80989663D01*
X89901356Y-81052293D01*
X89907083Y-81057256D01*
X89907436Y-81057657D01*
X89908139Y-81058710D01*
X89908269Y-81060705D01*
X89906606Y-81061816D01*
X89905365Y-81061483D01*
X89890639Y-81051643D01*
X89867301Y-81047000D01*
X89167699Y-81047000D01*
X89144361Y-81051643D01*
X89129634Y-81061483D01*
X89127638Y-81061614D01*
X89126527Y-81059951D01*
X89126860Y-81058709D01*
X89136120Y-81044850D01*
X89135305Y-81043198D01*
X89135766Y-81042046D01*
X89154980Y-81019054D01*
X89163610Y-80950337D01*
X89133644Y-80887707D01*
X89127917Y-80882744D01*
X89127564Y-80882343D01*
X89126861Y-80881290D01*
X89126731Y-80879295D01*
X89128394Y-80878184D01*
X89129635Y-80878517D01*
G37*
G36*
X89129635Y-80478517D02*
G01*
X89144361Y-80488357D01*
X89167699Y-80493000D01*
X89867301Y-80493000D01*
X89890639Y-80488357D01*
X89905366Y-80478517D01*
X89907362Y-80478386D01*
X89908473Y-80480049D01*
X89908140Y-80481291D01*
X89898880Y-80495150D01*
X89899695Y-80496802D01*
X89899234Y-80497954D01*
X89880020Y-80520946D01*
X89871390Y-80589663D01*
X89901356Y-80652293D01*
X89907083Y-80657256D01*
X89907436Y-80657657D01*
X89908139Y-80658710D01*
X89908269Y-80660705D01*
X89906606Y-80661816D01*
X89905365Y-80661483D01*
X89890639Y-80651643D01*
X89867301Y-80647000D01*
X89167699Y-80647000D01*
X89144361Y-80651643D01*
X89129634Y-80661483D01*
X89127638Y-80661614D01*
X89126527Y-80659951D01*
X89126860Y-80658709D01*
X89136120Y-80644850D01*
X89135305Y-80643198D01*
X89135766Y-80642046D01*
X89154980Y-80619054D01*
X89163610Y-80550337D01*
X89133644Y-80487707D01*
X89127917Y-80482744D01*
X89127564Y-80482343D01*
X89126861Y-80481290D01*
X89126731Y-80479295D01*
X89128394Y-80478184D01*
X89129635Y-80478517D01*
G37*
G36*
X93004635Y-80478517D02*
G01*
X93019361Y-80488357D01*
X93042699Y-80493000D01*
X93742301Y-80493000D01*
X93765639Y-80488357D01*
X93780366Y-80478517D01*
X93782362Y-80478386D01*
X93783473Y-80480049D01*
X93783140Y-80481291D01*
X93773880Y-80495150D01*
X93774695Y-80496802D01*
X93774234Y-80497954D01*
X93755020Y-80520946D01*
X93746390Y-80589663D01*
X93776356Y-80652293D01*
X93782083Y-80657256D01*
X93782436Y-80657657D01*
X93783139Y-80658710D01*
X93783269Y-80660705D01*
X93781606Y-80661816D01*
X93780365Y-80661483D01*
X93765639Y-80651643D01*
X93742301Y-80647000D01*
X93042699Y-80647000D01*
X93019361Y-80651643D01*
X93004634Y-80661483D01*
X93002638Y-80661614D01*
X93001527Y-80659951D01*
X93001860Y-80658709D01*
X93011120Y-80644850D01*
X93010305Y-80643198D01*
X93010766Y-80642046D01*
X93029980Y-80619054D01*
X93038610Y-80550337D01*
X93008644Y-80487707D01*
X93002917Y-80482744D01*
X93002564Y-80482343D01*
X93001861Y-80481290D01*
X93001731Y-80479295D01*
X93003394Y-80478184D01*
X93004635Y-80478517D01*
G37*
G36*
X89129635Y-80078517D02*
G01*
X89144361Y-80088357D01*
X89167699Y-80093000D01*
X89867301Y-80093000D01*
X89890639Y-80088357D01*
X89905366Y-80078517D01*
X89907362Y-80078386D01*
X89908473Y-80080049D01*
X89908140Y-80081291D01*
X89898880Y-80095150D01*
X89899695Y-80096802D01*
X89899234Y-80097954D01*
X89880020Y-80120946D01*
X89871390Y-80189663D01*
X89901356Y-80252293D01*
X89907083Y-80257256D01*
X89907436Y-80257657D01*
X89908139Y-80258710D01*
X89908269Y-80260705D01*
X89906606Y-80261816D01*
X89905365Y-80261483D01*
X89890639Y-80251643D01*
X89867301Y-80247000D01*
X89167699Y-80247000D01*
X89144361Y-80251643D01*
X89129634Y-80261483D01*
X89127638Y-80261614D01*
X89126527Y-80259951D01*
X89126860Y-80258709D01*
X89136120Y-80244850D01*
X89135305Y-80243198D01*
X89135766Y-80242046D01*
X89154980Y-80219054D01*
X89163610Y-80150337D01*
X89133644Y-80087707D01*
X89127917Y-80082744D01*
X89127564Y-80082343D01*
X89126861Y-80081290D01*
X89126731Y-80079295D01*
X89128394Y-80078184D01*
X89129635Y-80078517D01*
G37*
G36*
X93004635Y-80078517D02*
G01*
X93019361Y-80088357D01*
X93042699Y-80093000D01*
X93742301Y-80093000D01*
X93765639Y-80088357D01*
X93780366Y-80078517D01*
X93782362Y-80078386D01*
X93783473Y-80080049D01*
X93783140Y-80081291D01*
X93773880Y-80095150D01*
X93774695Y-80096802D01*
X93774234Y-80097954D01*
X93755020Y-80120946D01*
X93746390Y-80189663D01*
X93776356Y-80252293D01*
X93782083Y-80257256D01*
X93782436Y-80257657D01*
X93783139Y-80258710D01*
X93783269Y-80260705D01*
X93781606Y-80261816D01*
X93780365Y-80261483D01*
X93765639Y-80251643D01*
X93742301Y-80247000D01*
X93042699Y-80247000D01*
X93019361Y-80251643D01*
X93004634Y-80261483D01*
X93002638Y-80261614D01*
X93001527Y-80259951D01*
X93001860Y-80258709D01*
X93011120Y-80244850D01*
X93010305Y-80243198D01*
X93010766Y-80242046D01*
X93029980Y-80219054D01*
X93038610Y-80150337D01*
X93008644Y-80087707D01*
X93002917Y-80082744D01*
X93002564Y-80082343D01*
X93001861Y-80081290D01*
X93001731Y-80079295D01*
X93003394Y-80078184D01*
X93004635Y-80078517D01*
G37*
G36*
X89129635Y-79678517D02*
G01*
X89144361Y-79688357D01*
X89167699Y-79693000D01*
X89867301Y-79693000D01*
X89890639Y-79688357D01*
X89905366Y-79678517D01*
X89907362Y-79678386D01*
X89908473Y-79680049D01*
X89908140Y-79681291D01*
X89898880Y-79695150D01*
X89899695Y-79696802D01*
X89899234Y-79697954D01*
X89880020Y-79720946D01*
X89871390Y-79789663D01*
X89901356Y-79852293D01*
X89907083Y-79857256D01*
X89907436Y-79857657D01*
X89908139Y-79858710D01*
X89908269Y-79860705D01*
X89906606Y-79861816D01*
X89905365Y-79861483D01*
X89890639Y-79851643D01*
X89867301Y-79847000D01*
X89167699Y-79847000D01*
X89144361Y-79851643D01*
X89129634Y-79861483D01*
X89127638Y-79861614D01*
X89126527Y-79859951D01*
X89126860Y-79858709D01*
X89136120Y-79844850D01*
X89135305Y-79843198D01*
X89135766Y-79842046D01*
X89154980Y-79819054D01*
X89163610Y-79750337D01*
X89133644Y-79687707D01*
X89127917Y-79682744D01*
X89127564Y-79682343D01*
X89126861Y-79681290D01*
X89126731Y-79679295D01*
X89128394Y-79678184D01*
X89129635Y-79678517D01*
G37*
G36*
X93004635Y-79678517D02*
G01*
X93019361Y-79688357D01*
X93042699Y-79693000D01*
X93742301Y-79693000D01*
X93765639Y-79688357D01*
X93780366Y-79678517D01*
X93782362Y-79678386D01*
X93783473Y-79680049D01*
X93783140Y-79681291D01*
X93773880Y-79695150D01*
X93774695Y-79696802D01*
X93774234Y-79697954D01*
X93755020Y-79720946D01*
X93746390Y-79789663D01*
X93776356Y-79852293D01*
X93782083Y-79857256D01*
X93782436Y-79857657D01*
X93783139Y-79858710D01*
X93783269Y-79860705D01*
X93781606Y-79861816D01*
X93780365Y-79861483D01*
X93765639Y-79851643D01*
X93742301Y-79847000D01*
X93042699Y-79847000D01*
X93019361Y-79851643D01*
X93004634Y-79861483D01*
X93002638Y-79861614D01*
X93001527Y-79859951D01*
X93001860Y-79858709D01*
X93011120Y-79844850D01*
X93010305Y-79843198D01*
X93010766Y-79842046D01*
X93029980Y-79819054D01*
X93038610Y-79750337D01*
X93008644Y-79687707D01*
X93002917Y-79682744D01*
X93002564Y-79682343D01*
X93001861Y-79681290D01*
X93001731Y-79679295D01*
X93003394Y-79678184D01*
X93004635Y-79678517D01*
G37*
G36*
X89129635Y-79278517D02*
G01*
X89144361Y-79288357D01*
X89167699Y-79293000D01*
X89867301Y-79293000D01*
X89890639Y-79288357D01*
X89905366Y-79278517D01*
X89907362Y-79278386D01*
X89908473Y-79280049D01*
X89908140Y-79281291D01*
X89898880Y-79295150D01*
X89899695Y-79296802D01*
X89899234Y-79297954D01*
X89880020Y-79320946D01*
X89871390Y-79389663D01*
X89901356Y-79452293D01*
X89907083Y-79457256D01*
X89907436Y-79457657D01*
X89908139Y-79458710D01*
X89908269Y-79460705D01*
X89906606Y-79461816D01*
X89905365Y-79461483D01*
X89890639Y-79451643D01*
X89867301Y-79447000D01*
X89167699Y-79447000D01*
X89144361Y-79451643D01*
X89129634Y-79461483D01*
X89127638Y-79461614D01*
X89126527Y-79459951D01*
X89126860Y-79458709D01*
X89136120Y-79444850D01*
X89135305Y-79443198D01*
X89135766Y-79442046D01*
X89154980Y-79419054D01*
X89163610Y-79350337D01*
X89133644Y-79287707D01*
X89127917Y-79282744D01*
X89127564Y-79282343D01*
X89126861Y-79281290D01*
X89126731Y-79279295D01*
X89128394Y-79278184D01*
X89129635Y-79278517D01*
G37*
G36*
X93004635Y-79278517D02*
G01*
X93019361Y-79288357D01*
X93042699Y-79293000D01*
X93742301Y-79293000D01*
X93765639Y-79288357D01*
X93780366Y-79278517D01*
X93782362Y-79278386D01*
X93783473Y-79280049D01*
X93783140Y-79281291D01*
X93773880Y-79295150D01*
X93774695Y-79296802D01*
X93774234Y-79297954D01*
X93755020Y-79320946D01*
X93746390Y-79389663D01*
X93776356Y-79452293D01*
X93782083Y-79457256D01*
X93782436Y-79457657D01*
X93783139Y-79458710D01*
X93783269Y-79460705D01*
X93781606Y-79461816D01*
X93780365Y-79461483D01*
X93765639Y-79451643D01*
X93742301Y-79447000D01*
X93042699Y-79447000D01*
X93019361Y-79451643D01*
X93004634Y-79461483D01*
X93002638Y-79461614D01*
X93001527Y-79459951D01*
X93001860Y-79458709D01*
X93011120Y-79444850D01*
X93010305Y-79443198D01*
X93010766Y-79442046D01*
X93029980Y-79419054D01*
X93038610Y-79350337D01*
X93008644Y-79287707D01*
X93002917Y-79282744D01*
X93002564Y-79282343D01*
X93001861Y-79281290D01*
X93001731Y-79279295D01*
X93003394Y-79278184D01*
X93004635Y-79278517D01*
G37*
G36*
X91966291Y-78041860D02*
G01*
X91980150Y-78051120D01*
X91981802Y-78050305D01*
X91982954Y-78050766D01*
X92005946Y-78069980D01*
X92074663Y-78078610D01*
X92137293Y-78048644D01*
X92142256Y-78042917D01*
X92142657Y-78042564D01*
X92143710Y-78041861D01*
X92145705Y-78041731D01*
X92146816Y-78043394D01*
X92146483Y-78044635D01*
X92136643Y-78059361D01*
X92132000Y-78082699D01*
X92132000Y-78782301D01*
X92136643Y-78805639D01*
X92146483Y-78820366D01*
X92146614Y-78822362D01*
X92144951Y-78823473D01*
X92143709Y-78823140D01*
X92129850Y-78813880D01*
X92128198Y-78814695D01*
X92127046Y-78814234D01*
X92104054Y-78795020D01*
X92035337Y-78786390D01*
X91972707Y-78816356D01*
X91967744Y-78822083D01*
X91967343Y-78822436D01*
X91966290Y-78823139D01*
X91964295Y-78823269D01*
X91963184Y-78821606D01*
X91963517Y-78820365D01*
X91973357Y-78805639D01*
X91978000Y-78782301D01*
X91978000Y-78082699D01*
X91973357Y-78059361D01*
X91963517Y-78044634D01*
X91963386Y-78042638D01*
X91965049Y-78041527D01*
X91966291Y-78041860D01*
G37*
G36*
X91566291Y-78041860D02*
G01*
X91580150Y-78051120D01*
X91581802Y-78050305D01*
X91582954Y-78050766D01*
X91605946Y-78069980D01*
X91674663Y-78078610D01*
X91737293Y-78048644D01*
X91742256Y-78042917D01*
X91742657Y-78042564D01*
X91743710Y-78041861D01*
X91745705Y-78041731D01*
X91746816Y-78043394D01*
X91746483Y-78044635D01*
X91736643Y-78059361D01*
X91732000Y-78082699D01*
X91732000Y-78782301D01*
X91736643Y-78805639D01*
X91746483Y-78820366D01*
X91746614Y-78822362D01*
X91744951Y-78823473D01*
X91743709Y-78823140D01*
X91729850Y-78813880D01*
X91728198Y-78814695D01*
X91727046Y-78814234D01*
X91704054Y-78795020D01*
X91635337Y-78786390D01*
X91572707Y-78816356D01*
X91567744Y-78822083D01*
X91567343Y-78822436D01*
X91566290Y-78823139D01*
X91564295Y-78823269D01*
X91563184Y-78821606D01*
X91563517Y-78820365D01*
X91573357Y-78805639D01*
X91578000Y-78782301D01*
X91578000Y-78082699D01*
X91573357Y-78059361D01*
X91563517Y-78044634D01*
X91563386Y-78042638D01*
X91565049Y-78041527D01*
X91566291Y-78041860D01*
G37*
G36*
X90766291Y-78041860D02*
G01*
X90780150Y-78051120D01*
X90781802Y-78050305D01*
X90782954Y-78050766D01*
X90805946Y-78069980D01*
X90874663Y-78078610D01*
X90937293Y-78048644D01*
X90942256Y-78042917D01*
X90942657Y-78042564D01*
X90943710Y-78041861D01*
X90945705Y-78041731D01*
X90946816Y-78043394D01*
X90946483Y-78044635D01*
X90936643Y-78059361D01*
X90932000Y-78082699D01*
X90932000Y-78782301D01*
X90936643Y-78805639D01*
X90946483Y-78820366D01*
X90946614Y-78822362D01*
X90944951Y-78823473D01*
X90943709Y-78823140D01*
X90929850Y-78813880D01*
X90928198Y-78814695D01*
X90927046Y-78814234D01*
X90904054Y-78795020D01*
X90835337Y-78786390D01*
X90772707Y-78816356D01*
X90767744Y-78822083D01*
X90767343Y-78822436D01*
X90766290Y-78823139D01*
X90764295Y-78823269D01*
X90763184Y-78821606D01*
X90763517Y-78820365D01*
X90773357Y-78805639D01*
X90778000Y-78782301D01*
X90778000Y-78082699D01*
X90773357Y-78059361D01*
X90763517Y-78044634D01*
X90763386Y-78042638D01*
X90765049Y-78041527D01*
X90766291Y-78041860D01*
G37*
G36*
X92366291Y-78041860D02*
G01*
X92380150Y-78051120D01*
X92381802Y-78050305D01*
X92382954Y-78050766D01*
X92405946Y-78069980D01*
X92474663Y-78078610D01*
X92537293Y-78048644D01*
X92542256Y-78042917D01*
X92542657Y-78042564D01*
X92543710Y-78041861D01*
X92545705Y-78041731D01*
X92546816Y-78043394D01*
X92546483Y-78044635D01*
X92536643Y-78059361D01*
X92532000Y-78082699D01*
X92532000Y-78782301D01*
X92536643Y-78805639D01*
X92546483Y-78820366D01*
X92546614Y-78822362D01*
X92544951Y-78823473D01*
X92543709Y-78823140D01*
X92529850Y-78813880D01*
X92528198Y-78814695D01*
X92527046Y-78814234D01*
X92504054Y-78795020D01*
X92435337Y-78786390D01*
X92372707Y-78816356D01*
X92367744Y-78822083D01*
X92367343Y-78822436D01*
X92366290Y-78823139D01*
X92364295Y-78823269D01*
X92363184Y-78821606D01*
X92363517Y-78820365D01*
X92373357Y-78805639D01*
X92378000Y-78782301D01*
X92378000Y-78082699D01*
X92373357Y-78059361D01*
X92363517Y-78044634D01*
X92363386Y-78042638D01*
X92365049Y-78041527D01*
X92366291Y-78041860D01*
G37*
G36*
X90366291Y-78041860D02*
G01*
X90380150Y-78051120D01*
X90381802Y-78050305D01*
X90382954Y-78050766D01*
X90405946Y-78069980D01*
X90474663Y-78078610D01*
X90537293Y-78048644D01*
X90542256Y-78042917D01*
X90542657Y-78042564D01*
X90543710Y-78041861D01*
X90545705Y-78041731D01*
X90546816Y-78043394D01*
X90546483Y-78044635D01*
X90536643Y-78059361D01*
X90532000Y-78082699D01*
X90532000Y-78782301D01*
X90536643Y-78805639D01*
X90546483Y-78820366D01*
X90546614Y-78822362D01*
X90544951Y-78823473D01*
X90543709Y-78823140D01*
X90529850Y-78813880D01*
X90528198Y-78814695D01*
X90527046Y-78814234D01*
X90504054Y-78795020D01*
X90435337Y-78786390D01*
X90372707Y-78816356D01*
X90367744Y-78822083D01*
X90367343Y-78822436D01*
X90366290Y-78823139D01*
X90364295Y-78823269D01*
X90363184Y-78821606D01*
X90363517Y-78820365D01*
X90373357Y-78805639D01*
X90378000Y-78782301D01*
X90378000Y-78082699D01*
X90373357Y-78059361D01*
X90363517Y-78044634D01*
X90363386Y-78042638D01*
X90365049Y-78041527D01*
X90366291Y-78041860D01*
G37*
G36*
X91166291Y-78041860D02*
G01*
X91180150Y-78051120D01*
X91181802Y-78050305D01*
X91182954Y-78050766D01*
X91205946Y-78069980D01*
X91274663Y-78078610D01*
X91337293Y-78048644D01*
X91342256Y-78042917D01*
X91342657Y-78042564D01*
X91343710Y-78041861D01*
X91345705Y-78041731D01*
X91346816Y-78043394D01*
X91346483Y-78044635D01*
X91336643Y-78059361D01*
X91332000Y-78082699D01*
X91332000Y-78782301D01*
X91336643Y-78805639D01*
X91346483Y-78820366D01*
X91346614Y-78822362D01*
X91344951Y-78823473D01*
X91343709Y-78823140D01*
X91329850Y-78813880D01*
X91328198Y-78814695D01*
X91327046Y-78814234D01*
X91304054Y-78795020D01*
X91235337Y-78786390D01*
X91172707Y-78816356D01*
X91167744Y-78822083D01*
X91167343Y-78822436D01*
X91166290Y-78823139D01*
X91164295Y-78823269D01*
X91163184Y-78821606D01*
X91163517Y-78820365D01*
X91173357Y-78805639D01*
X91178000Y-78782301D01*
X91178000Y-78082699D01*
X91173357Y-78059361D01*
X91163517Y-78044634D01*
X91163386Y-78042638D01*
X91165049Y-78041527D01*
X91166291Y-78041860D01*
G37*
G36*
X59128843Y-70679000D02*
G01*
X59128774Y-70681111D01*
X59124128Y-70688065D01*
X59124000Y-70688237D01*
X59088309Y-70730944D01*
X59079676Y-70799659D01*
X59109640Y-70862290D01*
X59128334Y-70878489D01*
X59128988Y-70880379D01*
X59127678Y-70881890D01*
X59127024Y-70882000D01*
X57682889Y-70882000D01*
X57681157Y-70881000D01*
X57681226Y-70878889D01*
X57685872Y-70871935D01*
X57686000Y-70871763D01*
X57721691Y-70829056D01*
X57730324Y-70760341D01*
X57700360Y-70697710D01*
X57681666Y-70681511D01*
X57681012Y-70679621D01*
X57682322Y-70678110D01*
X57682976Y-70678000D01*
X59127111Y-70678000D01*
X59128843Y-70679000D01*
G37*
G36*
X59128843Y-69329000D02*
G01*
X59128774Y-69331111D01*
X59124128Y-69338065D01*
X59124000Y-69338237D01*
X59088309Y-69380944D01*
X59079676Y-69449659D01*
X59109640Y-69512290D01*
X59128334Y-69528489D01*
X59128988Y-69530379D01*
X59127678Y-69531890D01*
X59127024Y-69532000D01*
X57682889Y-69532000D01*
X57681157Y-69531000D01*
X57681226Y-69528889D01*
X57685872Y-69521935D01*
X57686000Y-69521763D01*
X57721691Y-69479056D01*
X57730324Y-69410341D01*
X57700360Y-69347710D01*
X57681666Y-69331511D01*
X57681012Y-69329621D01*
X57682322Y-69328110D01*
X57682976Y-69328000D01*
X59127111Y-69328000D01*
X59128843Y-69329000D01*
G37*
G36*
X59128843Y-68829000D02*
G01*
X59128774Y-68831111D01*
X59124128Y-68838065D01*
X59124000Y-68838237D01*
X59088309Y-68880944D01*
X59079676Y-68949659D01*
X59109640Y-69012290D01*
X59128334Y-69028489D01*
X59128988Y-69030379D01*
X59127678Y-69031890D01*
X59127024Y-69032000D01*
X57682889Y-69032000D01*
X57681157Y-69031000D01*
X57681226Y-69028889D01*
X57685872Y-69021935D01*
X57686000Y-69021763D01*
X57721691Y-68979056D01*
X57730324Y-68910341D01*
X57700360Y-68847710D01*
X57681666Y-68831511D01*
X57681012Y-68829621D01*
X57682322Y-68828110D01*
X57682976Y-68828000D01*
X59127111Y-68828000D01*
X59128843Y-68829000D01*
G37*
G36*
X59128843Y-68329000D02*
G01*
X59128774Y-68331111D01*
X59124128Y-68338065D01*
X59124000Y-68338237D01*
X59088309Y-68380944D01*
X59079676Y-68449659D01*
X59109640Y-68512290D01*
X59128334Y-68528489D01*
X59128988Y-68530379D01*
X59127678Y-68531890D01*
X59127024Y-68532000D01*
X57682889Y-68532000D01*
X57681157Y-68531000D01*
X57681226Y-68528889D01*
X57685872Y-68521935D01*
X57686000Y-68521763D01*
X57721691Y-68479056D01*
X57730324Y-68410341D01*
X57700360Y-68347710D01*
X57681666Y-68331511D01*
X57681012Y-68329621D01*
X57682322Y-68328110D01*
X57682976Y-68328000D01*
X59127111Y-68328000D01*
X59128843Y-68329000D01*
G37*
G36*
X59128843Y-67829000D02*
G01*
X59128774Y-67831111D01*
X59124128Y-67838065D01*
X59124000Y-67838237D01*
X59088309Y-67880944D01*
X59079676Y-67949659D01*
X59109640Y-68012290D01*
X59128334Y-68028489D01*
X59128988Y-68030379D01*
X59127678Y-68031890D01*
X59127024Y-68032000D01*
X57682889Y-68032000D01*
X57681157Y-68031000D01*
X57681226Y-68028889D01*
X57685872Y-68021935D01*
X57686000Y-68021763D01*
X57721691Y-67979056D01*
X57730324Y-67910341D01*
X57700360Y-67847710D01*
X57681666Y-67831511D01*
X57681012Y-67829621D01*
X57682322Y-67828110D01*
X57682976Y-67828000D01*
X59127111Y-67828000D01*
X59128843Y-67829000D01*
G37*
G36*
X59128843Y-67329000D02*
G01*
X59128774Y-67331111D01*
X59124128Y-67338065D01*
X59124000Y-67338237D01*
X59088309Y-67380944D01*
X59079676Y-67449659D01*
X59109640Y-67512290D01*
X59128334Y-67528489D01*
X59128988Y-67530379D01*
X59127678Y-67531890D01*
X59127024Y-67532000D01*
X57682889Y-67532000D01*
X57681157Y-67531000D01*
X57681226Y-67528889D01*
X57685872Y-67521935D01*
X57686000Y-67521763D01*
X57721691Y-67479056D01*
X57730324Y-67410341D01*
X57700360Y-67347710D01*
X57681666Y-67331511D01*
X57681012Y-67329621D01*
X57682322Y-67328110D01*
X57682976Y-67328000D01*
X59127111Y-67328000D01*
X59128843Y-67329000D01*
G37*
G36*
X59128843Y-66829000D02*
G01*
X59128774Y-66831111D01*
X59124128Y-66838065D01*
X59124000Y-66838237D01*
X59088309Y-66880944D01*
X59079676Y-66949659D01*
X59109640Y-67012290D01*
X59128334Y-67028489D01*
X59128988Y-67030379D01*
X59127678Y-67031890D01*
X59127024Y-67032000D01*
X57682889Y-67032000D01*
X57681157Y-67031000D01*
X57681226Y-67028889D01*
X57685872Y-67021935D01*
X57686000Y-67021763D01*
X57721691Y-66979056D01*
X57730324Y-66910341D01*
X57700360Y-66847710D01*
X57681666Y-66831511D01*
X57681012Y-66829621D01*
X57682322Y-66828110D01*
X57682976Y-66828000D01*
X59127111Y-66828000D01*
X59128843Y-66829000D01*
G37*
G36*
X59128843Y-66329000D02*
G01*
X59128774Y-66331111D01*
X59124128Y-66338065D01*
X59124000Y-66338237D01*
X59088309Y-66380944D01*
X59079676Y-66449659D01*
X59109640Y-66512290D01*
X59128334Y-66528489D01*
X59128988Y-66530379D01*
X59127678Y-66531890D01*
X59127024Y-66532000D01*
X57682889Y-66532000D01*
X57681157Y-66531000D01*
X57681226Y-66528889D01*
X57685872Y-66521935D01*
X57686000Y-66521763D01*
X57721691Y-66479056D01*
X57730324Y-66410341D01*
X57700360Y-66347710D01*
X57681666Y-66331511D01*
X57681012Y-66329621D01*
X57682322Y-66328110D01*
X57682976Y-66328000D01*
X59127111Y-66328000D01*
X59128843Y-66329000D01*
G37*
G36*
X59128843Y-64979000D02*
G01*
X59128774Y-64981111D01*
X59124128Y-64988065D01*
X59124000Y-64988237D01*
X59088309Y-65030944D01*
X59079676Y-65099659D01*
X59109640Y-65162290D01*
X59128334Y-65178489D01*
X59128988Y-65180379D01*
X59127678Y-65181890D01*
X59127024Y-65182000D01*
X57682889Y-65182000D01*
X57681157Y-65181000D01*
X57681226Y-65178889D01*
X57685872Y-65171935D01*
X57686000Y-65171763D01*
X57721691Y-65129056D01*
X57730324Y-65060341D01*
X57700360Y-64997710D01*
X57681666Y-64981511D01*
X57681012Y-64979621D01*
X57682322Y-64978110D01*
X57682976Y-64978000D01*
X59127111Y-64978000D01*
X59128843Y-64979000D01*
G37*
M02*
