%TF.GenerationSoftware,KiCad,Pcbnew,(6.0.9)*%
%TF.CreationDate,2022-12-19T18:44:09+02:00*%
%TF.ProjectId,cross_band_handy_walkie_talkie_V1,63726f73-735f-4626-916e-645f68616e64,rev?*%
%TF.SameCoordinates,Original*%
%TF.FileFunction,Soldermask,Bot*%
%TF.FilePolarity,Negative*%
%FSLAX46Y46*%
G04 Gerber Fmt 4.6, Leading zero omitted, Abs format (unit mm)*
G04 Created by KiCad (PCBNEW (6.0.9)) date 2022-12-19 18:44:09*
%MOMM*%
%LPD*%
G01*
G04 APERTURE LIST*
G04 Aperture macros list*
%AMRoundRect*
0 Rectangle with rounded corners*
0 $1 Rounding radius*
0 $2 $3 $4 $5 $6 $7 $8 $9 X,Y pos of 4 corners*
0 Add a 4 corners polygon primitive as box body*
4,1,4,$2,$3,$4,$5,$6,$7,$8,$9,$2,$3,0*
0 Add four circle primitives for the rounded corners*
1,1,$1+$1,$2,$3*
1,1,$1+$1,$4,$5*
1,1,$1+$1,$6,$7*
1,1,$1+$1,$8,$9*
0 Add four rect primitives between the rounded corners*
20,1,$1+$1,$2,$3,$4,$5,0*
20,1,$1+$1,$4,$5,$6,$7,0*
20,1,$1+$1,$6,$7,$8,$9,0*
20,1,$1+$1,$8,$9,$2,$3,0*%
G04 Aperture macros list end*
%TA.AperFunction,Profile*%
%ADD10C,0.100000*%
%TD*%
%ADD11R,1.500000X1.500000*%
%ADD12R,1.700000X1.700000*%
%ADD13O,1.700000X1.700000*%
%ADD14C,3.600000*%
%ADD15C,5.600000*%
%ADD16C,1.440000*%
%ADD17C,2.050000*%
%ADD18C,2.250000*%
%ADD19C,0.650000*%
%ADD20O,1.000000X2.100000*%
%ADD21O,1.000000X1.600000*%
%ADD22RoundRect,0.249600X0.268701X-0.651104X0.651104X-0.268701X-0.268701X0.651104X-0.651104X0.268701X0*%
%ADD23C,0.610000*%
%ADD24RoundRect,0.152500X0.224506X-0.440174X0.440174X-0.224506X-0.224506X0.440174X-0.440174X0.224506X0*%
%ADD25R,1.200000X0.900000*%
%ADD26R,1.800000X1.800000*%
%ADD27R,7.000000X9.000000*%
%ADD28R,8.500000X2.200000*%
%ADD29RoundRect,0.249600X-0.268701X0.651104X-0.651104X0.268701X0.268701X-0.651104X0.651104X-0.268701X0*%
%ADD30RoundRect,0.152500X-0.224506X0.440174X-0.440174X0.224506X0.224506X-0.440174X0.440174X-0.224506X0*%
G04 APERTURE END LIST*
D10*
X150000000Y-55000000D02*
X150000000Y-95000000D01*
X150000000Y-55000000D02*
G75*
G03*
X145000000Y-50000000I-5000000J0D01*
G01*
X55000000Y-50000000D02*
X145000000Y-50000000D01*
X145000000Y-100000000D02*
X55000000Y-100000000D01*
X145000000Y-100000000D02*
G75*
G03*
X150000000Y-95000000I0J5000000D01*
G01*
X50000000Y-95000000D02*
X50000000Y-55000000D01*
X50000000Y-95000000D02*
G75*
G03*
X55000000Y-100000000I5000000J0D01*
G01*
X55000000Y-50000000D02*
G75*
G03*
X50000000Y-55000000I0J-5000000D01*
G01*
X150000000Y-55000000D02*
X150000000Y-95000000D01*
X150000000Y-55000000D02*
G75*
G03*
X145000000Y-50000000I-5000000J0D01*
G01*
X55000000Y-50000000D02*
X145000000Y-50000000D01*
X145000000Y-100000000D02*
X55000000Y-100000000D01*
X145000000Y-100000000D02*
G75*
G03*
X150000000Y-95000000I0J5000000D01*
G01*
X50000000Y-95000000D02*
X50000000Y-55000000D01*
X50000000Y-95000000D02*
G75*
G03*
X55000000Y-100000000I5000000J0D01*
G01*
X55000000Y-50000000D02*
G75*
G03*
X50000000Y-55000000I0J-5000000D01*
G01*
D11*
%TO.C,TP9*%
X94800000Y-58600000D03*
%TD*%
%TO.C,TP8*%
X97400000Y-58600000D03*
%TD*%
D12*
%TO.C,J5*%
X73200000Y-95400000D03*
D13*
X70660000Y-95400000D03*
X68120000Y-95400000D03*
%TD*%
D14*
%TO.C,H2*%
X145000000Y-95000000D03*
D15*
X145000000Y-95000000D03*
%TD*%
D12*
%TO.C,J3*%
X111600000Y-84800000D03*
D13*
X114140000Y-84800000D03*
X116680000Y-84800000D03*
%TD*%
D16*
%TO.C,RV1*%
X113225000Y-78000000D03*
X115765000Y-75460000D03*
X118305000Y-78000000D03*
%TD*%
D12*
%TO.C,J2*%
X99000000Y-94000000D03*
D13*
X101540000Y-94000000D03*
X104080000Y-94000000D03*
%TD*%
D15*
%TO.C,H3*%
X55000000Y-95000000D03*
D14*
X55000000Y-95000000D03*
%TD*%
D12*
%TO.C,J7*%
X106600000Y-97600000D03*
D13*
X104060000Y-97600000D03*
X101520000Y-97600000D03*
X98980000Y-97600000D03*
%TD*%
D17*
%TO.C,J15*%
X144950000Y-75000000D03*
D18*
X147490000Y-77540000D03*
X147490000Y-72460000D03*
X142410000Y-72460000D03*
X142410000Y-77540000D03*
%TD*%
D12*
%TO.C,J4*%
X85350000Y-88050000D03*
D13*
X85350000Y-85510000D03*
X85350000Y-82970000D03*
%TD*%
D16*
%TO.C,RV2*%
X120775000Y-93275000D03*
X123315000Y-95815000D03*
X120775000Y-98355000D03*
%TD*%
D17*
%TO.C,J14*%
X55050000Y-75000000D03*
D18*
X57590000Y-72460000D03*
X52510000Y-72460000D03*
X57590000Y-77540000D03*
X52510000Y-77540000D03*
%TD*%
D14*
%TO.C,H4*%
X145000000Y-55000000D03*
D15*
X145000000Y-55000000D03*
%TD*%
D12*
%TO.C,J1*%
X82250000Y-93400000D03*
D13*
X84790000Y-93400000D03*
X87330000Y-93400000D03*
X89870000Y-93400000D03*
X92410000Y-93400000D03*
X94950000Y-93400000D03*
%TD*%
D12*
%TO.C,JP1*%
X94940000Y-87600000D03*
D13*
X92400000Y-87600000D03*
X89860000Y-87600000D03*
%TD*%
D12*
%TO.C,J9*%
X147400000Y-86860000D03*
D13*
X147400000Y-89400000D03*
%TD*%
D14*
%TO.C,H1*%
X55000000Y-55000000D03*
D15*
X55000000Y-55000000D03*
%TD*%
D19*
%TO.C,J6*%
X134390000Y-94210000D03*
X128610000Y-94210000D03*
D20*
X127180000Y-93680000D03*
D21*
X135820000Y-97860000D03*
D20*
X135820000Y-93680000D03*
D21*
X127180000Y-97860000D03*
%TD*%
D22*
%TO.C,FL2*%
X142650951Y-83749049D03*
D23*
X143018647Y-81818647D03*
D24*
X143144158Y-81944158D03*
D22*
X144949049Y-81450951D03*
D23*
X144581353Y-83381353D03*
D24*
X144455842Y-83255842D03*
%TD*%
D25*
%TO.C,D3*%
X143800000Y-90450000D03*
X143800000Y-87150000D03*
%TD*%
D26*
%TO.C,U14*%
X121200000Y-58750000D03*
X121200000Y-63200000D03*
X121200000Y-67650000D03*
X121200000Y-72100000D03*
X121200000Y-76550000D03*
X121200000Y-81000000D03*
X121200000Y-85450000D03*
X123290000Y-89000000D03*
X127740000Y-89000000D03*
D27*
X129800000Y-82450000D03*
D28*
X124400000Y-55050000D03*
D26*
X132190000Y-89000000D03*
D28*
X135200000Y-55050000D03*
D26*
X136640000Y-89000000D03*
X138400000Y-85450000D03*
X138400000Y-81000000D03*
X138400000Y-76550000D03*
X138400000Y-72100000D03*
X138400000Y-67650000D03*
X138400000Y-63200000D03*
X138400000Y-58750000D03*
%TD*%
D29*
%TO.C,FL1*%
X57349049Y-64650951D03*
D23*
X56981353Y-66581353D03*
D30*
X56855842Y-66455842D03*
D29*
X55050951Y-66949049D03*
D23*
X55418647Y-65018647D03*
D30*
X55544158Y-65144158D03*
%TD*%
D26*
%TO.C,U13*%
X78400000Y-88900000D03*
X78400000Y-84450000D03*
X78400000Y-80000000D03*
X78400000Y-75550000D03*
X78400000Y-71100000D03*
X78400000Y-66650000D03*
X78400000Y-62200000D03*
X76310000Y-58650000D03*
X71860000Y-58650000D03*
D28*
X64400000Y-92600000D03*
D27*
X69800000Y-65200000D03*
D26*
X67410000Y-58650000D03*
D28*
X75200000Y-92600000D03*
D26*
X62960000Y-58650000D03*
X61200000Y-62200000D03*
X61200000Y-66650000D03*
X61200000Y-71100000D03*
X61200000Y-75550000D03*
X61200000Y-80000000D03*
X61200000Y-84450000D03*
X61200000Y-88900000D03*
%TD*%
M02*
