%TF.GenerationSoftware,KiCad,Pcbnew,(6.0.9)*%
%TF.CreationDate,2022-12-19T18:44:09+02:00*%
%TF.ProjectId,cross_band_handy_walkie_talkie_V1,63726f73-735f-4626-916e-645f68616e64,rev?*%
%TF.SameCoordinates,Original*%
%TF.FileFunction,Paste,Top*%
%TF.FilePolarity,Positive*%
%FSLAX46Y46*%
G04 Gerber Fmt 4.6, Leading zero omitted, Abs format (unit mm)*
G04 Created by KiCad (PCBNEW (6.0.9)) date 2022-12-19 18:44:09*
%MOMM*%
%LPD*%
G01*
G04 APERTURE LIST*
G04 Aperture macros list*
%AMRoundRect*
0 Rectangle with rounded corners*
0 $1 Rounding radius*
0 $2 $3 $4 $5 $6 $7 $8 $9 X,Y pos of 4 corners*
0 Add a 4 corners polygon primitive as box body*
4,1,4,$2,$3,$4,$5,$6,$7,$8,$9,$2,$3,0*
0 Add four circle primitives for the rounded corners*
1,1,$1+$1,$2,$3*
1,1,$1+$1,$4,$5*
1,1,$1+$1,$6,$7*
1,1,$1+$1,$8,$9*
0 Add four rect primitives between the rounded corners*
20,1,$1+$1,$2,$3,$4,$5,0*
20,1,$1+$1,$4,$5,$6,$7,0*
20,1,$1+$1,$6,$7,$8,$9,0*
20,1,$1+$1,$8,$9,$2,$3,0*%
G04 Aperture macros list end*
%TA.AperFunction,Profile*%
%ADD10C,0.100000*%
%TD*%
%ADD11RoundRect,0.177500X0.237500X-0.300000X0.237500X0.300000X-0.237500X0.300000X-0.237500X-0.300000X0*%
%ADD12RoundRect,0.190000X0.250000X0.475000X-0.250000X0.475000X-0.250000X-0.475000X0.250000X-0.475000X0*%
%ADD13RoundRect,0.177500X-0.237500X0.250000X-0.237500X-0.250000X0.237500X-0.250000X0.237500X0.250000X0*%
%ADD14RoundRect,0.177500X-0.300000X-0.237500X0.300000X-0.237500X0.300000X0.237500X-0.300000X0.237500X0*%
%ADD15RoundRect,0.177500X0.300000X0.237500X-0.300000X0.237500X-0.300000X-0.237500X0.300000X-0.237500X0*%
%ADD16RoundRect,0.177500X0.237500X-0.250000X0.237500X0.250000X-0.237500X0.250000X-0.237500X-0.250000X0*%
%ADD17RoundRect,0.090000X-0.512500X-0.150000X0.512500X-0.150000X0.512500X0.150000X-0.512500X0.150000X0*%
%ADD18RoundRect,0.177500X-0.237500X0.300000X-0.237500X-0.300000X0.237500X-0.300000X0.237500X0.300000X0*%
%ADD19RoundRect,0.183750X0.243750X0.456250X-0.243750X0.456250X-0.243750X-0.456250X0.243750X-0.456250X0*%
%ADD20RoundRect,0.177500X-0.250000X-0.237500X0.250000X-0.237500X0.250000X0.237500X-0.250000X0.237500X0*%
%ADD21RoundRect,0.040000X0.637500X0.100000X-0.637500X0.100000X-0.637500X-0.100000X0.637500X-0.100000X0*%
%ADD22RoundRect,0.190000X0.475000X-0.250000X0.475000X0.250000X-0.475000X0.250000X-0.475000X-0.250000X0*%
%ADD23R,0.880000X0.580000*%
%ADD24RoundRect,0.090000X0.512500X0.150000X-0.512500X0.150000X-0.512500X-0.150000X0.512500X-0.150000X0*%
%ADD25RoundRect,0.183750X0.456250X-0.243750X0.456250X0.243750X-0.456250X0.243750X-0.456250X-0.243750X0*%
%ADD26RoundRect,0.090000X0.150000X-0.512500X0.150000X0.512500X-0.150000X0.512500X-0.150000X-0.512500X0*%
%ADD27RoundRect,0.165000X-0.525000X-0.225000X0.525000X-0.225000X0.525000X0.225000X-0.525000X0.225000X0*%
%ADD28RoundRect,0.090000X-0.150000X0.512500X-0.150000X-0.512500X0.150000X-0.512500X0.150000X0.512500X0*%
%ADD29R,1.880000X1.380000*%
%ADD30R,1.880000X3.680000*%
%ADD31RoundRect,0.190000X0.450000X-0.262500X0.450000X0.262500X-0.450000X0.262500X-0.450000X-0.262500X0*%
%ADD32RoundRect,0.190000X-0.250000X-0.475000X0.250000X-0.475000X0.250000X0.475000X-0.250000X0.475000X0*%
%ADD33RoundRect,0.090000X0.150000X-0.587500X0.150000X0.587500X-0.150000X0.587500X-0.150000X-0.587500X0*%
%ADD34RoundRect,0.250000X-0.440000X0.255000X-0.440000X-0.255000X0.440000X-0.255000X0.440000X0.255000X0*%
%ADD35RoundRect,0.090000X-0.150000X0.825000X-0.150000X-0.825000X0.150000X-0.825000X0.150000X0.825000X0*%
%ADD36RoundRect,0.190000X-0.450000X0.262500X-0.450000X-0.262500X0.450000X-0.262500X0.450000X0.262500X0*%
%ADD37RoundRect,0.190000X-0.475000X0.250000X-0.475000X-0.250000X0.475000X-0.250000X0.475000X0.250000X0*%
%ADD38RoundRect,0.177500X0.250000X0.237500X-0.250000X0.237500X-0.250000X-0.237500X0.250000X-0.237500X0*%
%ADD39RoundRect,0.158750X-0.381250X0.218750X-0.381250X-0.218750X0.381250X-0.218750X0.381250X0.218750X0*%
%ADD40RoundRect,0.090000X-0.825000X-0.150000X0.825000X-0.150000X0.825000X0.150000X-0.825000X0.150000X0*%
%ADD41RoundRect,0.190000X-0.262500X-0.450000X0.262500X-0.450000X0.262500X0.450000X-0.262500X0.450000X0*%
%ADD42RoundRect,0.190000X0.450000X-0.350000X0.450000X0.350000X-0.450000X0.350000X-0.450000X-0.350000X0*%
%ADD43R,2.180000X0.880000*%
%ADD44R,0.880000X2.180000*%
%ADD45R,0.880000X2.480000*%
%ADD46R,2.480000X0.880000*%
%ADD47R,0.880000X0.880000*%
%ADD48RoundRect,0.090000X-0.150000X0.587500X-0.150000X-0.587500X0.150000X-0.587500X0.150000X0.587500X0*%
%ADD49R,0.480000X1.330000*%
%ADD50R,0.180000X1.330000*%
%ADD51R,0.700000X0.970000*%
%ADD52R,0.580000X0.130000*%
G04 APERTURE END LIST*
D10*
X150000000Y-55000000D02*
X150000000Y-95000000D01*
X150000000Y-55000000D02*
G75*
G03*
X145000000Y-50000000I-5000000J0D01*
G01*
X55000000Y-50000000D02*
X145000000Y-50000000D01*
X145000000Y-100000000D02*
X55000000Y-100000000D01*
X145000000Y-100000000D02*
G75*
G03*
X150000000Y-95000000I0J5000000D01*
G01*
X50000000Y-95000000D02*
X50000000Y-55000000D01*
X50000000Y-95000000D02*
G75*
G03*
X55000000Y-100000000I5000000J0D01*
G01*
X55000000Y-50000000D02*
G75*
G03*
X50000000Y-55000000I0J-5000000D01*
G01*
D11*
%TO.C,C7*%
X128000000Y-62612500D03*
X128000000Y-60887500D03*
%TD*%
D12*
%TO.C,C10*%
X83450000Y-59250000D03*
X81550000Y-59250000D03*
%TD*%
D13*
%TO.C,R2*%
X130250000Y-63337500D03*
X130250000Y-65162500D03*
%TD*%
D14*
%TO.C,C29*%
X118337500Y-89600000D03*
X120062500Y-89600000D03*
%TD*%
D13*
%TO.C,R4*%
X135250000Y-63337500D03*
X135250000Y-65162500D03*
%TD*%
D15*
%TO.C,C28*%
X108662500Y-92600000D03*
X106937500Y-92600000D03*
%TD*%
D16*
%TO.C,R10*%
X128750000Y-75662500D03*
X128750000Y-73837500D03*
%TD*%
D15*
%TO.C,C4*%
X138150000Y-79800000D03*
X136425000Y-79800000D03*
%TD*%
D17*
%TO.C,U11*%
X65562500Y-84400000D03*
X65562500Y-85350000D03*
X65562500Y-86300000D03*
X67837500Y-86300000D03*
X67837500Y-85350000D03*
X67837500Y-84400000D03*
%TD*%
D18*
%TO.C,C38*%
X69700000Y-85487500D03*
X69700000Y-87212500D03*
%TD*%
D15*
%TO.C,C6*%
X132362500Y-85200000D03*
X130637500Y-85200000D03*
%TD*%
%TO.C,C18*%
X76562500Y-72150000D03*
X74837500Y-72150000D03*
%TD*%
D19*
%TO.C,D4*%
X118117500Y-60535000D03*
X116242500Y-60535000D03*
%TD*%
D20*
%TO.C,R1*%
X89827500Y-84800000D03*
X91652500Y-84800000D03*
%TD*%
D21*
%TO.C,U4*%
X124362500Y-70775000D03*
X124362500Y-70125000D03*
X124362500Y-69475000D03*
X124362500Y-68825000D03*
X124362500Y-68175000D03*
X124362500Y-67525000D03*
X124362500Y-66875000D03*
X124362500Y-66225000D03*
X118637500Y-66225000D03*
X118637500Y-66875000D03*
X118637500Y-67525000D03*
X118637500Y-68175000D03*
X118637500Y-68825000D03*
X118637500Y-69475000D03*
X118637500Y-70125000D03*
X118637500Y-70775000D03*
%TD*%
D22*
%TO.C,C3*%
X85500000Y-59950000D03*
X85500000Y-58050000D03*
%TD*%
D12*
%TO.C,C5*%
X138300000Y-77950000D03*
X136400000Y-77950000D03*
%TD*%
D11*
%TO.C,C20*%
X96400000Y-98125000D03*
X96400000Y-96400000D03*
%TD*%
%TO.C,C27*%
X114600000Y-82062500D03*
X114600000Y-80337500D03*
%TD*%
D23*
%TO.C,SW1*%
X134750000Y-58100000D03*
X128750000Y-58100000D03*
X128750000Y-54400000D03*
X134750000Y-54400000D03*
%TD*%
D13*
%TO.C,R20*%
X110400000Y-92487500D03*
X110400000Y-94312500D03*
%TD*%
D20*
%TO.C,R3*%
X93227500Y-84800000D03*
X95052500Y-84800000D03*
%TD*%
D24*
%TO.C,U8*%
X107387500Y-85700000D03*
X107387500Y-84750000D03*
X107387500Y-83800000D03*
X105112500Y-83800000D03*
X105112500Y-84750000D03*
X105112500Y-85700000D03*
%TD*%
D25*
%TO.C,D1*%
X130600000Y-72225000D03*
X130600000Y-70350000D03*
%TD*%
D18*
%TO.C,C19*%
X116400000Y-80337500D03*
X116400000Y-82062500D03*
%TD*%
D15*
%TO.C,C11*%
X130225000Y-67000000D03*
X128500000Y-67000000D03*
%TD*%
D14*
%TO.C,C12*%
X118637500Y-72150000D03*
X120362500Y-72150000D03*
%TD*%
D26*
%TO.C,U9*%
X106550000Y-90637500D03*
X107500000Y-90637500D03*
X108450000Y-90637500D03*
X108450000Y-88362500D03*
X107500000Y-88362500D03*
X106550000Y-88362500D03*
%TD*%
D27*
%TO.C,U2*%
X90950000Y-58100000D03*
X90950000Y-59370000D03*
X90950000Y-60640000D03*
X90950000Y-61910000D03*
X90950000Y-63180000D03*
X90950000Y-64450000D03*
X90950000Y-65720000D03*
X90950000Y-66990000D03*
X90950000Y-68260000D03*
X90950000Y-69530000D03*
X90950000Y-70800000D03*
X90950000Y-72070000D03*
X90950000Y-73340000D03*
X90950000Y-74610000D03*
X90950000Y-75880000D03*
X90950000Y-77150000D03*
X90950000Y-78420000D03*
X90950000Y-79690000D03*
X90950000Y-80960000D03*
X109950000Y-80960000D03*
X109950000Y-79690000D03*
X109950000Y-78420000D03*
X109950000Y-77150000D03*
X109950000Y-75880000D03*
X109950000Y-74610000D03*
X109950000Y-73340000D03*
X109950000Y-72070000D03*
X109950000Y-70800000D03*
X109950000Y-69530000D03*
X109950000Y-68260000D03*
X109950000Y-66990000D03*
X109950000Y-65720000D03*
X109950000Y-64450000D03*
X109950000Y-63180000D03*
X109950000Y-61910000D03*
X109950000Y-60640000D03*
X109950000Y-59370000D03*
X109950000Y-58100000D03*
%TD*%
D28*
%TO.C,U12*%
X115150000Y-65062500D03*
X114200000Y-65062500D03*
X113250000Y-65062500D03*
X113250000Y-67337500D03*
X114200000Y-67337500D03*
X115150000Y-67337500D03*
%TD*%
D29*
%TO.C,U3*%
X77250000Y-62100000D03*
D30*
X83550000Y-64400000D03*
D29*
X77250000Y-64400000D03*
X77250000Y-66700000D03*
%TD*%
D12*
%TO.C,C33*%
X126800000Y-89850000D03*
X124900000Y-89850000D03*
%TD*%
D18*
%TO.C,C17*%
X100600000Y-83937500D03*
X100600000Y-85662500D03*
%TD*%
D31*
%TO.C,R17*%
X72700000Y-74975000D03*
X72700000Y-73150000D03*
%TD*%
D11*
%TO.C,C16*%
X69700000Y-74875000D03*
X69700000Y-73150000D03*
%TD*%
D14*
%TO.C,C24*%
X116475000Y-95800000D03*
X118200000Y-95800000D03*
%TD*%
D12*
%TO.C,C32*%
X75050000Y-59350000D03*
X73150000Y-59350000D03*
%TD*%
D14*
%TO.C,C34*%
X124937500Y-88000000D03*
X126662500Y-88000000D03*
%TD*%
D32*
%TO.C,C21*%
X74600000Y-77450000D03*
X76500000Y-77450000D03*
%TD*%
D33*
%TO.C,Q1*%
X131800000Y-63187500D03*
X133700000Y-63187500D03*
X132750000Y-61312500D03*
%TD*%
D11*
%TO.C,C30*%
X110600000Y-90112500D03*
X110600000Y-88387500D03*
%TD*%
D22*
%TO.C,C2*%
X87500000Y-59950000D03*
X87500000Y-58050000D03*
%TD*%
D34*
%TO.C,U10*%
X115075000Y-91850000D03*
X113425000Y-91850000D03*
X115075000Y-90650000D03*
X113425000Y-90650000D03*
D35*
X116155000Y-88775000D03*
X114885000Y-88775000D03*
X113615000Y-88775000D03*
X112345000Y-88775000D03*
X112345000Y-93725000D03*
X113615000Y-93725000D03*
X114885000Y-93725000D03*
X116155000Y-93725000D03*
%TD*%
D36*
%TO.C,R15*%
X74690000Y-73737500D03*
X74690000Y-75562500D03*
%TD*%
D37*
%TO.C,C26*%
X114600000Y-96050000D03*
X114600000Y-97950000D03*
%TD*%
D15*
%TO.C,C31*%
X75025000Y-57550000D03*
X73300000Y-57550000D03*
%TD*%
D37*
%TO.C,C13*%
X67950000Y-77950000D03*
X67950000Y-79850000D03*
%TD*%
D14*
%TO.C,C15*%
X138387500Y-92780000D03*
X140112500Y-92780000D03*
%TD*%
D32*
%TO.C,C14*%
X66000000Y-81650000D03*
X67900000Y-81650000D03*
%TD*%
D22*
%TO.C,C9*%
X74600000Y-65050000D03*
X74600000Y-63150000D03*
%TD*%
D38*
%TO.C,R11*%
X130262500Y-68550000D03*
X128437500Y-68550000D03*
%TD*%
D12*
%TO.C,C22*%
X68050000Y-76100000D03*
X66150000Y-76100000D03*
%TD*%
D39*
%TO.C,L1*%
X66050000Y-77837500D03*
X66050000Y-79962500D03*
%TD*%
D40*
%TO.C,U1*%
X134525000Y-81355000D03*
X134525000Y-82625000D03*
X134525000Y-83895000D03*
X134525000Y-85165000D03*
X134525000Y-86435000D03*
X134525000Y-87705000D03*
X134525000Y-88975000D03*
X134525000Y-90245000D03*
X139475000Y-90245000D03*
X139475000Y-88975000D03*
X139475000Y-87705000D03*
X139475000Y-86435000D03*
X139475000Y-85165000D03*
X139475000Y-83895000D03*
X139475000Y-82625000D03*
X139475000Y-81355000D03*
%TD*%
D16*
%TO.C,R9*%
X130350000Y-75662500D03*
X130350000Y-73837500D03*
%TD*%
D41*
%TO.C,R19*%
X74625000Y-79450000D03*
X76450000Y-79450000D03*
%TD*%
D42*
%TO.C,FB2*%
X122850000Y-91000000D03*
X122850000Y-89000000D03*
%TD*%
D20*
%TO.C,R14*%
X138337500Y-96250000D03*
X140162500Y-96250000D03*
%TD*%
%TO.C,R12*%
X138337500Y-97870000D03*
X140162500Y-97870000D03*
%TD*%
D11*
%TO.C,C1*%
X89250000Y-59862500D03*
X89250000Y-58137500D03*
%TD*%
D43*
%TO.C,J8*%
X63400000Y-89500000D03*
D44*
X61750000Y-87850000D03*
D43*
X80600000Y-69000000D03*
D45*
X61750000Y-75500000D03*
D44*
X61750000Y-70650000D03*
D45*
X82250000Y-83000000D03*
D43*
X80600000Y-89500000D03*
D46*
X68250000Y-89500000D03*
X75750000Y-89500000D03*
D44*
X82250000Y-87850000D03*
D47*
X82250000Y-69000000D03*
D43*
X63400000Y-69000000D03*
D47*
X82250000Y-89500000D03*
D46*
X75750000Y-69000000D03*
D47*
X61750000Y-89500000D03*
D45*
X61750000Y-83000000D03*
D47*
X61750000Y-69000000D03*
D44*
X82250000Y-70650000D03*
D45*
X82250000Y-75500000D03*
D46*
X68250000Y-69000000D03*
%TD*%
D48*
%TO.C,Q2*%
X133700000Y-65312500D03*
X131800000Y-65312500D03*
X132750000Y-67187500D03*
%TD*%
D15*
%TO.C,C37*%
X114962500Y-69200000D03*
X113237500Y-69200000D03*
%TD*%
D38*
%TO.C,R16*%
X140162500Y-94500000D03*
X138337500Y-94500000D03*
%TD*%
D18*
%TO.C,C35*%
X103200000Y-84737500D03*
X103200000Y-86462500D03*
%TD*%
D25*
%TO.C,D2*%
X128550000Y-72187500D03*
X128550000Y-70312500D03*
%TD*%
D11*
%TO.C,C8*%
X126250000Y-62612500D03*
X126250000Y-60887500D03*
%TD*%
D31*
%TO.C,R13*%
X76700000Y-75612500D03*
X76700000Y-73787500D03*
%TD*%
D13*
%TO.C,R7*%
X124600000Y-62287500D03*
X124600000Y-64112500D03*
%TD*%
D49*
%TO.C,J6*%
X128250000Y-92765000D03*
X129050000Y-92765000D03*
D50*
X130250000Y-92765000D03*
X131250000Y-92765000D03*
X131750000Y-92765000D03*
X132750000Y-92765000D03*
D49*
X133950000Y-92765000D03*
X134750000Y-92765000D03*
X134750000Y-92765000D03*
X133950000Y-92765000D03*
D50*
X133250000Y-92765000D03*
X132250000Y-92765000D03*
X130750000Y-92765000D03*
X129750000Y-92765000D03*
D49*
X129050000Y-92765000D03*
X128250000Y-92765000D03*
%TD*%
D38*
%TO.C,R5*%
X121712500Y-60600000D03*
X119887500Y-60600000D03*
%TD*%
D37*
%TO.C,C25*%
X112600000Y-96050000D03*
X112600000Y-97950000D03*
%TD*%
D18*
%TO.C,C36*%
X104750000Y-89137500D03*
X104750000Y-90862500D03*
%TD*%
D51*
%TO.C,U7*%
X71650000Y-78237500D03*
X70755000Y-77062500D03*
X71650000Y-77062500D03*
X70755000Y-78237500D03*
D52*
X69725000Y-76450000D03*
X69725000Y-76850000D03*
X69725000Y-77250000D03*
X69725000Y-77650000D03*
X69725000Y-78050000D03*
X69725000Y-78450000D03*
X69725000Y-78850000D03*
X72675000Y-78850000D03*
X72675000Y-78450000D03*
X72675000Y-78050000D03*
X72675000Y-77650000D03*
X72675000Y-77250000D03*
X72675000Y-76850000D03*
X72675000Y-76450000D03*
%TD*%
M02*
