M48
; DRILL file {KiCad (6.0.9)} date Mon Dec 19 18:44:16 2022
; FORMAT={-:-/ absolute / metric / decimal}
; #@! TF.CreationDate,2022-12-19T18:44:16+02:00
; #@! TF.GenerationSoftware,Kicad,Pcbnew,(6.0.9)
; #@! TF.FileFunction,Plated,1,4,PTH
FMAT,2
METRIC
; #@! TA.AperFunction,Plated,PTH,ComponentDrill
T1C0.200
; #@! TA.AperFunction,Plated,PTH,ViaDrill
T2C0.250
; #@! TA.AperFunction,Plated,PTH,ComponentDrill
T3C0.300
; #@! TA.AperFunction,Plated,PTH,ComponentDrill
T4C0.600
; #@! TA.AperFunction,Plated,PTH,ComponentDrill
T5C0.800
; #@! TA.AperFunction,Plated,PTH,ComponentDrill
T6C1.000
; #@! TA.AperFunction,Plated,PTH,ComponentDrill
T7C1.500
; #@! TA.AperFunction,Plated,PTH,ComponentDrill
T8C1.700
; #@! TA.AperFunction,Plated,PTH,ComponentDrill
T9C3.200
%
G90
G05
T1
X113.05Y-90.55
X113.05Y-91.95
X114.25Y-90.55
X114.25Y-91.95
X115.45Y-90.55
X115.45Y-91.95
T2
X51.7Y-56.98
X51.7Y-59.52
X51.7Y-62.06
X51.7Y-64.6
X51.7Y-67.14
X51.7Y-69.68
X51.7Y-74.76
X51.7Y-79.84
X51.7Y-82.38
X51.7Y-84.92
X51.7Y-87.46
X51.7Y-90.0
X51.7Y-92.54
X53.8Y-68.6
X53.8Y-70.2
X54.24Y-59.52
X54.24Y-62.06
X54.24Y-64.6
X54.24Y-72.22
X54.24Y-77.3
X54.24Y-79.84
X54.24Y-82.38
X54.24Y-84.92
X54.24Y-87.46
X54.24Y-90.0
X56.2Y-68.6
X56.2Y-70.2
X56.78Y-59.52
X56.78Y-74.76
X56.78Y-79.84
X56.78Y-82.38
X56.78Y-84.92
X56.78Y-87.46
X56.78Y-90.0
X57.6Y-62.8
X59.32Y-51.9
X59.32Y-54.44
X59.32Y-56.98
X59.32Y-59.52
X59.32Y-67.14
X59.32Y-69.68
X59.32Y-72.22
X59.32Y-74.76
X59.32Y-77.3
X59.32Y-79.84
X59.32Y-82.38
X59.32Y-84.92
X59.32Y-87.46
X59.32Y-90.0
X59.32Y-92.54
X59.32Y-95.08
X59.32Y-97.62
X59.4Y-61.8
X59.6Y-64.2
X61.86Y-51.9
X61.86Y-54.44
X61.86Y-56.98
X61.86Y-64.6
X61.86Y-95.08
X61.86Y-97.62
X62.6Y-70.6
X62.8Y-83.0
X64.4Y-51.9
X64.4Y-54.44
X64.4Y-56.98
X64.4Y-62.06
X64.4Y-64.6
X64.4Y-67.14
X64.4Y-72.22
X64.4Y-85.4
X64.4Y-86.4
X64.4Y-95.08
X64.4Y-97.62
X65.4Y-76.2
X65.4Y-83.6
X66.94Y-51.9
X66.94Y-54.44
X66.94Y-56.98
X66.94Y-74.76
X66.94Y-97.62
X67.8Y-83.6
X68.2Y-70.2
X68.8Y-78.8
X68.8Y-81.6
X68.976Y-76.602
X69.0Y-79.8
X69.48Y-51.9
X69.48Y-54.44
X69.48Y-56.98
X69.48Y-59.52
X69.48Y-92.54
X69.48Y-97.62
X69.6Y-79.2
X69.6Y-88.2
X69.8Y-72.0
X70.8Y-85.6
X72.02Y-54.44
X72.02Y-97.62
X72.2Y-57.4
X72.2Y-86.4
X72.4Y-59.6
X72.8Y-72.4
X73.4Y-63.0
X74.0Y-72.2
X74.56Y-84.92
X74.56Y-87.46
X74.56Y-97.62
X74.6Y-62.2
X75.5Y-66.7
X75.6Y-76.6
X75.8Y-88.4
X76.0Y-57.6
X76.0Y-59.6
X76.8Y-60.8
X77.1Y-95.08
X77.1Y-97.62
X77.8Y-60.8
X77.953Y-69.023
X79.64Y-97.62
X80.0Y-71.2
X80.2Y-80.0
X80.4Y-77.0
X80.6Y-59.2
X81.0Y-70.2
X81.4Y-85.0
X81.4Y-90.8
X81.6Y-58.2
X81.6Y-60.4
X82.18Y-95.08
X84.72Y-95.08
X85.6Y-57.0
X87.26Y-84.92
X87.26Y-87.46
X87.6Y-57.0
X88.4Y-70.8
X88.8Y-72.0
X89.2Y-57.2
X89.4Y-63.2
X89.4Y-69.6
X89.8Y-81.0
X90.0Y-82.4
X91.0Y-57.2
X91.0Y-81.8
X91.6Y-83.6
X92.04Y-80.96
X92.2Y-58.0
X92.34Y-77.3
X92.8Y-67.0
X93.2Y-63.0
X93.2Y-82.4
X93.2Y-83.6
X93.4Y-58.6
X94.88Y-72.22
X94.9Y-76.3
X96.7Y-62.9
X97.4Y-60.0
X97.42Y-72.22
X97.42Y-74.76
X97.42Y-79.84
X97.42Y-92.54
X97.7Y-86.1
X99.96Y-59.52
X99.96Y-77.3
X101.4Y-74.2
X102.5Y-59.52
X102.5Y-72.22
X102.5Y-79.84
X102.5Y-82.38
X103.2Y-83.8
X103.2Y-91.6
X103.8Y-90.8
X104.0Y-86.6
X104.0Y-87.8
X104.8Y-64.8
X105.04Y-62.06
X105.04Y-72.22
X105.04Y-77.3
X105.04Y-79.84
X105.2Y-83.0
X105.2Y-86.6
X105.8Y-95.8
X107.0Y-91.6
X107.4Y-83.0
X107.4Y-86.6
X107.58Y-77.3
X107.8Y-69.4
X108.0Y-59.0
X108.4Y-84.8
X108.8Y-81.0
X109.2Y-89.4
X109.4Y-90.6
X110.0Y-81.8
X110.12Y-84.92
X110.12Y-97.62
X110.6Y-87.4
X111.2Y-81.0
X111.2Y-96.2
X111.4Y-63.4
X111.5Y-69.5
X111.6Y-97.4
X111.8Y-70.6
X112.15Y-59.45
X112.4Y-66.2
X112.4Y-67.8
X112.4Y-87.4
X112.6Y-60.8
X113.2Y-70.0
X113.4Y-74.2
X113.6Y-97.2
X114.2Y-63.2
X114.2Y-64.0
X115.0Y-87.4
X115.8Y-66.2
X115.8Y-97.4
X116.0Y-70.1
X116.2Y-59.0
X116.6Y-69.4
X117.0Y-66.7
X117.0Y-68.6
X117.0Y-89.0
X117.4Y-71.8
X117.74Y-82.38
X117.74Y-97.62
X118.2Y-74.8
X118.2Y-94.8
X119.9Y-73.0
X120.0Y-69.8
X120.28Y-87.46
X120.28Y-95.08
X121.2Y-74.8
X122.4Y-61.4
X122.4Y-64.8
X122.82Y-51.9
X122.82Y-82.38
X122.82Y-97.62
X123.0Y-72.6
X123.2Y-63.2
X123.2Y-66.2
X123.8Y-89.8
X123.825Y-88.025
X125.2Y-60.8
X125.36Y-51.9
X125.36Y-56.98
X125.36Y-59.52
X125.36Y-77.3
X125.36Y-79.84
X125.36Y-82.38
X125.36Y-84.92
X125.36Y-92.54
X125.36Y-95.08
X125.36Y-97.62
X125.6Y-69.6
X125.6Y-70.8
X126.0Y-68.4
X126.1Y-66.5
X126.2Y-64.0
X127.4Y-75.6
X127.6Y-88.0
X127.8Y-92.2
X127.9Y-51.9
X127.9Y-56.98
X127.9Y-59.52
X127.9Y-77.3
X128.0Y-90.0
X128.2Y-53.6
X128.266Y-95.293
X128.6Y-66.2
X129.0Y-60.8
X129.0Y-91.4
X129.6Y-74.8
X129.6Y-85.2
X130.44Y-51.9
X130.44Y-56.98
X130.44Y-59.52
X130.44Y-90.0
X131.2Y-94.0
X131.612Y-67.15
X132.2Y-94.0
X132.845Y-81.355
X132.98Y-51.9
X132.98Y-56.98
X132.98Y-69.68
X132.98Y-72.22
X132.98Y-74.76
X132.98Y-77.3
X133.9Y-91.5
X134.6Y-95.2
X135.4Y-78.0
X135.4Y-79.8
X135.4Y-92.049
X135.52Y-51.9
X135.52Y-56.98
X135.52Y-59.52
X135.52Y-69.68
X135.52Y-74.76
X136.0Y-81.4
X136.6Y-62.6
X136.6Y-64.0
X137.6Y-82.4
X138.06Y-51.9
X138.06Y-56.98
X138.06Y-69.68
X138.06Y-74.76
X140.162Y-95.362
X140.2Y-92.0
X140.2Y-98.8
X140.6Y-51.9
X140.6Y-54.44
X140.6Y-56.98
X140.6Y-59.52
X140.6Y-62.06
X140.6Y-64.6
X140.6Y-67.14
X140.6Y-69.68
X140.6Y-72.22
X140.6Y-74.76
X140.6Y-77.3
X140.6Y-79.84
X141.0Y-84.0
X141.2Y-86.2
X142.4Y-85.4
X143.14Y-51.9
X143.14Y-59.52
X143.14Y-62.06
X143.14Y-64.6
X143.14Y-67.14
X143.14Y-69.68
X143.14Y-74.76
X144.0Y-78.4
X144.0Y-79.8
X145.68Y-59.52
X145.68Y-62.06
X145.68Y-67.14
X145.68Y-69.68
X145.68Y-72.22
X145.68Y-84.92
X145.68Y-87.46
X146.0Y-78.4
X146.0Y-79.8
X148.22Y-56.98
X148.22Y-59.52
X148.22Y-62.06
X148.22Y-64.6
X148.22Y-67.14
X148.22Y-69.68
X148.22Y-74.76
X148.22Y-79.84
X148.22Y-82.38
X148.22Y-84.92
X148.22Y-92.54
T3
X55.419Y-65.019
X56.981Y-66.581
X143.019Y-81.819
X144.581Y-83.381
T5
X113.225Y-78.0
X115.765Y-75.46
X118.305Y-78.0
X120.775Y-93.275
X120.775Y-98.355
X123.315Y-95.815
T6
X68.12Y-95.4
X70.66Y-95.4
X73.2Y-95.4
X82.25Y-93.4
X84.79Y-93.4
X85.35Y-82.97
X85.35Y-85.51
X85.35Y-88.05
X87.33Y-93.4
X89.86Y-87.6
X89.87Y-93.4
X92.4Y-87.6
X92.41Y-93.4
X94.94Y-87.6
X94.95Y-93.4
X98.98Y-97.6
X99.0Y-94.0
X101.52Y-97.6
X101.54Y-94.0
X104.06Y-97.6
X104.08Y-94.0
X106.6Y-97.6
X111.6Y-84.8
X114.14Y-84.8
X116.68Y-84.8
X147.4Y-86.86
X147.4Y-89.4
T7
X55.05Y-75.0
X144.95Y-75.0
T8
X52.51Y-72.46
X52.51Y-77.54
X57.59Y-72.46
X57.59Y-77.54
X142.41Y-72.46
X142.41Y-77.54
X147.49Y-72.46
X147.49Y-77.54
T9
X55.0Y-55.0
X55.0Y-95.0
X145.0Y-55.0
X145.0Y-95.0
T4
G00X127.18Y-93.13
M15
G01X127.18Y-94.23
M16
G05
G00X127.18Y-97.56
M15
G01X127.18Y-98.16
M16
G05
G00X135.82Y-93.13
M15
G01X135.82Y-94.23
M16
G05
G00X135.82Y-97.56
M15
G01X135.82Y-98.16
M16
G05
T0
M30
